<?xml version="1.0" encoding="utf-8"?>
<!-- Generator: Adobe Illustrator 18.0.0, SVG Export Plug-In . SVG Version: 6.00 Build 0)  -->
<!DOCTYPE svg PUBLIC "-//W3C//DTD SVG 1.1//EN" "http://www.w3.org/Graphics/SVG/1.1/DTD/svg11.dtd">
<svg version="1.1" id="Layer_1" xmlns="http://www.w3.org/2000/svg" xmlns:xlink="http://www.w3.org/1999/xlink" x="0px" y="0px"
	 viewBox="0 0 284.2 276" enable-background="new 0 0 284.2 276" xml:space="preserve">
<ellipse fill="#FEFFFF" cx="142.1" cy="138" rx="142.1" ry="138"/>
<path fill="#86A0AF" d="M151.2,156c0.1,0.1,0.1,0.2,0.1,0.4c0.2-0.1,0.4-0.1,0.5-0.1v-2c-0.2,0.1-0.4,0.3-0.5,0.4
	c0.2,0.4,0.4,0.7-0.1,0.9c0,0.1,0.2,0.1,0.4,0.1C151.5,155.9,151.4,156,151.2,156"/>
<path fill="#86A0AF" d="M113.1,107.5c-0.2,0-0.2,0.4-0.5,0.3c-0.2-0.3,0.1-0.3,0.1-0.6c-0.3-0.1-0.6-0.1-0.9-0.2v1.1h1.5
	C113.2,108,113.2,107.7,113.1,107.5"/>
<path fill="#86A0AF" d="M133.6,188.5c-0.1-0.1-0.3-0.2-0.5-0.4c-0.1,0.4-0.2,0.7-0.4,1.1c0.2,0,0.4,0,0.3,0.2
	C133.2,189.3,132.9,188.6,133.6,188.5"/>
<path fill="#86A0AF" d="M196.7,160.5c0,0-1-3.7-2.3,1.2c-1.3,4.9-6.7,14.8-14,17.9c-7.3,3.1,4.2,2.8,6,2.3c1.8-0.5,1.8,1.9-3,6
	c-4.7,4-17.4,12.4-25.8,6.9c0,0-4.1-2.1-5.3-8.2c-0.1,0.1-0.1,0.1-0.2,0.2l-1,0.7c0.1-0.2,0.2-0.3,0.2-0.5l-0.8,0.4
	c0.6-0.3,0.1-1.9-0.4-1.7c0-0.7,0.2-1,0.1-1.3c0.4,0,0.4-0.5,0.9-0.5c0.1,0.4,0.2,0.4-0.1,0.6c0.1,0.2,0.2,0,0.4,0
	c0-0.2-0.1-0.4,0.2-0.5c-0.2-0.2-0.5-0.3-0.9-0.2c0.2-0.4,1.1,0,1.2,0.3c0.1,0,0.2,0,0.2,0c0-0.2,0-0.3,0-0.5c0-3-0.1-12.6-0.2-23.7
	c0,0,0,0,0,0c-0.5-0.1-0.6,0.2-0.8,0.4c-0.2-0.4-0.4-0.1-0.7-0.2c-0.1,0,0.2,0.9-0.4,0.5c0.2,0.4-0.1,0.6,0.2,0.8
	c0.1,0.3-0.8-0.5-0.6-1.1c-0.5,0,0,0.8-0.7,0.7c0.5-0.3,0.1-1.1,0-1.6c-0.3-0.1-0.3,0.2-0.3,0.3c-0.7-0.1,0.2-0.8-0.6-0.8
	c0.5-0.3,0.6-0.7,0.3-1.1h-0.7c0.4-1,0.9,0.1,1.1,0.4c0.3-0.1,0.2-0.5,0.3-0.7c0.2,0.2,0.5,0.5,0.3,0.7c0.3-0.1,0.3-0.5,0.7-0.5
	c0-0.3-0.4-0.8,0.3-0.7c0-0.4-0.8-0.6,0-0.8c0.1,0.2-0.1,0.2-0.3,0.2c1.1,0.5,0.2-0.4,0.3-0.7c0-0.2-0.5-0.1-0.4-0.4
	c-0.4,0.3-0.8,0.4-1-0.1c0.8,0.6,0.6-0.6,1.3-0.5c-0.4-0.2-0.6-0.2-0.3-0.6c-0.5-0.2-0.3,0.3-0.7,0.2c-0.5-0.7,0.1-1,0.6-1.1
	c0-0.2-0.4-0.1-0.3-0.5c0.3-0.2,0.3,0,0.6,0.1c0.3-0.5,0-1.5,0.9-1.1c-0.1-0.3-0.2-0.7,0.3-0.7c-0.1,0.4-0.4,0.4,0,0.7
	c0.1-0.1,0.1-0.3,0.4-0.2c-0.1,0.4,0.1,0.6,0.4,0.7c0-1.3,0-2.7,0-4l0,0c0,0,0-0.1,0-0.1V148c0-0.1,0-0.1-0.1-0.2l-0.6,0.7
	c0.4-0.5-0.6-1.9-1-1.4c-0.2-0.6-0.2-1-0.4-1.3c0.4-0.2,0.3-0.5,0.6-0.8c0.2,0.3,0.3,0.3,0.1,0.6c0.1,0.1,0.1-0.1,0.4-0.2
	c-0.1-0.2-0.3-0.4-0.1-0.5c-0.2-0.2-0.5-0.1-0.9,0.1c0-0.4,1-0.4,1.2-0.1c0.4-0.1,0.2-0.3,0.4-0.4c-0.1-0.1-0.2-0.2-0.3-0.2
	c0.5-0.1-0.1-0.2,0.5-0.6c0,0,0,0.1,0,0.1c-0.1-14-0.2-26.9-0.2-29.8c-0.3,0-0.3,0.4-0.7,0.4c0-0.2,0-0.2-0.1-0.2
	c0.1-0.3,0.4,0.1,0.6-0.1c0.1-0.2-0.4-0.5,0-0.6c-0.1-0.3-0.2,0.1-0.4-0.1c0.3-0.5-0.3-0.6-0.3-1.3c0.3,0.2,0.2,0,0.6,0
	c-0.1,0.1-0.1,0.2-0.3,0.2c0.2,0.2,0.5,0.1,0.6-0.2v-0.3c-0.4,0.2-0.5,0.1-1,0.2c-0.1-0.4,0.8-0.7,0.2-0.8c-0.1-0.3,0.5,0.3,0.6-0.1
	c0.2,0.1,0.2,0.2,0.3,0.3l-0.1-3.2h22V97.6H151l0-0.6c-0.3,0.2-0.6,0.5-0.8,0.6c0.2,0.5,0.4,0.7-0.1,0.9c0,0.2,0.2,0.1,0.4,0.2
	c-0.1,0.1-0.2,0.2-0.4,0.2c0.1,0.1,0.1,0.2,0.1,0.4c0.7-0.2,1.5,0.3,1.8-0.2c0.8,0.4-1.4,0.4-0.7,1.2c-0.3,0-0.3-0.2-0.6-0.1
	c-0.3,0-0.3,0.2-0.3,0.5c0.3-0.1,0.1-0.5,0.6-0.4c0.2,0.4-0.5,0.1-0.3,0.5c0.4,0.1,0.3-0.3,0.4-0.4c0.3,0,0.2,0.3,0.6,0.2
	c-0.1,0.2-0.3,0-0.4,0c0.3,0.4,0.3,0.7,0,1.1c0.4,0.1,1.1,1.1,0.3,1.2c0-0.3,0.1-0.8-0.1-0.9c-0.1,0-0.1,0.7-0.6,0.4
	c-0.3,0-0.1,0.4-0.2,0.6c-0.5,0-0.6,0.2-0.8,0.4c-0.2-0.4-0.4-0.1-0.7-0.2c-0.2,0,0.2,0.9-0.4,0.5c0.2,0.4-0.1,0.6,0.1,0.8
	c0.1,0.3-0.8-0.5-0.6-1.1c-0.5,0,0,0.9-0.7,0.7c0.5-0.3,0.1-1.1,0-1.6c-0.3-0.1-0.3,0.1-0.3,0.3c-0.7-0.1,0.2-0.8-0.6-0.8
	c0.5-0.3,0.6-0.7,0.3-1.1h-0.7c0.4-1,1,0.1,1.2,0.3c0.2-0.1,0.1-0.5,0.3-0.7c0.2,0.2,0.5,0.5,0.3,0.7c0.3-0.1,0.3-0.5,0.7-0.5
	c0-0.3-0.4-0.8,0.3-0.7c0-0.4-0.8-0.7,0-0.8c0.1,0.2-0.1,0.2-0.3,0.2c1.1,0.5,0.2-0.4,0.3-0.7c0-0.2-0.5-0.1-0.4-0.3
	c-0.3,0.3-0.8,0.4-1-0.1c0.8,0.6,0.6-0.6,1.3-0.5c-0.3-0.2-0.5-0.2-0.3-0.6c-0.5-0.2-0.3,0.3-0.7,0.2c-0.5-0.7,0.1-1,0.6-1.1
	c0-0.2-0.4-0.2-0.3-0.5c0.3-0.3,0.3,0.1,0.6,0.1c0.3-0.5,0-1.4,0.9-1.1c-0.1-0.3-0.3-0.7,0.3-0.7c-0.1,0.4-0.4,0.4,0,0.7
	c0.1-0.1,0.1-0.3,0.4-0.2c-0.1,0.5,0.1,0.7,0.6,0.7v-3.7c8-3.2,13.6-11,13.6-20.2c0-12-9.7-21.7-21.8-21.7c-12,0-21.8,9.7-21.8,21.7
	c0,0.7,0,1.4,0.1,2h0.4c-0.2,0.5,0.2,0.2,0,0.8c0.3,0,0.3-0.3,0.3-0.6c0.5,0,0.7,0.4,0.3,0.6c0,0.2,0.6-0.1,0.6,0.4
	c-0.3-0.3-0.5,0.1-0.7,0.2c0.1,0.1,0.4,0,0.7,0.2c-0.3,0.2,0,0.3,0,0.6c-0.1,0-0.1,0.1-0.3,0.1c-0.2,0.3-0.1-0.2,0.1-0.1
	c0.1-0.3-0.4-0.2-0.3-0.6c-0.3,0-0.9,0.2-0.6,0.3c-0.1,0.1-0.1,0.1-0.2,0.1c1.5,7.4,6.6,13.4,13.4,16.1v0.7c0.1,0.1,0.1,0.1,0.3,0.2
	c0-0.4,0.7-0.1,0.8-0.4c0.2,0.1,0.3,0.2,0.3,0.5c-0.6-0.3-0.8-0.1-1.3,0.1c0,0.2,0.4,0.2,0.3,0.5c0.3,0,0.2-0.3,0.6-0.3
	c-0.1-0.1-0.1-0.2,0.1-0.2c-0.3,0.7-0.3,0.8,0.2,1.1c-0.1,0-0.1,0.1-0.4,0.1c0.1-0.5-0.4-0.7-0.8-1v2.4l-0.1,2.4h-22.9v8
	c0.2-0.1,0.2-0.4,0.2-0.8c0.5,0.5,1-0.1,1.5,0.4c0.1-0.5-0.4-0.3-0.3-0.7c-0.4,0.3-0.3-0.1-0.7-0.1c0.5-0.5,1.5,0.7,1.9,1.4
	c0.4-0.2,0.7-0.4,1,0.1c0.1,0,0.1-0.2,0.1-0.4c0.1,0.1,0.2,0.2,0.2,0.4c0.1-0.1,0.2-0.2,0.4-0.2c-0.2-0.7,0.2-1.5-0.3-1.9
	c0.4-0.8,0.5,1.5,1.2,0.7c0,0.3-0.1,0.3-0.1,0.6c0,0.2,0.2,0.3,0.5,0.3c-0.1-0.3-0.5-0.1-0.4-0.6c0.4-0.2,0.1,0.5,0.5,0.3
	c0.1-0.4-0.2-0.3-0.4-0.4c0-0.3,0.3-0.2,0.2-0.6c0.2,0.1,0,0.3,0,0.4c0.4-0.3,0.6-0.3,1,0c0.1-0.4,1.1-1.2,1.2-0.3
	c-0.3,0-0.8-0.1-0.9,0.2c0.1,0.1,0.7,0,0.4,0.6c0,0.3,0.4,0.1,0.6,0.1c-0.1,0.5,0.2,0.6,0.4,0.9c-0.4,0.2,0,0.4-0.2,0.7
	c0,0.2,0.9-0.2,0.5,0.4c0.4-0.2,0.6,0,0.8-0.2c0.3-0.1-0.5,0.8-1.1,0.6c0,0.5,0.8,0,0.8,0.7h13.6l-0.2,5.3c0,0-0.1,10.7-0.2,23.8
	h0.2c-0.2-0.5,0.2-0.6,0.6-0.7c-0.6-0.3-0.3-0.6-0.4-1.1c0.4,0,0.6-0.1,0.7-0.2c0-0.2-0.4-0.1-0.6-0.1c-0.2-0.4,0.5-0.1,0.4-0.4
	c0.2,0.2,0.6,0.4,1,0.5c0,0.1-0.2,0.1-0.2,0c-0.3,0.2,0,0.8-0.6,0.8c0.3,0.1,0.7,0.3,0.3,0.6c0,0.3,0.5,0.2,0.7,0.4
	c-0.1,0.1-0.4,0.7-0.1,0.7c-0.1,0.2-0.3,0-0.4,0v0.2c0.1,0.4,0.4-0.2,0.6,0.1c-0.2,0.3-0.3,0.2-0.7,0.1c0.1,0.1,0.4,0.2,0.1,0.2
	c0.1,0.2,0.2,0,0.6,0.1c-0.4,0.3-0.2,0.5,0.3,0.6c-0.3,0.2-0.4,0.4-0.9,0.5c-0.6-0.2-0.7-0.8-1.4-0.8c-0.1-0.3,0.3-0.2,0.3-0.5
	c-0.3-0.1-0.4,0-0.5,0.1c0,3.8-0.1,7.9-0.1,11.9c0.6-0.5,1.5-0.8,0.5-1.5c0.5-0.7,1.7,2.1,2.2-0.5c0.9-0.7-0.3,3-2.7,2.8
	c-0.1,14.7-0.2,28.9-0.3,32.6c0,1.7-0.2,3.1-0.6,4.3c0.2,0.1,0.4,0.3,0.7,0.2c-0.2,0.2,0,0.7-0.5,0.6c0.5,0.5-0.1,1.2,0.5,1.5
	c-0.4,0.3-1.1-0.1-0.7-0.5c0-0.1-0.3-0.1-0.3-0.2c-0.4,0.2,0.2,0.6-0.1,0.7c-0.1-0.1-0.3-0.2-0.4-0.2c-0.6,1.3-1.4,2.3-2.1,3
	c0.1,0,0.3,0.1,0.3,0.2c0.4-0.3,0.7-0.5,0.7-0.8c0.2,0.4,0.5,0.7,1,0.9c-0.1,0.2-0.5,0.4,0,0.5c-0.3,0.2-0.5-0.6-0.9-0.7
	c-0.4-0.1-0.3,0.2-0.6,0.2c0.3,0,0.9,0.4,1,0.9c-0.3,0-0.3-0.4-0.7-0.3c-0.1,0-0.1,0.1-0.3,0.1c0.2,0.1,0.2,0.4,0.4,0.5
	c0,0.2-0.6,0-0.4-0.3c-0.3,0.1,0,0.6,0.4,0.5c0,0.1-0.1,0.1-0.1,0.1v0.2c-0.3,0-0.3-0.3-0.6-0.4c0.2,0.3,0.4,0.4,0.1,0.8
	c-0.6-0.3-0.5,0.1-0.6,0.3c-0.1-0.1-0.8-0.5-0.8,0c-0.4-0.4-0.2-0.4-1-0.1c0.1-0.3,0.8-0.5,0-0.6c0.2-0.1,0.5-0.1,0.9,0
	c0.2-0.5-0.4-0.3-0.7-0.5c0.1-0.4,0.3-0.1,0.7-0.1c-0.1-0.2-0.2-0.3-0.3-0.4c-0.4,0.3-0.7,0.5-0.7,0.5c-8.4,5.5-21.1-2.8-25.8-6.9
	c-4.7-4.1-4.7-6.5-3-6c1.8,0.5,13.3,0.8,6-2.3c-7.3-3-12.8-12.9-14-17.9c-1.2-4.9-2.3-1.2-2.3-1.2c-3.5,8.4-3.2,18.5-0.8,26.7
	c2.4,8.3,3.7,3.7,4.5,1.4c0.8-2.3,1.6-1.5,1.6-1.5c2.3,8.4,16.5,21.3,28.6,26c12.2,4.7,19.9,15.1,19.9,15.1s7.7-10.4,19.9-15.1
	c12.1-4.7,26.3-17.6,28.7-26c0,0,0.7-0.7,1.5,1.5c0.9,2.3,2.2,6.9,4.6-1.4C199.9,179,200.2,169,196.7,160.5 M162,99.3
	c0.4,0,0.1,0.5,0.6,0.4c-0.1,0.2,0,0.4,0.3,0.3c-0.3,0.2-0.5,0.3-0.9,0.4c-0.1-0.4,0.2-0.6,0.4-0.4C162.5,99.6,162,99.8,162,99.3
	 M88.8,173.9c-0.3,0-0.3-0.4-0.1-0.6C89,173.3,88.9,173.8,88.8,173.9 M91.2,181c-0.5-0.3-0.3-0.6-0.4-1c0.4,0,0.6-0.1,0.7-0.2
	c0-0.2-0.3-0.1-0.6-0.1c-0.2-0.4,0.5-0.1,0.4-0.4c0.2,0.2,0.6,0.4,1,0.5c0,0.1-0.2,0-0.2,0c-0.3,0.2,0,0.8-0.6,0.8
	c0.3,0.1,0.7,0.3,0.3,0.6c0,0.3,0.5,0.2,0.7,0.3c-0.1,0.2-0.4,0.7-0.1,0.7c-0.1,0.2-0.3,0-0.4,0v0.2c0.1,0.3,0.4-0.2,0.6,0.1
	c-0.2,0.3-0.3,0.2-0.7,0.1c0.1,0.1,0.4,0.2,0.1,0.2c0.1,0.2,0.2,0,0.6,0.1c-0.4,0.3-0.2,0.4,0.3,0.6c-0.3,0.1-0.4,0.4-0.9,0.5
	c-0.6-0.2-0.7-0.8-1.4-0.8c-0.1-0.3,0.3-0.2,0.3-0.5c-0.4-0.1-0.4,0.2-0.7,0.1c0-0.2-0.1-0.2-0.1-0.1c-0.4-0.3,0.3-0.5,0-1.1h0.6
	C90.4,181.2,90.8,181.1,91.2,181 M89.5,176.8c-0.2-0.2,0.4-1.3,1-0.9C89.8,176,89.8,176.5,89.5,176.8 M90.7,187.5
	c-0.2,0.1-0.6-0.3-0.7,0c-0.5-0.5,0.6-0.5,0.8-0.4C90.8,187.2,90.7,187.3,90.7,187.5 M91.5,185.4c0.4-0.2-0.3-0.6,0-0.8
	c-0.2,0-0.4,0.1-0.4,0.2c-0.3-0.1,0.1-0.5,0.3-0.7c0.1,0.3,0.3,0.6,0.6,0.7c-0.1-0.2,0.2,0.1-0.1,0.5c0.5-0.2,0.7-0.2,1.2,0.2
	C92.3,185.4,92.2,185.5,91.5,185.4 M94.2,185.3c-0.2,0-0.2-0.1-0.2-0.2c-0.2-0.1-0.2,0.5,0,0.5c0,0.3-0.4-0.2-0.7,0
	c-0.1,0.3,0.3,0.2,0.4,0.4c0,0.1-0.4,0.1-0.6,0.1c0.1-0.6,0.1-1.1-0.6-1.1c0-0.1,0-0.1,0.1-0.1c0.1,0,0.1-0.1,0.2-0.1
	c0.1,0.1,0.2,0.2,0.3,0.4c0.4-0.2,0.6-0.6,1.3-0.2C94.1,185,94.1,184.9,94.2,185.3 M135.6,129.3c-0.4,0-0.4-0.4-0.2-0.6
	C135.8,128.7,135.8,129.2,135.6,129.3 M135.5,109.8c0-0.1,0-0.2-0.1-0.2c0.1-0.3,0.4,0.2,0.6-0.1c0.1-0.2-0.4-0.5,0-0.6
	c-0.1-0.2-0.2,0.2-0.4-0.1c0.3-0.5-0.3-0.6-0.3-1.3c0.3,0.2,0.2,0,0.6,0c-0.1,0.1-0.1,0.2-0.3,0.2c0.3,0.3,0.8-0.2,0.7-0.6
	c-0.4,0.3-0.6,0.1-1.1,0.3c-0.1-0.4,0.8-0.7,0.1-0.8c-0.1-0.4,0.5,0.3,0.6-0.1c0.4,0.2,0.3,0.8,0.9,0.8c-0.1,0.5,0.3,0.5-0.1,0.7
	c0.1,0.1,0.6,0,0.6,0.5c-0.4-0.5-0.7,0.1-0.4,0.4c0.2,0.1-0.5-0.2-0.7,0.2c0.1,0.2,0.3,0,0.3-0.1c0.3,0-0.2,0.3,0,0.6
	C135.8,109.5,135.9,109.8,135.5,109.8 M136.3,132.3c-0.2-0.2,0.4-1.3,1-0.9C136.7,131.4,136.6,131.9,136.3,132.3 M137.6,142.9
	c-0.2,0.1-0.6-0.3-0.7,0c-0.5-0.5,0.6-0.5,0.9-0.4C137.7,142.6,137.6,142.7,137.6,142.9 M138.3,140.8c0.4-0.2-0.3-0.6,0-0.8
	c-0.3,0-0.4,0.1-0.4,0.2c-0.3-0.1,0.1-0.5,0.3-0.7c0.1,0.3,0.3,0.6,0.6,0.7c-0.1-0.2,0.2,0.1-0.1,0.5c0.5-0.2,0.7-0.2,1.1,0.2
	C139.1,140.8,139.1,140.9,138.3,140.8 M141,140.7c-0.2,0-0.3-0.1-0.3-0.2c-0.2-0.1-0.2,0.6,0,0.5c0,0.2-0.4-0.2-0.7,0
	c-0.1,0.3,0.3,0.2,0.4,0.4c-0.1,0.2-0.4,0.1-0.6,0.1c0-0.6,0-1.1-0.6-1.1c0-0.1,0-0.1,0.1-0.1c0.1,0,0.1-0.1,0.1-0.1
	c0.1,0.1,0.2,0.2,0.3,0.3c0.4-0.2,0.5-0.6,1.3-0.2C140.9,140.4,140.9,140.3,141,140.7 M136.2,70.8l-0.8,10.4c0.1,0,0.2-0.1,0.4-0.1
	c0,0.1-0.2,0.1-0.3,0.1c0,0.3,0.4,0.3,0.4,0c0.3,0,0.1,0.5,0,0.6c0,0.1,0.2,0.1,0.3,0.1c0.3-0.1-0.1-0.9,0.6-0.7
	c-0.1,0.4-0.1,0.8-0.3,1.3c-0.3,0-0.3-0.2-0.7-0.1v-0.6c-0.4,0.1-0.2,0.2-0.2,0.5c-0.1,0-0.2-0.1-0.3-0.2l-0.3,3.5
	c-5.1-2.8-8.6-8.2-8.6-14.4c0-3.6,1.2-7,3.2-9.7l-0.5,0.1c0.4,0,0.5-0.2,0.6-0.4l-0.9,0c0.6,0,0.9-1.7,0.3-1.7
	c0.3-0.6,0.5-0.8,0.7-1.1c0.4,0.2,0.5-0.2,1-0.1c0,0.4,0,0.5-0.4,0.5c0,0.2,0.2,0.1,0.4,0.2c0.1-0.2,0.1-0.4,0.3-0.4
	c0-0.2-0.3-0.4-0.7-0.6c0.3-0.3,1,0.4,0.9,0.8c0.3,0.2,0.4-0.1,0.6,0c-0.1-0.1,0-0.3-0.1-0.4c0.4,0.3,0.1-0.1,0.8-0.1c0,0,0,0,0,0
	c2.8-2.2,6.4-3.6,10.3-3.6c8.4,0,15.3,6.3,16.3,14.4c0.6,0.2,0.8,0.4,1.2,0.5c-0.1,0.4,0.3,0.5,0.2,1c-0.4,0-0.5,0.1-0.5-0.3
	c-0.2,0,0,0.2-0.1,0.4c0.2,0.1,0.5,0.1,0.4,0.3c0.2-0.1,0.4-0.4,0.5-0.8c0.4,0.3-0.3,1-0.7,1c-0.2,0.4,0.2,0.4,0.1,0.6
	c0.1-0.1,0.3,0,0.4-0.1c-0.2,0.4,0.2,0.1,0.2,0.7c-0.2-0.1-0.4,0-0.5,0c0,0.2,0.3,0.3,0.5,0.4c-0.1,0.3-0.3,0.4-0.4,0.6
	c-0.1-0.1,0-0.2,0-0.1c0.1-0.3-0.2-0.3-0.2-0.5c-0.3,0.5-0.6-0.3-0.8,0.2c-0.4-0.4,0.5-0.6,0.1-1.2c-0.1,0-0.1,0-0.2,0
	c-0.2,6-3.7,11.2-8.8,13.8l-1.6-15H136.2z M146.3,72.2c-0.5,0.1-0.6-0.1-0.9-0.2c0.7,0,0-0.4,0.9-0.5c-0.3-0.4-0.5,0.3-1,0.1
	c0,0.2-0.2,0.6,0.3,0.5c-0.1,0.3-0.5-0.1-0.7-0.1c0.1-0.2,0.9-0.6,0.6-0.8c0.8-0.3,1,0.1,2,0c0.2,0,0.1,0.2,0.3,0.2
	c-0.1,0.1-0.7,0.1-1.3,0.1c-0.1,0.3,0.6,0.1,0.4,0.5c-0.5,0.1-0.4-0.2-0.6-0.2C145.9,71.8,146.5,72,146.3,72.2 M192.2,183.7
	c-0.4-0.1-0.3,0.2-0.4,0.4c0.5,0.1-0.2,0.7,0.4,0.7c-0.3,0.5-0.7-0.3-1.1,0.3c0.2,0.4,0,0.5-0.6,0.5c0,0.4,0.4,0.3,0.1,0.7
	c-0.3,0-0.3-0.2-0.6-0.1v0.2c0.5,0,0,0.3,0.4,0.6c0.2,0,0.1-0.3,0.1-0.4c0.5,0.2,0.1,0.4-0.1,0.7l-1,0.7c0.1-0.1,0.2-0.3,0.2-0.5
	l-0.8,0.4c0.6-0.3,0.1-1.9-0.4-1.6c0-0.7,0.2-1,0.1-1.3c0.5,0,0.4-0.4,0.9-0.5c0.1,0.3,0.2,0.4-0.1,0.6c0.1,0.2,0.2,0,0.4,0
	c0-0.2-0.1-0.4,0.1-0.5c-0.1-0.2-0.4-0.2-0.9-0.2c0.1-0.4,1.1,0,1.1,0.4c0.4,0.1,0.3-0.2,0.6-0.2c-0.1-0.1-0.1-0.3-0.2-0.4
	c0.5,0.1,0-0.2,0.6-0.4c-0.1,0.2,0.1,0.3,0.1,0.5c0.2-0.1,0.2-0.4,0.3-0.6c0.4,0,0.4,0.2,0.7,0.2
	C192.3,183.8,192.2,183.8,192.2,183.7"/>
<path fill="#86A0AF" d="M7.1,170.7c0-0.3,0-0.6,0-1c-0.6,0.1-1,0.1-1.3-0.2c-0.5,0.1,0.1,0.3,0,0.5c-0.2-0.1-0.4-0.2-0.6-0.3
	c0.8-1.5,0.6,0,1.1-0.8c-0.6-0.8,0-0.9-0.7-1.7c0.2,0.1,0.4,0.2,0.5,0.4c0.3,0-0.1-0.3,0.1-0.5c-0.1,0.1-0.2,0.1-0.2,0
	c0-0.5,0.1-0.1,0.4-0.1c-0.2-0.3-0.4-0.7-0.8-0.8c0.1-0.2,0.6-0.3,0.7,0c0.3,0,0.1-0.4,0.3-0.5c0-0.2-0.3-0.1-0.3,0
	c-0.3-0.4,0.6-0.1,0.9-0.3c-0.4-0.3,0.3-0.2,0.4-0.5c0.5,0.1-0.2,0.4-0.2,0.5c0.6-0.3,1.4-0.6,1.7-1.2c0.2,0.1,0.4,0.2,0.5,0.4
	c0.2-0.1-0.1-0.2,0-0.4c0-0.2-0.3-0.1-0.5-0.1c0.2-0.4,0.3-0.4,0.1-0.9c0.2,0,0.3,0.2,0.5,0.2c0.2-0.1-0.1-0.5,0.2-0.8
	c0.3,0.5,0.8,0.2,1.2,0.7c0.2-0.1-0.6-1.5-1.1-0.9c-0.4-0.8,1,0.1,1.3-0.3c0.5,0.1-0.2,0.3,0,0.5c0.2,0,0.2-0.2,0.5-0.2
	c-0.1-0.8-1.7-0.2-1.1-0.9c0.2,0.4,0.7-0.1,0.8,0.5c0.1-0.1,0.3-0.1,0.3-0.3c-0.6-0.1,0.6-1.2-0.5-1.5c0.3-0.4,0.1-0.6,0.5-0.8
	c-0.4,0-0.8,0.1-0.6,0.6c-1-0.4,0.6-0.9,0.4-1.6c-1.1-0.1-0.7,1.1-1.4,1.3c-2.5-0.1-1.4-1.4-2.8-2c0.1-0.5,0.8-0.6,0.7-1.3
	c0.4,0,0.3,0.5,0.4,0.8c0.6-0.4,1.6-0.6,2.1-1c-0.1-0.3-0.9-0.2-1.4-0.2c0.9-0.5,1.4-1.2,2.8-1.3v-0.1c-0.7-0.3-0.2-0.5-0.6-0.7
	c0.1-0.1,0.3-0.2,0.4-0.4c-0.3-2.3-0.5-4.6-0.6-7c-0.1,0.1-0.3,0.2-0.5,0.2c0.3,1.1,0.3,1.2,0,2.3c-0.5-0.3-0.6-0.8-1-1.2
	c0.1,0.1,0.2,0.2,0.2,0.4c-0.5-0.5-0.7,0.2-1.3,0.2c0,0.2,0,0.4,0.1,0.4c-0.1,0.2-0.2-0.1-0.3,0.1c-0.1-0.1-0.3-0.8,0.1-0.8
	c-0.1-0.1-0.4-0.2-0.3-0.2c0,0-0.1,0-0.1-0.1c-0.1,0.1-0.1,0.1-0.1,0.2c-0.2-0.2-0.6-0.3-0.4-0.5c-0.1-0.1-0.2-0.1-0.3-0.2
	c-0.1,0.2-0.1,0.5,0.3,0.5c-1.1,0.3-1.6-0.9-1.3-1.6c-0.8,0.3-0.2,0.9-0.7,1.4c-0.5-0.2-0.2-1,0-1.5c-0.4,0.2-0.7,0.3-0.5-0.2
	c-0.1,0.1-0.3,0.1-0.3,0.3c-0.4-0.1,0.3-0.7,0.6-0.4c-0.3-0.4-0.2-0.4,0.4-0.2c-0.1-0.2-0.3-0.3-0.6-0.3c0-0.5,0.2-1.2,0.3-1.4
	c0.1-0.1,0.7-0.1,0.9-0.5c0.3,0.2,0.2,0.7,0.8,0.7c0.1-0.4-0.3-0.2-0.5-0.4c0.5-0.2,0-0.3,0.3-0.7c0.4,0.4,0.1,0.5,0.5,0.9
	c0-0.4,0.1-1,0.8-1.3c-0.1-0.4-0.3,0.1-0.6,0c0.1-0.6,1.1-1.2,1.1-1.4c0.1-0.3,0.4,0.2,0.6,0.1c0.5-0.2-0.5-0.3-0.3-0.7
	c0.4,0.3,0.3-0.2,0.8-0.1c0-0.2,0-0.4-0.2-0.4c0.3-0.1,0.6-0.4,0.9-0.3c-0.1-0.2-0.1-0.2,0-0.3v-0.9c-0.1-0.1-0.2-0.3-0.2-0.5
	c0.2,0,0.1-0.2,0.2-0.3c0,0,0,0,0.1,0v-0.3c0-4.3,0.3-8.6,0.7-12.7c-0.5,0-0.9-0.1-1.2-0.3c0.4-0.7,0.5-1.4-1.1-1.3
	c1-0.8,1-0.5,0.4-1.5c1.9,0,1.6,0.8,2.2,0.4c0.3-2.5,0.7-5,1.1-7.5c0,0-0.1,0-0.1,0c0.1-0.1,0.3-0.4,0-0.4c0.1-0.1,0.1-0.1,0.2,0
	c0.1-0.4,0.1-0.7,0.2-1c-0.1-0.4,0.1-0.8,0.2-1.5h0.1c0.1-0.3,0.1-0.6,0.2-0.9c0-0.1-0.1-0.1-0.1-0.3h0.1l0-0.1h0h0
	c0-0.2,0.1-0.3,0.1-0.4c-0.3,0-0.2,0.2-0.4,0.4c0-0.1-0.2-1.3,0-1.9c0.1,0.3,0.6,0.3,0.7,0.1c0.3-1,0.5-2,0.8-3.1c0,0-0.1,0-0.2,0
	c0-0.1,0.1-0.1,0.3-0.1c0-0.1,0.1-0.2,0.1-0.3c-0.2-0.1-0.4-0.2-0.5-0.4c0.2-0.2,0.4-0.1,0.6,0.1c0-0.1,0.1-0.2,0.1-0.3
	c0,0,0,0-0.1,0c0,0,0.1,0,0.1,0c1.3-4.6,2.7-9.1,4.5-13.5c0-0.1-0.1-0.1-0.4-0.1c0.1-0.3,0.3-0.2,0.5-0.1c2.4-6,5.2-11.8,8.5-17.3
	c-0.2,0-0.4,0-0.6,0c0.1,0.3-0.6,0.1-0.5,0.8c-0.5,0.1-0.2-0.5-0.8-0.3c0.3-0.5,0.1-0.8-0.2-1.4c-0.2,0.1-0.4,0.2-0.6,0.2
	c0,0.2,0.5,0.1,0.6,0.2c-0.1,0.4-0.4-0.2-0.8,0c0-0.2,0.2-0.2,0.2-0.5c-0.7-0.1-0.3,0.6-1,0.5c0.3,0.4,0.4,0.2,1,0.1
	c0.1,0.4-0.4,0.3-0.6,0.2c0.6,0.4,1.1,0.6,1.7,0.7c-0.3,0.2,0.2,0.5-0.5,0.5c0-0.3-0.1-0.2-0.3,0c0.4-0.1,0.3,0.3,0.6,0.3
	c0.1,0.3-0.4,0.1-0.5,0.4c0.9,0.2-0.3,0.5,0.2,1c-0.1,0-0.2-0.1-0.3-0.1c0,0.2,0,0.4,0.3,0.4c-0.1,0.1-0.2,0.2-0.2,0.4
	c-0.3,0.1-0.4-0.1-0.6-0.1c0,0.3,0.3,0.4,0.2,0.8c-0.1-0.2-0.3,0-0.4,0.2c0,0.2,0,0.5,0,0.7h-0.1v0.1c-0.5,0.1-0.4-0.3-0.5-0.4
	c0,0-0.1,0-0.1-0.1c0,0,0,0,0,0c0,0.1,0,0.2-0.1,0.3c0,0,0,0,0.1,0c-0.1,0.4-0.2,0.2-0.3,0.1c-0.1,0-0.2,0.1-0.3,0.1
	C24,79,24.3,79,24,79.3h0.3c-0.3,0.3-0.4,0-0.8,0.1l0,0c0,0,0,0,0,0v0c-0.2,0-0.4-0.6-0.8-0.6c0.7-0.7-0.4-1.4-0.3-2.4
	c0.4,0,0.2,0.5,0.6,0.5c0.2-0.2-0.1-0.7,0.1-1.2c0.3,0.4,0.4,0.3,1.1-0.1c0.1-0.5-0.7-0.2-0.5-0.8c0.4,0.2,0.8,0.3,1,0.6
	c0.4-0.1-0.4-0.2-0.2-0.6c-0.2,0.2-0.6,0.1-0.6-0.3c-0.4,0.2-0.8,0-0.9,0.1c-0.3,0,0-0.4,0.1-0.4c-0.1-0.2-0.4-0.3-0.6-0.4
	c-0.2,0-0.1,0.3-0.2,0.5c0.1-0.1,0.2-0.1,0.5-0.1c-0.2,0.5-0.8,0-0.8,0.8c-0.5,0-0.6-0.4-0.8-0.8c0.8,0.3,0.3-0.6,0-0.8
	c0.9,0.2,0.8-0.3,0.9-0.7c0.5,0,0.9-0.2,1-0.5c0.2,0.1,0.3,0.2,0.5,0.3c0.3,0,0.4-0.1,0.5-0.3c-0.1-0.2-0.4-0.1-0.6-0.1
	c0.4-0.7,0.9,0.4,1.3,0.7c0.2-0.1,0.2-0.5,0.5-0.5c-0.6-0.5-0.4,0.1-0.8,0.1c0.2-0.3,0.1-0.6-0.3-0.8c0-0.2,0.6,0.1,0.8,0.3
	c0.3-0.1,0.3-0.4,0.5-0.5c0.1,0.1,0.6,0,0.5,0.4c-0.7-0.2-0.5,0.5-0.3,0.6c0.4-0.1-0.3-0.3,0.1-0.5c1,0.4,1.1,1.2,1.1,1.8
	c0.5-0.2,1-0.5,1.6-0.7c-0.1-0.1-0.3-0.1-0.3-0.2c0.1,0.4-0.4,0-0.8,0.2c-0.2-0.1-0.2-0.4-0.3-0.6c0.2,0.1,0.3,0.2,0.3,0.4
	c0.1-0.1,0.4-0.1,0.5-0.2c0-0.3-0.4,0.2-0.6-0.2c0.5-0.1,1-0.3,0.9-0.9c0.4,0,0.4,0.2,0.8,0.1c-0.2,0.2-0.6,0.3-0.8,0.1
	c0.2,0.4,0,0.5,0.2,0.8c0.1-0.1,0.1-0.6,0.8-0.5c-0.1,0.2-0.2,0.2-0.5,0.2c0.1,0.2,0.1,0.2,0.3,0.2c4.4-7.3,9.5-14.1,15.2-20.4
	c-0.4,0-0.7,0.1-0.6,0.4c-0.7-0.5-0.3-0.8,0.1-1.2c0.2,0.4,0.1,0.5,0.5,0.7c0.2-0.2,0.4-0.4,0.5-0.6c-0.4-0.1-0.1,0.4-0.6,0.3
	c0-0.3,0.4-0.2,0.3-0.5c0.1,0.1,0.3,0.1,0.4,0.1c0,0,0-0.1,0.1-0.1v-0.2c0,0.1,0,0.1,0.1,0.1c0.1-0.2,0.3-0.3,0.4-0.5c0,0,0,0,0,0
	l0,0c0.7-0.7,1.5-1.5,2.2-2.2c-0.3,0.1-0.6,0.2-0.8,0.4c-0.5-0.1-0.3-0.1-0.8,0c-0.1-0.2-0.3-0.5-0.3-0.8c-0.6,0.2,0,0.2,0,0.7
	c-0.1-0.1-0.4-0.2-0.6-0.2c-0.2-0.4,0.1-0.4,0-0.9c0.5,0.1,0.2,0.2,0.2,0.5c1-0.5,0.6-1.2,1.7-1.9c0-0.1-0.2-0.1-0.3-0.1
	c0.4-0.2,0.3-0.3,0.2-0.7c0.4-0.1,0.2,0.2,0.5,0.2c0.1,0,0.1-0.1,0.1-0.2c-0.3-0.1-1.1-0.4-1.4-0.7c0.2-0.3,0.7,0.3,1.1,0.3
	c0.4-0.1-0.4-0.3-0.1-0.7c0.3,0.1,0.7,0.2,0.9,0.4c0,0.1-0.3,0.1-0.3,0.3c0.1,0.3,0.5-0.4,0.8,0c-0.2,0.2-0.6,0.2-0.8,0.4
	c0.1,0.1,0.1,0.3,0.1,0.5c0.2,0.2,0.6,0.2,0.8,0.4c0.1-0.5-0.7-0.3-0.5-0.9c0.4,0.5,1.5,1.5,0.3,1.8c0.1,0.2,0.2,0.2,0.3,0.1
	c0.5-0.5,1.1-1.1,1.6-1.6c-0.4,0-0.9,0-1.3,0.2c0.1-0.4-0.2-0.4-0.2-0.7c0.6,0.1,1.3-0.8,1.2-0.1c0.5-0.1,0.4-0.6,0.8-0.7
	c-0.5,0.7,1.4,0.1-0.1-0.3c0.1-0.1,0.2-0.2,0-0.3c0-0.1,0.3-0.1,0.3-0.3c0.4,0.1-0.3,0.5,0.1,0.7c0.1-0.1,0.3-0.1,0.3-0.2
	c-0.4-0.3,0.6,0.2-0.2,0.2c0.1,0.1,0.2,0.1,0.3,0c0.2-0.1,0.3-0.3,0.5-0.4c0.1-0.1,0.2-0.4,0.2-0.7c-0.3,0-0.3,0.4-0.4,0.5
	c-0.4,0.1-0.3-0.3-0.7-0.3c0.2-0.1,0.9,0.1,0.5-0.5c0.4,0.1,0.7,0.2,1,0.4c0.4-0.4,0.7-0.6,1-1c-0.1-0.1-0.2-0.1-0.3,0
	c-0.3-0.2,0.5-0.6,0.8-0.7C54,42.2,54,42.3,54,42.4c0.1-0.1,0.2-0.2,0.4-0.3c0.1-0.1,0.1-0.1,0.2-0.1c1.1-1,2.2-1.9,3.4-2.9h-0.3
	c0.1-0.1,0.1-0.2,0.1-0.3c-0.3,0-0.3-0.1-0.3-0.3c-0.2,0-0.1,0.2-0.2,0.3c-0.2-0.1-0.2-0.2-0.5-0.3c0-0.4,0.8-0.1,0.8-0.5
	c0.3,0.2,0,0.3,0.2,0.8c0-0.1,0-0.1,0-0.2c0.3,0,0.7,0,0.6-0.4c0.2,0.1,0.3,0.1,0.4,0.2c8-6.5,16.9-12,26.4-16.4
	c0-0.4-0.2-0.8-1-0.9c0.3-0.4,0.4-0.7,0.4-1c-0.3-0.1-0.5-0.4-0.9-0.5c0.1-0.4,0.4,0.1,0.6,0.1c-0.5-0.5,0-0.3,0.6-0.5
	c-0.1-0.2-0.4-0.2-0.3-0.4c-0.3,0-0.2,0.4-0.6,0.2c0-0.1-0.1-0.2-0.2-0.2c0.3-0.2,1-0.1,1.3,0.2c-0.1,0.2-0.4,0.4-0.2,0.5
	c0.2-0.1,0.5-0.3,1-0.4c0.2,0.5-0.3,0.5-0.8,0.5c-0.1,0-0.1,0-0.1,0.1c1.4,0.7,2.6-1.3,1.3-1.9c1-0.1,0.8,0.8,1.7,0.8
	c-1.6,0.9,0.4,1.4-1.7,1.5c-0.3,1.2,1.2-0.2,1.1,0.5c0.4-0.2,0.3-1.5,1.8-1.6c-0.2,0.2-0.3,0.7-0.4,1.1c6.1-2.7,12.5-4.9,19-6.6
	c-0.1-0.2-0.1-0.8,0-1.3c0.1,0.3,0.2,0.9,0,1.3c10.9-2.9,22.2-4.4,34-4.4c3.3,0,6.6,0.1,9.8,0.4c-0.7-1.6,0.2-3.1-0.7-4.6
	c0.9,0.1,1.1-0.4,1.1-1c0.8,0.6,1.6,0,2.1-0.3c-0.3-0.7-1.1-0.9-2.5-0.8c-0.1-0.4,0.3-0.5,0.3-0.2c0.5-0.3,0.1-0.5,0-1.3
	c0.5,0.1,0.9,0.4,1.4,0.5c-0.3,0.5-1.1,0.2-0.4,0.8c1.5-0.3,1.9-0.3,2.5,0.5c0.6-0.8-1.9-1.5-1.7-2.8c1.2,0,0.1,0.4,0.7,1
	c0.9-0.7,0.5,0.5,1.4,0.5c-0.2-0.4-0.7-0.9-0.7-1.4c-1.4-0.1-2.8-0.2-4.3-0.3c-0.1,0.1-0.2,0.2-0.2,0.4c0,0.1,0,0.2-0.1,0.4
	c0-0.2,0-0.3,0.1-0.4c0-0.1,0-0.3,0.1-0.4C147.9,0.1,145,0,142.1,0c-4.4,0-8.7,0.2-13,0.6c-0.1,0.2-0.3,0.3-0.6,0.2
	c0-0.1,0.1-0.1,0.1-0.2c-12.3,1.1-24.2,3.8-35.4,7.8c0,0.1,0.1,0.2,0,0.3c-0.2-0.1-0.3-0.1-0.4-0.2c-6.2,2.2-12.1,4.8-17.9,7.8h0
	c-0.4,0.5-0.7,0.3-0.5,1.1c-0.1-0.1-0.6-0.3-0.5,0.1c-0.4,0-0.5-0.2-1-0.1c0,0.4,0.8,0.2,0.6,0.6c0.4-0.2,0.9,0.2,1.4-0.1
	c-0.2,0.3,0.1,0.5-0.1,0.9c-0.1-0.1-0.3-0.1-0.3,0c-0.4,0,0.2-0.3,0.3-0.4c0-0.2-0.3-0.3-0.6-0.3c-0.2,0-0.1,0.2-0.2,0.4
	c-0.3-0.1-0.3-0.4-0.6-0.5c0.2,0.2,0,1,0.6,1.1c-0.2,0.5-0.9-0.2-0.8-0.7c-0.1,0.1-0.3,0.1-0.5,0.1c0.8,0.5-0.5,1.7,0.8,1.7
	c-1.1-0.8,0.5-0.2,0.4-0.7c0-0.1,0.1-0.1,0.1,0h0.3c-0.2,0.2-0.5,0.4-0.6,0.7c0,0.1,0.2,0.1,0.3,0.1c0.3,0,0.1-0.4,0.3-0.5
	c0.2,0.1,0.4,0.2,0.8,0.1c-0.2,0.2-0.3,0.4-0.8,0.4c0.4,0.3,0.9-0.2,1.1,0.3c0-0.4-0.3-0.3,0-0.5c0.1,0,0.1,0.1,0,0.1
	c0.1,0.2,0.3,0,0.3-0.1c0.3,0.3-0.4,0.9-1.3,0.8c0,0.2,0.5,0.1,0.6,0.2c0,0.2-0.3,0.1-0.3,0.3c-0.4,0.1-0.3-0.3-0.6-0.3
	c-0.3,0.3-0.6,0.6-0.8,0.9c-0.4-0.2,0.3-0.6,0.3-0.9c-0.6,0-0.6,0.5-0.6,0.9c-0.7,0-0.3-0.2-0.4-0.7c-0.6,0-0.4,0.2-0.3,0.5
	c-0.4-0.1-0.8-0.2-0.8,0.3h-0.8c0.4-0.4-0.3-0.1-0.2-0.5c0.1,0,0.2,0.2,0.3,0.2c0-0.4-0.6-0.3-0.3-0.8c-0.3,0.1-0.8,0.4-1.1,0.1
	c0.6-0.2-0.3-0.4,0.1-0.9c-0.1,0.1-0.2,0.4-0.3,0.1c-0.2,0.1,0.1,0.2,0,0.4c-0.5-0.1-0.1,0.4-0.6,0.3c0.1-0.4,0-0.7-0.6-0.9
	c0.1-0.1,0.1-0.1,0.1-0.2c-2.1,1.2-4.2,2.5-6.1,3.8c0.2,0.3,0.5,0.6,0.6,1c-0.4,0.1-0.4-0.1-0.6-0.1c-0.1,0.1-0.3,0.1-0.3,0.3
	c0-0.1-0.2-0.6,0-0.9c-2.7,1.8-5.3,3.7-7.8,5.6c1.1-0.4,2-0.9,3.2-0.6c-0.6,0.7,0.1,0.8-0.3,1.5c0.3,0.1,2.8-0.7,2.5,1
	c-2.1,0-0.8,0.9-2.8,1c0,0,0,0-0.1,0c0,0.2,0.1,0.3,0.3,0.1c0.2,0.1,0.1,0.4,0,0.8c-0.7,0-0.6,0.2-1.1,0c0.3-0.5,0.1-0.7,0.1-0.9
	c-0.6,0-0.7-0.3-1.4-0.3c1.4,0.7,0.3,0.9-0.6,1.2c0.1,0.1,0.2,0.1,0.4,0.1c-0.1,0.2-0.4,0.1-0.5,0c-0.5,0.2-0.8,0.4-0.3,0.8
	c-0.9-0.1-0.6-0.6-0.6-1c-0.1,0-0.1-0.1-0.1-0.2c0.1,0,0.1,0,0.2,0c0-0.2-0.1-0.3-0.5-0.4c-0.1-0.7,0.7-0.7,1.4-0.8
	c-0.9,0.1-1.1-0.5-1.4-1.2c-0.1,0.1-0.1,0.1-0.2,0.2c0.2,0.1,0.2,0.3,0.2,0.5c-0.2,0-0.3-0.2-0.5-0.2c-0.1,0.1-0.2,0.2-0.3,0.3
	c0.3,0.2,0.6,0.2,0.5,0.7c-0.4-0.1-0.6-0.3-0.8-0.5c-2.6,2.1-5.1,4.2-7.5,6.4c0,0.1,0.1,0.2,0.1,0.2c-0.1,0-0.1,0-0.3,0
	c-2.3,2.2-4.6,4.4-6.7,6.7c0.6,0.6,1.3,1,2.8,0.5c-0.1,1.1-0.7,1.9-1.4,3.1c-0.7-0.4-0.4,0-1.4,0c-0.2,0.8,0.6,0.8,0,1.3
	c-2-0.3-2,2.2-3.6,2.3c0.3,0.2,0.4,0.6,0.4,1c-0.7,0.2-1.6,0.9-1.9,1.4c0.1,0.1,0.1,0.2,0.1,0.4c0,0-0.1,0-0.1,0
	c0,0.1,0.1,0.1,0.1,0.1c-0.5,0.5-2.2,0.1-2.8,0.5c0.1,0.7,0.1,1.3-1.1,1c-0.2,0.8,0.4,1,1.1,1.3c-0.1,0.1-0.2,0.2-0.3,0.2
	c0.1,0.4,0.5,0.5,0.8,1.3c-1.1-0.2,0.2,1-0.7,0.5c-0.1,0.4,0.6,0.2,0.4,0.7c-0.8-0.2-0.2,0.2-0.7,0.5c-0.2-0.2-0.1-0.6,0-0.8
	c-0.9-0.1,0.1,0.5-0.6,0.5c0.2-1-0.2-1.5-0.6-2.1c0.6,0.2,0.8-0.3,1.4-0.6c-0.5,0-1.3-0.8-1.8-0.9c-0.1,0-0.1,0-0.1,0.1
	c-0.1,0.1-0.1,0.2-0.2,0.3c-0.1,0.3,0,0.8-0.4,0.6c0,0,0,0-0.1,0.1c0.4,0.5,0.5,0.8-0.2,1.3c-0.3,0-0.4-0.2-0.4-0.4
	c-0.2,0.3-0.4,0.5-0.6,0.8c0.3,0.1,0.6,0.2,1.3-0.1c-0.1,0.4,0.3,0.5,0.7,0.5c-0.5,0.6-1.8-0.6-1.1,0.7c-1,0.2-0.7-0.5-1.4-0.5
	c0.7,1.3-0.9,1.6-1.5,2.2c-0.1,0.1-0.2,0.3-0.3,0.4c-0.1,0.2-0.1,0.4,0,0.7c-0.2,0.1-0.4,0.1-0.6,0.2c-3.1,4.7-5.9,9.6-8.4,14.6
	c0,0,0,0,0,0.1c0.6,0.1,0.4-0.5,1.1-0.4c-0.3-0.3,0-0.3,0.5-0.3c-0.3-0.9,0.8-0.8,1.3-1.8h1c-0.4,0.2,0.2,1.2-0.6,1
	c0-0.6-0.4,0.7,0.5,0.3c-0.4,0.2-1.1,0.8-0.6,1.4c-0.4,0-0.5-0.2-0.6-0.4c-0.4,0.3-0.4,1,0,0.8c-0.1,0.2-0.3,0.7-0.2,1
	c-0.8,0-0.2-0.5-0.5-0.6c-0.2,0.1-0.3,0.1-0.5,0.1c0.4,0.7-0.6,0.7,0,1.3c-0.5,0.1-0.2-0.4-0.5-0.5c-0.3,0-0.1,0.5-0.2,0.7
	c-0.4-0.2-0.3-0.3-0.8-0.1C13.5,80.9,14,81,14,80.8c-0.3,0-0.3,0.1-0.6,0.1c-0.1-0.3,0.7-0.4,0.2-0.7c0.5-0.4,0.3-0.2,0.9-0.5
	c-0.1-0.4-0.3,0.1-0.6,0c0-0.1,0-0.2-0.1-0.3c0.3-0.2,0.4-0.4,0-0.6c-1.4,2.8-2.7,5.7-3.9,8.7c0,0,0,0.1,0,0.1
	c0.3,0,0.4-0.2,0.6-0.2c0.1,0.7-0.5,0.1-0.6,0.4c0,0-0.1,0-0.1,0c-0.5,1.3-1.1,2.6-1.5,4c0.1,0.1,0.2,0.3,0.2,0.5
	c-0.2,0-0.3,0-0.4-0.1c-0.1,0.2-0.1,0.3-0.2,0.5c0.1,0,0.3,0,0.4,0c0,0.4,0.3,0.2,0,0.5c-0.1,0-0.1-0.2-0.3-0.2
	c-0.1,0.1-0.2,0.2-0.3,0.2c-0.6,1.6-1.1,3.3-1.6,5c0.1,0.1,0.2,0.2,0.4,0.2c-0.2,0-0.3,0.1-0.5,0.2c0,0.2-0.1,0.4-0.2,0.5
	c0.2,0.1,0.3,0.2,0.3,0.4c-0.3,0-0.3,0.1-0.5,0.2c0.3,0.2,0.4,0.6,0.6,0.9H5.6c0-0.1,0.2-0.1,0.3-0.1c-0.2-0.2-0.3-0.4-0.4-0.5
	c-0.1,0.2-0.1,0.3-0.2,0.5c0.1,0.2,0.2,0.4,0.4,0.5c0.5-0.2,0.6,0,1,0.3c-0.3,0.1-0.3,0.4-0.5,0.6c0.6,0.1,0.1-0.8,0.8-0.6
	c0,0.4,0,0.6,0.3,0.8c0.3-0.5-0.2-0.9-0.3-1.3c0.4,0.1,0.5,0.4,1,0.4c-0.3-0.5-1-0.7-1.3-1.6c0.3,0.3,0.6,0.3,0.8,0.4
	c-0.2,0.2,0,0.7,0.3,0.7c0.5-0.1-0.1-0.3,0-0.5c0.3,0.1,0.3,0.2,0.5,0c0.3,0.2,0.3,0.6,0.7,0.7c0.1-0.4,0-0.5,0.1-0.7
	c0,0.2,0.3,0.1,0.3,0.3c-0.5,0,0.4,0.5-0.1,0.5c-0.1-0.1,0-0.2-0.2-0.2c-0.2,0.3,0.7,0.4,0.2,0.5c-0.4-0.2-0.8-0.5-1.1-0.8
	c0.3,0.7,0.2,0.7-0.2,1.3c0.6-0.4,0.6,0.2,0.8,0.3c0.1,0,0.2-0.5,0.5-0.4c0.3,0.1-0.2,1.3,0.1,1.3c0.3-0.4,0.4,0.4,0.8,0.3
	c0.2-0.4-0.3-0.3-0.3-0.5c1-0.2,0.7,0.7,1.3,0.9c-0.9-0.3-0.7,0.1-0.8,0.4c-0.5,0-0.5-0.9-0.8-0.7c-0.2,0.7,0.2,1.3,0.9,1.2
	c0.1,0,0.2,0,0.3,0c-0.1,0-0.2,0-0.3,0c-0.3,0.1-0.1,0.6-0.2,0.6c-0.3-0.1-0.1-0.4-0.6-0.3c0.8,0.6-1,0.7-0.1,1.3
	c-0.4,0-0.6-0.5-0.8,0c0.9,0.1,0.8,1,0.9,1.3c-0.4-0.2-1.3,0-1.8-0.3c-0.2,0.2-0.2,0.5-0.5,0.6c-0.1,0-0.3,0-0.3-0.1
	c0.3-0.2,0.6-0.4,0.8-0.7c-0.4-0.4-0.4,0.3-0.9,0.3c0.2-0.4,1-0.5,0.1-0.8c0.5-0.3,0.6,0.2,0.8,0c-0.2,0-0.2-0.8,0-0.8
	c0.1,0.2,0.2,0.3,0.4,0.4c0.3-0.1,0.1-0.7,0.1-0.9c-0.1,0-0.2,0-0.3,0c0.1,0.2,0.1,0.4,0,0.5c-0.3-0.1-0.3-0.4-0.4-0.6
	c-0.1,0-0.1,0-0.1,0c-0.1,0-0.1,0-0.1,0c0.8-0.4-0.2-0.8-0.8-0.9c0,0.4-0.6,0.3-0.8,0.5c0.1,0,0.2,0.1,0,0.1c0-0.2-0.3-0.1-0.3-0.3
	c0-0.1,0.2-0.2,0.2-0.3c-0.5,0.1-1,0.2-0.6-0.2c-0.3,0.1-0.4-0.1-0.6-0.1c0,0.1,0,0.1-0.1,0.2c0.1,0,0.3,0,0.3,0.3
	c-0.1,0-0.2,0-0.4,0c0,0.1,0,0.1-0.1,0.2c0.2,0,0.5,0,0.7-0.1c-0.5,0.3,0.5,0.5-0.2,0.7c-0.2-0.1-0.1-0.5-0.5-0.4
	c-0.1,0.4,0,0.8,0.3,0.9c-0.8,0-0.3,0.7-0.8,0.4c-0.1,0.5-0.1,0.7,0,1.3c-0.2-0.1-0.3-0.1-0.3-0.1c-1.5,6.3-2.5,12.7-3.1,19.3
	c1,0.4,1.9,0.6,2.2-0.3c-0.1,0-0.1,0.1-0.2,0.2v-1.5c0,0,0,0,0,0c0,0.1,0,0.1-0.1,0.2l0.1-0.2H2.4v-1.5c0.3,0.2,0.7,0.2,1.2,0.3
	c0.1-0.2,0.3-0.5,0.2-0.8c0.6,0.1-0.1,0.4,0.3,0.7c0.2-0.1,0.4-0.2,0.5-0.4c0.1,0.1,0.1,0.2,0.1,0.3c0.4-0.1,1-0.1,1.2,0
	c0.4,0.8,1.4,1,1.1,2.3c-0.6,0.1-0.6-0.2-1.1-0.2c-1,0.3,1.6,0.7,0.4,1.3c-0.7-0.1-0.9-0.5-1.4-0.8c0.5,1-0.8,0.1-0.3,1.3
	c-1.3,0.2-1.3,1.6-2.5,0.5c-0.1,1.1,1.1,1.3,1.4,2.1c-0.8-0.1-1.3-0.5-1.4-1c-0.8-0.1-1,0.2-1.4,0.2c0.2,0.5,1.8,0.1,1.4,1
	c-0.6-0.2-1.2-0.5-1.8-0.8C0.1,132.2,0,135.1,0,138c0,3.9,0.2,7.8,0.5,11.6c0.9,0.1,1.1,0.1,2.2,0.4c0.8-0.1-0.5-0.7,0.4-1
	c2.1,1.5-2.6,0.7-1.8,2.6c-0.3,0-0.5-0.1-0.6-0.1c0.1,1.1,0.2,2.2,0.4,3.3c0.2,0,0.4,0,0.7,0c-0.2,0.3-0.5,0.2-0.7,0.2
	c0,0.2,0,0.4,0,0.6v0c0.1,0.2,0.1,0.3,0.1,0.5c0.1,0,0.1,0,0.1,0c-0.1,0-0.1,0-0.1,0c0.3,2.3,0.7,4.6,1.1,6.9c0-0.2,0.1-0.5,0.1-0.6
	c0.3,0.1,0.5,0.2,0.5,0.5c-0.4-0.3-0.4,0-0.3,0.4c0.2-0.3,0.6,0.1,0.6-0.2c0.4,0.4-0.4,0.1-0.7,0.4c0.5,2.5,1,4.9,1.6,7.3
	c0.3-0.1,0.3-0.5,0.5-0.7C5.5,169.9,6.4,170.6,7.1,170.7"/>
<path fill="#86A0AF" d="M267.3,202.9c0.1-0.2,0.1-0.5,0.1-0.7c-0.1,0-0.1-0.1,0-0.1c0-0.1,0-0.2,0-0.3c-0.2,0-0.6,0.1-0.4-0.3
	c-0.2,0.1-0.2,0.1-0.2,0.2c0.1,0,0.1,0.1,0.2,0.1c0,0-0.1,0-0.1,0.1c0.1,0.1,0.3,0.2,0.2,0.3c0,0-0.1,0-0.1,0
	c0.1,0.1,0.2,0.2,0.1,0.4c-0.1-0.1-0.2-0.2-0.3-0.1c0.1-0.2,0-0.4-0.1-0.5c-0.1,0-0.1,0-0.2,0c0.8,0.4-0.1,0.5-0.4,0.7
	c0.2,0.2,0.4,0.6,0.6,0.7c-0.4,0.4-0.4-0.4-0.7-0.7c0,0.1,0,0.2,0.1,0.3c-0.3-0.1-0.3-0.2-0.3-0.4c0,0,0,0,0,0c0,0,0,0,0,0
	c0.1-0.2,0.1-0.3-0.2-0.4c0-0.1,0-0.1,0-0.1c0,0-0.1-0.1-0.1-0.1v0c-0.1,0-0.2-0.1-0.2-0.1c-0.1-0.1-0.3-0.1-0.4,0
	c-0.4,0.3-0.1,0.7-0.8,0.3c0,0.3,0.4,0.3,0.5,0.5c-0.2,0.4-0.8,0.5-1.1,0.8c-0.4-0.4,0.2-1.4,0-2c-0.2,0.1-0.3,0.2-0.5,0.3
	c0.1,0.1,0.1,0.2,0.3,0.1c-0.2,0.1,0,0.6-0.5,0.5c0.1-0.2,0-0.4,0-0.5c-0.2,0.1-0.5,0.3-0.7,0.4c0.1,0,0.3,0,0.4-0.2
	c0.6,0.3-0.5,0.3-0.3,0.7c0,0.2,0.6,0,0.4-0.2c0.7,0.5-1.1,1.2-0.8,2c-0.2-0.3-0.4-1.5-0.9-1c0.1,0,0.2,0.1,0.3,0.1
	c-0.1,0.4-0.4-0.1-1.1,0c-0.1-0.9,1.1-0.8,1.4-1.3c-0.4-0.5-0.9,0.7-1.4-0.2c1-0.2,1.9-1.4,0.7-1.8c0.4-0.9,1.9,1,2.4,0
	c0.6,0.3,0.5,0.7,0.2,1c0.3,0.1,0.5,0.1,0.8,0c-0.2-0.2-0.5-0.3,0.1-0.3c0-0.3-0.2-0.6,0-0.8c-1.1-0.3-1.5-0.5-2.9-0.2
	c-0.3-0.5-0.3-1.5-2.1-1.5c0.1,0.3,0.6,0.6,0.7,0.2c1.2,1.1-1.3,0.1-1,1c-0.2,0.8,0.2-1.2-0.7-1.3c-0.6-0.2-0.6,1.2,0,1
	c-0.8,1.2-0.6-1.4-1.3-0.7c-0.5,0.9-1,1.8-1.5,2.6c0.1,0.1,0.2,0.1,0.4,0.1c-0.1,0.3-0.4,0.4-0.7,0.5c-0.1,0.1-0.1,0.2-0.2,0.3
	c1-0.1,1.6-0.5,2-0.9h-0.2c0-0.4-0.2-0.3,0-0.5c0.2,0.1,0.3,0.2,0.3,0c0.2,0,0.1,0.1,0,0.1c0,0.1,0,0.2,0,0.2
	c0.3-0.3,0.5-0.6,0.8-0.6c0.5,0.8-1,1.8-0.6,2.2v0h0.5c0,0.5-0.4,1.2,0.5,1.3c-0.1,0.2-0.3,0-0.5,0c-0.1,0.3,0.5,0.6-0.2,0.5
	c0.1,0.3,0.6,0.3,0.8,0.5c0.1,0.2-0.1,0.7,0.2,0.7c0,0.2-0.6-0.1-0.8,0.3c-0.3-0.1-0.3-0.2-0.2-0.4c-0.5,0.1-0.2,0.4-0.1,0.7
	c-0.9-0.1-0.8-0.8-1.5-1.1c0-0.2,0.2-0.4,0.1-0.6c0,0-0.1,0.1-0.1,0.1c0,0.2-0.1,0.2-0.2,0.2c-0.1,0.1-0.1,0.3,0,0.6
	c0.9,0.3-0.3,0.2-0.4-0.2c0,0.1,0,0.1,0,0.2c-0.1-0.1-0.1-0.1-0.2-0.2c-0.1,0.4,0.7,0.9,0.3,1.6c-0.6-0.3-1.3-0.5-1.8-0.2
	c0,0,0.1,0,0.1,0c0,0.2-0.1,0.2-0.4,0.3c0,0.1-0.1,0.1-0.1,0.2c0.1,0.2,0,0.4-0.1,0.6c0.1,0,0.1,0.1,0.2,0.1c0,0,0.1,0,0.1,0
	c0.4,0.3,0.7,0.5,0.9,0.8c-1.1,0.4-0.2,0.8-0.7,1.3c-0.6-0.3-0.9-1-1.4-1.3c-0.1,0.1-0.3,0.1-0.5,0.1c0.1-0.1,0.1-0.2,0.2-0.2
	c-0.2-0.1-0.5-0.1-0.8,0c-0.1,0.1-0.2,0.3-0.3,0.4c-0.2,0.9,0.4,1.2,1.4,1.2c-0.3,0.4-0.9,0.5-1.8,0.5c0.2-0.4-0.1-0.5-0.4-0.6
	c-0.1,0.1-0.2,0.2-0.3,0.4c0.1,0,0.2,0,0.3,0c-0.1,0.5-0.5,1-1.1,1.1c-0.8,1.1-1.6,2.2-2.4,3.2c0.4,0.1,0.1,0.7,0.1,0.8
	c-0.5-0.1-0.2-0.4-0.2-0.7c-0.1,0.1-0.2,0.3-0.4,0.4c0,0,0.1,0,0.1,0c0,0.2-0.1,0.2-0.2,0.2c-0.6,0.7-1.1,1.4-1.6,2.1v0.1
	c-0.1,0-0.1,0-0.1,0c-0.2,0.3-0.4,0.5-0.6,0.8c0.4,0.2,0.7-0.5,0.8-0.7c0.3,0,0.3,0.1,0.3,0.3c0.5-0.1-0.1-0.3,0-0.5
	c0.5,0.1,0.5,0.7,1,0.8c0.5-0.1-0.1-0.3,0-0.5c0.2,0.6,1.1-0.4,1.3,0.3c0.1,0,0.2-0.1,0.3-0.1c-0.5-0.3,0.1-0.4,0.7-0.3
	c-0.4,0.4-0.8,0.3-0.5,1c-0.2-0.1-0.6-0.3-0.5,0.2c-0.4,0-0.5-0.2-0.9-0.2c0,0.4,0.7,0.2,0.6,0.7c0.4-0.3,0.9,0.2,1.4-0.1
	c-0.1,0.1-0.1,0.2-0.1,0.4c0-0.3,0.2-0.5,0.5-0.6c0,0.2-0.2,0.1-0.3,0.2c0,0.1,0.1,0.1,0.1,0.2c0.3,0.1,0.7-0.3,0.3-0.4
	c0-0.2,0.7,0,0.5,0.4c0.1,0,0.1-0.1,0.3-0.1c0.1-0.4-0.2-0.4-0.3-0.7c0.1-0.4,0.1,0.4,0.5,0.3c0-0.3,0.7-0.2,0-0.5
	c0.1-0.4,0.3,0.1,0.7,0c-0.3,0.5,0,0.4,0.1,0.8c-0.3-0.1-0.3-0.4-0.6-0.2c0.1,0.4,0,0.6,0.2,0.7c-0.3,0.1-0.9,0.2-1.3,0
	c-0.3,0.6,1-0.1,0.8,0.5c0.2,0,0.1-0.4,0.6-0.3c-0.3,0.4-0.9,0.9-1.7,1.2c0.1,0.2,0.1,0.3,0.1,0.4c0,0,0-0.1,0.1-0.1
	c0.2,0,0.1,0.1,0,0.1c0.1,0.2,0.3,0,0.3-0.1c0.2,0.3-0.3,0.8-1,0.8c-0.1,0-0.1,0.1-0.1,0.1c0.2,0.1,0.4,0,0.5,0.1
	c-0.1,0.2-0.3,0.1-0.3,0.3c-0.3,0.1-0.4,0-0.4-0.1c-0.1,0.1-0.2,0.3-0.4,0.4c0,0-0.1,0-0.3,0c-0.1,0.1-0.1,0.2-0.2,0.3
	c0,0,0,0,0,0.1c0,0,0,0,0,0c-0.1,0.1-0.1,0.1-0.1,0.2c-0.2-0.1-0.1-0.2-0.1-0.3c-0.1-0.1-0.1-0.1-0.2-0.1c0,0.2,0,0.3-0.1,0.4
	c-0.6,0-0.3-0.2-0.3-0.6c-0.1,0-0.1,0-0.2-0.1c-0.4,0-0.2,0.2-0.1,0.5c-0.4-0.1-0.7-0.2-0.8,0.3H244c0.4-0.4-0.3-0.1-0.2-0.5
	c0.1,0,0.2,0.1,0.3,0.1c0-0.4-0.6-0.3-0.3-0.8c-0.3,0.1-0.7,0.4-1.1,0.1c0.6-0.2-0.3-0.4,0.2-0.9c-0.1,0.1-0.2,0.4-0.3,0.1
	c-0.2,0.1,0.1,0.2,0,0.4c-0.5-0.1-0.1,0.4-0.6,0.3c0.1-0.4,0-0.7-0.6-0.9c0.1-0.1,0.1-0.2,0.1-0.3c-1.6,1.8-3.1,3.6-4.8,5.3
	c0.2,0,0.4,0.1,0.3,0.3c-0.4,0.1-0.3-0.1-0.4-0.2l-0.2,0.2c0.1,0.1,0.4,0.1,0.3,0.4h-0.5c0,0,0-0.1,0-0.1c-0.3,0.3-0.6,0.6-0.9,0.9
	c0.6-0.1,0.5,0.4,1.1,0.3c-0.1,0.8-0.5-0.1-0.9,0.3c0,0.2,0.2,0.3,0.1,0.5c-0.6-0.2-0.4-0.6-0.4-0.9c-1.9,1.9-3.9,3.7-5.9,5.5
	c0.1,0,0.2,0.1,0.2,0.2c0.1-0.1,0.1-0.3,0.5-0.3c-0.1,0.3-0.2,1,0.2,0.6c0.2,0.2,0.1,0.4,0,0.8c-0.6,0-0.6,0.2-1.1,0
	c0.3-0.6,0.1-0.7,0.1-1c-0.1,0-0.1-0.1-0.1-0.1c-8.4,7.4-17.9,13.7-28.2,18.8c0,0.1,0,0.2-0.1,0.3c0.2-0.1,0.3-0.4,0.6-0.1
	c-0.1,0.1-0.2,0.1-0.2,0c-0.4,0.3,0.2,0.9,0.7,0.9c-0.2,0.3-1.2,0.2-1.5-0.3c0.1,0.8-0.9,0.3-0.8,1.4c0.1-0.1,1.2-0.2,0.8-0.4
	c0.1-0.2,0.2,0,0.5,0c0,0.3-0.2,0.4-0.5,0.5c0.4,0.5,0.6-0.2,0.6-0.4c0,0.2,0.3,0.3,0.3,0.8c-0.6-0.2-0.4,0.1-1,0.1
	c0,0.1,0.2,0.1,0.2,0.3c0.4,0.3-0.6-0.2-0.3-0.7c-0.4-0.2-0.4,0.5-0.2,0.5c-1.4,0.3-0.6-1.6-1.2-1.8c0-0.1,0.1-0.3,0.3-0.4
	c-1,0.4-1.9,0.9-2.9,1.3h0c-0.1,0.1-0.2,0.1-0.3,0.1c0,0,0,0,0,0c0,0,0,0,0.3,0.2c-0.2,0.1-0.3,0.2-0.4,0.4c0,0.1,0,0.2,0,0.2
	c0,0-0.1,0-0.1,0c0,0-0.1,0.1,0,0.2c0.2-0.1,0.3-0.2,0.3-0.4c0,0.4,0.3,0.9-0.3,1c0.2-0.4,0.1-0.6-0.3-0.8c-0.5-0.1-0.3,0.4-0.8,0.3
	c0-0.2-0.1-0.3-0.2-0.4c-10.9,4.7-22.6,8-34.9,9.6c0.2,0.1,0.5,0.1,0.9,0.1c0,0.1-0.2,0.1-0.3,0.1c0,0.2,0,0.4,0.1,0.4
	c-0.2,0.3-0.6-0.4-1.1,0c-0.1-0.2-0.2-0.4-0.3-0.5c-5.6,0.7-11.2,1.1-17,1.1c-1.1,0-2.3,0-3.4,0c0,0.4-0.5,0-0.6,0.3
	c-0.4,0-0.2-0.2-0.2-0.3c-7.9-0.2-15.6-1.2-23-2.7c-0.2,0-0.4,0.1-0.5,0.2c-0.1,0.6,1.6-0.1,1.1,0.8c-0.7-0.2-1.4-0.4-1.8-0.8
	c0.2-0.1,0.3-0.2,0.5-0.4c-4.2-0.9-8.3-1.9-12.3-3.2c0.1,0.1,0.2,0.2,0.2,0.4c-0.6,0.2-1.1,0.4-1.4,0.8c-0.4-0.1-0.4-0.5-0.5-0.8
	c-0.4,0.3-0.1,1.1,0.5,1.3c-0.6-0.1-0.6-0.3-1.3-0.1c0.5,0.1,0.6,0.8-0.2,1c0.1-0.1,0.4-0.9-0.1-0.8c0.3-0.2,0.1-0.8,0.6-0.8
	c-0.1-0.4-0.6,0-0.6-0.3c0.2-0.4,1-0.2,1.1-0.9c-0.4-0.1-0.3,0.3-0.5,0.4c-0.6-0.1,0.1-0.8-0.3-0.9c0.1,0,0.2,0,0.2-0.1
	c-0.4-0.1-0.7-0.2-1.1-0.4v0.3c-0.3,0-0.3-0.2-0.6-0.1c0.1-0.1,0.2-0.2,0.3-0.3c-3.9-1.4-7.8-2.9-11.5-4.6c-0.1,0-0.2,0.1-0.4,0.1
	c0-0.1,0-0.1,0-0.2c-3.1-1.4-6.1-2.9-9-4.6c0.2,0.5,0.7,1.2-0.4,0.6c0.8,1.1,0,2.3-1.5,3.2c-1.1-0.9-3.6,0.3-4.3-0.3
	c0.6,1,0.2,0.8-1,1.2c0.3,0.8,1.4-0.2,1.7,0.5c-0.3,0.2-0.5,0.4-0.1,0.5c-0.8,0.5-1.8,0.4-1.5,1.2c-0.5-0.8-2.2-1.7-1.1-2.6
	c-0.7-0.2-0.7,0.3-0.9,0.7c-1.4-0.8-1.3-1.3-0.7-1.7c-0.2-0.2-0.4-0.5-0.4-0.2c-0.3,0,0.1-0.2,0-0.4h0.8c-0.1,0.2-0.4,0.2-0.3,0.6
	c1-0.7,3.8-1.2,3.5-2.6c1.1,0.1,4-1.1,4-1.9h0c-4.1-2.4-8-5-11.8-7.8c-0.2,0.3-0.4-0.3-0.7-0.3c0-0.1,0.1-0.1,0.1-0.2
	c-0.1-0.1-0.2-0.2-0.4-0.3c-0.1,0-0.2-0.1-0.4-0.1c0-0.1,0-0.2,0.1-0.2c-0.6-0.4-1.2-0.9-1.8-1.3c0,0.3,0.5,0.3,0.5,0.7
	c-0.1,0-0.1-0.1-0.1-0.1c-0.4,0.1,0.2,0.3-0.2,0.5c-0.1,0-0.3-0.1-0.4-0.1v-0.5c-0.9,0,0.1,0.5-0.8,0.4c0.1,0.1,0.2,0.2,0.2,0.4
	c-0.3-0.1-0.3,0.1-0.3,0.3c-0.4-0.3-1.4-0.4-1.6,0.1c-0.2-0.3-0.9-0.2-1-0.7c0.5-0.1,0.4,0.4,0.8,0.1c-0.1-0.2-0.4-0.3-0.8-0.4
	c0.1-0.5-0.2-0.5-0.1-0.9c0.2,0.3,1.1,0.4,1.1-0.1c0.5,0.1,0.2,0.2,0.1,0.5c0.9-0.1,0-0.9-0.6-0.5c0.1-0.1,0.2-0.2,0.2-0.4
	c0.4,0,0.5,0.2,0.9,0.1c0-0.4-0.6-0.4-0.1-0.8c0.2,0.1,0.1,0.3,0.1,0.5c0.3,0,0.2-0.4,0.4-0.5c-0.1-0.1-0.2-0.1-0.3-0.2
	c-0.1,0-0.2,0.1-0.3,0c0.1,0,0.1-0.1,0.1-0.1c-12.2-10-22.4-22-30.3-35.6c-0.2-0.1-0.4-0.1-0.3-0.5h0c-4.4-7.7-8-15.9-10.7-24.4
	c-0.1-0.1-0.1-0.1-0.2-0.2c-0.6,0.1,0.5,0.5,0,0.5c-0.6-0.3-0.7-1.1-0.3-1.5c0.1,0,0.2,0.1,0.3,0.2c-0.2-0.7-0.4-1.4-0.6-2.1
	c-0.1,0-0.1,0-0.1,0c0,0,0,0.1,0,0.2c-0.1,0-0.1-0.1-0.1-0.2c-0.2,0-0.3-0.1-0.3-0.3c0.1,0,0.3,0,0.4,0v0c-0.4-1.5-0.8-2.9-1.2-4.5
	c-0.2-0.2-0.3-0.4-0.4-0.6c0.1,0.2,0.2,0.2,0.3,0.2c-0.3-1.1-0.5-2.2-0.8-3.4c-0.1,0-0.1,0-0.2-0.1c-0.3,0.1-0.2,0.5-0.8,0.4
	c-0.2,0.5,0.5,0.2,0.3,0.7c-0.2,0-0.3-0.2-0.6-0.1c0.1,0.1,0.1,0.2,0.3,0.3c-0.1,0.3-0.5-0.3-0.8-0.3c0,0.2,0.1,0.4,0.3,0.4
	c-0.9,0.2-1.3,0.8-1.3,1.7c-0.2,0-0.3-0.2-0.3-0.4c-0.3,0.1,0,0.9,0.5,0.8c-0.2,0.4-0.6-0.1-0.8-0.1c-0.1,0.2-0.5,0.9,0,1
	c-0.1,0.2-0.4,0.3-0.8,0.3c0.1,0.1,0.2,0.2,0.3,0.2c-0.8-0.1-0.7,0-0.8,0.8c-0.3,0-0.3-0.1-0.5-0.1c0,0.3,0,0.6,0.3,0.7
	c-0.1,0.4-0.2-0.2-0.5-0.1c0.3,0.1,0,0.7,0.3,0.8c-0.2,0.4-0.4-0.3-0.6-0.4c-0.1,0.1-0.2,0.1-0.2,0.2c0,0,0,0,0,0
	c0.8,0.5,0.7,1.1,0,1.5c0.8-0.2,1.1-0.8,1.4-1.3c1.3,0.3,0.9,2.6-0.7,2.3c0.7-1.7-2.1-0.5-3.9-0.4c1.1,4.3,2.5,8.5,4,12.6
	c0.2-0.1,0.3-0.1,0.4,0c0.1,0.3-0.1,0.3-0.3,0.3c0,0.1,0.1,0.2,0.1,0.2c0.5,0.1,0.6-0.6,0.2-0.9c0.4,0.2,1.1,0.2,1.1,0.8
	c-0.2-0.1-0.4-0.2-0.3-0.4c-0.3,0.3-0.5,0.6-0.9,0.7c0.2,0.6,0.5,1.2,0.7,1.9c0.1-0.1,0.3-0.1,0.5-0.1c0,0.2,0,0.2-0.1,0.3
	c0.1,0.2,0.2,0.3,0.4,0.4c0,0.1-0.1,0.1-0.2,0.1H10c0-0.1,0-0.1,0.1-0.1c-0.1-0.1-0.1,0-0.3,0c0,0.1,0.1,0.2,0.1,0.3
	c0,0,0.1,0,0.2,0c-0.1,0-0.1,0.1-0.1,0.1c2.4,5.9,5.2,11.6,8.4,17.1c0.2,0.1,0.4,0.4,0.7,0.4c-0.4,0-0.1-0.6-0.6-0.5
	c0.3-0.5,0.5,0,0.3-0.7c0.7-0.1,1,0.2,1.4,0.4c0.3,0,0.5-0.1,0.5-0.3c0-0.3-0.4,0.2-0.6-0.1c0.1-0.4,0.6,0.3,0.6-0.3
	c0.1,0.1,0.2,0.2,0.3,0.4c0.1,0,0.5-0.5,0.1-0.5c0.4-0.2,0.4,0.3,0.4,0.6c0,0,0.1,0,0.1,0c0.1-0.1,0.2-0.1,0.3,0
	c0.2,0,0.3-0.1,0.4-0.1c0,0,0.1-0.1,0.1-0.2c0.2-0.1,0.2,0,0.1,0.2c0.1,0,0.1,0.1,0,0.3c0,0.1,0,0.1,0,0.1c0.8-0.2,0.2-0.4,0.2-1
	c0.3,0,0.5,0.1,0.6,0.1c0.2-0.1,0.4-0.3,0.7-0.3c-0.2-0.2-0.7,0.2-1-0.2c0-0.3,0.5-0.1,0.7-0.1c-0.5,0-0.7-1.1-0.4-0.5
	c0.1,0.1,0.3,0.2,0.5,0.3c0-0.4-0.5-0.5-0.3-1.1c-0.4-0.1-0.4,0.2-0.8,0.1c-0.2-0.4-0.1-0.4-0.2-1.1c0.7,0.1,0,0.7,0.3,0.9
	c0.5-0.4,1.4-0.1,1,0.5c0.2,0,0.4-0.1,0.5-0.2c-0.2-0.3-0.2-0.6-0.1-1c-0.1,0-0.2,0.1-0.2,0.1c0.5-0.6,0-0.4-0.3-0.9
	c0.5,0,0.6,0,0.8,0.1c0-0.1,0-0.1,0-0.2c0.4-0.1,0.4,0.2,0.4,0.4c0.3-0.2,0.3-0.5,0.8-0.5c-0.2,0.4-0.4,0.6-0.8,0.7
	c0,0.2,0,0.4,0.4,0.4c-0.9,0.1-0.3,0.8-0.2,1.3c0.2,0,0.4,0.2,0.6,0.1c-0.6-0.2-0.1-0.5,0.1-0.8c0.4,0,0,0.4-0.1,0.4
	c0,0.1,0.1,0.1,0.1,0.3c0.5,0.1,0.6-0.3,1,0c-0.1,0.2-0.4,0.5-0.6,0.3c0.2,0.3,1.2,0.2,0.8,0.9c-0.6-0.2-0.6-0.8-1.2-0.9
	c0.6,0.4,1.1,1.1,1.1,1.7c0.2,0,0.1-0.3,0.1-0.5c0.3,0,0.4-0.1,0.5-0.3c0.4,0.1-0.2,0.4-0.3,0.5c0.3,0.3,0.4,0.5,0.8,0.9
	c-0.1,0.6,0,1-1,1.1c0-0.1,0.2-0.1,0.3-0.1c-0.3-0.8-0.3-0.8-0.8-0.2c-0.2,0.7,0.5,0.6,0.1,1c-0.4,0.2-0.5-0.5-0.8-0.1
	c-0.3-0.2,0.2-0.5,0.5-0.1c-0.1-0.2-0.3-0.2-0.3-0.4c-1.2,0.7-2.3,1.6-1.3,2.4c-0.5,0.3-1.5,0.7-1.3,2.1c-0.4,0-0.7,0.2-0.6,0.6
	c-0.3,0-0.5-0.1-0.6-0.3c0,0-0.1,0-0.1,0c0.5,0.7,1,1.4,1.4,2.1c0.1-0.1,0.2-0.2,0.3-0.4c0.3,0-0.1,0.2,0.2,0.3
	c0.2,0,0.1-0.3,0.1-0.5c0.4-0.2,0.8,0.3,0.9,0c0.3,0.1-0.3,0.4,0.5,0.3c-0.3,0.2-0.1,0.7,0.2,0.9c-0.1,0.3-0.6-0.2-1-0.1
	c0.4,0.2,0.4,0.7,1,0.7c-0.2,0.2-0.2,0.5-0.5,0.6c0,0.1,0.2,0.1,0.3,0.1c0.4-0.1-0.1-1,0.6-0.9c0,0.5-0.3,0.6,0,0.9
	c-0.2,0.4-0.8,0.2-1.1,0c-0.1,0.1-0.2,0.1-0.2,0.1c0,0,0,0.1,0.1,0.1c0.1,0.1,0.3,0.2,0.3,0.4c2.1,2.9,4.2,5.7,6.5,8.4
	c0.8-0.3,1.7-0.4,1.7-1.2c0.9-0.4,1.6-0.2,2.3,0c0.1-0.3,0.1-0.7-0.2-0.9c0.2-0.3,0.8,0.2,1-0.3c-0.2-0.4-0.4,0.4-0.6,0
	c0-0.5,1.1,0,1.1-0.5c0.3,0,0.4,0.2,0.3,0.5c0.4-0.4,0.6-0.3,1.4-0.4c0.1,0.4,0.7,0.3,0.9,0.7c0,0.2-0.7,0-0.6-0.3
	c-0.6,0-0.6,0.4-0.8,0.7c0.3,0.2,0.4,0.5,1.1,0.4c-0.1,0.5-0.4,0.9-1.1,0.9c-0.1,0.3,0,0.5,0.3,0.5c-0.5,0-1.1,0.4-1.4,0
	c-0.2,0-0.1,0.2-0.2,0.4c-0.5,0.1-0.3-0.4-0.9-0.2c0-0.3,0.7-0.1,0.8-0.3c-0.1-0.1-0.3-0.2-0.5-0.3c0.5,0.1-0.1-0.6,0.6-0.3
	c0.1-0.4-0.8,0-0.6-0.5c0.3,0.3,0.5-0.1,0.8-0.2c0-0.3-0.7-0.1-0.9-0.1c-0.2-0.5,0.6-0.2,0.9-0.3c-0.1,0.4,0.5,0.2,0.6,0.4
	c0.2-0.2,0.4-0.5,0.5-0.8c0-0.2-0.6-0.5-0.7-0.1c0.1,0,0.7,0.3,0.3,0.1c-0.2,0-0.1,0.3-0.1,0.5c-0.6-0.2-1.5-0.6-1.9-0.1
	c0.2,0.3,0.4,0.6,0.3,1.2c-0.2-0.1-0.3-0.1-0.3,0c-0.1-0.1-0.1-0.4-0.1-0.7c-1.9,0.1-2.4,1.2-3.3,2c2.9,3.4,6,6.7,9.2,9.8
	c0.2-0.2,0.5-0.4,0.9-0.5c-0.1,0.1-0.2,0.2,0,0.3c0,0.2-0.2,0.1-0.2,0c-0.4-0.1-0.2,0.3-0.6,0.3c2.9,2.8,5.9,5.5,9.1,8.1
	c0.1,0,0.1,0,0.1-0.1c0.2,0,0.1,0.1,0,0.2c0.1,0,0.1,0.1,0.1,0.1c0.3,0,0.2-0.3,0.2-0.5c0.5,1,0.8-0.5,0.5-0.8
	c0.9-0.2,0.6,0.5,1.3,0.7c-0.2,0.2-0.1,0.6-0.6,0.5c-0.1-0.3,0.1-0.3,0.2-0.5c0-0.2-0.3-0.1-0.5-0.1c0.1,0.5,0.1,0.3,0.2,0.9
	c-0.4-0.2-0.5,0.1-0.6-0.1c-0.1,0-0.2,0.1-0.3,0.2c0.1,0.1,0.2,0.2,0.3,0.3c0.2-0.2,0.3-0.3,0.7-0.2c-0.2,0.6,0.5,0.5,0.8,0.6
	c-0.2,0.4-0.8-0.4-1.1-0.1c2.6,2,5.2,4,7.9,5.8c0.2,0,0.2-0.3,0.4-0.3c-0.2-0.3-0.5-0.4-0.5-0.8c0.3-0.1,0.3-0.4,0.8-0.2
	c0.1,0.2-0.1,0.2-0.3,0.2c0.2,0.1,0,0.5,0.5,0.4c-0.4,0.4-0.1,0.6-0.8,0.7c0.1,0.1,0.1,0.1,0.1,0.2l0,0c0,0,0.1,0.1,0.2,0.1
	c0,0,0,0,0,0c2,1.4,4,2.7,6.1,3.9c0.4-0.2,1.3-0.1,2-0.1c0.1,0.3,0.2,0.5,0.6,0.6c-0.2,0.2-0.5,0.4-0.6,0.7
	c16.6,9.8,35.5,16.3,55.7,18.8c0-0.1,0.1-0.1,0.3-0.1c0,0,0,0.1-0.1,0.1c0.1,0,0.1,0,0.2,0c0.2-0.3,0.4-0.6,0.9-0.6
	c-0.2,0.2-0.4,0.4-0.7,0.7c0,0,0.1,0,0.1,0c0.1,0,0.1,0,0.1,0c0.3,0,0.6-0.6,0.5-1.1c0.7,0.4,0.8,0.7,1.2,1.3
	c4.3,0.5,8.7,0.7,13.2,0.8c0-0.1,0.1-0.1,0.3-0.2c-0.2-0.6-0.6,0.3-1-0.3c-0.1-0.8,1.1-0.7,0.7-1.8c1.5,0.6,1.1-0.6,1.4-1.3
	c1.3,0,1.1,1.1,2.8,0.8c-0.9,0.7-0.6,0.5-1.4,1c-0.1,0.6,1,0.3,1.1,0.8c2.1-0.4,3.8-1.7,6-1c-1.1,1,0.7,1.4-1.1,1.5
	c0.4,0.1,0.7,0.2,1.1,0.3c1-0.1,2-0.1,3-0.2c2.4-1,2.9-4,5.4-5.6c-0.1,0-0.1,0-0.2,0c0.3-0.3,0.2-0.3,0.2-0.8
	c0.5-0.1,0.2,0.4,0.6,0.4c0,0.2-0.1,0.1-0.1,0c-0.2,0-0.2,0.2-0.3,0.3c0.4-0.3,0.9-0.4,1.5-0.6c-0.1-0.1-0.2-0.2-0.3-0.2
	c0.1-0.4,0.3-0.7,0.8-0.8c0.2-0.4-0.5-0.1-0.3-0.5c0.4,0,0.3,0.3,0.5,0.3c0.1,0,0.2-0.1,0.3-0.1c-0.1-0.4-0.9-0.2-1-0.4
	c0.1-0.4,0.8,0.2,1-0.5c0,0.3,0.1,0.3,0.6,0.4c0.1,0.3-0.2,0.2-0.2,0c-0.1,0-0.1,0.1-0.3,0.1c0.3,0.5-0.1,0.9,0.2,1.3
	c0.1,0,0.1-0.1,0.3-0.1c0.3-0.2-0.7,0.5,0,0.8c-0.3,0-0.3,0.1-0.3,0.3c0.4,0.2,0.8,0.3,0.9,0.7c0.4,0,0.3-0.4,0.4-0.8
	c0.9,0.4,1,0.5,1.4,0.3c-0.3-0.6,0.1-1,0.2-1.5c0.1-0.2,0.3,0,0.3,0.1c0.1,0,0.1-0.1,0.3-0.1c-0.1-0.3-0.7-0.2-0.5-0.8
	c0.3,0,0.3,0.2,0.3,0.4c0.4,0,0.4-0.2,0.6,0c0,0.4-0.7,0.9,0.2,0.9c0,0.4-0.5,0.3-0.7,0.5c0.6,0.3-0.2,1,0.7,0.9
	c-0.2,0.3-0.7,0.4-0.3,0.9c-0.2,0-0.3,0-0.3,0.1c0-0.4,0-1.1-0.2-1.8c-0.1,1-0.3,1.6-0.3,3.1c-1.4-0.4-1.2,0.7-1.2,1.7
	c0.1,0,0.2,0,0.3-0.1c0,0,0.1-0.1,0.2-0.2c0.1,0,0.1,0.1,0.2,0.1c9-1.4,17.7-3.5,26-6.4c-0.1,0-0.1,0-0.3-0.1
	c0.3-0.4-0.6-0.4-0.2-1.1c0.3-0.2,0.6,0.2,0.6-0.4c0.2,0,0.5,0.5,0.6,0.2c-0.1,0-0.6-0.5-0.8,0c-0.1-0.3,0.4-0.5,0.4-1.1
	c0.1,0.1,0.1,0.3,0.4,0.3c0.1-0.3-0.3-0.3-0.4-0.4c0.4-0.3,1,0.3,0.9,0.9c0.3,0,0.5,0,0.5-0.1c0.6,0.1-0.5,0.6,0,0.6
	c-0.2,0.2-0.6,0.4-0.8,0.7c0,0.1,0.1,0.1,0.1,0.1c11.7-4.2,22.6-9.8,32.7-16.6c0-0.1,0.1-0.2,0.2-0.3c0.1,0,0.1,0,0.2,0
	c0.6-0.4,1.3-0.9,1.9-1.4c0.1-0.5,0.3-1,0.8-1.3c-0.1-0.2-0.2-0.5-0.3-0.7c-0.3,0-0.5,0.1-0.5,0.2c-0.7-0.3,0.3-1.3,1.3-0.9
	c0.1-0.3,0.1-0.5,0.2-0.8c-0.1-0.8-0.7,0.5-1.5,0.1c1-0.7,1.2-0.8,1.5-1.8h-0.4c0,0,0,0,0,0.1c0,0,0,0.1,0.1,0.1
	c-0.1,0.1-0.2,0.1-0.2,0c-0.2,0.3-0.4,0.5-0.8,0.7c-1-0.3-0.2-0.8,0.3-1.3c-0.1-0.1-0.2-0.1-0.3,0.1c-0.3-0.2,0.4-0.6,0.8-0.7
	c0,0.1,0,0.1,0,0.1c0.1,0,0.2,0,0.2,0c0,0,0,0,0,0c0.1-0.3,0.6-0.5,0.8-0.3c0.1,0.3-0.2,0.3-0.4,0.3c0.2,0,0.4,0,0.5,0.1
	c0.2-0.2,0.1-0.6-0.1-0.8c0.1,0.1,0.3,0.1,0.5,0.2c-0.1-0.2-0.3-0.4-0.2-0.7c0.9-0.4,0.7,0.2,1.4,0.4c-0.1-0.5-0.9-0.6-0.1-1
	c1.2,1.5,1.8-1,3.2-1.2c-0.3-0.7-0.6-0.9,0-1.6c0.4,0.1,0.4,0.5,0.9,0.6c0.5-0.7-0.3-0.7,0-1.3c0.9,1.2,2.8-1.1,4.5-1
	c-1.2,0,0.4-0.8,0.8-1.7c2,0.4,2.3-1,4.4-0.5c0.7-0.7,1.5-1.4,2.2-2.2c0,0,0,0-0.1,0c-0.1-0.2,0.1-0.2,0.2-0.2
	c0.2-0.3,0.5-0.6,0.7-0.8c-0.1,0-0.2,0-0.2,0.1c-0.4-0.2,0.1-0.3,0.4-0.2c0.1-0.1,0.1-0.1,0.2-0.2c-0.1-0.1-0.4,0-0.7-0.1
	c0-0.4,0.6-0.3,0-0.5c0.3-0.2,0.6,0.2,0.8,0.5c5.4-5.7,10.3-11.9,14.7-18.5c-0.1,0-0.1,0-0.1,0c0.2-0.1-0.1-0.6,0.4-0.6
	c0,0,0,0,0,0.1c1.1-1.7,2.2-3.4,3.2-5.1c-0.4-0.1-0.7-0.3-0.7-0.8c0.2,0.4,0.6,0.5,0.8,0.6c1-1.6,1.9-3.3,2.8-5v0
	C267.9,202.2,267.8,202.6,267.3,202.9"/>
<path fill="#86A0AF" d="M284.2,138c0-13.1-1.9-25.9-5.5-37.9c-0.2-0.1-0.2-0.3-0.2-0.6c-0.1-0.4-0.3-0.9-0.4-1.4
	c-0.2,0.2-0.4,0.5-0.8,0.5c0.9-0.8-1.2-0.6-0.3-1.2c-0.4,0-0.7,0.2-0.6,0.6c-0.4,0-0.3-0.3-0.7-0.4c-0.1,0.5,0.6,0.2,0.5,0.7
	c-0.4,0.3-0.9-0.9-1,0c-1-0.4,0.7-0.7,0.2-1c-0.4-0.1-0.3,0.3-0.5,0.4c-0.1-0.1-0.1-0.3-0.5-0.2c0.1-0.2,0.3,0,0.5,0
	c0-0.4-0.3-0.4,0-0.7c0.2,0,0.1,0.2,0.3,0.2c0.5-0.1,0.1-0.2,0.2-0.7c-0.4,0.2-0.6-0.3-0.7,0c-0.4-0.2,0.4-0.6,0.5-0.9
	c-0.6,0.2,0-0.1,0.2-0.3c-0.1-0.1-0.7,0.1-0.8-0.4c-0.3,0.2-0.3,0.6-0.2,0.9c-0.2-0.2-0.7-0.2-0.8-0.5c-0.6,0.3-0.6,0.4-0.3,0.9
	c-0.1,0-0.2-0.1-0.2-0.1c-0.1-0.2-0.2,0-0.5,0c-0.1-0.4,0.3-0.4,0.2-0.8c-0.2,0.1-0.3,0.3-0.3,0.6c-0.3-0.1-0.4-0.2-0.7-0.2
	c0.2-0.3,0.4-0.6,0.8-0.7c0-0.7,0.2-1.2,0.5-2c0.4,0.4,0.4,0.2,0.5,0c0.5-0.1,0.3,0.3,0.4,0.6c0.2-0.1,0.3-0.2,0.5-0.3
	c-0.1-0.2-0.3-0.3-0.3-0.6c0.4-0.2,0.9,0.4,0.8-0.1c1,0.3,0.5,0.1,1.1,0.5c0.1,0,0.2-0.1,0.4-0.1c-0.4-0.1-0.3-0.1-0.1-0.2
	c-0.5-1.5-1.1-3-1.7-4.4c0,0.1,0,0.1,0,0.2c-0.2-0.2-0.3-0.5-0.2-0.9c-0.1-0.1-0.1-0.2-0.1-0.3c-0.1,0.1-0.2,0.2-0.4,0.2
	c0.6,0.5-0.1,1.3,0.6,1.7c-0.5,0.3-1.2-0.1-0.8-0.5c0-0.1-0.3-0.1-0.3-0.3c-0.5,0.2,0.2,0.7-0.2,0.8c-0.4-0.4-0.7-0.1-1.3-0.3
	c0.9,0,0.6-0.3,1-0.9c0.3,0,0.7-0.1,0.6,0.3c0.2-0.2-0.1-1,0.6-1c-0.3-0.2-0.6-0.5-1-0.7c0.4-0.3,0.5,0.1,0.8,0.2
	c-0.1-0.1-0.1-0.2-0.1-0.3c-0.4-0.2-0.7-0.6-0.4-1c-1.3-3-2.6-6-4.1-8.9c-0.1,0.1-0.3,0.3-0.6,0.3c-0.1,0.3,0.7-0.1,0.5,0.4
	c-0.7,0-0.6-0.1-1.3,0c0.2-0.4,0.6-1,1.1-0.7c0-0.2-0.4-0.2-0.3-0.5c0.2,0,0.3,0,0.4,0c-1.8-3.5-3.8-6.9-5.9-10.3
	c-0.5,0.1-1.1-0.2-0.9-0.8c0.1-0.4,0.2,0.2,0.1,0.4c0.3-0.2,0.4-0.1,0.3,0.3c0.1,0.1,0.2-0.1,0.2-0.2c-0.1-0.1-0.1-0.2-0.2-0.3v0
	c-2.5-3.9-5.2-7.7-8.1-11.4c-0.3,0.3-0.3,0.7-1,0.6c0.2-0.2,0.2-0.5,0.5-0.3c-0.1-0.2-0.3-0.3-0.6-0.3c0.4-0.5,0.1-0.9,0-1.4
	c-2.6-3.2-5.3-6.2-8.2-9.2c0,0-0.1,0.1-0.1,0.3c-0.4-0.5-0.3-0.5-1.1-0.1c0.1-0.3,0.9-0.5,0-0.6c0.2-0.1,0.4-0.1,0.7-0.1
	c-0.2-0.2-0.3-0.3-0.4-0.4c0,0,0,0,0,0c0,0,0,0,0,0c-1.8-1.8-3.7-3.6-5.6-5.3c0,0-0.1,0-0.1,0v-0.1c-0.1-0.1-0.2-0.2-0.3-0.3
	c-0.2,0.2-0.4,0.4-0.6,0.5c0,0.4,0.4-0.3,0.3,0.3c-0.5,0.3-0.5-0.5-1.1-0.1c-0.1-0.3,0.8-0.5,0-0.5c0.1-0.5,0.3-0.1,0.8-0.1
	c-0.7-0.1-0.8-0.8-1.4-0.9c-0.4,0.1,0.2,0.3,0,0.5c-0.2,0-0.3-0.2-0.3-0.4c-0.3,0.6-1.2-0.2-1.1,0.8c-0.5-0.2-0.8,0-1.4,0
	c0.2,0.2,0.5,0.3,0.2,0.5c-0.3-0.2-0.4-0.6-0.5-0.9c0.5,0.2,0.7-0.4,0.6-1c0.4,0,0.5,0.2,0.3,0.4c0.7-0.4,0.4-0.4,1.4-0.5
	c-0.5,0.5,0.1,0.4-0.1,0.9c0.6-0.5,0.5-0.9,0.6-1.4c-0.2-0.1-0.4-0.3-0.6-0.5c0.2,0.3,0,0.4,0.2,0.8h-0.3c-0.1-0.5,0-0.5,0-0.9
	c-0.1-0.1-0.2-0.2-0.3-0.3c0,0.2-0.1,0.4-0.4,0.4c0.2-0.3,0-0.5,0.1-0.7c-4.2-3.5-8.6-6.8-13.2-9.8c0,0.1-0.1,0-0.1-0.1
	c-0.5-0.1-0.4,0.4-0.8,0.1c0.1-0.3,0.2-0.3,0.3-0.5c-0.1-0.1-0.2-0.1-0.3-0.2c-0.1,0-0.1,0-0.1,0v-0.1c-3.8-2.4-7.7-4.7-11.7-6.7
	c0,0.1,0,0.1,0,0.1c0,0,0-0.1-0.1-0.2c-1.3-0.6-2.5-1.3-3.8-1.9c-0.1,0.2-0.1,0.4-0.1,0.7c-0.2,0-0.3-0.2-0.3-0.4
	c-0.3,0.1,0,0.9,0.5,0.8c-0.2,0.4-0.6-0.1-0.8-0.1c-0.1,0.3-0.5,0.9,0,1c-0.1,0.2-0.4,0.3-0.8,0.3c0.1,0.1,0.1,0.2,0.3,0.3
	c-0.8-0.1-0.7,0-0.8,0.8c-0.2,0-0.3-0.1-0.5-0.1c0,0.3,0,0.6,0.3,0.7c-0.1,0.4-0.2-0.2-0.5-0.1c0.3,0.1,0,0.7,0.3,0.8
	c-0.2,0.3-0.4-0.3-0.6-0.4c-0.2,0.2-0.4,0.4-0.6,0.5c0.8,0.3,0.1,0.1-0.2,0.5c0.1-0.2-0.1-0.9,0-1.7c-0.6,0.1-0.9,0.1-1.2-0.3
	c-0.5,0.1,0.1,0.3,0,0.5c-0.3-0.1-0.4-0.2-0.6-0.3c0.8-1.5,0.6,0,1.1-0.8c-0.6-0.8,0-0.9-0.6-1.7c0.2,0.1,0.4,0.2,0.5,0.4
	c0.3,0-0.2-0.3,0.1-0.5c-0.1,0.1-0.2,0.1-0.2,0c0-0.5,0.1,0,0.5-0.2c-0.2-0.3-0.3-0.7-0.8-0.8c0.2-0.2,0.6-0.4,0.6,0
	c0.3,0,0.1-0.5,0.3-0.5c-0.1-0.2-0.3-0.1-0.3,0c-0.4-0.4,0.6-0.1,1-0.2c-0.4-0.3,0.3-0.2,0.3-0.5c0.5,0.2-0.2,0.3-0.2,0.5
	c0.2-0.1,0.5-0.3,0.7-0.4c-0.9-0.4-1.8-0.8-2.7-1.2c-0.1,0-0.1,0-0.3,0c-0.1,0-0.1-0.1-0.1-0.1c-0.8-0.3-1.5-0.6-2.3-1v0
	c-0.4-0.3-0.3,0-0.3,0.4c0.2-0.3,0.6,0.1,0.6-0.1c0.4,0.4-0.5,0-0.8,0.4c-0.1-0.2-0.1-0.6-0.1-0.9c-6.8-2.8-14-5-21.4-6.7
	c-0.2,0.3-0.7,0.5-0.7,0c0.1,0.1,0.2,0.1,0.5,0.1c0-0.1-0.1-0.2-0.2-0.2c-4.1-0.9-8.3-1.7-12.4-2.3c0,0.1,0,0.2,0.1,0.4
	c-0.8,0.4-1.7,0.7-2.5,1c0.3-0.4-1.4-0.9-0.7-1.5c-1.4,0.2-0.2,1-0.4,1.8h-1.8c0.6,0.4-0.3,0.9-1.1,1c0,0.6,1.8,1.6-0.4,1.5
	c0.7,0.7,1.5,0.1,2.1,0.5c-0.1,0.3-0.3,0.1-0.3,0c-0.5,0.6-0.9,1.1-1.4,1.5c2.4-1.2-0.4,0.9,0.7,1.5c0.1-0.4,0.5-1.5,1.1-2.3
	c1,0.7,0.2,1.1,0.4,2.3c0.9,0.1,0.9-0.5,1-1c0.8,0,0.2,1.1,0.4,1.5c-0.7-0.2-1.1,0.1-1.4,0.6c8,1,15.7,2.6,23.2,4.9
	c0.1-0.1,0.1-0.2,0.1-0.4c0.3,0,0.2,0.2,0.1,0.4c2.1,0.7,4.1,1.4,6.1,2.1c-0.1-0.1-0.1-0.2-0.1-0.4c0.4,0.5,0.7,0,0.8,0.4
	c0.1-0.1,0.2-0.1,0.5-0.1c-0.1-0.6-0.3-0.2-0.8-0.3c0.1-0.1,0.2-0.3,0.1-0.6c-0.1,0.1-0.3,0.1-0.3,0.2c-0.3-0.2,0.2-0.4-0.2-0.8
	c0.8-0.1,0.6-0.8,0.5-1.4c0.7,0.1-0.1-0.3,0.3-0.3c0.5,0.1,0.2,0.7,1,0.3c-0.1,0.2,0.2,0.8-0.3,0.7c0.4,0.4,0.7,0.7,0.6,1.2
	c0.1-0.1,0.4-0.1,0.5-0.2c0.4,0.4-0.2,0.6,0.3,1.3c-0.1,0.2-0.2,0-0.5,0c0.3,0.3,0.3,0.7,0.1,1.1c0.3,0.1,0.6,0.3,0.9,0.4
	c0-0.2,0.1-0.5,0.2-0.6c0.6,0.2,0.2,0.4,0,0.7c4.4,1.7,8.7,3.7,12.8,5.9c0.1-0.3,0-0.5,0.1-0.8c-0.3-0.3-0.8-0.5-0.8-1
	c0.2,0.1,0.3,0.2,0.3,0.4c0.5,0,0.2-0.7,0.8-0.7c-0.3-0.4-0.6,0.2-0.9,0.1c-0.1-0.5,0.6-0.4,0.9-0.5c0.1,0.5,0,1-0.3,1.3
	c0.1,0.1,0.3,0.1,0.3,0.3c0.2-0.1,0.2-0.3,0.5-0.3c-0.1,0.4-0.2,1,0.2,0.7c0.2,0.1,0.1,0.4,0,0.8c-0.2,0-0.3,0-0.4,0
	c5.9,3.2,11.6,6.8,17,10.8c0-0.2,0-0.4-0.2-0.4c0.3-0.5,0.8,0.4,0.4,0.5h0c0.1,0.1,0.2,0.1,0.3,0.2c0,0,0.1,0,0.1-0.1
	c0.2,0.1,0.4,0.2,0.6,0.3c-0.1,0-0.3,0-0.4,0.1c1.1,0.8,2.2,1.7,3.2,2.5c0.5-0.1,0.8-0.3,0.9-0.8c0.9,0,1.5,0.1,1.8,0.5
	c0.1-0.4,0.5-0.5,1.1-1c1,0.4,0.4,1.7,0.4,2.3c-0.5-0.1-0.9-0.4-1.4-0.5c-0.3,0-0.4,0.2-0.7,0.2c0.1,0.2,0.3,0.3,0.3,0.5
	c1.2-0.6,0.4,0.2,0.1,0.7c0.3,0.3,0.7,0.6,1,0.9c0-0.1,0-0.1,0-0.2h0.7c0.2,0.2,0.3,0.4,0.3,0.8c-0.2,0-0.4-0.1-0.5-0.1
	c2.1,1.8,4,3.7,6,5.6c0-0.1,0.1-0.2,0.1-0.3c0.2,0,0.3,0.2,0.5,0.3c-0.1-0.3-0.3-0.5-0.6-0.5c0.2-0.5,0.6,0,0.8,0.2
	c0.1,0,0.1-0.1,0.3-0.1c-0.2-0.3-0.9-0.3-1.1-0.8c0.9,0.4,0.7,0.1,1.6,0c0-0.2-0.3-0.3,0-0.4c-0.1-0.2-0.3-0.3-0.7-0.3
	c0.1-0.5,0.6,0.2,0.8-0.2c0.2,0,0,0.4,0.3,0.4c0.5-0.2-0.6-0.8-0.1-0.9c0.1,0.1,0.6,0.7,0.8,1.1c0.3,0,0.2-0.6-0.1-0.4
	c0.4-0.2,0.4-0.7,1.1-0.7c-0.2,0.2-0.4,0.3-0.6,0.4c0.2,0.5,0.3,0,0.8,0c0.1,0.1,0.1,0.2,0.3,0.3c-0.2,0.2-0.6,0.2-0.8,0.4
	c0.1,0.1,0.4,0.1,0.3,0.4c0.1-0.2,0.3-0.5,0.5-0.5c0.1,0.2-0.2,0.7,0.1,0.7c0.4-0.2-0.2-0.5,0.3-0.7c-0.5-0.2-0.3-0.8,0-1
	c0.4-0.1,0.3,0.3,0.6,0.3c0-0.3-0.4-0.2-0.3-0.5c-0.3,0-0.3,0.4-0.8,0.3c0.3-0.3,0.4-0.6,0.8-0.8c-0.4,0.1-0.3-0.9,0.3-0.9
	c-0.1-0.2-0.4-0.3-0.3-0.6c0.2,0,0.3,0,0.3-0.2c0.3,0-0.2,0.4,0.2,0.5c0.3,0,0.1-0.5,0.1-0.7c-0.1-0.2-0.6,0.2-0.5-0.4
	c0.5,0,0.5,0.3,1,0.3c-0.6,0.2-0.1,0.5,0.3,0.6c-0.1,0.2-0.2,0-0.5,0c0.2,0.3,0.4,0.4,0.2,0.8c0.1,0,0.5-0.4,0.2-0.4
	c0-0.2,0.4-0.1,0.6-0.2c-0.1,0.4-0.1,0.3,0,0.7c-0.3-0.3-0.8,0.5-1-0.1c-0.2,0-0.1,0.1-0.2,0.3c0.3,0.4,0.7-0.1,1.1,0
	c-0.1,0.6-0.2,0.6,0,1.2c-0.6-0.2-0.5,0.2-1,0.3c0.1,0.4,0,0.8-0.3,1.2c0.7-0.1,0.4-0.6,0.6-0.8c0.6-0.2-0.2,0.8,0.3,0.4
	c-0.1,0.3,0,0.5,0.3,0.9c-0.2,0-0.3,0.1-0.5,0.1c0.5,0.1,0.4,0.5,1.1,0.6c-0.4,0-0.8,0.6-1.3,0.2c-0.5,0.2,0.5,0.6,0,0.9
	c0,0.2,0.4,0.1,0.6,0.1c0.1,0.1,0.2,0.2,0.2,0.4c0.5,0.2-0.4,0.1-0.2-0.3c-0.2,0.2-0.7,0.1-0.6,0.5c0.3-0.5,1-0.1,0.8,0.5
	c-0.2,0-0.1-0.2-0.2-0.4c-0.3-0.1-0.5,0-0.5,0.2c-1-0.3-0.1-0.8-0.6-1.2c-0.6,0.9-0.1,1.5,0.5,2.1c-0.2-0.1-0.4-0.2-0.5-0.4
	c-0.4,0.1-0.1,0.2-0.1,0.5c-0.6,0.1-0.2-0.6-0.5-0.7c0,0.1-0.3,0.7-0.8,0.4c0.1-0.1,0.4-0.2,0.3-0.3v0c-0.1,0-0.1,0-0.3,0
	c0,0,0,0,0,0c-0.1,0-0.2-0.1-0.4-0.1c-0.1,0.3-0.4,0.6-0.7,0.6c2,2.2,3.9,4.4,5.8,6.6c0.1-0.1,0.1-0.1,0.1-0.2
	c0.3-0.5,0.4,0.3,0.6,0.4c0,0.2-0.2,0-0.5,0c7.7,9.5,14,20.1,18.7,31.5c0,0,0.1,0,0.1,0c0.3,0,0.6-1,0-0.9c0.1-0.2,0.5-0.2,0.8-0.3
	c0,0.1,0,0.2,0.2,0.3c-1,0.6,0.5,0.6-0.5,0.8c-0.1,0.4,0.6,0.1,0.5,0.5c-0.2-0.3-0.7-0.1-0.8-0.2c-0.1,0-0.1,0-0.1,0
	c0.6,1.4,1.2,2.9,1.7,4.4c0.1,0,0.1-0.1,0.2-0.2c0.4,0.1,0.7,0.7,0,0.6c-0.1-0.2,0.2-0.2,0.2-0.4c-0.2,0-0.3,0-0.3,0
	c2.1,5.8,3.9,11.9,5.2,18.1c0.2,0,0.5-0.1,0.8-0.4c0.4-0.1-0.4,0.6,0.3,0.5c0,0.5-0.4,0.5,0.3,0.4c-0.2,0.3-0.6,0.3-0.5,0.9
	c-0.5,0-0.1-0.9-0.3-0.5c-0.5-0.1,0.2-0.4,0.3-0.5c-0.1-0.3-0.3,0.4-0.8,0.1c0.1,0.3,0.3,0.5,0.2,0.9c0,0-0.1,0-0.1,0
	c0.7,3.5,1.2,7,1.6,10.5c0.3-0.2,1.1,0.2,0.9-0.7c0.1,0.1,0.2,0.2,0.5,0.1c0,0.9-0.4,1.7-0.2,2.5c-0.2,0-0.3-0.1-0.3-0.2
	c-0.2,0-0.2,0.1-0.2,0.2c-0.4-0.1,0.2-0.5,0.2-0.7c-0.1-0.1-0.3-0.1-0.3-0.3c-0.3,0.1,0,0.2,0.1,0.3c0,0.3-0.4,0.3-0.5,0.5
	c0,0,0,0-0.1,0c0.2,2,0.3,4.1,0.4,6.1c0.1,0,0.3-0.1,0.4-0.1c-0.1,0.1-0.2,0.2,0,0.2c-0.1,0.2-0.3,0.2-0.4,0.1c0,0.1,0,0.2,0,0.3
	c0.1,0,0.3,0,0.4,0c-0.1,0.1-0.2,0.2,0,0.3c0,0.1-0.2,0.1-0.4,0c0,0.1,0,0.2,0,0.3c0.2,0.1,0.4,0.2,0.5,0.3c0.1-0.2,0.3-0.4,0.7-0.7
	c-0.1-0.1-0.4-0.1-0.3-0.4c0.7,0,0.2,0.5,0.5,0.5c-0.6,0.3-0.4,0.8-1.1,1.2c0.1,0.4,0.4-0.2,0.6,0.1c-1.1,0.5,1.1,0.6,0.5,1.2
	c-0.2-0.3-0.7-0.3-1.1-0.4c0.6,0.1,0.2,1,1.1,0.9c-0.3,0.4-0.1,0.4-0.4,0.8c-0.2-0.3-0.7,0.1-0.7-0.1c-0.1,0.1-0.1,0.1-0.2,0.2v0.9
	c0,0.9,0,1.7,0,2.6c0.2,0.1,0.4,0.1,0.7,0.1c-0.1,0.2-0.4,0.2-0.7,0.1v0.2c0.3,0,0.5,0.1,0.8,0.2c0.4-0.2,0.4-0.6,0.9-0.7
	c-0.1-0.1-0.1-0.2-0.3-0.3c-0.3,0.3-0.3,0.5-0.5,0c-0.2,0.1,0,0.2,0,0.4c-0.1,0.4-0.4-0.9-0.7-0.3c-0.3,0,0.1-0.6,0.5-0.5
	c-0.1,0.2,0.1,0.3,0.3,0.3c0.3-0.1-0.1-0.2,0-0.4c0.3,0,0.1,0.4,0.5,0.4c0.4,0,0.1-0.6-0.2-0.5c0-0.3,0.7-0.1,0.8,0
	c0,0.5-0.2,0.5,0.3,0.6c-0.1,0.2-0.3,0-0.5,0c0.2,0.4-0.1,0.6,0.1,1c-0.3,0-0.3-0.3-0.4-0.5c-0.5,0.4-0.2,0.7-0.5,1.2
	c0.5,0,0.8-0.2,1.3,0c-0.5,0.5-1.8-0.1-1.9,0.7c-0.4,0.1-0.3-0.3-0.5-0.4c0,0,0,0,0,0c0,0.2,0,0.4,0,0.6c0.1,0.2,0.2,0.3,0.1,0.4
	c0.3,0.1,0.3-0.1,0.3-0.2c0.4-0.1,0.3,1-0.1,1c0.2-0.4,0-0.5-0.3-0.6c-0.1,3.5-0.4,7.1-0.9,10.5c0,0,0.1,0.1,0.2,0.1
	c0,0-0.1,0.1-0.2,0.1c0,0.1,0,0.2,0,0.3c0.1-0.1,0.1-0.1,0.2-0.2c0.1,0.2-0.2,0.7,0.2,0.6c0.4-0.2-0.2-0.5,0.3-0.6
	c-0.6-0.2-0.3-0.8,0-1.1c0.4-0.1,0.3,0.3,0.6,0.3c0-0.3-0.4-0.2-0.3-0.5c-0.3,0.1-0.3,0.4-0.8,0.2c0.3-0.2,0.4-0.6,0.8-0.8
	c-0.4,0.1-0.3-0.9,0.3-0.9c-0.1-0.3-0.3-0.3-0.3-0.7c0.2,0,0.3,0,0.3-0.1c0.3,0-0.2,0.3,0.1,0.5c0.4,0,0.1-0.5,0.2-0.7
	c-0.1-0.2-0.6,0.2-0.5-0.4c0.5,0,0.5,0.3,0.9,0.3c-0.6,0.2-0.1,0.5,0.3,0.7c-0.1,0.2-0.2-0.1-0.5,0c0.2,0.3,0.4,0.4,0.2,0.8
	c0.1,0,0.5-0.4,0.1-0.4c0-0.2,0.4-0.1,0.6-0.1c-0.1,0.4-0.1,0.2,0,0.6c-0.3-0.3-0.8,0.5-1-0.1c-0.1,0-0.1,0.2-0.1,0.3
	c0.3,0.4,0.7-0.1,1.1,0c0,0.6-0.2,0.6,0,1.2c-0.6-0.2-0.4,0.2-1,0.3c0.1,0.4,0,0.8-0.3,1.2c0.7-0.1,0.4-0.6,0.6-0.8
	c0.6-0.2-0.2,0.8,0.3,0.4c-0.1,0.3-0.1,0.5,0.3,0.9c-0.3,0-0.3,0.1-0.5,0.1c0.5,0.1,0.4,0.5,1.1,0.6c-0.4,0-0.9,0.6-1.3,0.2
	l-2.6,0.1c-0.3,2.3-0.7,4.5-1.2,6.7c0.1-0.1,0.3-0.2,0.4-0.2c0.1,0.4-0.2,0.5-0.3,0.8c-0.1,0-0.2-0.1-0.2-0.1
	c-1,4.9-2.3,9.6-3.8,14.2c0.1,0,0.2,0,0.4,0c-0.6,0.5,0.4,0.8-0.4,1.3c-0.2,0-0.3,0-0.5,0c-1.2,3.6-2.7,7.2-4.2,10.7
	c0.3,0.4,0.5,0.9-0.1,1c0-0.2,0-0.4,0-0.6c-1.3,2.9-2.7,5.7-4.2,8.5c0.5-0.1,1.1-0.1,1.3-0.3c0.2-0.8-1.2-0.7-0.4-1.3
	c0.8,0.3,1.5,0.2,2.1-0.1c-0.1,0-0.1,0-0.2,0.1c0-0.3,0.5-0.2,0.3-0.5c0.2,0.3,0.6,0.3,0.8,0c0.1,0,0.1,0.1,0.1,0.1
	c0.3,0,0.4,0.1,0.5,0.4c0,0,0.1,0,0.2-0.1c0-0.2-0.1-0.3-0.3-0.5c0.3-0.5-0.2-0.6-0.3-1c0.4,0.2,0.7,0.6,1.3,0.5
	c0.1-0.2,0.2-0.4-0.2-0.7c0.2-0.4,0.4,0.1,1.1,0c-1,1.3,0.3,1.2-0.4,2.3c0.3-0.2,0.6-0.3,1.1-0.3c-0.9-1.1,1-1.3,0-2
	c1.6-0.5,0.8,2.1-0.4,2.5c0.3,0,0.5,0,0.7-0.1c0.1-0.2,0.3-0.3,0.6-0.4c0-0.7,0.1-1.2,0.5-2c0.4,0.4,0.4,0.2,0.4,0
	c0.5-0.1,0.3,0.3,0.3,0.5c0.2-0.1,0.3-0.2,0.5-0.3c-0.1-0.2-0.4-0.3-0.3-0.7c0.5-0.2,0.9,0.4,0.8-0.1c1,0.3,0.5,0.1,1.1,0.5
	c0.1,0,0.1-0.1,0.3-0.1c-0.6-0.1,0.1-0.1,0.2-0.6c0.8,0.4-0.5,0.8,0,1.2c-0.2,0.4-0.4-0.3-0.6-0.3c0.1,0.4,0.5,0.4,0,0.6
	c0.2,0,0.3-0.1,0.4-0.2c0.1,0,0.2,0.1,0.2,0.2c0.1-0.1,0.2-0.1,0.3-0.1c0.1,0.1-0.1,0.1-0.2,0.1c0,0.2,0.3,0.1,0.5,0.1
	c-0.1,0.1-0.2,0.3-0.2,0.5c-0.1,0.1-0.4,0.1-0.6,0.1c0,0.2,0.2,0.4,0.1,0.5c1.1-1.1-0.1,0.1-0.1,0.6c-0.1,0.3-0.3,0-0.4-0.2
	c0,0.1-0.1,0.1-0.1,0.2h0.1c0.1,0.4-0.3,0.5-0.1,0.9c0.3-0.3,0.3-0.8,0.9-0.5c-0.7,0.3,0.1,0.9-0.8,1.1c0.1,0.2,0.3,0.2,0.3,0.4
	c0.2-0.1,0.2-0.7,0.3-0.3c0,0,0,0,0,0h0.3c0,0,0,0,0.1,0.1c0-0.1,0.1-0.1,0.1-0.2c0-0.1-0.3-0.1-0.5-0.1c-0.2-0.3,0.6-0.6,0.5-0.1
	c0.2,0,0.1-0.3,0.3-0.3c-0.2-0.4-0.2-0.8-0.8-0.8c0.2-0.1,0.2-0.5,0.6-0.5c0,0.5,0.4,0.5,0.2,1c0.1,0,0.1,0,0.2,0
	c0-0.1,0.1-0.2,0.1-0.2c0.4-0.9,0.9-1.8,1.3-2.6c-0.1,0.1-0.2,0.3-0.3,0.3c-0.3,0,0-0.1,0.1-0.1c0-0.1-0.2-0.1-0.3-0.2
	c-0.1-0.6,0.3-0.8,0.8-0.9c0.2,0.4-0.5,0.2-0.6,0.4c0,0.1,0.3,0,0.5,0.1c0.3-0.6,0.6-1.3,0.9-1.9c-0.5,0.3-0.9,0.7-1.4,0.9
	c-0.4-0.3,0-0.8-0.2-1.7c0.6-0.1,0.3-0.2,0.5-0.5c0.5,0.3,0.9-0.1,1.3-0.3c-0.1-0.2-0.3-0.3-0.5-0.4c0.3-0.4,0.4,0.2,0.8,0.2
	c0.4,0-0.6-0.9,0.1-0.5c-0.5-0.5-0.2-1.1,0.3-1.7c0.2,0.1,0.4,0.1,0.7,0.1c2.9-7.2,5.3-14.7,7-22.4c-0.1,0-0.1-0.1-0.3-0.1
	c0.2-0.3,0.3-0.2,0.2-0.7c0.1,0,0.2,0,0.3,0c1-4.5,1.7-9.1,2.2-13.7c-0.4,0-0.3,0.4-0.7,0.2c0-0.5,0.4-0.5,0.2-0.9
	c-0.4,0-0.2,0.6-0.8,0.4c0.4-0.4,0.6-0.5,1.3-0.4c-0.1,0.2,0,0.3,0.1,0.4c0.1-0.5,0.1-1,0.1-1.5c0,0-0.1,0-0.1-0.1
	c0,0,0.1,0,0.1-0.1C284,146.3,284.2,142.2,284.2,138"/>
<path fill="#86A0AF" d="M176.5,22.5c0-0.1,0-0.1,0-0.1c-5.5-1.5-11.1-2.7-16.8-3.5c0,0.3-0.1,0.6,0.3,0.8c-0.1,0.3-1-0.3-0.8-0.9
	c-3.7-0.5-7.5-0.8-11.3-1c0.3,0.6,1.2,0.7,1.9,0.9c-0.4,1-0.8,0.2-2,0.3c0.4-0.5,0-0.9-0.4-1.2c-0.8,0-1.5,0-2.3,0
	c0.1,0.4,0.3,0.6,0.7,0.4c0.7,0.5-1.8,1.5,0,2.3c-0.1,0.3-0.4,0.2-0.4,0c-1-0.1,0.2,1.3-1.2,0.9c0.5-1.3,0.4-1.5-1.2-1.8
	c-0.1-0.6,0.8-1.4,1.1-1.9c-0.4,0-0.9,0-1.4,0c-4.6,0-9.1,0.3-13.6,0.7c0.1,0.3,0.1,0.5,0.5,0.6c-0.1,0.4-0.7-0.2-0.8,0.3
	c-0.6-0.3-0.7-0.5-0.6-0.8c-3.1,0.4-6.1,0.8-9,1.4c0.1,0,0.1,0,0.1,0.1c-0.4,0.1-0.5,0.3-0.6,0.6c0.1-0.1,0.2-0.2,0.3-0.3
	c0.4,0.6,0,0.6-0.4,0.6c-0.1,0.1-0.2,0.2-0.3,0.3c0.6,0.3-0.1,0.7,0.5,0.9c-0.2,0.4-0.9,0.3-1.1,0.6c-0.1-0.1-0.1-0.3-0.2-0.4
	c0,0-0.1,0.1-0.1,0.1c0,0.6,0.9,0.3,0.9,0.9c-0.6,0.2-0.1-0.5-0.7-0.3c0.4,0.6-0.5,0.5-0.9,1c0-0.1-0.2-0.8-0.7-0.3
	c-0.1-0.3-0.1-1,0.4-1.5c0.2,0,0.1,0.2,0.2,0.3c0.4-0.3-0.1-0.7,0.2-0.9c-0.2-0.1-0.4-0.2-0.8-0.2c0.9-1.2,1.3,0.1,2.2-1.2
	c0,0,0,0,0,0c-0.8,0.1-1.5,0.3-2.3,0.5c0.4,0.3-0.5,1-0.2,1c0,0.1-0.1,0.1-0.2,0.1h-0.3c-0.1-0.4,0.3-0.3,0.3-0.6
	c0-0.2-0.3-0.1-0.3-0.3c-0.3,0.4-0.4,0.1-0.6,0.3c-0.2,0-0.1-0.1-0.1-0.3c-1.2,0.3-2.5,0.6-3.7,0.9c0,0.1,0.1,0.2,0.2,0.2
	c0,0.3-0.6,0.1-0.5,0.4c-0.2,0-0.1-0.1,0-0.1c0-0.1,0-0.3-0.1-0.4c-0.3,0.1-0.6,0.2-0.9,0.2h0.1c0.1,0.3,0.4,0.4,0.4,0.9
	c-0.7,0-0.7,0.4-1.3,0.4c0.1,0.1,0.2,0.3,0.2,0.6c-0.8-0.4-0.3,0.6-0.9,0.2c0.1,0.3,0.4,0.4,0.4,0.9c-0.4-0.1-0.4-0.2-0.2-0.4
	c-1,0-1.5,0.5-1.8,1c-0.3,0.4,0.4-1.1,0-1.2c-0.6-0.1-0.1,0.7-0.7,0.6c0.1-0.7-0.8-0.6-1.4-0.6c-0.1-0.5,0.4-0.5,0.7-0.3
	c0-0.3-0.4-0.2-0.4-0.6c-3.8,1.2-7.4,2.7-11,4.2c0.1,0,0.1,0,0.2,0.1c-0.5,0.4-0.2,0.6,0.4,0.7c-0.4,0.2-0.5,0.6-1.1,0.6
	c-0.5-0.1-0.7-0.5-1-0.7c-0.1,0-0.1,0.1-0.2,0.1c0.1,0.2,0.1,0.4,0.3,0.6H92c0,0,0,0,0,0c0.2,0.4,0.4,0.8,0.8,0.8
	c-0.1-0.3,0.2,0.2-0.2,0.6c0.6-0.3,0.9-0.2,1.4,0.3c-0.7-0.1-0.9,0-1.8-0.1c0.4-0.3-0.4-0.8,0-1.1c-0.3,0-0.5,0.1-0.5,0.3
	c-0.3-0.1,0.1-0.6,0.3-0.8c0,0,0,0,0,0c-0.5,0-0.5,0.4-1.2,0.3c-0.2-0.2-0.3-0.3-0.3-0.4c-0.5,0.2-1,0.5-1.5,0.7
	c0.6,0.3-0.5,1,0.7,0.8c-0.1,0.2-0.4,0.1-0.7,0.2c-0.1,0.4,0.1,0.5,0.5,0.4c-0.3,0.7-1-0.2-1.1-0.6c-0.5,0.4,0,1-0.3,1.3
	c-0.3,0.1-0.1-0.9-0.4-0.3c0-0.1-0.1-0.8,0.4-0.9c-0.2-0.1-0.3-0.2-0.4-0.4c-0.1,0.1-0.2,0.1-0.4,0.2c0.3,1.1-0.3,2.1-1.1,2.7
	c0.2-0.3-0.3-0.8-0.4-0.5c0-0.4,1-0.5,0.7-1.3c0-0.2-0.6,0.1-0.8-0.1c-26.6,14-47.3,37.4-57.5,65.8c0.1,0,0.3,0.1,0.4,0.1
	c-0.7,0.3,0.2,1,0.4,1.5c-0.4-0.3-0.7-0.1-1.1,0c0.1-0.3,0.5-0.3,0.5-0.6c-0.1-0.2-0.2-0.3-0.2-0.5c-0.1,0.1-0.2,0.1-0.3,0.1
	c-0.1,0.3-0.2,0.7-0.3,1c0,0.1,0,0.1,0.1,0.2c-0.1,0-0.1,0-0.2,0c-0.1,0.2-0.1,0.3-0.2,0.5c0,0.1,0.1,0.2,0.2,0.3
	c0.6,0.2,0.3-0.6,0.9-0.4c0.4,0.4,0,0.7,0.7,0.9c-0.7,0.3-0.6,1.5-0.3,1.3c0.6,0.4-0.5,0.3-0.7,0.1c0.1,0.2,0.4,0.2,0.4,0.4
	c-0.4,0.1-0.7,0.1-1.4,0.2c0.1-0.1,0.2-0.2,0.2-0.4c0.3,0,0.4,0.2,0.7,0.1c0.3-0.5-0.6-0.1-0.5-0.4c-0.4,0.1-0.6,0.4-0.9,0.8
	c-0.1,0.3-0.2,0.6-0.3,0.9c0.2,0,0.4,0,0.4-0.2c0.6,0.2-0.3,0.4-0.4,0.6c0.2,0.1,0.8,0.4,0.9,0.4c-0.2,0.4,0.9,1.1-0.3,1
	c0.4,0.4,0.7,0.3,0,0.8c0.3,0.3,0.6-0.1,1.1,0.3c-0.8-0.1-1.2,0.6-2,0.8h0.3c0,0.1,0.1,0.1,0.2,0.1c0,0.2-0.2,0.1-0.2,0
	c-0.4,0,0,0.4,0.2,0.5c0.2,0,0.1-0.3,0.2-0.5c0.2,0.1,0.3,0.2,0.4,0c0.4,0.1,0,0.7-0.4,0.6c0.4,0.8,0.6,1.5,0,2.1l-0.2-0.9
	c0.9-0.6-0.7-1-0.6-1.9c0,0,0,0-0.1,0c0,0,0.1,0,0.1-0.1c0.2-0.1,0.3-0.4,0.6-0.4c-0.2-0.4-0.4,0.2-0.7-0.1c-0.2,0-0.3,0.1-0.4,0.3
	c0,0.5,0.1,1,0.1,1.4c0,0.2-0.3,0.1-0.5,0.1v0c-0.8,3.4-1.6,6.8-2.1,10.3c0.1,0,0.1,0.1,0,0.1c-0.1,0.2-0.1,0.5-0.1,0.7c0,0,0,0,0,0
	c0.4-0.3,0.2-0.9,0.5-1.2c0.6-0.2,0.1,0.5,0.7,0.3c0,0.2-0.4,0.1-0.5,0.2c0.1,0.4,0.8,0.3,0.7,0.9c-0.2,0-0.3-0.2-0.6-0.3
	c0.2,0.6-0.3,0.4,0.2,1c0,0.5-0.5-0.5-0.5,0c-0.3-0.1,0-0.3,0-0.4c-0.6,0.7-0.7,2.1-0.7,2.6c-0.1,0-0.2-0.1-0.2-0.1
	c-0.1,0.3-0.1,0.6-0.1,0.9c0.2,0,0.6,0.1,0.7,0.2c-0.1,0.4-0.5,0.2-0.7,0.1c-0.1,0.6-0.1,1.2-0.2,1.8c0.1,0,0.3,0,0.4-0.1
	c-0.1,0.1-0.2,0.2-0.4,0.3c-0.2,1.9-0.4,3.9-0.4,5.8c0.2,0,0.4-0.1,0.5,0c0.3,0,0.7-1.1,0-1c0.2-0.2,0.6-0.2,0.9-0.3
	c0,0.2,0.1,0.3,0.2,0.3c-1.1,0.6,0.3,0.6-0.3,0.8c0.2-0.1,0.4-0.1,0.6,0c-0.1,0.3,0.1,0.3,0.3,0.5c0.5-0.4,0-1.4-0.1-2
	c-0.4-0.1-0.3,0.2-0.3,0.5c-0.8-0.2,0.3-1-0.7-1c0.7-0.4,0.8-0.8,0.4-1.4H22c0.4-1.2,1.2,0.1,1.5,0.4c0.3-0.1,0.1-0.6,0.3-0.9
	c0.3,0.2,0.7,0.6,0.4,0.9c0.4-0.1,0.4-0.6,0.9-0.6c-0.1-0.3-0.5-0.9,0.3-0.9c-0.1-0.5-1-0.8,0-1c0.1,0.3-0.1,0.3-0.3,0.3
	c1.4,0.7,0.2-0.5,0.3-0.9c0-0.3-0.6-0.1-0.5-0.4c-0.4,0.4-1,0.5-1.3-0.2c0.6,0.4,0.8,0.2,0.9-0.1c-0.1-0.1-0.1-0.2-0.1-0.4
	c0.4,0,0.5,0,0.6-0.1c-0.3-0.2-0.5-0.2-0.2-0.7c-0.7-0.2-0.3,0.4-0.9,0.3c-0.7-0.9,0.1-1.3,0.7-1.3c0-0.3-0.5-0.2-0.4-0.6
	c0.4-0.3,0.3,0.1,0.7,0.2c0.4-0.6-0.1-1.8,1.1-1.3c-0.1-0.4-0.3-0.9,0.4-0.9c-0.1,0.5-0.5,0.5,0,0.9c0.2-0.1,0.2-0.3,0.6-0.3
	c-0.1,0.7,0.3,0.9,1.1,0.9c-0.5,0.5-0.1,1-0.4,1.5c0.1,0.1,0.1,0.2,0.1,0.3c0.3,0,0.2-0.4,0.6-0.3c-0.3-0.5,0-0.4,0.1-0.8
	c-0.1,0-0.1-0.1-0.1-0.1c0,0.1,0,0.1,0,0.2c-0.5-0.4,0.3-1.1,0.7-1.3c-0.3-0.3,0.1-1.3-0.5-1.3c0.1-0.4,0.3,0.4,0.9,0.1
	c-0.3,0.7,0.2,1.1-0.4,1.6c0.4,0,0.6,0.2,0.9,0.3c-0.2,0.1-0.4,0.1-0.5,0.2c-0.1,0.2-0.2,0.2-0.4,0.1c-0.1,0-0.2,0.1-0.3,0.1
	c-0.1,0.4,0.8-0.1,0.5,0.5c-0.2-0.1-0.4-0.2-0.6-0.2c0.2,0.4-0.3,1-0.8,1.5c0,0,0.1,0.1,0.2,0.1c0.1,0.4-0.4,0.4-0.7,0.4
	c0.6-0.1,0.6,0.6,0.9,1.2c-0.5,0-0.9,0.2-1.3,0.4c0.1,0,0.1,0,0.2,0c-0.1,0.2-0.2,0.3-0.6,0.3c0.1,0.1,0.2,0.2,0.2,0.5
	c0.1,0,0.2,0,0.3-0.1c0.1-0.5,0.6-0.8,1.4-1c-0.2,0.4-0.7,0.7-1.2,0.9c0,0,0,0.1,0.1,0.1c0.8,0,1.5,0.3,1.9-0.2c0,0,0,0,0.1,0
	c0.5-0.4,1.1-0.2,1.7-0.5c-0.4-0.3-0.9,0-1.6-0.6c0.2-0.7,1.1-0.3,1.9-0.3c0-0.3,0.1-0.6,0.1-0.9c-0.1-0.1-0.1-0.2,0-0.4
	c0-0.1,0.1-0.2,0.1-0.2c0.1-1.1,0.3-2.1,0.5-3.2c0-0.1-0.1-0.2,0-0.3H32c0-0.1,0-0.2,0.1-0.4c-0.1,0.1-0.2,0.1-0.3,0.1
	c0.4-0.6,0.3-0.9,0.2-1.5c0.1,0.1,0.2,0.2,0.3,0.3c0.1-0.6,0.2-1.2,0.4-1.8c-0.1,0-0.2,0-0.3,0.1c-0.3-0.1,0.1-0.2,0-0.4
	c-0.4-0.1-0.6,0.8-0.7,0c-0.4,0-0.6,0.1-0.6,0.4c-0.2-0.2-0.6-0.3-0.7-0.6c0.1-0.3,0.5,0.6,0.9,0.1c-0.1-0.4-0.8-0.2-0.5-0.9
	c0.2,0.1,0.3,0.2,0.4,0c0.2,0.1,0,0.2,0,0.3c0.6,0.1,0.3-0.3,0.4-0.6c0.5,1.1,0.9-0.6,0.5-0.9c0.8-0.2,0.8,0.2,1.1,0.5
	c0.2-1.1,0.5-2.2,0.8-3.4c-0.6,0.2-1.5,0.3-1.6,0.6c-1.6-0.8,1.6-0.6,1.2-1.5c0.2,0.1,0.4,0.2,0.5,0.2c0.1-0.4,0.2-0.8,0.3-1.2h-1.7
	c0.9-0.3-0.3-0.5-0.2-1.1c0.7,0.5,0.2,0.1,0.9-0.1c-0.3-0.1-1-0.5-0.5-0.8c0,0.6,1.4,0.7,0.9,0.1c0,0.2-0.3,0.2-0.4,0
	c0.3-0.4,1-0.1,0.9-0.6c0.1,0.4,0.4-0.1,0.7,0c-0.4,0.1-0.3,0.4-0.2,0.6c0.5-1.8,1.1-3.7,1.7-5.5c-0.2,0.1-0.6-0.1-0.7-0.1
	c0.2-0.1,0.2-0.7,0-0.3c-0.2-0.1-0.3-0.6,0.3-0.6c0,0.3,0.3,0.3,0.6,0.4c0.2-0.6,0.4-1.2,0.6-1.9c-0.3-0.1-0.5-0.1-1.1-0.1
	c0.2-0.4,0-0.3,0.2-0.9c-0.7,0-0.3,0.9-1.1,0.9c0.1,0.2,0.2,0.3,0.6,0.3c-0.4,0.4-0.6,0.8-0.3,1.2c0.1,0.4-0.7,0-0.8,0.2
	c0-0.5,0.1-1.1,0.8-1.3c-0.2-0.2-0.7-0.1-0.8,0c-0.3,0.1-0.1-0.5,0.3-0.5c-0.4,0-0.7-0.2-0.3-0.7c0-0.2-0.4-0.1-0.4-0.3
	c-0.5,0.1,0.3,0.2,0,0.6c-0.2-0.1-0.4-0.2-0.4-0.4c-0.1,0-0.2,0.1-0.4,0.1c0.4,0.3,0.5,0.6,0.4,1c0,0,0.1-0.1,0.1-0.2
	c0.4,0.2,0.1,0.3-0.2,0.4c0,0.1,0,0.2-0.1,0.3c-0.1,0-0.1,0-0.1,0c0,0,0,0,0,0c-0.4,0.5-1-1-1.1,0.1c-0.2,0-0.1-0.3-0.4-0.3
	c0-0.2,0.3-0.1,0.5-0.1c0.2-0.4-0.4-0.3-0.7-0.3c0.1-0.1,0.2-0.2,0.3-0.2c0-0.1-0.1-0.2-0.1-0.3c-0.4,0.1-0.5,0.4-0.7,0.7
	c-0.4,0,0.3-0.4-0.4-0.4c0.1-0.2,0.2,0,0.5,0c0.1-0.4-0.5-0.3-0.5-0.6c-0.3,0.3,0,0.9-1,0.8c0.1,0.1,0.2,0.2,0.2,0.4
	c0.4,0,0.5-0.3,1.1-0.1c0.4,0-1.4,0.6,0,0.6c0.1,0.4-0.4,0.4-0.7,0.4c0.9,0.1-0.2,1.1,0.7,1.6c-0.3-0.1-0.3-0.4-0.9-0.3
	c0.7-0.4-0.1-0.6-0.2-1.2c-0.5,0.2,0.2,0.6-0.2,0.7c-1,0.3-0.4-1.5-1.1-1c-0.3,0,0-0.6,0.5-0.5c-0.7-0.2,0.6-0.8-0.3-1
	c0.1-0.2,0.4-0.3,0.7-0.3c0,0.5,0.4,0,0.7,0.4c-0.4-0.4,0.2-0.7-0.4-0.9c0.5-0.3,0.1-0.2,0.4-0.6h0.5c-0.1-0.1-0.2-0.2-0.2-0.4
	c-1.4,0.6-0.4,0.7-1.6,0c0-0.4,0-0.6,0.2-0.8c0.1,0.9,1.2,0.5,1.3-0.3c-0.1-0.2-0.3-0.4-0.4-0.6c-0.4,0.1,0.2,0.2-0.2,0.5
	c-0.2-0.2-0.2-0.7-0.9-0.5c0.2-0.3,0.5-0.5,1.1-0.4c-0.1-0.6-0.3-0.9,0.4-1c-0.6,0.1-0.3-0.6,0.5-0.6c-0.1,0.3,0.1,0.4,0.2,0.6
	c0.6-0.1,0-0.4,0.4-0.9c-0.6-0.2,0.1-0.4-0.6-0.6c0.3-0.6,0.3,0.4,0.9,0.1c0.1,0.8,1.2,1.5,0.2,2.2c0.3,0.3,0.5,0.6,0.5,0.8
	c0,0.2-0.3,0.1-0.5,0.1c0,0.2,0.2,0.3,0.3,0.3c-0.5-0.5,0.8,0.5,0.3-0.4c0.2,0.1,0.3,0.2,0.6,0.2c-0.4,0.6,0.6,1-0.2,1.3
	c0,0.3,0.6,0.1,0.9,0.1c-0.6-0.4,0.6-0.7-0.2-0.9c0.1-0.2,0.3,0.1,0.4-0.1c0,0.4,0.5,2.5,1.6,1.5c-0.1-0.1-0.5-0.2-0.8,0
	c-0.1-0.1-0.1-0.3-0.5-0.3c0-0.7,1.2,0.4,0.7-0.3c0-0.5,0.6,0.3,0.5-0.2c0.3,0,0.1,0.4,0.2,0.6c0.3-0.4,0.7,0,1.1-0.4
	c0,0.2,0.1,0.3,0.1,0.5c0.2-0.4,0.3-0.8,0.5-1.2c0-0.1,0-0.2,0.1-0.2c0.1-0.2,0.2-0.4,0.3-0.6c-0.3,0-0.5,0-0.4-0.3
	c0.2,0.1,0.3,0.1,0.4,0.1c2.6-6.3,5.7-12.2,9.3-17.9h-0.1c-0.3-0.3,0-0.2,0-0.6c-0.4,0.1-0.3,0.4-0.9,0.3v-0.5
	c-0.5-0.2-0.8-0.5-1.2-0.7c-0.4,0.2,0.1,0.4-0.2,0.7c0,0.2,0.4,0.1,0.4,0.3c0.2-0.1-0.1-0.2,0-0.4c0.8,0,0.9,0.6,1.2,1
	c-0.5,0.4-0.3,1.2-0.6,1.6c-0.4-0.5-0.1-0.1-0.7,0c-0.4-0.4,0.3-0.6,0.7-0.7c-0.1-0.1-0.4-0.1-0.3-0.5c-0.2,0.4-0.8,0.5-0.9,0.9
	c-0.3-0.1-0.7-0.1-0.6-0.6c0.6,0.3,0.8,0,1.1-0.3c-0.7-0.2-0.8,0.3-0.2-0.4c-0.3,0.1-0.8,0.1-0.7,0.4c-0.7,0.1,0.1-0.8-0.3-0.4
	c0-0.1,0-0.2-0.1-0.3c-0.3,0.3-0.8,0.4-0.9,0.9c-0.6-0.2-0.7,0.1-1.1-0.1c0.2-0.2,0.7-0.2,0.9-0.4c0-0.4-0.8-0.3-0.7-0.8
	c0.8,0.2,0-0.8,0.6-0.7c0.7,0,0.2,1.6,1,1c0-0.4-0.8-0.1-0.5-0.7c0.1,0,0.2-0.1,0.3-0.1c0-0.1,0.1-0.2,0.2-0.3c0.2,0,0,0.4,0.4,0.4
	c0.1-0.7,0.3-0.8,0.5-1.6c0.3,0.1,0.4,0.3,0.4,0.6c0.4,0.1,0.6,0,0.5-0.3c0.3,0.1,0.6,0.5,0.7,0c0.5-0.1-0.5,0.5,0.2,0.6
	c-0.1,0.5-0.4-0.1-0.7,0c0.1,0.3,0.8,0.3,0.7,0.8c0.4,0.1,0.5,0.5,0.9,0c-0.7-0.4,0.2-0.1,0.2-0.6c0.4-0.1,0.7-0.1,0.9,0
	c-0.2,0-0.7-0.6-1,0c-0.1,0-0.2,0-0.2,0c-0.2,0.2-0.5,0.4-0.8,0.2c-0.1-0.6,0.4,0.1,0.7-0.3c0.1-0.5-0.5-0.3-0.4-0.8
	c0.6,0.1,0.6,0.4,0.6,0.6c0.1-0.1,0.1-0.2,0.1-0.4c0.5,0.5,0.5-0.3,1-0.3c0,0.7-0.6,0.3,0,0.9c5.3-7.9,11.5-15.1,18.5-21.4
	c-0.1-0.2-0.1-0.4-0.2-0.6c-0.3,0.5-2.3,1.2-1.2,1.7c-0.5,0.2-0.8,0.2-1,0.1c-0.2,0.2-0.5,0.5-0.4,0.8c-0.7-0.1-0.1-0.4-0.2-0.9
	c0.3,0.3,0.3,0.2,0.6,0.1c-0.6-0.6,0.2-2.8,0.6-3.3c0.8,0.1,0.8,0.8,1.6,0.9c-0.4-0.8-1.2-1.3-2.4-1.4c1.4-0.7,1.8-1,2-2.9
	c0.5,0.4,2,0.4,2-0.3c1.2,0.3-0.5,0.8-0.4,1.2c0.8,0,0.5-0.8,1.6-0.6V48c0.4,0.2,0.9,0.3,1.6,0.3c-0.6-0.2-0.1-1.1-0.8-1.2
	c-1.3-0.5,2.7,0.3,1.2-0.6c1.1-0.7-0.1,0.9,1.2,0.9c0.7-0.4-0.5-1.3,0.8-2c0.5,0.5,1.2,0.8,1.2-0.3c1,0,0.8,1,0.8,1.7
	c-0.9,0.1-0.8-0.4-0.8-0.9c-1.5,1-0.8,1.7-1.6,3.2H74c0.3-0.2,0.6-0.5,0.9-0.7c0.1-0.2,0.1-0.3,0.1-0.5c0.1,0.1,0.2,0.1,0.3,0.1
	c1.9-1.4,3.8-2.8,5.8-4.1l0,0c0,0,0,0,0.1,0c0,0,0,0,0.1,0l-1.8,0c0.2-0.2,0.2-0.5,0.4-0.7c0.3,0,0.3,0.3,0.5,0.3
	C80.2,43.2,80,43,79.6,43c0.2-0.6,0.7,0,0.9,0.3c0.1,0,0.2-0.1,0.4-0.1c-0.3-0.4-1.1-0.4-1.3-0.9c1,0.4,0.8,0.1,1.8,0
	c0-0.3-0.3-0.4,0-0.5c0-0.3-0.3-0.4-0.7-0.3c0.1-0.6,0.7,0.2,0.9-0.3c0.3,0,0.1,0.4,0.4,0.4c0.6-0.2-0.7-0.9-0.2-1
	c0.1,0.1,0.7,0.8,0.9,1.2c0.4,0,0.2-0.7-0.2-0.4c0.4-0.3,0.5-0.8,1.3-0.7c-0.2,0.2-0.5,0.3-0.7,0.4c0,0.1,0.1,0.1,0.1,0.2
	c0.4-0.3,1-0.5,1.3-0.8c0,0,0,0-0.1,0c0.1-0.1,0.2-0.2,0.2-0.3c0.1-0.2,0-0.4-0.3-0.7c0.5-0.1,0.7,0,0.8,0.1c0.1,0,0.1-0.1,0.2-0.1
	c-0.5,0.1-0.3-1,0.4-1c-0.1-0.3-0.4-0.4-0.4-0.8c0.2,0,0.3,0,0.4-0.1c0.4,0.1-0.3,0.4,0.1,0.6c0.3,0,0.2-0.3,0.2-0.6
	c0-0.1,0-0.1,0-0.2c-0.1-0.1-0.6,0.2-0.5-0.4c0.5,0,0.6,0.3,1.1,0.3c-0.1,0-0.1,0-0.1,0c0.1,0,0.2,0,0.3,0c0-0.4-0.6-0.5-0.9-0.6
	c0.1-0.1,0.2-0.3,0-0.3c0.5-0.4,0.1-0.3,0.5-0.4c0.2,0,0.1,0.3,0.4,0.3c-0.1,0.2-0.2,0-0.5,0c0.1,0.4,0.8,0.8,0.9,0.3
	c0.3,0.2,0.2,0.4,0.1,0.7c1-0.5,1.8-1.8,2.6-0.7c0.1-0.4,0.6-0.6,0-0.7c0.1-0.1,0.2-0.2,0.3-0.3c0-0.1-0.1-0.3-0.1-0.4
	c0.3,0,0.5-0.1,0.7-0.1c0.3-0.3,0.5-0.7,0-1c0.2-0.2,0.3,0.1,0.7-0.1c-0.1,0.4,0.1,0.7,0.2,0.9v0c0.1,0.1,0.1,0.2,0.1,0.2
	c0.2-0.2,0.6-0.1,0.9,0.1c0.3-0.4,0.6-0.7,0.9-0.9c0,0,0-0.1,0-0.1c0,0,0,0.1,0.1,0.1c0.7-0.6,1.4-0.9,2-2c0.5,0,0.2,0.3,0,0.3
	c0.6,0.5,1.4,0.7,1.2,1.8c2.1-0.3-0.5-1.4,0-2.4c2.2,1.1,3-0.2,5.2,0.6c-0.2-0.3-0.4-0.5-0.8-0.6c0.5-0.3,1.4,0.3,2.3,0.8
	c1.4-0.5,2.7-0.9,4-1.4c-0.2,0-0.1-0.2,0-0.2c0-0.2-0.4-0.1-0.4,0c-0.3,0,0.3-0.5-0.4-0.6c-0.3,0.1,0,0.2,0,0.5
	c-0.4-0.1-0.4-0.5-0.7-0.6c-0.1,0.1-0.1,0.5-0.9,0.4c0.1-0.4-0.4-0.3-0.6-0.4c0.6,0,1.2,0,1.6-0.2c-0.1-0.4-0.4-0.6-0.5-1
	c0.3,0.3,0.6,0,0.7-0.3c-0.2,0.6,1.8,1.4,2,0.5c-0.1-0.1-0.4-0.1-0.4-0.3c-0.2,0.1,0,0.3-0.4,0.6c-1-0.4,0.5-0.7,0.5-1.2
	c0.5,0.1,0.2,0.8,0.6,0.9c-0.1,0.2-0.3,0.4-0.5,0.5c0,0.1,0,0.3,0,0.4c0.3-0.2,0.4-0.1,0.4,0.3c0.3,0.1,0.3-0.7,0-0.6
	c0.3-0.5,1.1,0.2,0.5,0.4c0.2-0.1,0.3-0.1,0.4-0.3c0.1,0.1,0,0.3,0.2,0.5c2-0.6,4.1-1.2,6.2-1.7c0-0.1,0-0.3,0.1-0.6
	c0.5,0.1,0.3,0.2,0.2,0.5c0.2,0,0.3-0.1,0.5-0.1c0-0.1-0.1-0.3-0.3-0.3c0.2-0.2,0.5-0.1,0.6,0.2c0.9-0.2,1.7-0.4,2.6-0.6
	c0-0.1-0.1-0.1-0.1-0.2c-0.3-0.3,0.1,0,0.3,0.1c0.1,0,0.3-0.1,0.4-0.1c-0.1-0.5,0-1-0.3-1.2c0.6-0.2,0.5-0.9,1.4-0.8
	c-0.1-0.1-0.2-0.2-0.2-0.5h0.4c-0.3-0.5-0.4,0.3-0.9,0.2c0.5-0.5,0.1-0.5,0-1.2c0.6,0.8,1.1-0.5,1.4,0.1c0.6-0.2,0.6-0.5,0.7-0.9
	c0-0.1-0.2-0.1-0.3-0.1c-0.5,0,0.3,0.2,0,0.6c-1.3-0.7,1.5-1.4,1.8-1c-0.3,0.4,0.1,0.9,0.7,1c-0.2,0.5-0.3,0.3-0.4,0.8
	c0.2,0.4,0.4-0.5,0.7,0c-0.4,0.3-0.7,0.6-0.3,1.2c-0.2,0.3-1.1,0.2-0.4,0.6c-0.1,0.3-0.8,0-0.7-0.3c-0.3,0.1-0.3,0.7-0.9,0.6
	c0.1,0.2,0.1,0.3,0.1,0.4c6.3-1.1,12.8-1.7,19.4-1.7c2.1,0,4.2,0.1,6.4,0.2c0-0.1,0-0.1,0-0.1c0.1,0,0.1,0.1,0.2,0.1
	c1.2,0.1,2.5,0.2,3.7,0.3c0.1-0.1,0.2-0.1,0.4,0c0,0,0,0,0,0.1c3.1,0.3,6.2,0.7,9.3,1.3c0-0.6,1.5-0.1,0.6-1.5
	c1.5,0.3,0.2,0.9,0.4,1.7c0.1,0,0.1,0,0.2,0c1.3,0.2,0.5-1.1,1.9-0.9c-0.8-1.1,0.6-0.5,0.4-1.7c0.6,0.1,0.6,0.5,1.2,0.6
	c-0.4,0.6-2,1.5-2.2,2.3c2.7,0.6,5.4,1.2,8,1.9c0.1-0.1,0.3-0.2,0.4-0.2c0,0,0,0,0-0.1c0,0,0.1,0,0.1,0.1c0.2-0.1,0.3-0.1,0.6-0.1
	c-0.1-0.1-0.3-0.2-0.3-0.4c0.4-0.1,0.4,0.3,0.9,0.1c-0.1-0.1-0.1-0.1-0.1-0.2c-0.3-0.4-1.2-0.3-1.2-1c0.4,0.1,0.7,0.3,0.7,0.6
	c0.3-0.3,0-0.4,0-0.9h0.7c-0.1,0.2-0.1,0.4-0.1,0.6c0.3-0.4,0.5-0.7-0.4-0.9c0.1-0.4,0.6-0.4,1-0.5c-0.1-0.4,0-0.9,0.7-0.9
	c0.1,0.2,0,0.4-0.1,0.6c0.5,0.4,0.6,0.4,2,0.2c-1.8,0.4,0.7,2-1.2,2.4c0.1,0.3,0.7,0.3,1.3,0.3c-0.1-0.1-0.1-0.2-0.3-0.3
	c0-0.4,1.3-0.8,0.5-1.6c0-0.2,0.4-0.1,0.5-0.1c-0.5-0.2-0.3-0.5,0.2-0.6c-0.1-0.4-0.4,0.2-0.9,0c0-0.3-0.2-0.3-0.2-0.2
	c-0.3-0.4,0.5-0.1,0.6-0.4c0-0.2-0.4-0.1-0.6-0.1c0.2-0.2,0.4-0.3,0.6-0.4c-0.3-0.1-0.9-0.6-0.2-0.3c0-0.4-0.3-0.6-0.9-0.6
	c0.1,0.4,0.3,1.6-0.4,1.8c0.4-0.4-0.3-0.9,0.4-1.3c0-0.2-0.8-0.5,0-0.4c-0.5-0.2-0.9-0.8-0.5-1.1c-0.1,0-0.4,0-0.6,0.1v-0.9
	c0.4,0,0.6,0.1,0.8,0.2c0.1,0,0.2-0.1,0.3-0.1c0,0,0-0.1,0-0.1c0,0,0.1,0,0.1,0c0,0,0-0.1,0-0.1c-0.3-0.1-0.6-0.2-0.9-0.2
	C176.7,22.5,176.6,22.5,176.5,22.5"/>
<path fill="#86A0AF" d="M179.7,28.8c0.1,1-1,0.3-0.9,1.7c0.2-0.2,1.4-0.3,0.9-0.5c0.1-0.2,0.2,0,0.6,0c0,0.4-0.3,0.5-0.6,0.6
	c0.2,0.3,0.4,0.2,0.5,0c-0.1-0.1-0.1-0.1-0.2-0.1c0.1,0,0.2,0,0.3,0c0-0.1,0.1-0.2,0.1-0.3c0,0.1,0.1,0.2,0.3,0.4
	c0.2,0.1,0.3,0.2,0.6,0.2c1.1,0.1,0.3-1.1,1.6-0.9c0,0.2,0,0.3,0.1,0.4c0.1,0,0.1,0,0.2,0h0.3c-0.2,0.6-0.1,0.6,0.4,0.9
	c0.3,0.2-0.3,0-0.7-0.2c0,0-0.1,0.1-0.1,0.1c0.1,0.1,0,0.2-0.1,0.2c0.1,0.2,0.3,0,0.4-0.1c0.5,0.2-0.3,0.8-0.5,0.5
	c0.1,0.3,0.8,0.4,0.4,0.7c-0.4,0.1-0.4-0.2-0.9-0.1c0,0,0,0,0,0c0.1,0.2,0.6,0.1,0.5,0.5c0,0,0.1,0,0.1,0c0,0.3-0.1,0.4-0.2,0.4
	c0.8,0.3,1.6,0.6,2.3,0.9c0.2-0.2,0.4-0.5,1-0.4c-0.2,0.4,0,0.4,0,0.7c0.4,0.1,0.7,0.3,1,0.4c0,0,0-0.1,0-0.1
	c0.4-0.1,0.5,0.1,0.6,0.3c0.1,0,0.3,0.1,0.5,0.2c0-0.3-0.3-0.4-0.5-0.5c0.1-0.2,0.4-0.1,0.7-0.2c-0.5-0.3-1.2-0.2-1.1-0.7
	c-0.4,0.1-0.6,0.4-0.9,0.1c0.8-0.2,0.4-0.6,0.6-1.2c0.3,0.1,0.4,0.2,0.5,0.5c0.3-0.1,0.1-0.5,0.7-0.3c-0.3-0.3-0.9-0.4-0.7-1
	c0.6-0.2,0.4-0.8,0.3-1.1c-0.4,0.4-0.7,0.7-0.6,1c-1.2,0.1-0.9-1.4,0-1.2c-0.2-0.4-0.7-0.4-0.8-0.9c-1.4,0.2,0,0.7-0.8,1.2
	c-1-1.2,1-1.7-0.4-2.9c-0.1-1,1.4-1,1.6-1.8c1,0.8,0.4,1,1.2,2c-1.3-0.6-1.4,1.9-0.4,2.3c1.2,0.1-0.5-1.9,1.2-1.4
	c0,0.2-0.1,0.3-0.1,0.4c0.1,0,0.2-0.1,0.3-0.1c0.5,0-0.2,0.3,0,0.6c0,0.1,0.1,0.1,0.2,0.1c0-0.1,0-0.1,0-0.1
	c0.1,0.1,0.3,0.2,0.5,0.2c0.1,0,0.1-0.1,0.2-0.1c-0.4-0.2-0.1-0.4,0.4-0.5c0.1-0.1,0.2-0.1,0.4-0.1c0.3-0.1,0.7-0.2,0.9-0.3
	c-0.1,0.1-0.3,0.2-0.5,0.4c0.1,0.1,0.2,0.1,0.3,0.1c0.2-0.1,0.2-0.4,0.4-0.5c0.4,0,0.6,0.1,0.7,0.3c0.2,0,0.1-0.2,0.2-0.4
	c0.6,0.6,1.3-0.3,2.2-0.1c-3.9-1.8-7.9-3.4-12-4.8c0,0.1,0,0.1,0.1,0.2c-0.6,0.2-0.5-0.2-0.7-0.3c-0.7,0.1,0.9,0.6-0.2,0.6
	c0.1,0.4,0.4-0.1,0.7,0c0.1,1-0.7,0.1-1.1,0.4c0.1,0.3,0.4,0.4,0.4,0.7c-0.5,0.1-0.6,0.5-1.1,0.6c0.1,0.2,0.5,0.1,0.4,0.6
	c-0.3-0.1-0.2-0.5-0.7-0.3c0.2,0.5,0.4,0.5-0.4,0.6c0.2,0.4,0.4,0.3,0.2,0.7c0.3-0.2,0.3-0.4,0.7-0.1c0,0.1-0.2,0.1-0.2,0
	c-0.4,0.3,0.2,1,0.7,1C181.2,29.4,179.9,29.3,179.7,28.8"/>
<path fill="#86A0AF" d="M194.3,30.3c0.1,0.5,0.5,0.2,0.9,0.2c-0.2,0.2-0.6,0.3,0,0.5c-0.1,0.2-0.3,0-0.5,0c-0.1,0.2,0.1,0.3,0.3,0.3
	c0,0.7-0.9,0.6-1.1,1.2c-0.6-0.2-0.1-0.3-0.4-0.7c-0.3,0.2-0.5,1.2-0.5,1.5c-0.1,0-0.9,0.4-1.1,0.9c-0.8,0-0.7-0.2-1.2,0
	c0.1-0.4,0.8-1.1,1.2-0.8c0.2,0,0.1-0.3,0.4-0.3c-0.1-0.2-0.8,0.1-1.1-0.3c-0.5,0.1,0.6,0.3,0,0.6c-0.5,0.1-0.5-0.3-0.7-0.6
	c0,0,0,0.1,0,0.1c-0.1,0-0.2,0.1-0.2,0.1c0.2,0.1,0.4,0.3,0.6,0.4c-0.3,0.4-0.5,0.8-0.5,1.2c0.5,0.7,0.7,1.7-0.7,1.6
	c-0.1-0.1-0.1-0.3-0.1-0.4c-0.2,0.1-0.4,0.2-0.6,0.4c1.6,0.7,3.3,1.6,4.9,2.4c0-0.2,0.1-0.3,0.3-0.6c-0.1-0.2-0.4-0.3-0.7-0.3
	c0.4-0.2,1-0.3,1.4-0.4c0-0.1-0.1-0.1-0.1-0.1c0,0-0.1,0-0.2,0.1c0-0.1,0-0.1,0-0.1c-0.4-0.1-0.9,0.1-1.4,0.2
	c-0.1-0.1,0-0.2,0.1-0.2c0.4,0,0.1-0.5,0-0.6c0.1-0.3,0.4,0.2,0.4,0.4c0.6,0.1,0.6-0.3,0.9,0c0,0,0,0,0.1,0c0,0,0.1,0,0.1-0.1
	c0-0.1,0-0.1,0-0.2c-0.1,0-0.3,0-0.4,0c-0.3,0,0.4-0.4,0.7-0.4c-0.1,0.1-0.1,0.1-0.1,0.2c0.4,0.1,0.1,0.2,0.1,0.6
	c0.4,0.1,0.4-0.2,0.4-0.4c0.4,0.2,0,0.9,0.2,1.3c-0.9-0.5,0,0.8-0.8,0.7c0.1,0.2,0.1,0.4,0.1,0.6c0.1,0,0.2,0.1,0.2,0.1
	c0,0,0.1,0,0.2-0.1c0,0-0.1,0.1-0.1,0.1c10.8,5.8,20.5,13.2,28.8,22c0,0,0.1,0,0.1,0c-0.1-0.3-1.1-0.5,0-0.5
	c-0.1-0.3-0.5-0.3-0.4-0.7c-0.1-0.2-0.2,0-0.5,0c-0.3-0.2-0.3-0.7,0-0.9c0.4,0.1,0.3,0.4,0.9,0.3c0.1-0.3-0.5-0.7-0.5-0.4
	c-0.3-0.1,0.1-0.2,0-0.5c0.8,0.1,0.8,0.9,1.5,1.2c0.4-0.3-0.5-0.4,0-0.9c0.4-0.1,0.2,0.3,0.5,0.3c0.2-0.3-0.1-0.7,0.7-0.7
	c-0.3-0.5,0-0.6,0.4-0.9c-0.1-0.3-0.2,0.2-0.5-0.1c0.2-0.8,0.1-1.3,1.1-1.6c1,0.1,1.2,0.8,1.6,1.3c-0.1,0.3-0.8,0.1-0.9,0.5
	c0.1,0.5,0.4-0.1,0.7,0c-0.3,0.2,0.1,1-0.6,0.9c0.5-1-0.8,0.3,0.2,0.3c0,0.4-0.7,0.4-0.9,0.2c0,0.3,0.3,0.4,0.7,0.3
	c0,0.6-0.8,0.3-0.3,0.9c-0.6-0.2-1.2,0.7-0.9,0c-0.9,0.4-0.3,1.5,0.2,1.9c-0.3,0.2-0.9-0.1-1.1,0.5c0.7-0.2,1.6,0.1,2.5-0.3
	c0.2,0.5,0.5,1.8-0.4,2.2c-0.1-0.3,0.4-0.2,0.4-0.4c-0.8,0.6-0.9,0.6-1.3,0.8c0.1,0.2,0.3,0.3,0.4,0.4c0,0,0,0,0,0V65
	c0.1,0.1,0.1,0.2,0.2,0.3c0.3-0.1,1,0,0.5-0.2c0.3-0.5,0.3,0.3,0.7,0.2c-0.1,0.6-0.2,0.9-0.2,1.2c3.9,4.7,7.4,9.7,10.5,15
	c0.1-0.1,0.1-0.3-0.1-0.4c0.6-0.4,0.5,0.6,0.4,0.9c1.9,3.3,3.7,6.8,5.3,10.4c0.1-0.1,0.2-0.2,0.3-0.3c0.4,0.2,0.2,0.8,0.9,0.8
	c0.1-0.4-0.3-0.3-0.5-0.4c0.5-0.2,0-0.4,0.4-0.8c0.4,0.5,0.2,0.6,0.6,1.1c0-0.5,0.2-1.2,0.9-1.5c-0.1-0.4-0.4,0.2-0.7,0
	c0.1-0.7,1.3-1.4,1.3-1.6c0.1-0.3,0.5,0.2,0.7,0.2c0.5-0.2-0.6-0.3-0.4-0.7c0.4,0.3,0.3-0.2,0.9-0.2c0-0.2,0-0.4-0.2-0.4
	c0.4-0.1,0.8-0.6,1.1-0.3c-0.4-0.3,0.1-0.3,0.2-0.6c0.1,0.3,0.3,1.4-0.2,1.8c-0.5-0.7-1.1,0.3-1.3,0.7c-0.3,0.1-0.3-0.1-0.5-0.1
	c-0.2,0.1-0.2,0.3-0.5,0.3c0.4,0.3,0.5,0,1.3,0c-0.1,0.2-0.2,0.3-0.2,0.6c-0.6-0.2-1.1-0.5-1.4,0c0.5-0.2,0.7,0.2,1.4,0.4
	c0.1,0.2-0.1,0.2-0.2,0.4c0,0.1,0.2,0.2,0.2,0.3c0.3-0.1,0.2-0.4,0.2-0.6c0.2,0.1,0.3,0.2,0.3,0.3c1.4-0.8,3.3-1.2,4.5-2.6
	c-0.4-0.9-0.8-1.7-1.2-2.6c0.1,0.3,0.1,0.7,0.2,1.1c-0.5,0.2-0.5-0.3-1.3,0c0.1,0.2,0.3,0.2,0.4,0.5c0.4,0.3-0.2-0.1-0.4-0.2
	c-0.1,0.2-0.3,0.5-0.2,0.6c0.4,0.3-0.3,0-0.5,0c0.1-0.4,0.1-0.3,0-0.7c0.1-0.1,0.3-0.2,0.5-0.2c-0.6-0.2,0-0.5-0.4-0.7
	c0.1-0.2,0.5-0.3,0.9-0.3c0.1,0.2-0.2,0.3-0.2,0.4c0,0.2,0.3,0.1,0.3,0.3c0.4-0.2,0.1-1,0.2-1.3c0.1,0,0.1,0,0.1,0.1
	c-1.4-3-3-5.9-4.7-8.7c-0.1,0-0.3,0-0.3,0.2c-0.3-0.3-0.7-0.5-1.3-0.6c-0.2,0.1-0.2,0.4-0.2,0.6c-0.6,0.1-0.3-0.3-0.1-0.5
	c-0.3,0.2-0.9,0.2-0.8,0.7c-0.4-0.2-0.3,0-0.9-0.2c-0.2,0.6,0.9,0.1,0.5,0.7c-1.1-0.3-1.5,1.7-1.8,2.1c-0.8-0.4-0.6-1.2,0.2-1.6
	c-0.3-0.1-0.4-0.2-0.4-0.3c-0.1,0.1-0.2,0.1-0.4,0.1c0,0.1-0.1,0.2,0,0.4c-0.2,0-0.2-0.2-0.2-0.4c-0.1,0-0.2,0-0.2-0.1
	c0.1,0,0.1,0,0.2,0c-0.1-0.1-0.1-0.1-0.3-0.1c0.1-0.2,0.3-0.2,0.3-0.4c0.1,0.1,0.2,0.1,0.2,0.2c0.1-0.2,0.2-0.3,0.4-0.4
	c0.1,0.3-0.3,0.8,0,0.4c0.1,0,0.1,0,0.1,0c0.1-0.2,0.3-0.4,0-0.6c0-0.3,1.1,0.3,1.3-0.1c-0.1-0.2-0.4-0.2-0.4,0
	c-0.5,0,0.5-0.6-0.4-0.5c0.1-0.1,0.2-0.2,0.2-0.4c0.6-0.1,0.4,0.4,0.7,0.4c0.4-0.2-0.4-0.7-0.4-1.1c0.2,0.1,0.3,0.3,0.5,0.3
	c0.1,0,0.2-0.1,0.4-0.1c-0.4-0.6,0.1-0.9,0.2-1.5c0.4,0.1,0.1,0.8-0.2,0.9c0,0.3,0.5,0.2,0.6,0.4c0.1-0.9,0.6,0,0.4-1.2
	c0.2,0.1,0.5,0.6,0.5,0.2c-1.6-2.6-3.4-5.3-5.2-7.8c-0.1,0.1-0.2,0.2-0.3,0.3c-0.1-0.1-0.3-0.1-0.6-0.1c0.2-0.2,0-0.7,0.3-0.9
	c-0.5-0.7-1.1-1.5-1.7-2.2c-0.2,0.1-0.7,0.3-0.8,0.5c-0.6-0.4,0.6-0.4,0.6-0.8c-0.2-0.1-0.3-0.3-0.4-0.5c-0.2,0-0.4,0.1-0.4,0.4
	c-0.2-0.7-0.7-0.3-1.2-1.1c-0.6,0.1-0.2,0.2-0.2,0.6c-0.1,0-0.1-0.1-0.1-0.2c-0.1-0.4-0.4,0.1-0.8,0c0.7-0.4,0.3-1,1.1-1.2
	c-0.1,0.4,0.4,0.8,0.3,0.9c0.2,0.3,0.6,0.4,0.7,0c-0.1-0.2-0.4-0.3-0.7-0.3c0-0.3,0-0.5,0.1-0.6c-0.2-0.3-0.4-0.5-0.7-0.8
	c-0.1,0.1-1.3-0.8-0.9,0c-0.4,0.2,0-0.9-1.1-0.9c0.1-0.2,0.6-0.3,1-0.2c-0.1-0.1-0.1-0.1-0.2-0.2c-0.2-0.1-0.5-0.1-0.6-0.1
	c0-0.2,0.1-0.2,0.2-0.3c-0.1-0.1-0.1-0.1-0.2-0.2c-0.1,0-0.3,0-0.6,0c0-0.2,0.2-0.3,0.4-0.3c-0.7-0.8-1.4-1.5-2.1-2.3
	c-0.1,0.1-0.3,0.1-0.4,0.1c0-0.1,0-0.2,0.1-0.3c-0.5,0-0.7,0.1-1,0.2c0.1,0.1,0.2,0.1,0.3-0.1c0.4,0,0.1,0.5,0,0.6
	c-0.7-0.7,0,0-1.1-0.3V57h0c0-0.1,0-0.1,0-0.2v-0.1c-0.1-0.4-0.7-0.4-0.8-0.7c-0.3,0-0.6,0-0.8,0.1c0-0.7,0.5-0.2,0.8-0.4
	c0,0,0,0,0-0.1c0,0,0,0,0,0c0,0,0.1-0.1,0.1-0.1c-1.2-0.2,0.4-0.6,0.9-0.5c0,0,0,0,0.1-0.1c-0.5-0.6-1.1-1.1-1.7-1.7
	c0.3,0.4,0.1,0.7,0.2,1.5c-0.5-0.2-0.9,0.8-1.1,0c-0.5,0.2,0.4,0.5,0.2,0.9c-0.9-0.3-0.5-0.9-0.5-1.6c0.2,0.2,0.5,0.4,0.5,0.7
	c0.4-0.4,0-1.4,0.7-1.5c-0.3-0.3-0.6-0.6-1-0.9c-0.1,0-0.3,0-0.3,0.2c-0.5-0.1-0.3-0.4-0.2-0.7c-0.7-0.7-1.4-1.3-2.1-2
	c-0.1,0-0.2,0-0.1,0.2c-0.2-0.1-0.2-0.2,0-0.3c-0.1-0.1-0.1-0.1-0.2-0.2c-0.3,0.1-0.5,0.1-0.7,0c0-0.2,0.2-0.3,0.4-0.3
	c-0.9-0.8-1.9-1.7-2.8-2.5c-0.1,0.1-0.2,0.2-0.4,0.3c-0.6,0-0.6-1.7-0.8-0.3c-1.5-0.5-0.6,0.2-2,0.3c0.2-0.9-0.5-1.2-1.2-1.5
	c0.7-0.3,0.2-1.5,0.7-1.9c-7.2-5.7-15.1-10.5-23.4-14.4c0,0.3-0.6,0.9,0.1,0.9C195,30.3,194.6,30.2,194.3,30.3"/>
<path fill="#86A0AF" d="M226.1,224.1c0.4-1.9-1.1-2.5-2.7-3.1c-0.1,0.4-0.1,0.8,0.4,1c-0.6,0.1-0.5-0.2-1,0.2
	c0.2-0.2-0.2-1.1,0.5-1.3c0,0,0,0-0.1,0c1.1-1.2,3.3,0.8,5,1.6c0.9-0.9,1.9-1.8,2.7-2.8c-0.7-0.9-0.7-1.6,1-2.6c0.6,0,0.9,0.2,1,0.5
	c0.4-0.5,0.9-0.9,1.3-1.4c-0.8-0.2-1.7-0.2-3.3,0.3c0.4-1.1-0.8-1.2-1.9-1.3c1.5-1.5,5.1,1.5,2.9-1.9c1.7-0.3,2,0.3,2.5,0.7
	c0.2-0.2,0.6-0.2,1-0.3c-0.2-0.7-0.1-1.2,0.1-1.6c0-0.4,0.2-0.8,0.3-1.2c-0.5,0.2-0.8,0.4-0.6-0.2c-0.2,0.1-0.3,0.1-0.3,0.3
	c-0.5-0.2,0.3-0.8,0.7-0.5c-0.4-0.4-0.3-0.4,0.4-0.2c0-0.3-0.3-0.3-0.7-0.3c0-0.6,0.2-1.4,0.4-1.6c0.1-0.1,0.8-0.2,1.1-0.6
	c0.4,0.2,0.2,0.8,0.9,0.8c0.1-0.4-0.4-0.3-0.6-0.4c0.6-0.2,0-0.4,0.4-0.8c0.4,0.5,0.1,0.6,0.6,1c0-0.5,0.2-1.2,0.9-1.5
	c-0.1-0.5-0.4,0.2-0.7,0c0.1-0.7,1.3-1.4,1.3-1.6c0-0.4,0.5,0.2,0.7,0.1c0.5-0.2-0.6-0.3-0.3-0.8c0.4,0.4,0.3-0.2,0.9-0.1
	c0-0.2,0-0.4-0.2-0.5c0.4-0.1,0.8-0.5,1.1-0.3c-0.4-0.3,0.1-0.3,0.2-0.6c0.1,0.3,0.4,1.4-0.2,1.8c-0.5-0.7-1.1,0.3-1.2,0.8
	c-0.3,0-0.3-0.2-0.5-0.2c-0.2,0.1-0.2,0.4-0.6,0.3c0.4,0.3,0.5,0,1.3,0c-0.1,0.1-0.2,0.3-0.2,0.6c-0.6-0.2-1.1-0.5-1.5,0
	c0.6-0.1,0.7,0.2,1.5,0.5c0,0.2-0.2,0.3-0.2,0.4c0,0.1,0.2,0.1,0.2,0.3c0.2-0.1,0.1-0.4,0.2-0.6c0.2,0.1,0.3,0.2,0.3,0.2
	c0-0.2-0.1-0.4-0.1-0.6c-0.1-0.1-0.1-0.1-0.1-0.1c0-0.1,0-0.1,0-0.2l0.2,0c0.1-0.1,0.1-0.3,0-0.5c0.5,0.1,0.5,0.2,0.5,0.4
	c0.3-0.1,0.6-0.1,0.9-0.2c0.6-0.9,1.3-1.7,1.9-2.6c-0.2,0-0.3-0.3-0.9-0.1c0.1,0.2,0.3,0.2,0.4,0.5c0.4,0.3-0.2-0.1-0.4-0.1
	c-0.1,0.2-0.3,0.5-0.2,0.6c0.5,0.3-0.3,0-0.5,0c0.1-0.5,0.1-0.3,0-0.7c0.1-0.1,0.3-0.2,0.5-0.2c-0.6-0.1,0-0.6-0.4-0.7
	c0.2-0.2,0.4-0.3,0.9-0.3c0.1,0.2-0.1,0.2-0.1,0.4c0,0.2,0.3,0.1,0.3,0.3c0.4-0.1,0.1-0.9,0.2-1.3c0.4,0.2,0.3,0.8,0.4,1.4
	c1.3-1.9,2.5-3.9,3.7-5.9c-0.2-0.1-0.4-0.5-0.6-0.1c-0.4-0.6,0.1-1.9-0.3-2.5c1.2,0.5,0.1,1.8,1,2.5c0.1-0.1,0.2-0.3,0.3-0.5
	c-0.1,0-0.1,0-0.2,0c-0.5-0.1,0.2-1.1-0.2-0.7c-0.9-0.5,1.2-0.5,0.5-0.9c0.2-0.1,0.6,0,0.9-0.2c1.8-3.3,3.5-6.7,5.1-10.2
	c-0.2,0-0.3-0.1-0.5-0.2c0-0.4,0.9-0.7,0.2-0.9c0.8-0.5,0.3,0.3,0.5,0.7c1.5-3.3,2.7-6.7,3.8-10.1c-0.3-0.1-0.5-0.2-0.7-0.4
	c-1.1,0.1,0.5,0.5,0,1.2c-1.9-0.4-1.3-0.2-1.6,0.9c-1.6,0-1.6-1.2-2.4-1.8c-0.4,0.8,0.7,1.2,0.8,2.6c-0.7,0.1-0.8-0.3-1.6-0.3
	c0.2,0.6,0.9,0.8,0.8,1.5c-1.5,0.2,0.4,1.2-1.6,1.2c0.2-1.3-0.8-1.2-0.4-2.3c-0.8,0-0.5,0.8-1.6,0.6c1,0.8,0.6,1.6,0,2.6
	c-0.8-0.9-0.7-1.7-2.4-2.3c-0.9,0.2,0.5,0.4-0.4,0.9c-0.3,0-0.4-0.1-0.6-0.2c-1.8,4.3-3.8,8.5-6,12.6c0.2,0.1-0.6,0.6,0.3,0.6
	c-0.1,0.2-0.4,0.2-0.7,0.2c0,0,0,0,0,0c0.2,0.1,0.3,0.4,0.6,0.5c0,0.1-0.1,0.1-0.2,0.1h-0.4c0.3-0.3,0.1-0.4-0.2-0.4
	c-0.2,0.4-0.4,0.8-0.7,1.1c0.1,0,0.1,0,0.2,0c0,0.1-0.1,0.1-0.2,0.1c-0.7,1.2-1.4,2.3-2.1,3.5c0.1,0,0.1,0.1,0.2,0.1
	c0,0.5-0.6,0.5-0.6,1.1c-0.1-0.1-0.1-0.1-0.3-0.2c-3.6,5.5-7.7,10.7-12.2,15.5c0,0,0,0,0,0c0,0-0.1,0-0.1,0
	c-0.1,0.1-0.3,0.3-0.4,0.4h0.1c0,0.1-0.1,0.1-0.1,0.1c-3.4,3.6-7.1,6.9-11,10.1c0,0.1,0,0.3,0.2,0.3c-0.1,0.2-0.2,0.3-0.5,0.3
	c0-0.4,0.1-0.2,0.3-0.1c0-0.1-0.1-0.2-0.2-0.3c-5.3,4.2-10.9,7.9-16.9,11.2c0,0,0.1,0,0.1,0c-0.3,0.6,0.6,1-0.2,1.4
	c0,0.3,0.6,0.1,0.9,0.1c-0.6-0.4,0.6-0.7-0.2-0.9c0.1-0.2,0.3,0.1,0.4-0.1c0,0.4,0.5,2.5,1.6,1.5c-0.1-0.1-0.5-0.2-0.7,0
	c-0.1-0.1-0.1-0.3-0.5-0.3c0-0.7,1.2,0.4,0.7-0.3c0-0.5,0.6,0.3,0.5-0.2c0.2,0,0.1,0.4,0.2,0.6c0.3-0.4,0.7,0,1.1-0.4
	c0.1,0.3,0.2,0.6,0.4,1.2c0.3-0.2,0.8-0.2,0.7,0.3c0.4-0.1,0-0.9,0.4-1c0.2,0,0.2,0.3,0,0.3c1.4,0.9-0.8,1-0.2,1.3
	c-0.4,0.4-0.9-0.4-0.9-0.9c-0.3,0-0.5,0-0.5,0.1c-0.1-0.1-0.3-0.5,0.2-0.6c0-0.1-0.2-0.1-0.2-0.3c-0.3,0.2-0.4,0.5-0.6,0.9
	c0.2,0.1,0.8,0.8,0.8,0.2c0.5,0.1-0.2,0.4,0,0.7c-0.4-0.5-0.6-0.3-1.5-0.5c0.2-0.3,0.1-0.3,0.2-0.9c-0.7,0-0.3,0.9-1.1,0.9
	c0.1,0.2,0.3,0.3,0.6,0.3c-0.4,0.4-0.6,0.8-0.4,1.2c0.1,0.4-0.7,0-0.7,0.2c0-0.5,0.2-1.1,0.7-1.3c-0.2-0.2-0.7-0.1-0.7,0
	c-0.3,0-0.1-0.5,0.3-0.5c-0.3-0.1-0.7-0.2-0.3-0.7c0-0.2-0.4-0.1-0.4-0.3c-0.5,0,0.3,0.3,0,0.6c-0.2-0.1-0.4-0.2-0.4-0.4
	c-0.1,0-0.2,0.1-0.4,0.1c0.6,0.4,0.5,0.9,0.4,1.6c-0.4,0-0.1-0.5-0.5-0.5c0.3-0.3,0.4-0.3,0.2-0.7c-0.2,0-0.2,0.3,0,0.3
	c-0.1,0.4-0.9,0.1-1.3,0.2c0.2-0.2,0.1-0.2,0-0.4c-0.4,0.1-0.6,0.4-0.7,0.7c-0.4,0,0.3-0.4-0.3-0.5c0.1-0.2,0.2,0.1,0.5,0
	c0.2-0.5-0.7-0.2-0.5-0.7c0.8-0.1-0.1,0.3,0.3,0.3c0.5-0.2-0.2-0.6-0.3-0.7c0.4-0.3,0.6-0.4,0.4-0.9c-2.8,1.4-5.7,2.7-8.6,3.9
	c-0.1,0.2-0.1,0.3-0.2,0.5c-0.4,0.1-0.4-0.1-0.5-0.2c-0.1,0-0.1,0.1-0.2,0.1c0.3,0.2,0.7,0.3,0.8,0.7c-0.6-0.2-0.6-0.2-1.1,0
	c0.6,0.5,0,0.8-0.6,1.2c0.4,0.3,0.8-0.2,1.1,0.3c-0.1,0.4-1.9-0.1-1.3,0.9c-0.4,0.1-0.3-0.3-0.5-0.3c0-0.4,0.3-0.5,0.5-0.7
	c-0.7-0.3-0.5,0.6-0.9,1c0.1,0.3,0.8,0,0.5,0.6c-0.2,0-0.1-0.2-0.2-0.3c-0.6,0.1-0.8,0.4-1.4,0.4c0.2,0.2,0.2,0.4,0,0.6
	c-0.9-0.2-0.8-0.3-1.3,0c-0.4-0.6,0.3-1.5-0.7-1.5c0.1-0.5-0.2-0.5-0.2-0.9c0.3,0.4,0.9,0.2,0.4-0.2c0.2-0.1,0.4,0,0.9-0.1
	c-0.1-0.1-0.1-0.2-0.1-0.2c-6.5,2.3-13.2,4-20.2,5.1c0,0.3,0,0.6-0.3,0.9c-0.1-0.1-0.1-0.4-0.2-0.8c-0.2,0-0.5,0.1-0.7,0.1
	c0.1,0.1,0.3,0.1,0.5,0.1c0.2,0.4-0.6,0.7-0.5,0.2c-0.6,0,0.4,0.8,0.4,0.4c0.5,0.1-0.4,0.3-0.4,0.6c0.5,0.1,0.2,0.8,0.5,1
	c-0.2,0.4-0.2-0.5-0.7-0.3c-0.5-0.1,0.4,0.7-0.2,0.7c0.1,0.1,0.3,0.2,0.5,0.3c-0.7,0.4-0.7-0.9-0.7-1.2c-0.8,0.6-0.9,0.3-1.1,1
	c-1.1-0.1,0.3-0.8-0.5-0.9c0.1-0.1,0.3-0.4,0-0.4c0.2-0.3,1,0.4,0.5,0.6c0.9-0.1,0.5-1-0.2-0.9c0.2-0.2,0.5-0.4,0.7-0.2
	c-0.4-0.4-0.6-0.6-0.6-0.9c-3.9,0.5-7.8,0.8-11.8,0.9c0.1,0.2,0.2,0.3,0.1,0.5h-1.2c-0.3,0.8,0.8,0.6,1.2,0.9
	c-0.2,0.8-2.8-0.3-2,1.2c-1.7,0-3.3,0.1-2.4,1.2c-1.4-0.2-1.4-0.8-2.8-0.3c0.1-0.5-0.3-0.5-0.8-0.6c0.6-0.7,2.1,0.7,1.2-0.9
	c1.1-0.2,0.8,0.6,1.6,0.6c-0.8-1.4,0.9-1.8,1.7-2.5c-13.3-0.1-26.1-2.4-37.9-6.7c-0.4,0.3,0.2,0.2,0.1,0.8c-0.2-0.2-0.6-0.1-0.7-0.5
	c-0.1,0.4,0.1,0.6-0.2,1.2c-0.2,0-0.8-0.1-1.3-0.2c0.3-0.4,0.2-0.8-0.2-1.6c0.1,0.1,0.5,0.1,0.5,0.3c0.4-0.1,0.2-0.5,0-0.7
	c-4-1.5-7.9-3.3-11.7-5.3c0.1,0.2,0.2,0.5,0.1,0.8c-0.4-0.1-0.6-0.5-0.6-1c0,0,0,0,0,0c-3.9-2.1-7.7-4.4-11.3-6.9
	c-0.3,0-0.4,0.1-0.4,0.3c-0.2-0.1-0.2-0.3,0-0.3c0.1-0.2-0.1-0.3-0.4-0.3c0-0.1,0.1-0.1,0.1-0.1c-8.4-5.9-16.1-13-22.6-21
	c-0.1,0.1-0.1,0.3-0.1,0.5l-0.6,0.1c0,0,0,0.1,0,0.1c0,0,0,0-0.1-0.1l-2.7,0.5c0.6-0.4,0.8-1,0.4-1.6c0.6,0.2,0.6,0.4,1.1,0
	c-0.2-0.2-0.2-0.4-0.2-0.7c0.4,0.8,1-0.1,1.4,0.4c0,0,0.1,0,0.1,0c-0.5-0.7-1-1.3-1.5-2v0.1c-0.3-0.1-0.3-0.2-0.3-0.5
	c-1.9-2.5-3.6-5-5.3-7.6c0,0,0,0,0,0.1c-0.2,0-0.1-0.2-0.2-0.3c-0.4,0.1-0.9,0.3-0.9-0.3c0.4,0,0.6,0,0.8,0.1
	c-4.7-7.4-8.5-15.4-11.3-23.8c-0.2,0.1-0.4,0.1-0.1,0.5c-0.2,0-0.1-0.2-0.2-0.3c-0.1,0-0.2,0-0.2,0.1c-0.2,0,0-0.2,0.2-0.3
	c0-0.2-0.4-0.1-0.7-0.1c0.1-0.3,0.3-0.3,0.5-0.2c-0.5-0.3-0.3-0.7,0-1.2c0.1,0,0.1,0,0.1,0c-0.9-2.7-1.6-5.4-2.3-8.2
	c-0.2-0.1-0.3-0.2-0.2-0.4c-0.3,0.4-0.7-0.6-1.1,0c-0.4-0.6,0.4-1.2-0.5-1.8c-0.4-0.3,0.6,0,0.7,0.3c0-0.4,0.2-0.9-0.2-1.1
	c0-0.3,0.5-0.2,0.7,0c-0.2-0.9-0.4-1.7-0.5-2.6c-0.1,0-0.2,0-0.3,0c0,0,0,0,0,0c-0.3-0.2-0.2,0-0.7,0c0.3-0.3,0.5-0.4,0.7-0.6
	c0-0.1,0-0.1,0-0.2c0,0,0.1,0,0.1,0c0,0,0-0.1,0-0.1c0,0-0.1,0-0.1,0c0-0.1,0.1-0.2,0.1-0.3c0-0.1,0-0.2,0-0.3c-0.1,0-0.1,0-0.1,0
	c-0.3-0.1,0.1-0.2-0.2-0.6c-0.5-0.2-1.1-0.9-1.3-1.1c0.4-0.5,0-1.4,1.1-1.4c-0.1-0.8-0.2-1.7-0.3-2.5c-0.1-0.1-0.1-0.2,0-0.4
	c0,0,0,0,0,0h0h0v-0.1c0,0,0-0.1-0.1-0.2c0-0.1,0-0.1,0.1-0.1c0-0.3-0.1-0.6-0.1-0.8c0,0.1-0.1,0.2-0.2,0.3h-2
	c0.3-0.3,0.5-0.8,0.4-1.5c-0.8,0.3-2.1,1-2-0.3c-0.9,0.1-1.5-0.1-1.6-0.6c-0.3,0.1-0.4,0.3-0.8,0.3c1,0.4,0.2,0.6,0.8,0.9
	c-0.1,0.3-0.3,0.1-0.6,0c-0.1,0.2-0.1,0.4,0.2,0.4c0,0.2-0.7-0.1-0.9,0.3c-0.4-0.1-0.4-0.2-0.2-0.4c-0.6,0.1-0.2,0.4-0.2,0.8
	c-1-0.1-0.9-0.9-1.6-1.2c0.1-0.4,0.3-0.6,0-0.9c-0.1,0.9-0.6,0.5-0.7,0c0.4,6,1.4,11.9,2.7,17.7c0.1,0.1,0.2,0.2,0.4,0.2
	c0,0.1-0.1,0.2-0.2,0.4c0,0.1,0,0.2,0.1,0.3c0,0,0.2,0,0.3,0c0,0.1-0.2,0.1-0.3,0.2c0.6,2.6,1.4,5.1,2.1,7.7c0.2,0,0.5-0.1,0.6-0.2
	c0,0,0,0-0.1,0c0-0.1,0-0.1,0.1-0.1c0,0,0-0.1,0-0.1c0.1,0,0.1,0.1,0.1,0.1c0.1,0,0.1,0,0.2,0c0.2,0,0.2-0.3,0.2-0.4
	c0.3,0.1,0.5,0.4,0.9,0.4c-0.6,0.2,0.1,0.8,0.7,0.8c0.1,1.5-0.2,2.3,0.2,3.7c0.4,0.4-0.4-0.2-0.7-0.1c0.1-0.7,0.3-1-0.5-1.3
	c0.1-0.4,0.4,0.1,0.8,0c-0.1-0.3-0.5-0.5-0.2-0.8c-0.1-0.1-0.3-0.2-0.5-0.3c0,0.4,0.3,0.3,0.2,0.8c-0.5-0.1-0.6,0.2-0.5,0.6
	c-0.2-0.1-0.3-0.3-0.4-0.4c0-0.3,0.1-0.4,0.4-0.5c-0.1-0.3-0.5-0.4-0.8-0.5c0.4,1.1,0.7,2.1,1.1,3.2c0-0.2-0.1-0.4,0-0.7
	c0.5,0.2,0.1,1,0.9,1.2c0.5-0.1,0.5-0.6,0.7-0.9c0.2,0,0.3,0.3,0.5,0.3c0,0.2-0.1,0.1-0.1,0c-0.6,0.4-1,1-1.1,1.5
	c-0.1-0.1-0.4-0.3-0.6-0.4c0.2,0.5,0.4,1.1,0.6,1.6c0.4,0,1,0.2,0.9,0.6c-0.5,0.1-0.6-0.2-0.8-0.4c0.2,0.4,0.3,0.7,0.4,1.1
	c0.1,0,0.1,0,0.2,0c-0.1,0.1-0.1,0.1-0.2,0.2c0,0.1,0.1,0.2,0.1,0.3c0.1-0.1,0.3-0.2,0.4-0.3c0-0.2,0.2-0.4,0.6-0.4
	c0-0.1,0-0.1,0-0.2c0.3,0,0.4-0.2,0.7-0.2c-0.1,0.4,0,0.3,0.1,0.2c0.1-0.6,0.6-1,1.4-1.1c0.1-0.1,0.2-0.3,0.3-0.4
	c0.2,0,0.1,0.1,0,0.1c0.3,0.2,0.6,0.4,0.6,0.9c0.9-0.1-0.2-0.7,0-1.2c0.9,0.5,1.3,0,2.2,0.3c0-0.1,0-0.1,0.1-0.1
	c-0.1-0.1-0.1-0.1-0.3-0.1c0.1-0.1,0.2-0.1,0.4,0c0,0,0,0,0,0c0.1,0,0.2,0.1,0.3,0.2c0.3,0.2,0.6,0.4,0.7,0.5
	c-0.2-0.1-0.5,0-0.6,0.2c-0.3-0.1,0.1-0.2,0-0.4h-0.1c0,0.1-0.1,0.2-0.1,0.3c-0.2,0-0.3-0.1-0.3-0.2c-0.5,0.2-0.7,0.5-0.6,1.1
	c-0.2,0-0.3,0-0.4,0.1c-0.2,0-0.1-0.1,0-0.1c0.1-0.4-0.9,0.1-0.7-0.3c-0.4,0,0.2,0.4,0.4,0.4c-0.2,0.2-0.4,0-0.7-0.3
	c0,0.1,0,0.3,0.1,0.3c-0.7,0.3-0.5,0.9-1.3,1.3c0.2,0.4,0.5-0.2,0.7,0.1c-1.2,0.6,1.3,0.7,0.5,1.4c-0.2-0.3-0.8-0.3-1.3-0.5
	c0.7,0.2,0.2,1.2,1.3,1c-0.3,0.5-0.1,0.4-0.3,0.9c-0.2-0.4-0.9,0.1-0.9-0.1c-0.1,0.2-0.3,0.4-0.5,0.5c0.1,0,0.2,0,0.3,0.1v0.4
	c-0.2,0-0.4-0.2-0.5-0.4c-0.1,0-0.1,0.1-0.2,0.1c0,0.1,0.1,0.2,0.2,0.3c-0.2,0-0.3-0.1-0.4-0.1c-0.1,0-0.1,0-0.1,0.1
	c0.4,0.9,0.8,1.8,1.2,2.6c0.1-0.1,0.3-0.2,0.5-0.2c-0.1,0.2,0.2,0.3,0.4,0.3c0.2-0.1-0.1-0.2,0-0.4c0.3,0,0.1,0.5,0.5,0.4
	c0.4,0,0.1-0.7-0.2-0.6c0-0.3,0.8-0.1,0.9,0c-0.1,0.6-0.2,0.6,0.4,0.8c-0.1,0.2-0.4,0-0.6,0c0.2,0.5-0.1,0.6,0.2,1.2
	c-0.4,0-0.4-0.4-0.5-0.6c-0.6,0.4-0.3,0.8-0.5,1.3c0,0,0,0,0,0c0.6-0.1,0.8-0.2,1.4,0c-0.3,0.3-0.8,0.2-1.3,0.3
	c0.4,0.7,0.8,1.4,1.1,2.2c0.1-0.1,0.3-0.1,0.3-0.2c0.3,0.2,0.5,0.6,0.2,0.9c0.6,0.1,0.6-0.3,0.6-0.7c0.8,0.2,0.2,0.7,0.4,0.8
	c0.1,0,0.2,0,0.3,0.1c0.1,0,0.2,0,0.3,0c0,0.1-0.1,0.1-0.1,0.1c0.2,0.1,0.3,0.2,0.3,0.5c-0.2-0.3-0.7-0.2-0.9-0.4
	c-0.1,0.3,0.1,0.4,0.3,0.4c0-0.1,0-0.1,0.1-0.2c0.3,0.1,0.7,0.4,0.4,0.7c0,0,0,0,0.1-0.1c0.3,0.1,1,0,0.9,0.4c-0.3,0-0.5,0-0.5-0.2
	c-0.2,0-0.1,0.3-0.2,0.5c-0.6-0.1-0.5-0.4-0.3-0.7c0,0-0.1,0.1-0.1,0.1c-0.2-0.1-0.3-0.2-0.4-0.4c-0.4,0.1-0.8-0.5-0.9-0.8
	c-0.1,0.1-0.1,0.1-0.1,0.2c0.2,0.4,0.4,0.8,0.6,1.2c0,0,0,0,0.1,0c0,0,0,0,0,0c0.2,0.3,0.4,0.7,0.5,1h0.3c0,0.1,0,0.1-0.2,0.1
	c0,0.1,0,0.1,0,0.1c0,0,0,0.1,0.1,0.1c0,0,0.1,0.1,0.1,0.1c0,0,0,0,0,0.1c0.2,0.4,0.5,0.8,0.8,1.3c0.3-0.3,0.5-0.7,0-1
	c0.1-0.2,0.3,0.1,0.7-0.1c-0.1,0.6,0.2,0.9,0.3,1.2c0.2-0.2,0.7-0.1,0.9,0.1c0.6-0.3,0.9-0.6,0.9-1c0.2,0.6,0.6,0.9,1.3,1.2
	c-0.1,0.3-0.6,0.4,0,0.6c-0.4,0.3-0.6-0.8-1.1-0.9c-0.5-0.1-0.4,0.3-0.7,0.3c0.3,0.1,1.1,0.5,1.2,1.2c-0.4,0-0.3-0.5-0.9-0.4
	c-0.1,0-0.2,0.2-0.3,0.2c0.3,0.1,0.3,0.5,0.5,0.6c0.1,0.3-0.7,0-0.5-0.3c-0.4,0.1,0,0.8,0.5,0.6c0,0.1-0.1,0.1-0.2,0.1v0.3
	c-0.4,0-0.3-0.4-0.7-0.4c0.2,0.4,0.5,0.5,0.2,1c-0.1-0.1-0.2-0.1-0.3-0.2c2.5,3.9,5.1,7.6,8,11.1c0.1,0,0.2-0.1,0.3,0
	c0,0.1,0,0.2-0.1,0.3c3.1,3.8,6.4,7.4,10,10.8c0.2-0.7,0.8-1.3,1.7-1.9c0.8-0.8,0.2,0.8,0,1.2c0.4-0.3,1.5-0.1,1.2-0.9
	c1.6,0.8-0.6,1.8-1.4,3c0.6,0.6,1.3,1.2,1.9,1.8c0.1,0,0.3-0.1,0.4,0c0,0.1-0.1,0.1-0.2,0.2c3.8,3.3,7.8,6.4,11.9,9.2
	c0,0,0.1,0,0.1,0c0,0,0,0-0.1,0c4,2.7,8.2,5.2,12.5,7.4c0.1-0.4-0.2-0.7,0.4-1.2c-0.3-0.1-3.3,0.4-2.5-1.5c2.4,0.3,1.1-0.9,3.5-0.7
	c0.4,0.1,0.1,0.3-0.1,0.3c-0.9,1,1.7,0.3,0.9,1.3c1.6-0.3-0.5-0.9-0.1-1.5c0.7,0.1,0.8,0.4,1.5,0.5c-2.4-1.6,2.8-0.7,1.7-2.2
	c1.6,0.5-0.6,1.5,0.8,1.9c-0.1,0.8-1,0.6-1.8,0.7c1.4,0.1,1.1,1.3,1.5,2.6c-1.8-0.2-3.1,0.5-4.5,0.6c4.7,2.4,9.6,4.5,14.7,6.2
	c-0.1-0.2-0.1-0.3,0.1-0.3c0.2,0,0.3,0.2,0.4,0.4c9.5,3.3,19.5,5.4,29.9,6.2c0.8-0.1,1.7,0,2.2-0.3c-0.1-0.7-0.1-1.5,1.2-1.2
	c0.2-0.9-0.5-1.2-1.2-1.5c0.6-0.7,1.7,0.7,2.4,0.9c0.9-0.1,0-1.8,1.2-0.9c-0.7-0.8-0.9-1.1,0-1.7c1.2,0-0.6,2.2,1.2,1.7
	c-0.4,0.7-1.2,1.1-2.4,1.2c0.1,0.2,1.3,0.9,1.2,0.3c1,0.5-0.9,1.3-1.6,1.5c0,0.1,0,0.2,0,0.2c1.9,0.1,3.8,0.1,5.8,0.1
	c19.7,0,38.3-4.6,54.7-12.8l0.6-0.8c0.2,0.1,0.4,0.2,0.6,0.3c1.1-0.6,2.1-1.1,3.2-1.7c-0.4-0.7-1.1-0.9,0.1-1.7
	c4.8,0.7,5.3-4,8.4-5.3c-0.2-0.1,0.2-0.1,0.4-0.1c0,0,0.1,0,0.1,0c0,0,0-0.1-0.2-0.1c0-0.2,0.5-0.2,0.7-0.4
	c-0.5-0.5-0.7-1.3-0.7-2.2c2.6-0.5,6.4-3.4,4.9-4.4c1.3-1.2,5.9-0.3,7.7-1.2C222.9,225,222.9,223.5,226.1,224.1"/>
<path fill="#86A0AF" d="M251.9,94c-1.2,0.2-0.8-0.8-2.1-0.6c1.6,1.4,1.1,1.7,2.4,3.5c-0.7,0.3-0.9,0.9-0.8,1.8
	c-1.2,0.3-2.4,0.7-3.4,1.2c1.2,3.5,2.3,7.1,3.2,10.7c0.1-0.1,0.2-0.2,0.6-0.3c0.1,0.3-0.3,0.3-0.5,0.3c0.7,0.5,1.4-0.7,0.7-1
	c0.5,0,0.4,0.5,0.9,0.5c-0.9,0.5,0.2,0.8-0.9,0.9c-0.1,0.7,0.6-0.1,0.5,0.3c0.2-0.1,0.2-0.9,0.9-0.9c-0.3,0.3,0,1.8-0.9,1.2
	c0.3,0.9,0.5,0.1,1.1,0.6c0.1,0.4-0.4,0.3-0.4,0.6c0.4-0.2,0.7-0.2,0.9-0.3c0.5,0.1,0,0.5-0.4,0.3c0,0.2,0.8,0.5,0,0.4
	c0.6,0.4,0.5,0.3,0.2,1.1c0.3-0.6,0.6,0,0.5,0.6c-0.4,0.1-0.4-0.2-0.4-0.4c-0.3,0-0.1,0.5-0.4,0.6c0.1,0.1,0.2,0.2,0.2,0.3
	c0.5-0.6,1.4,0.3,1.8,0.8c-0.1,0.4-0.7,0-0.5-0.3c-0.3,0.1-0.5,0.2-0.7,0.3c0.1,0.3,0.8,0,0.6,0.6c-0.7-0.1-1.1-0.5-1.3-1
	c-0.3,0.2-0.5,0.2-0.7,0c-0.3,0.1-0.2,0.5-0.7,0.5l0.1,0.5c0,0,0,0.1,0,0.1c1.3,6.6,1.9,13.5,1.9,20.5c0,7.2-0.7,14.2-2,21
	c0.5,0.1,1,0.5,1.1-0.3c0.4,0.2,0.6,0.5,0.8,0.9c0.4-0.1,1.3-1.1,0.4-1.2c1.2-0.5,0.8,0.9,1.2,1.7c0.5-1.6,1.5,0.7,2.4-1.2
	c0.9-0.5-0.2,1,0.4,1.5c-0.4-0.2-0.9-0.3-1.6-0.3c0.2,0.4,0.7,0.5,0.8,0.9c0.8-0.2,1.3-0.6,2-0.9c1.2,0.2-0.6,0.5-0.8,0.6
	c0.7,0.5,1.3,0.1,2,0c-0.4-0.7-1.6-0.7-1.2-2c0.9-0.3,1.2-0.9,2.4-0.9c-0.6-0.5-1.8,0.3-2.4-0.6c-0.1-0.6,1.2-0.2,1.9-0.3
	c-1.2,0-1.9-2.5-1.1-1.2c0.3,0.3,0.7,0.4,1.2,0.6c0-0.9-1.1-1.1-0.8-2.3c-0.9-0.1-0.9,0.5-2,0.3c-0.5-0.9-0.1-1-0.4-2.4
	c1.7,0.2,0,1.7,0.8,2c1.3-1,3.4-0.1,2.4,1.2c0.4,0,0.7-0.1,1-0.2c0.8-5.5,1.2-11,1.2-16.7c0-4.5-0.3-8.9-0.7-13.3
	c-1,0.3-0.7-0.1,0-0.3c0-0.1,0-0.3,0-0.4c-0.2,0.1-0.3,0.4-0.5,0.5c-0.2-0.3,0.1-0.5,0.5-0.7c-0.9-7-2.3-13.9-4.3-20.5v0.2
	c-0.5,0-0.6-0.2-0.7-0.4c-0.4,0.3-0.8,0.3-1.4,0.6c0-0.2-0.2-0.1-0.4-0.2c0.2-0.3,0.4-0.7,0.9-0.7c0,0.1-0.2,0.1-0.2,0.3
	c0.6-0.1,0.8-0.8,1.5-0.9c0-0.1-0.1-0.3-0.1-0.4c-0.1,0-0.2,0-0.3-0.1c0.1-0.1,0.1-0.2,0.2-0.2c-1-3-2-5.9-3.2-8.8
	c-0.5,0.1-0.9,0.1-1.4,0c-0.6,0.1,0.1,0.4,0,0.9C253.3,93.6,251.9,93.3,251.9,94"/>
<path fill="#86A0AF" d="M258,168.7c0.5-0.3,0.8-0.8,1.5-0.9c-1.9,0-1.2-2.4-3.6-3.2c0.3,1.8-0.5,0.5-2.4-0.3c0.2,1-1.5,0.8-2.7,0.8
	c-0.7,2.7-1.5,5.4-2.4,8c0.9-0.2,1.5-0.7,2.3-0.4c0.4-0.3-0.8-1,0.4-1.8c0.5,0.1,0.3,0.8,0.4,1.2c1.2,0.1,1.6-0.9,2.4-0.3
	c0-0.5-0.5-0.6-0.4-1.2c1.2-0.1,1.6-1.7,2.8-0.9c-0.9-0.9,0.8-1.1,0-1.4C256.8,167.5,257.8,168.5,258,168.7"/>
<path fill="#86A0AF" d="M21.5,132.1c-0.1,1.1-0.1,2.2-0.1,3.3c0.7,0.1,0.9,0.1,0.8-0.6h0.7c-0.2,0.4-0.3,0.9,0.2,1
	c-0.1,0.2-0.3,0.2-0.4,0.4c0.1,0.2,0.2-0.1,0.6,0c0.1,0.5-0.6,0.2-0.7,0.4c0.2,0.2,0.4,0,0.7,0.3c-0.4,0.5-0.7-0.2-1.1,0.5
	c0.2,0.4,0.3-0.4,0.7-0.2c0,0.4-0.7,0.4,0,0.6c-0.6-0.2-0.2,0.6-0.9,0.3c-0.3,0-0.2,0.4-0.2,0.6c0.5,0,0.6-0.3,0.9-0.4
	c0.4,0.5-0.7,0.5-0.5,1c-0.3,0-0.5,0-0.8,0.1c0,0.3,0,0.7,0,1.1c0,0.1,0.1,0.2,0.4,0.2c0.1,0.3-0.1,0.3-0.4,0.3c0,0.1,0,0.3,0,0.4
	c0.4-0.1,0.7-0.3,1-0.4v0.9c-0.4,0.3-0.6,0.2-1,0.1c0,0,0,0.1,0,0.1c0.2,0.2,0.1,0.4,0,0.7v0c0.2,0.2,0.4,0.3,0.7,0.4
	c-0.1,0.2-0.2,0.4-0.5,0.4c0.1,0,0.2,0.1,0.3,0.1c0.5-0.1,0.3-0.6,0.4-0.9c1.8,0.5,0,1.2-0.8,1.5c-0.1,0-0.1,0-0.1,0
	c0,0.4,0.1,0.8,0.1,1.2c0,0.1,0.1,0.2,0.2,0.4c1.1-0.1-0.1-0.6,0.4-1c0.5,0.2,0,1.2,0.9,1.5c0.3-0.2-0.2-1.2,0.9-1
	c0.1-0.4-0.3-0.3-0.2-0.8h0.3c0.2-0.5,0.8-0.5,1.3-0.3c0.2-0.1,0.2-0.3,0-0.6c0.7-0.2,0.4,0.4,0.7,0.4c-0.1,0.1-0.2,0.3-0.4,0.4
	c0.3,0.2,0.6,0.5,0.7,0.7c0.4-0.2,0.9-0.3,1.6-0.3c0.9-1.4,1.1-2.1,0.8-4.1c0.6-0.1,0.6,0.3,1.2,0.3c0-0.5-0.3-0.7-0.8-0.9
	c0.7-0.6,1.5-0.1,0.8-1.2c0.1,0,0.2,0,0.4,0c0-0.6,0-1.2,0-1.8c0-1.3,0-2.6,0.1-3.8c-0.1,0-0.2,0.1-0.5,0.1c0.1-0.5,0-0.7-0.4-0.9
	v0.3c-0.1,0-0.2,0-0.2-0.1c0,0.1,0.1,0.3-0.1,0.4c-0.1-0.2-0.2-0.3-0.2-0.5c-0.3-0.2,0.1-0.4,0.2-1c-0.6,0.4-1,1.3-2,0.6
	c-0.2,1.1,1,1.8,0,2.6c-0.3,0.1-0.4-0.1-0.4-0.3c0.1-0.2-0.2-0.3-0.4-0.3c0-0.3,0.5-0.2,0.8-0.3c-0.1-0.4-1.2-0.4-1.2,0
	c0.1-0.5-0.4-1.7-0.9-2.5c0.1,0.4-0.1,0.6,0.1,0.8c0,0,0,0.1,0,0.1c0.2,0.6-0.4,1.7,0,1.7c0.1,0.3-0.1,0.3-0.4,0.3h-0.8
	c0.1-1.4,1-1,0.4-2.3c0.1,0,0.3,0,0.4,0.1c-0.3-0.3-0.5-0.7-0.3-1.1c-0.6,0-0.2,0.9-0.8,0.9c0,0.1,0,0.1,0,0.2
	c-0.4-0.4-1.3,0.3-0.5,0.3c-0.1,0.4-0.6-0.1-0.9,0c0.1-0.2,0.2-0.3,0.5-0.3c0-0.4-0.6-0.4-0.9-0.2c0,0.2,0.1,0.4,0,0.5
	C21.6,132.5,21.6,132.3,21.5,132.1"/>
<path fill="#86A0AF" d="M151.9,157.4c0-0.1,0-0.1,0-0.2c-0.2,0.1-0.3,0.2-0.2,0.5C151.7,157.6,151.7,157.5,151.9,157.4"/>
<path fill="#86A0AF" d="M152.1,186.5c0.1,0,0.1-0.1,0.1-0.2c0-0.1,0-0.3-0.1-0.5c-0.2,0-0.3-0.2-0.5-0.1v0.2
	C152.2,185.9,151.7,186.3,152.1,186.5"/>
<path fill="#86A0AF" d="M114.5,107.1c-0.2,0.3-0.2,0.5-0.6,0.3c-0.2,0.5,0.3,0.2,0.3,0.7c-0.1,0-0.1,0-0.1,0.1h1.1
	C115.4,107.5,114.4,107.7,114.5,107.1"/>
<path fill="#86A0AF" d="M119.4,108.1h1.4C120.5,107.7,119.9,108,119.4,108.1"/>
<path fill="#86A0AF" d="M116.2,107.1c0.5-1.1-0.4-0.2-0.7-0.2c-0.2,0-0.1,0.5-0.3,0.4c0.3,0.3,0.4,0.6,0.1,0.8h2.1
	c-0.1,0-0.1,0-0.1,0c0.2-0.2,0.5-0.5,0.7-0.3c-0.1-0.3-0.5-0.3-0.5-0.7c-0.3,0-0.8,0.4-0.7-0.3c-0.4,0.1-0.6,0.8-0.8,0
	C116.1,106.8,116.1,107,116.2,107.1"/>
</svg>
