<?xml version="1.0" encoding="utf-8"?>
<!-- Generator: Adobe Illustrator 18.0.0, SVG Export Plug-In . SVG Version: 6.00 Build 0)  -->
<!DOCTYPE svg PUBLIC "-//W3C//DTD SVG 1.1//EN" "http://www.w3.org/Graphics/SVG/1.1/DTD/svg11.dtd">
<svg version="1.1" id="Layer_1" xmlns="http://www.w3.org/2000/svg" xmlns:xlink="http://www.w3.org/1999/xlink" x="0px" y="0px"
	 viewBox="0 0 200 41.7" enable-background="new 0 0 200 41.7" xml:space="preserve">
<g>
	<path fill="#FEFEFE" d="M100.4,41.7c-33,0-66,0-99,0c-0.8,0-1-0.2-1-1c0-13.3,0-26.6,0-39.9C0.4,0.1,0.5,0,1.2,0
		c66.1,0,132.2,0,198.3,0c0.7,0,0.9,0.1,0.9,0.9c0,13.3,0,26.7,0,40c0,0.7-0.1,0.9-0.9,0.9C166.5,41.7,133.4,41.7,100.4,41.7z"/>
	<path fill="#8599A9" d="M4.5,20.3c0-0.9,0-1.8,0-2.7c0-0.4-0.2-1,0.5-1c0.7-0.1,0.7,0.4,0.8,0.9c0.4,1.6,1,3,2.2,4.2
		c1.9,1.8,5.4,2,7.2,0.5c2-1.7,1.4-4.7-1.1-5.6c-2-0.7-4.2-1-6.2-1.9c-2.6-1.1-3.5-2.4-3.2-5.3c0.2-2,1.2-3.4,3.1-4.1
		c2.4-0.8,4.7-0.6,6.8,0.9c0.6,0.4,0.8,0.3,1.1-0.2c0.1-0.2,0.3-0.5,0.5-0.7C16.3,4.9,16.6,5,16.9,5c0.3,0,0.3,0.3,0.3,0.6
		c0.1,1.8,0.2,3.7,0.2,5.5c0,0.3,0.1,0.7-0.4,0.7c-0.4,0.1-0.7-0.1-0.8-0.6c-0.2-0.6-0.4-1.2-0.7-1.7c-1.2-2.5-3.2-3.6-6-3.5
		C8.3,6.1,7.1,6.9,6.8,8c-0.4,1.5-0.1,2.3,1.3,3.3c1.2,0.8,2.6,1.1,4,1.5c0.8,0.2,1.7,0.4,2.5,0.7c2.8,0.9,4,3.2,3.6,6.2
		c-0.3,2.5-2.3,4.3-5.1,4.5c-2.2,0.2-4.2,0-6-1.5c-0.5-0.4-0.7-0.2-0.9,0.2c-0.1,0.2-0.3,0.5-0.4,0.7c-0.2,0.4-0.5,0.6-0.9,0.5
		c-0.5-0.1-0.4-0.5-0.4-0.9C4.6,22.3,4.6,21.3,4.5,20.3C4.5,20.3,4.5,20.3,4.5,20.3z"/>
	<path fill="#859AA9" d="M100.6,23.9c-2.3,0-4.5,0-6.8,0c-0.4,0-0.9,0.2-0.9-0.5c0-0.7,0.4-0.7,0.9-0.7c1.8,0,1.9-0.1,1.9-1.9
		c0-4.2,0-8.4,0-12.6c0-1.6-0.2-1.9-1.8-1.9c-0.4,0-1,0.2-0.9-0.7C93,4.8,93.5,5,93.9,5c2.2,0,4.3,0,6.5,0c0.5,0,1-0.1,1,0.7
		c0,0.8-0.5,0.6-0.9,0.6c-1.6,0-1.8,0.2-1.8,1.8c0,4.4,0,8.8,0,13.1c0,1.3,0.2,1.5,1.5,1.5c1.2,0,2.5,0.1,3.7-0.2
		c1.2-0.3,2.2-0.9,2.7-2.1c0.4-1,0.8-2.1,1-3.2c0.1-0.4,0.2-0.6,0.7-0.6c0.5,0,0.4,0.4,0.4,0.7c-0.1,2-0.2,3.9-0.3,5.9
		c0,0.6-0.4,0.6-0.9,0.6C105.2,23.9,102.9,23.9,100.6,23.9z"/>
	<path fill="#8599A9" d="M146.8,18.2c0,1,0,2,0,3c0,1.1,0.4,1.4,1.5,1c0.3-0.1,0.5-0.2,0.7,0.1c0.2,0.3,0.1,0.5-0.1,0.8
		c-0.8,1.3-3.2,1.5-4,0.2c-0.5-0.9-0.8-0.6-1.4-0.2c-1.5,1.2-3.2,1.6-5.1,1.1c-2.2-0.6-3-3.4-1.5-5.1c1-1.1,2.3-1.6,3.6-2
		c1-0.3,2-0.5,3-0.7c0.2-0.1,0.5,0,0.7-0.2c0.5-0.8-0.1-2.9-1-3.2c-1.1-0.4-2.3-0.4-3.4,0c-0.5,0.2-0.8,0.5-0.4,1.1
		c0.4,0.6,0.5,1.4-0.1,1.9c-0.5,0.4-1.2,0.5-1.8,0.1c-0.8-0.4-0.9-1.1-0.6-1.9c0.3-1.3,1.4-1.9,2.5-2.3c1.5-0.5,3-0.4,4.5-0.2
		c1.8,0.4,2.7,1.5,2.7,3.4C146.9,16.2,146.8,17.2,146.8,18.2z"/>
	<path fill="#8599A8" d="M40.3,14.5c0-2.1,0-4.2,0-6.4c0-1.8-0.1-1.9-1.9-1.9c-0.3,0-0.7,0.1-0.8-0.2c-0.1-0.4-0.3-1,0.5-1
		c2.4,0,4.9,0,7.3,0C45.9,5,46,5.3,46,5.7c0,0.5-0.3,0.6-0.7,0.5c-0.2,0-0.4,0-0.6,0c-1.2,0.1-1.5,0.3-1.5,1.6c0,4.4,0,8.8,0,13.2
		c0,1.3,0.3,1.6,1.7,1.6c0.4,0,1.1-0.4,1.1,0.5c0,0.4,0,0.7-0.6,0.7c-2.4,0-4.9,0-7.3,0c-0.4,0-0.7-0.1-0.7-0.6
		c0-0.5,0.2-0.7,0.7-0.7c0.2,0,0.5,0,0.7,0c0.9,0,1.4-0.4,1.4-1.4C40.2,19.1,40.3,16.8,40.3,14.5z"/>
	<path fill="#8599A9" d="M68.4,18.2c-1.2,0-2.4,0-3.5,0c-0.6,0-0.8,0.2-0.7,0.8c0.2,2.1,0.9,3.4,2.5,3.8c1.7,0.5,3.6-0.2,4.7-1.8
		c0.2-0.3,0.3-0.8,0.9-0.4c0.6,0.4,0.2,0.7,0,1c-1.3,2.2-4,3.3-6.6,2.6c-2.3-0.6-4-2.7-4.2-5.3c-0.1-2.2,0.1-4.3,1.9-5.9
		c1.7-1.6,3.8-1.7,5.8-1.1c2,0.6,3,2.3,3.4,4.3c0.3,2,0.3,2-1.7,2C70,18.2,69.2,18.2,68.4,18.2z"/>
	<path fill="#8599A8" d="M74.6,21.8c0-0.7,0-1.3,0-2c0-0.3,0-0.6,0.4-0.6c0.4,0,0.6,0.1,0.7,0.4c0.2,0.5,0.4,1,0.7,1.5
		c0.9,1.7,2.8,2.5,4.6,1.9c0.9-0.3,1.5-0.8,1.6-1.8c0.1-1.1-0.6-1.6-1.5-1.8c-1.3-0.4-2.6-0.6-3.9-1c-1.9-0.7-2.7-2-2.3-4.2
		c0.2-1.5,1.6-2.5,3.4-2.6c1.1,0,2.1,0.1,3,0.6c0.4,0.2,0.6,0.2,0.9-0.2c0.2-0.4,0.6-0.5,1-0.4c0.4,0.1,0.2,0.5,0.2,0.8
		c0,0.9,0,1.7,0,2.6c0,0.3,0.1,0.7-0.4,0.9c-0.5,0.1-0.6-0.3-0.7-0.6c-0.3-0.6-0.6-1.2-1-1.7c-1-1.1-2.3-1.3-3.6-1
		c-0.7,0.1-1.2,0.6-1.3,1.3c-0.2,0.8,0.3,1.3,0.9,1.6c0.7,0.4,1.4,0.6,2.2,0.8c0.8,0.2,1.7,0.4,2.5,0.7c1.8,0.7,2.6,1.9,2.4,3.7
		c-0.2,2-1.5,3.4-3.3,3.6c-1.4,0.2-2.7,0.1-3.9-0.8c-0.5-0.4-0.8-0.3-1.1,0.2c-0.2,0.4-0.5,0.7-1,0.5c-0.5-0.2-0.2-0.6-0.3-0.9
		C74.6,22.9,74.6,22.3,74.6,21.8z"/>
	<path fill="#859AA9" d="M24.2,17.4c0,1.1,0,2.3,0,3.4c0,0.9,0.3,1.6,1.2,1.8c0.9,0.2,1.7-0.4,2.1-1.3c0.2-0.6,0.3-1.1,0.4-1.7
		c0.1-0.4,0.2-0.5,0.6-0.4c0.3,0,0.3,0.3,0.4,0.5c0.4,3-2.1,5.3-5.1,4.6c-1.3-0.3-1.8-1-1.9-2.5c-0.2-2.6-0.2-5.1-0.1-7.7
		c0-0.8-0.1-1.2-1-1c-0.3,0.1-0.8,0.2-1-0.3c-0.1-0.4-0.1-0.7,0.4-0.8c2.3-0.6,2.8-2.5,3.1-4.5c0-0.3-0.2-0.8,0.5-0.9
		c0.5,0,0.8,0.1,0.8,0.7c0,1.2,0,2.5,0,3.8c0,0.6,0.2,0.9,0.8,0.8c0.8,0,1.5,0,2.3,0c0.4,0,0.7,0.1,0.7,0.6c0,0.4-0.2,0.6-0.6,0.6
		c-0.8,0-1.5,0.1-2.3,0c-0.9-0.1-1.1,0.3-1,1.1C24.2,15.2,24.1,16.3,24.2,17.4C24.1,17.4,24.2,17.4,24.2,17.4z"/>
	<path fill="#859AAA" d="M127.2,17.7c0,1,0.1,1.9,0.4,2.8c0.5,1.4,1.4,2.1,2.8,2.2c1.5,0.1,2.5-0.5,3.3-1.8c0.2-0.3,0.2-0.8,0.6-0.7
		c0.5,0.1,0.8,0.3,0.5,1c-1.5,3.4-5.8,4.3-8.5,1.8c-3-2.8-2.4-8.5,1.1-10.6c1.8-1.1,4.7-1,6.2,0.1c0.9,0.7,1.2,1.6,1,2.7
		c-0.1,0.7-0.6,1.2-1.3,1.3c-0.7,0.1-1.3,0-1.7-0.6c-0.4-0.6-0.4-1.3,0.1-1.8c0.6-0.7,0.3-1-0.4-1.2c-1.6-0.5-3.1,0.2-3.7,1.8
		C127.3,15.6,127.2,16.7,127.2,17.7z"/>
	<path fill="#8499A9" d="M154.4,13.8c0,2.6,0,5.1,0,7.7c0,0.8,0.2,1.2,1.1,1.2c0.4,0,0.8,0,0.8,0.6c0,0.7-0.4,0.6-0.9,0.6
		c-1.6,0-3.3,0-4.9,0c-0.4,0-0.8,0.1-0.8-0.5c0-0.6,0.3-0.7,0.8-0.6c1.1,0.1,1.4-0.4,1.4-1.4c0-4.5,0-9,0-13.5
		c0-1.4-0.1-1.4-1.4-1.5c-0.4,0-0.8,0.1-0.8-0.5c0-0.5,0.4-0.5,0.7-0.5c1-0.1,2-0.1,3-0.2c0.8-0.1,0.9,0.2,0.9,0.9
		C154.3,8.6,154.4,11.2,154.4,13.8z"/>
	<path fill="#8599A8" d="M54.5,20.8c0.9-2.4,1.7-4.5,2.5-6.6c0.3-0.8-0.3-1.1-1-1.2c-0.4,0-0.7-0.1-0.7-0.6c0-0.5,0.4-0.5,0.8-0.5
		c1.3,0,2.5,0,3.8,0c0.2,0,0.5,0,0.5,0.3c0,0.3,0.1,0.6-0.3,0.7c-1.4,0.3-1.7,1.5-2.2,2.5c-1.1,2.7-2.2,5.4-3.3,8.1
		c-0.1,0.3-0.1,0.8-0.7,0.8c-0.6,0.1-0.7-0.4-0.8-0.8c-1.3-3-2.6-5.9-3.9-8.9c-0.4-0.8-0.6-1.8-1.9-1.8c-0.3,0-0.4-0.2-0.4-0.5
		c0-0.4,0.2-0.5,0.5-0.5c1.6,0,3.2,0,4.8,0c0.3,0,0.6,0,0.6,0.4c0,0.4-0.1,0.6-0.5,0.6c-1.1,0-1.1,0.6-0.8,1.5
		C52.6,16.4,53.5,18.5,54.5,20.8z"/>
	<path fill="#8F9BA3" d="M117.1,23.8c-3.7,0.2-6.3-2.6-6.4-5.8c-0.1-3.5,2.7-6.2,5.9-6.3c3.7-0.1,6.3,2.3,6.6,5.6
		C123.6,20.7,120.7,23.9,117.1,23.8z"/>
	<path fill="#869AAB" d="M34.5,22.8c0,0.9-0.8,1.6-1.7,1.6c-0.9,0-1.6-0.8-1.6-1.6c0-0.9,0.7-1.6,1.6-1.6
		C33.8,21.2,34.5,21.9,34.5,22.8z"/>
	<path fill="#95A1AB" d="M41.1,30.1c0.4-0.5,0.8-0.6,1.4-0.4c0.5,0.2,0.6,0.6,0.5,1c0,0.2,0,0.5,0,0.7c0,0.3,0.3,0.5,0.6,0.5
		c0.3,0,0.5-0.2,0.5-0.5c0-0.9,0.1-1.9,0-2.8c0-0.4-0.3-0.5,0.3-0.6c0.6-0.1,0.6,0.2,0.6,0.6c0,0.8,0,1.5,0,2.3
		c0,0.4-0.1,0.8,0.4,1.2c-1.2,0-2.2,0-3.2,0c-0.4,0-1,0.2-1.1-0.4c-0.1-0.6,0.4-0.8,0.9-0.8c0.3,0,0.5-0.1,0.4-0.5
		c-0.1-0.3-0.3-0.3-0.6-0.2C41.5,30.2,41.4,30.3,41.1,30.1z"/>
	<path fill="#909EA8" d="M57.2,32.1c-1,0-1.8,0-2.8,0c0.2-0.5,0.2-1,0.2-1.5c0-0.2,0-0.5-0.4-0.5c-0.4,0-0.5,0.2-0.5,0.5
		c0,0.5-0.2,1,0.3,1.5c-0.4,0.2-0.8,0.1-1.2,0.1c0.3-0.7,0.4-1.4,0-2c-0.2-0.4-0.1-0.4,0.2-0.4c1,0,2.1-0.1,3.1,0
		c0.5,0,0.7,0.4,0.6,0.9C56.9,31.1,56.9,31.6,57.2,32.1z"/>
	<path fill="#98A3AA" d="M17.6,32.1c-0.8,0.3-1.6,0.5-2.1-0.3c-0.5-0.7-0.3-1.4,0.2-2c0.6-0.7,1.4-0.8,2.2-0.5
		c0.6,0.2,0.8,0.8,0.7,1.4c-0.1,0.6-0.6,0.9-1.1,0.8c-0.5-0.1-1.3,0.5-1.4-0.4c-0.1-0.9,0.6-1.1,1.4-1.1c0.1,0,0.2,0,0.4-0.1
		c-0.3-0.6-0.7-0.6-1.2-0.4c-0.8,0.3-0.9,1-0.8,1.7C16,32.3,16.9,32.1,17.6,32.1z"/>
	<path fill="#929FA7" d="M7.5,36.1c0,0.7,0,1.3-0.4,1.7c-0.6,0.7-1.8,0.5-2.1-0.3c-0.3-0.7-0.3-1.4-0.1-2.1c0.2-0.8,0.7-1.1,1.5-1
		c0.7,0.1,1,0.6,1.1,1.3C7.5,35.8,7.5,36,7.5,36.1z"/>
	<path fill="#939FA7" d="M13.4,36.6c-0.2,0-0.5,0.1-0.7,0.1c-0.6,0-1.1-0.2-1.2-0.9c-0.2-0.6,0.2-1.1,0.7-1.4
		c0.6-0.3,1.2-0.3,1.6,0.3c0.6,0.8,0.5,1.8,0.1,2.7c-0.3,0.7-0.9,0.9-1.6,0.8c-0.3,0-0.6-0.1-0.6-0.4c0-0.1,0.1-0.3,0.1-0.3
		c0,0,0.2,0,0.3,0C13.1,37.9,13.1,37.9,13.4,36.6z"/>
	<path fill="#939DA5" d="M41.7,36.2c0.3-0.1,0.6-0.2,0.8-0.3c0.3-0.1,0.5-0.4,0.4-0.8c0-0.3-0.2-0.4-0.5-0.5
		c-0.3-0.1-0.5,0.1-0.6,0.4c-0.1,0.2-0.3,0.5-0.5,0.2c-0.2-0.2-0.2-0.6,0.1-0.7c0.6-0.3,1.3-0.3,1.9,0.1c0.5,0.4,0.4,0.8,0.1,1.3
		c-0.2,0.2-0.2,0.4,0,0.6c0.6,0.9,0.2,1.6-0.9,1.7c-0.3,0-0.6,0-0.8,0c-0.3,0-0.5-0.1-0.6-0.5c0-0.1,0-0.3,0.1-0.3
		c0.3-0.1,0.3,0.2,0.5,0.4c0.4,0.4,0.8,0.3,1.1-0.1c0.3-0.4,0.2-0.8-0.2-1.1C42.4,36.4,42.1,36.3,41.7,36.2z"/>
	<path fill="#98A0A9" d="M15.1,35.4c-0.2-0.4-0.3-0.8,0-1c0.6-0.3,1.2-0.4,1.8,0c0.4,0.3,0.5,0.7,0.4,1.2c-0.2,0.8-0.9,1.3-1.3,2
		c0.4,0.3,0.9,0,1.4,0.4c-0.8,0.3-1.5,0.2-2.2,0.1c-0.4,0-0.2-0.3-0.1-0.5c0.2-0.2,0.5-0.5,0.7-0.7c0.3-0.3,0.6-0.6,0.7-1
		c0.1-0.4,0.2-0.9-0.3-1.2C15.6,34.3,15.6,35.1,15.1,35.4z"/>
	<path fill="#959DA3" d="M18.8,36.2c0.4-0.2,0.7-0.3,0.9-0.4c0.4-0.3,0.4-0.7,0.1-1c-0.3-0.3-0.7-0.4-0.9,0.2
		c-0.1,0.2-0.2,0.4-0.4,0.3c-0.2,0-0.2-0.2-0.2-0.3c0-0.2,0-0.5,0.3-0.6c0.6,0,1.3-0.3,1.8,0.2c0.4,0.4,0.3,0.9,0,1.3
		c-0.2,0.3,0.1,0.4,0.2,0.6c0.4,0.6,0.2,1.1-0.3,1.4c-0.4,0.3-1.8,0.4-2.1,0c-0.1-0.2-0.2-0.4,0-0.6c0.1-0.1,0.4-0.1,0.4,0.1
		c0.2,0.6,0.6,0.5,1,0.3c0.3-0.1,0.5-0.4,0.5-0.7c0-0.5-0.4-0.6-0.8-0.7C19.2,36.3,19,36.3,18.8,36.2z"/>
	<path fill="#979FA5" d="M40.3,34.6c-0.3,0.2-0.7,0.1-1,0.2c-0.3,0-0.7,0-0.7,0.4c-0.1,0.5,0.3,0.4,0.6,0.5c0.7,0.2,1.3,0.4,1.2,1.3
		c-0.1,1-1.6,1.7-2.4,1.1c-0.2-0.1-0.3-0.4-0.2-0.6c0.2-0.3,0.4-0.1,0.5,0.1c0.2,0.4,0.5,0.4,0.9,0.2c0.3-0.2,0.5-0.5,0.5-0.8
		c0-0.4-0.3-0.8-0.7-0.8c-0.8,0-1.1-0.2-1-1.1c0.2-1,0.9-0.5,1.4-0.6C39.7,34.4,40,34.3,40.3,34.6z"/>
	<path fill="#979FA5" d="M37,34.6c-0.4,0.3-0.8,0.2-1.1,0.2c-0.3,0-0.6,0.1-0.6,0.4c-0.1,0.4,0.2,0.4,0.5,0.5
		c0.8,0.2,1.5,0.5,1.2,1.5c-0.2,0.8-1.2,1.2-2.1,1c-0.3-0.1-0.4-0.3-0.4-0.5c0-0.1,0-0.2,0.1-0.3c0.2-0.1,0.4-0.1,0.4,0.1
		c0.2,0.5,0.5,0.5,0.9,0.3c0.3-0.2,0.5-0.5,0.5-0.8c-0.1-0.5-0.4-0.8-0.9-0.8c-0.5,0-0.9,0-0.8-0.8C34.9,34.3,35.5,34.1,37,34.6z"/>
	<path fill="#969FA3" d="M25.4,34.5c-0.3,0.5-0.7,0.3-1,0.3c-0.3,0-0.5,0.1-0.6,0.5c0,0.4,0.2,0.4,0.5,0.4c0.8,0.2,1.5,0.5,1.3,1.5
		c-0.2,0.8-1,1.2-2,1c-0.3,0-0.5-0.1-0.5-0.4c0-0.1,0-0.3,0.1-0.4c0.3-0.2,0.4,0.1,0.5,0.3c0.2,0.3,0.5,0.3,0.8,0.1
		c0.3-0.2,0.6-0.5,0.5-1c-0.1-0.4-0.4-0.8-0.9-0.7c-1,0.1-0.9-0.4-0.7-1.1C23.7,33.6,24.7,34.8,25.4,34.5z"/>
	<path fill="#8E9AA4" d="M27.4,38.1c0.3-0.3,0.7-0.3,0.5-0.7c-0.1-0.4-0.5-0.2-0.7-0.3c-0.3-0.1-0.7,0.2-0.8-0.2
		c-0.1-0.3,0.2-0.6,0.3-0.8c0.4-0.5,0.7-1,1.1-1.5c0.1-0.2,0.3-0.3,0.5-0.2c0.3,0.1,0.2,0.3,0.2,0.5c0.2,0.7-0.5,1.5,0.5,2
		c-0.5,0.3-0.7,0.7-0.1,1.2C28.3,38.1,27.9,38.1,27.4,38.1z"/>
	<path fill="#8E9CA4" d="M9.5,32.1c-0.5,0-0.9,0-1.3,0c0.3-0.5,0.2-1,0.2-1.4c0-0.3,0-0.6-0.4-0.6c-0.4,0-0.6,0.2-0.6,0.6
		c0,0.5-0.1,1,0.3,1.5c-0.4,0-0.8,0-1.2,0c0.3-0.6,0.4-1.3,0.1-1.8c-0.4-0.8,0.1-0.7,0.5-0.6c0.3,0.1,0.6,0,0.9,0c0.7,0,1,0.3,1.1,1
		C9.1,31.1,9,31.6,9.5,32.1z"/>
	<path fill="#9BA5AD" d="M32.1,38.1c-0.7,0-1.4,0-2.2,0c1.3-0.6,0.6-1.8,0.7-2.7c0.1-0.7-0.6-0.1-0.8-0.4c0.1-0.4,0.5-0.4,0.8-0.5
		c0.6-0.3,0.8-0.2,0.8,0.5c0,0.7,0,1.3,0,2C31.4,37.5,31.5,38,32.1,38.1z"/>
	<path fill="#9DA8B1" d="M34.9,32c-1,0.2-1.3,0.1-1.2-0.9c0.1-0.9,0.3-1.9-0.1-2.7c-0.2-0.4,0.1-0.3,0.3-0.3
		c0.4-0.2,0.7-0.1,0.7,0.4c0,0.8,0,1.7,0,2.5C34.6,31.3,34.5,31.7,34.9,32z"/>
	<path fill="#979EA5" d="M9.7,34.4c0.2,0,0.5,0,0.7,0c0.5,0,0.7,0.1,0.4,0.6c-0.5,0.9-1,1.8-1.2,2.8c-0.1,0.3-0.2,0.4-0.5,0.3
		C8.8,38,8.9,37.8,9,37.6c0.3-0.6,0.5-1.2,0.8-1.8c0.1-0.3,0.5-0.6,0.2-0.9c-0.3-0.2-0.7-0.1-1.1,0c-0.2,0.1-0.3,0.6-0.6,0.3
		c-0.1-0.1-0.1-0.2,0-0.4c0.1-0.4,0.4-0.4,0.7-0.4C9.2,34.4,9.4,34.4,9.7,34.4z"/>
	<path fill="#93A1AA" d="M52.3,30.7c0,0.9-0.5,1.4-1.4,1.4c-0.9,0-1.3-0.5-1.3-1.3c0-0.8,0.6-1.3,1.4-1.3
		C51.9,29.6,52.2,30.1,52.3,30.7z"/>
	<path fill="#8E9DAA" d="M11.8,29.8c-0.9,0.4-1.1,1.5-0.3,2.2c-0.4,0-0.9,0-1.3,0c0.1-0.7,0.3-1.4,0-2.2c-0.4-0.8,0.9-1.8,1.9-1.6
		c-0.3,0.4-1.2,0.3-1,1C11.1,29.8,11.5,29.5,11.8,29.8z"/>
	<path fill="#95A0A9" d="M37.9,30.8c0,0.8-0.6,1.3-1.4,1.3c-0.9,0-1.2-0.5-1.3-1.3c0-0.8,0.6-1.3,1.5-1.2
		C37.5,29.6,37.9,30.1,37.9,30.8z"/>
	<path fill="#969FA7" d="M13.3,29.6c1.1,0,1.5,0.5,1.5,1.2c0,0.8-0.4,1.3-1.3,1.3c-0.9,0-1.3-0.4-1.4-1.2
		C12,30.1,12.6,29.6,13.3,29.6z"/>
	<path fill="#929EA8" d="M26.9,29.6c0.3,0,0.7,0,1.1,0c-0.3,0.7-0.6,1.4-0.9,2c-0.1,0.3-0.2,0.5-0.6,0.5c-0.3,0-0.4-0.3-0.5-0.5
		c-0.3-0.6-0.3-1.3-0.9-1.8c0.4-0.3,0.8-0.1,1.2-0.2c0.3,0.3,0.1,0.7,0.3,1C26.9,30.3,26.7,29.9,26.9,29.6z"/>
	<path fill="#9AA3AB" d="M19.6,32.1c-0.1,0-0.3,0-0.5-0.1c-0.2-0.1-0.2-0.4-0.1-0.6c0.1-0.2,0.3-0.1,0.4,0.1
		c0.2,0.3,0.5,0.6,0.8,0.2c0.3-0.5-0.2-0.5-0.5-0.6c-0.3-0.1-0.7-0.3-0.6-0.7c0-0.3,0.2-0.6,0.5-0.7c0.4-0.1,0.8-0.2,1.2,0.1
		c0.1,0.1,0.2,0.3,0.1,0.5c-0.2,0.3-0.4,0.1-0.5-0.1c-0.2-0.2-0.4-0.4-0.6-0.1c-0.2,0.4,0.1,0.5,0.4,0.6c0.4,0.2,0.9,0.3,0.8,0.9
		C20.8,32.2,20.3,32.1,19.6,32.1z"/>
	<path fill="#97A0A6" d="M30.5,31.8c-0.7,0.4-1.3,0.5-1.9-0.1c-0.4-0.5-0.3-1-0.1-1.5c0.3-0.7,0.9-0.8,1.6-0.6
		c0.3,0.1,0.5,0.4,0.5,0.8c0,0.3-0.3,0.3-0.5,0.4c-0.3,0.1-1-0.3-0.9,0.4c0.1,0.6,0.6,0.5,1.1,0.4C30.3,31.7,30.4,31.8,30.5,31.8z"
		/>
	<path fill="#9BA4A9" d="M31.6,32.1c0.1,0-0.1,0-0.3,0c-0.2,0-0.3-0.2-0.3-0.4c0-0.1,0.1-0.3,0.1-0.3c0.2-0.1,0.3,0,0.4,0.2
		c0.2,0.3,0.5,0.4,0.7,0.1c0.3-0.4-0.1-0.5-0.4-0.6c-0.5-0.2-1-0.4-0.7-1c0.3-0.6,0.9-0.5,1.5-0.4c0.2,0.1,0.4,0.3,0.2,0.6
		c-0.2,0.2-0.3,0.1-0.5-0.1c-0.2-0.3-0.4-0.3-0.6-0.1c-0.2,0.3,0,0.4,0.3,0.5c0.5,0.1,1,0.3,0.9,0.9C32.9,32.1,32.4,32.1,31.6,32.1z
		"/>
	<path fill="#94A1AA" d="M23.9,32.1c-0.2,0-0.3,0-0.5,0c-1.5,0.1-1.5,0.1-1.6-1.4c0-0.2-0.2-0.5-0.1-0.7c0-0.4,0-0.8,0.4-1
		c0.6-0.3,0.3,0.4,0.5,0.5c0.2,0.1,0.4,0.1,0.8,0.2c-1.1,0.3-1,1-0.8,1.7c0.2,0.6,0.9,0.4,1.4,0.5C24,31.9,24,32,23.9,32.1
		C24,32.1,23.9,32.1,23.9,32.1z"/>
	<path fill="#98A2AA" d="M40.7,31.9c-0.9,0.2-1.6,0.5-2.1-0.2c-0.4-0.5-0.4-1.1,0-1.6c0.4-0.6,1-0.8,2-0.4c-0.9,0.2-1.7,0.3-1.5,1.4
		C39.3,32.1,40.1,31.5,40.7,31.9z"/>
	<path fill="#9BA4AB" d="M49.2,29.8c-0.7,0.2-1.4,0.3-1.3,1.4c0.2,0.9,0.8,0.6,1.4,0.7c-0.6,0.3-1.2,0.5-1.7,0
		c-0.5-0.4-0.5-1-0.2-1.5C47.7,29.6,48.3,29.5,49.2,29.8z"/>
	<path fill="#909CA4" d="M23.9,32.1c0-0.1,0-0.1,0-0.2c0.3-0.7,0.3-1.4-0.1-2.1c0.7-0.3,1-0.1,1,0.7c0,0.5-0.1,1.1,0.2,1.6
		C24.6,32.2,24.3,32.1,23.9,32.1z"/>
	<path fill="#8C9BA2" d="M6.1,32.1c-0.5,0-0.8,0-1.2,0c0.4-0.6,0.3-1.2,0.3-1.9c0-0.2-0.5-0.2-0.2-0.5c0.1-0.1,0.4-0.1,0.6-0.1
		c0.4,0,0.3,0.3,0.3,0.6C5.9,30.8,5.6,31.4,6.1,32.1z"/>
	<path fill="#EEF6FA" d="M26.9,29.6c0.3,0.5,0.2,1-0.2,1.6c-0.5-0.5-0.5-1-0.3-1.6C26.6,29.6,26.7,29.6,26.9,29.6z"/>
	<path fill="#ABB0B1" d="M24.4,28.4c0.2,0,0.3,0.1,0.4,0.3c0,0.3-0.1,0.4-0.4,0.4c-0.2,0-0.4,0-0.4-0.2C24,28.5,24.2,28.4,24.4,28.4
		z"/>
	<path fill="#ABAEB2" d="M5.7,28.6c0,0.3-0.1,0.4-0.3,0.4c-0.2,0-0.4,0-0.4-0.2c-0.1-0.3,0.1-0.4,0.3-0.4
		C5.6,28.3,5.7,28.5,5.7,28.6z"/>
	<path fill="#AAADAE" d="M46,31.5c0.2,0,0.4,0.1,0.4,0.3c0,0.3-0.2,0.3-0.4,0.3c-0.2,0-0.3-0.1-0.3-0.3C45.7,31.6,45.9,31.6,46,31.5
		z"/>
	<path fill="#FCFDFD" d="M144.4,19c0,2.2-1,3.6-2.8,3.9c-1.2,0.2-2.2-0.2-2.6-1c-0.4-1.1-0.1-2.4,0.9-3c1.2-0.8,2.5-1,3.9-1.3
		c0.4-0.1,0.6,0.2,0.5,0.5C144.4,18.4,144.4,18.7,144.4,19z"/>
	<path fill="#FCFDFD" d="M66.9,17.1c-0.5,0-1,0-1.6,0c-1.2,0-1.3-0.1-1.1-1.3c0.3-2.3,1.4-3.3,3.3-3.1c1.6,0.2,2.9,2.7,2.2,4
		c-0.2,0.3-0.5,0.4-0.8,0.4C68.3,17.1,67.6,17.1,66.9,17.1C66.9,17.1,66.9,17.1,66.9,17.1z"/>
	<path fill="#FCFDFD" d="M116.9,23.4c-3.5,0-5.7-2.6-5.8-5.3c-0.1-3.8,2.8-6,6-5.9c3,0.1,5.6,2.4,5.6,5.7
		C122.7,21,120.2,23.4,116.9,23.4z"/>
	<path fill="#F2F6F8" d="M42.3,31.5c0,0.3-0.3,0.3-0.5,0.3c-0.1,0-0.2-0.1-0.2-0.3c0-0.3,0.2-0.4,0.5-0.4
		C42.2,31.1,42.3,31.2,42.3,31.5z"/>
	<path fill="#F6FBFC" d="M56.3,30.9c-0.1,0.4,0.2,0.9-0.4,1c-0.6,0-0.6-0.5-0.6-0.9c0-0.4,0-0.9,0.6-0.9
		C56.6,30,56.1,30.7,56.3,30.9z"/>
	<path fill="#DDEBF2" d="M16.6,31.1c0-0.4,0.1-0.7,0.4-0.8c0.1,0,0.2,0.1,0.2,0.1C17.2,30.8,17,31,16.6,31.1z"/>
	<path fill="#F8FBFA" d="M6.8,36.2c-0.1,0.6,0.1,1.6-0.7,1.6c-0.8,0-0.6-1-0.6-1.6c0-0.6-0.2-1.5,0.7-1.5C7,34.7,6.8,35.6,6.8,36.2z
		"/>
	<path fill="#F0F5F7" d="M12.8,34.6c0.5,0.1,0.6,0.6,0.7,1c0,0.5-0.3,0.7-0.7,0.7c-0.5,0-0.7-0.4-0.6-0.8
		C12.1,35.1,12.3,34.7,12.8,34.6z"/>
	<path fill="#E8F2F6" d="M27.8,35.5c0,0.5,0.4,1-0.2,1.4C27.4,37,27,37,27,36.8C27,36.2,27.4,35.9,27.8,35.5z"/>
	<path fill="#F5F9FA" d="M51.7,30.8c-0.1,0.4-0.1,1-0.7,1c-0.5,0-0.6-0.5-0.6-0.9c0-0.4,0-1,0.6-1C51.5,29.9,51.6,30.4,51.7,30.8z"
		/>
	<path fill="#F2F6F8" d="M37.3,30.9c-0.1,0.4-0.2,0.9-0.7,0.9c-0.6,0-0.6-0.6-0.6-1c0-0.4,0.1-0.9,0.7-0.9
		C37.2,30,37.2,30.5,37.3,30.9z"/>
	<path fill="#F3F7F8" d="M14.1,30.8c-0.1,0.5-0.1,1.1-0.7,1.1c-0.5,0-0.6-0.5-0.6-0.9c0-0.5,0-1,0.6-1C14,29.9,14,30.4,14.1,30.8z"
		/>
	<path fill="#EFF8FB" d="M29.5,30c0.3,0,0.5,0.1,0.5,0.4c0,0.2-0.1,0.3-0.3,0.3c-0.2,0-0.4,0-0.4-0.3C29.2,30.1,29.4,30,29.5,30z"/>
	<path fill="#D4CFCF" d="M122,18.9c-0.1-4.2-2-6.4-6.1-5.8c-2.1,0.3-3.9,2.7-3.9,4.6c0.1,2.2,1.7,4.5,3.6,4.8
		c2.5,0.4,4.6,0.3,6.2-3.5c0.4,0.5,0.2,1-0.1,1.3c-1.2,1.7-2.8,2.9-4.9,2.8c-2.3-0.1-4-1.3-4.9-3.5c-0.8-2-0.4-3.9,1.1-5.4
		c1.5-1.6,3.4-2.1,5.5-1.5c2.2,0.7,3.5,2.2,3.8,4.5C122.4,17.9,122.5,17.9,122,18.9z"/>
	<path fill="#8598A5" d="M117.6,15.6c-0.4,0.8,0.6,0.2,0.6,0.7c-0.9,0.1-0.8,0.8-0.8,1.5c0,0.7,0,1.5,0.1,2.2c0,0.3,0.3,0.4,0.6,0.4
		c0.3,0,0.6-0.2,0.7-0.5c0.1-0.4,0.3-0.6,0.6-0.9c0.5,1-0.3,1.3-0.8,1.7c-0.5,0.4-1.1,1.2-1.8,0.8c-1-0.6-2.4-0.8-2.2-2.6
		c0.4,0.3,0.6,0.6,0.7,1c0.1,0.3,0.5,0.5,0.8,0.5c0.4,0,0.5-0.3,0.5-0.7c0-0.9-0.1-1.7,0-2.6c0.1-0.8-0.7-0.4-0.9-0.7
		c-0.2-0.7,1.1,0.1,0.7-0.7c0-0.5,0.3-0.7,0.7-0.7c0.1,0,0.2,0.1,0.2,0.1C117.5,15.2,117.8,15.3,117.6,15.6z"/>
	<path fill="#AEB5BA" d="M117.6,15.6c-0.1-0.1-0.2-0.3-0.4-0.4c0.3-0.5,0-0.6-0.5-0.6c0.2,0.2,0.6,0.1,0.5,0.5
		c-0.4,0-0.5,0.4-0.8,0.6c-0.6-0.5-0.6-1-0.1-1.5c0.4-0.4,0.9-0.4,1.3,0C118.1,14.6,118.3,15.1,117.6,15.6z"/>
	<path fill="#EEF6F9" d="M117.2,15c-0.1-0.1-0.1-0.1-0.2-0.2c-0.2-0.2-0.4,0.5-0.6,0.1c-0.1-0.2,0.1-0.4,0.3-0.6
		c0.3-0.2,0.5-0.1,0.7,0.2c0.2,0.3,0.4,0.6-0.2,0.7C117.3,15.1,117.2,15.1,117.2,15z"/>
</g>
</svg>
