<?xml version="1.0" encoding="utf-8"?>
<!-- Generator: Adobe Illustrator 18.0.0, SVG Export Plug-In . SVG Version: 6.00 Build 0)  -->
<!DOCTYPE svg PUBLIC "-//W3C//DTD SVG 1.1//EN" "http://www.w3.org/Graphics/SVG/1.1/DTD/svg11.dtd">
<svg version="1.1" id="Layer_2" xmlns="http://www.w3.org/2000/svg" xmlns:xlink="http://www.w3.org/1999/xlink" x="0px" y="0px"
	 viewBox="895.6 -0.1 208.4 200.3" enable-background="new 895.6 -0.1 208.4 200.3" xml:space="preserve">
<path fill="#8F9BA3" d="M1001.7,200c-60.6,3.4-104-43.4-106-96.4C893.6,45.1,940.8,2.1,993.8,0c61.3-2.1,104.3,37.5,109.8,93.3
	C1109.1,147.7,1061.6,201.7,1001.7,200z"/>
<path fill="#FCFDFD" d="M999,192.4c-57.1,0-94.3-42.3-95.4-87.1c-1.4-62.7,45.8-99.5,99.1-98.1c49.6,1.4,92.6,39.2,91.9,94
	C1094,153.9,1053.7,192.8,999,192.4z"/>
<path fill="#D4CFCF" d="M1082.3,118.4c-1.4-69.5-32.7-105-100.5-96.7c-34.8,4.5-65.1,43.7-64.4,76.1c0.7,35.8,27.9,74.7,59.9,79.2
	c42,5.9,75.7,4.8,102.6-57.1c6.5,8.3,3.4,15.8-1,22c-20,27.9-46.1,47.8-81.6,45.8c-37.2-2.4-66.4-21.3-80.6-57.5
	c-13.1-33-6.2-64.4,17.6-89.2c24.4-25.8,55.4-35.1,90.9-24.1c37.2,11.7,57.8,36.8,63.3,75C1090.2,101.9,1090.5,101.5,1082.3,118.4z"
	/>
<path fill="#8598A5" d="M1010.7,64.4c-5.9,12.7,9.6,3.1,9.6,11c-14.8,2.1-13.8,13.8-13.1,25.5c0.7,12,0.3,24.1,1.4,35.8
	c0.3,4.1,5.2,6.5,9.3,5.9c4.8-0.7,10.7-2.8,11.7-8.3c1.4-6.2,4.8-10,9.6-14.5c8.6,16.2-5.2,22-13.1,28.2
	c-8.6,6.5-18.6,19.6-29.9,12.7c-15.8-9-39.6-13.8-35.8-43.4c6.2,5.9,10,10,11.4,17.2c1.4,5.9,7.9,8.3,13.8,7.6
	c5.9-0.7,8.3-5.9,8.3-11.4c0-14.5-0.7-28.6,0.3-43c1-12.4-11.4-6.5-14.5-11.7c-2.8-11,17.6,2.1,11-12c-0.3-7.9,4.5-11,11.7-11.7
	c1.4,0.3,2.8,1,4.1,2.1C1008.6,57.5,1013.1,59.6,1010.7,64.4z"/>
<path fill="#AEB5BA" d="M1010.7,64.4c-2.1-2.4-4.1-4.5-6.2-6.9c4.8-9-0.3-10.3-8.6-10.7c3.4,3.1,10.3,1,8.3,7.6
	c-6.9,0-8.6,6.9-13.4,10c-9.6-7.6-10-16.2-1-24.4c6.5-6.2,14.8-7.2,21.3-0.3C1018.9,47.2,1021.3,56.1,1010.7,64.4z"/>
<path fill="#EEF6F9" d="M1004.1,54.4c-1.4-1-2.4-2.1-3.8-3.1c-3.8-3.4-6.5,9-10,1c-1.7-4.1,1.4-7.2,5.5-9.6c5.2-2.8,9-1,12,2.8
	c3.8,4.8,6.5,10.3-3.4,11.7C1004.5,56.5,1004.5,55.4,1004.1,54.4z"/>
</svg>
