<?xml version="1.0" encoding="utf-8"?>
<!-- Generator: Adobe Illustrator 18.0.0, SVG Export Plug-In . SVG Version: 6.00 Build 0)  -->
<!DOCTYPE svg PUBLIC "-//W3C//DTD SVG 1.1//EN" "http://www.w3.org/Graphics/SVG/1.1/DTD/svg11.dtd">
<svg version="1.1" id="Layer_1_xA0_Image_1_" xmlns="http://www.w3.org/2000/svg" xmlns:xlink="http://www.w3.org/1999/xlink"
	 x="0px" y="0px" viewBox="0 0 1287 339" enable-background="new 0 0 1287 339" xml:space="preserve">
<g>
	<path fill="#76A7A8" d="M22,86c11.4,0.3,22.8,0.6,34.2,0.9c1.1,0,2.2,0.5,3.3,0.7c-1.2,0.5-2.3,0.9-3.5,1.4c-6.3-0.3-12.7-0.7-19-1
		c-4,0-8.1,0-12.1,0c-0.7,1.5-1.3,2.8-1.9,4c-0.3,0-0.6,0-1,0C22,90,22,88,22,86z"/>
	<path fill="#8EB7B7" d="M22,92c0.3,0,0.6,0,1,0c0,3.3,0.1,6.6,0.1,10c-0.1,2.7-0.1,5.4-0.2,8.1c-0.3,0-0.6,0-0.9,0
		C22,104,22,98,22,92z"/>
	<path fill="#9DC2C3" d="M22,110c0.3,0,0.6,0,0.9,0c0.1,2.6,0.1,5.2,0.2,7.9c0,1,0,2-0.1,3c-0.4,0-0.7,0.1-1.1,0.1
		C22,117.3,22,113.7,22,110z"/>
	<path fill="#DBA2CB" d="M184.9,234.9c-0.3,18.4-0.6,36.8-0.8,55.2c0,1.9,0,3.9,0,6.4c-11.4,0-22.3,0-34.1,0c0-21.5,0-42.8,0-64.2
		c-0.3-1.1-0.7-2.2-1-3.3c0,0,0,0,0,0c0.7-1.5,1.4-3,2-4.5c0.3,0.4,0.6,0.9,0.9,1.3c5.9-1.9,11.8-3.8,17.6-5.7
		c1.8,0.7,3.6,1.4,4.3,1.7c2.7-2.1,4.4-3.4,6.2-4.8C181.6,223,183.2,228.9,184.9,234.9z"/>
	<path fill="#ACC0D6" d="M251.9,146.9c-0.3,3.1-0.8,6.3-0.8,9.4c-0.1,17.3,0,34.6,0,52.8c-11.9,0-23.4,0-35,0c0-2,0-4.1,0-6.1
		c0-9-0.1-18-0.1-27c0.1-0.3,0.1-0.6,0-1c0.3-0.3,0.7-0.7,1-1c0.1-0.1,0.4-0.2,0.4-0.3c-0.1-0.3-0.2-0.5-0.3-0.7c0-2,0-4,0-6
		c0.3-1.9,0.8-3.8,0.9-5.7c0.3-4.9,0.5-9.8,0.7-13.8C229,141,239,138,250.1,141C250.7,143,251.3,144.9,251.9,146.9z"/>
	<path fill="#B6CFD1" d="M118.4,208.7c-10.8,0-21.5,0-33.1,0c-0.4-2.1-1.2-4.4-1.2-6.8c-0.1-16-0.1-32-0.1-48c0-1.3,0.1-2.7,0.1-4
		c0.7-0.1,1.7,0.1,1.9-0.3c4.2-7.7,11.3-8.1,18.7-7.7c3.7,0.2,7.5,0,11.2,0c0.6,0.7,1.3,1.3,1.9,2c0.3,1.3,0.6,2.6,0.9,3.8
		c-0.3,9.2-0.5,18.3-0.8,27.5C118.2,186.5,118.3,197.6,118.4,208.7z"/>
	<path fill="#4D8B89" d="M1110.1,134.8c-2.7-0.9-4.1-1.4-5.6-1.8c9.1-3.3,13.6-0.4,13.6,9c0.1,14.8,0,29.6,0,45.6
		c-2.8-1-4.9-1.8-7.1-2.6c-3.5,1-7.2,2.5-11,3c-5.5,0.7-9.8-2.1-12.3-6.8c-3.8-7.2-4.7-14.9-2-22.7c3.3-9.3,9.7-12.7,19.6-10.6
		c1.6,0.4,3.2,0.7,5.9,1.3C1110.8,144,1110.4,139.4,1110.1,134.8z M1110.8,153.3c-8.7-4.9-14.9-3.3-17.5,5.2
		c-2.6,8.7-2.2,17.4,3.6,24.8c7.3,2.7,9.2,2.1,13.9-3.8C1110.8,170.7,1110.8,161.9,1110.8,153.3z"/>
	<path fill="#4D8B89" d="M964,203c-2.5,0-4.9,0-8.1,0c0-3.4,0-6.5,0-9.6c0-11.4,0.1-22.9-0.1-34.3c-0.1-3-1.4-6-2.2-9
		c2.5-0.1,5-0.1,7.5-0.2c1.4,0,3.2,0.5,4.3-0.2c10-5.7,19.9-1.8,23,9.2c1.8,6.2,1.6,12.5-0.5,18.6c-3,8.7-11.6,12.8-20.4,9.7
		c-1.1-0.4-2.1-0.8-4.7-1.7c0.5,6,0.9,11.2,1.3,16.4C964.1,202.2,964.1,202.6,964,203z M963.1,181.7c6.9,4.1,12.2,3.9,15.4-0.2
		c4.7-6,4.9-22.5-0.3-27.9c-1.9-2-6.1-3.4-8.6-2.7c-2.5,0.6-5.9,4-6.2,6.4C962.6,165.4,963.1,173.6,963.1,181.7z"/>
	<path fill="#5880AB" d="M193.6,87.9c3.5,0.7,6.9,1.3,10.4,2c0.3,0.1,0.6,0.2,1,0.2c1,0.3,2,0.6,3,0.9c-3,1.3-6.1,2.7-9.1,4
		c-3.8,1.5-8.1,2.8-10.8,5.6c-6.1,6.4-15.4,9.6-19.3,18.4c-0.4,0.9-1.8,1.3-2.8,1.9c-3.7,0-7.3,0-11-0.1c0-0.3-0.1-0.7-0.2-1
		c0.1-1,0.1-2,0.2-3c0.9-4.1,1.8-8.3,2.7-12.8c1.9-0.9,4.1-1.9,5.7-2.7c3.6-4.5,6.7-8.4,9.8-12.2C180.4,88.8,187,88.4,193.6,87.9z"
		/>
	<path fill="#548D8B" d="M832.4,155.3c0,10.3,0,20.8,0,31.5c-2.4,0-4.3,0-6.8,0c-1.6-12,1.2-24.4-1.8-36.1c-2.4-0.7-4-1.1-5.7-1.6
		c0.1-0.5,0.2-1,0.3-1.5c4.8,0.6,9.5,1.2,15.3,2c2.8-0.6,6.9-2.3,11-2.4c7.1-0.1,12,3.9,12.5,11c0.7,9.4,0.2,18.9,0.2,28.6
		c-2.4,0-4.5,0-7.3,0c0-5.4,0-10.7,0-16c0-2.8-0.1-5.7,0-8.5c0.2-4.6-0.8-9-5.4-10.9C840.4,149.7,836.3,151.2,832.4,155.3z"/>
	<path fill="#6A8FB3" d="M166,121c0.9-0.6,2.4-1,2.8-1.9c3.9-8.8,13.2-11.9,19.3-18.4c2.7-2.8,7-4.1,10.8-5.6c3-1.3,6.1-2.7,9.1-4
		c1,0.4,2,0.7,3,1.1c1.1,0.6,2.1,1.2,3.2,1.7c3.1,2,6.3,3.9,9.4,5.9c-12.3,4.6-24.9,8.7-35.5,18.9c1.6,1.1,2.7,1.9,3.9,2.7
		C183.3,121.3,174.6,121.1,166,121z"/>
	<path fill="#4D8B89" d="M740.3,167.2c0.1,15.4-11.8,24.7-25.1,19.6c-9.8-3.8-14.5-18.2-9.5-29.1c4.5-9.6,15.7-13.5,25.2-8.4
		C738,153.1,740.3,159.6,740.3,167.2z M710.6,167.9c1.6,4.4,2.7,9.5,5.3,13.6c3,4.8,9.1,4.4,12.7,0.1c5.2-6.4,5.7-20.2,1-26.9
		c-4.1-5.8-11.8-5.7-15.1,0.5C712.7,158.8,712.1,163,710.6,167.9z"/>
	<path fill="#548D8B" d="M629.3,168c-0.5,15.4-13.5,24.4-26.4,18.2c-9.6-4.6-13.3-19.8-7.5-30.2c5-8.9,16.6-11.7,25.4-6.1
		C626.4,153.4,629.5,160.1,629.3,168z M622.3,168.5c-0.9-4.3-0.9-8.2-2.6-11c-1.8-3-5-6.2-8.2-7c-4.1-1-7.4,2.3-9,6.3
		c-3.1,7.6-3.3,15.2,0.7,22.6c3.6,6.9,11.7,7.3,15.4,0.5C620.5,176.3,621.2,172,622.3,168.5z"/>
	<path fill="#4D8B89" d="M648.1,186.8c-2.8,0-4.7,0-6.9,0c-1.5-12.1,1.3-24.3-1.7-36.1c-2-0.7-3.6-1.2-5.1-1.8
		c0.1-0.4,0.1-0.9,0.2-1.3c4.5,0.6,9,1.2,13.8,1.9c4.2-0.7,8.9-2.2,13.7-2c6.7,0.3,10.7,4.6,11,11.3c0.4,9.1,0.1,18.2,0.1,27.8
		c-2.3,0-4.4,0-7.1,0c0-8.6,0.1-17,0-25.4c-0.1-7.4-4.9-11.7-11.4-10.1c-2.2,0.5-4.1,2.1-6.4,3.3
		C648.1,165.2,648.1,175.8,648.1,186.8z"/>
	<path fill="#6A8FB3" d="M257.2,52.5c3.5,4.7,3.4,10.1,2.6,15.5c-3.9,0.7-7.8,1.8-11.7,1.9c-11.8,0.1-23.8,1.7-34.8-4.5
		c-2.2-1.2-4.2-0.4-4.9,2.4c-1.2-5.3-0.7-10.3,2.2-15c1.9,0.6,3.7,1.3,5.6,1.6c8.2,1.6,16.4,3.2,24.6,4.4c2.8,0.4,5.7-0.5,8.8-0.8
		c2.1-0.9,4.5-1.9,7.2-3C256.9,54.4,257,53.5,257.2,52.5z"/>
	<path fill="#8EB7B7" d="M75.9,130.2c-4.4-2.7-8.8-5.4-13.2-8.1c1.9-0.9,3.9-1.8,5.8-2.6c0.3-2.2,0.9-4.3,2.4-5.2
		c3.6-2.1,7.5-3.7,11.4-5.5c-0.1-0.2-0.2-0.5-0.3-0.7c2.1-0.1,4.3-0.2,6.3-0.3c1.4-1,2.5-1.9,3.7-2.7c1.6-0.1,3.1-0.2,4.6-0.2
		c1.8,1,3.7,2,5.5,3c1.7,3,3.4,5.9,5.1,8.9c-0.1,1.6-0.2,3.2-0.2,3.7c-4.5,0.8-8.3,0.9-11.7,2.1C88.6,124.8,82.3,127.6,75.9,130.2z"
		/>
	<path fill="#548D8B" d="M1160,179.6c-2.4,5.3-6.9,7.8-12.3,8.4c-7.1,0.8-12.9-1.8-16.4-8.1c-4-7.1-4.2-14.7-1.1-22.2
		c3.1-7.7,10.4-11.8,17.9-10.6c8.4,1.4,12.6,6.3,13.7,15.9c0.2,1.6,0,3.3,0,5.6c-8.5,0-16.7,0-24.8,0c-1.2,5.8,0.8,11.6,4.6,14.2
		C1146.3,186.1,1149.5,185.5,1160,179.6z M1154.1,165.3c-1-5.5-0.3-11.1-5.7-13.9c-1.9-1-5.6-0.8-7.3,0.5c-4.1,3.2-5.2,8.1-5,13.4
		C1142.3,165.3,1147.8,165.3,1154.1,165.3z"/>
	<path fill="#BB569E" d="M118.4,208.7c-0.1-11.1-0.2-22.3-0.3-33.4c14.5-1.4,26.9,3.6,38.3,12.1c-3.3,0.4-6.6,0.7-9.9,1.1
		c-7.9,6.3-18.8,8.8-24.5,17.4c1.3,1.7,2.1,2.6,2.9,3.6C122.7,209.3,120.5,209,118.4,208.7z M133.4,179.6c0-0.3,0-0.6,0-0.9
		c-4.2-0.9-8.4-1.8-12.9-2.8c0,1.7,0,2.7,0,3.8C125,179.6,129.2,179.6,133.4,179.6z"/>
	<path fill="#C979B3" d="M142.9,220.2c-3.3-2.6-6.7-5.2-10-7.8c0.1-1.6,0.2-3.3,0.3-4.7c3.8-4.3,17.9-10.2,24.7-10.9
		c2.8-1.3,4.5-2.1,6.2-2.9c1.2,0.6,2.4,1.2,3.6,1.8c0.8,1.4,1.5,2.7,2.3,4.1c0.4,0.7,0.8,1.3,1.2,2c1.3,2,2.7,4,4,6
		c-1.4,0.7-2.8,1.7-4.4,2.1c-7.7,2.1-15.5,3.9-23.1,6.2C145.9,216.7,144.5,218.8,142.9,220.2z"/>
	<path fill="#92ACC7" d="M312,104.8c0.4,5,0.9,10,1.4,15.7c-2.4,0.2-3.9,0.3-5.5,0.4c-3.7-1.1-7.4-2.1-12.3-3.5
		c-4.8-8.1-10-17-15.4-26.2c-0.1-1-0.1-2.5-0.2-4c6,0,11.9,0,17.9,0c-0.8,1.8-1.6,3.6-2,4.4c2.7,3.9,4.6,6.9,6.8,9.6
		c2.3,2.7,5,4.9,8.2,8.1C311.5,106.9,311.8,105.8,312,104.8z"/>
	<path fill="#49749E" d="M259.3,70C257,81,247.2,89.4,236.2,90c-12.3,0.6-22.6-6-26.3-16.9c0,0,0.1-0.1,0.1-0.1
		c0.3-0.2,0.5-0.4,0.6-0.7c1.3-0.1,2.6-0.2,3.5-0.3c3.1,0.5,5.6,0.9,8,1.2C234.7,74.5,247.6,79.5,259.3,70z"/>
	<path fill="#548D8B" d="M1064.2,147.8c3.9,0.3,7,1.7,8,5.9c-1.3-0.1-2.5-0.2-3.2-0.2c0,10.1,0,20,0,30.1c1.5,0,2.4,0,3.3,0
		c0-10.1,0-19.9,0-29.8c0.7,1.5,1.9,2.9,1.9,4.4c0.2,9.4,0.1,18.9,0.1,28.6c-2.2,0-4.2,0-7,0c0-5.6,0-11.2,0-16.8
		c0-2.8,0-5.7-0.1-8.5c-0.1-4.2-1-8.2-5.3-9.9c-4.7-1.9-8.8-0.5-12.4,3.6c0,10.2,0,20.7,0,31.5c-2.5,0-4.5,0-7.5,0
		c0-4.3,0-8.8,0-13.2c0-5.3,0.2-10.7,0-16c-0.1-2.4-1-4.7-1.4-6.9c-2.1-0.7-3.6-1.2-5.1-1.7c0.1-0.5,0.2-1,0.3-1.5
		c4.6,0.7,9.2,1.3,12.8,1.8C1054.2,148.8,1059.2,148.3,1064.2,147.8c-0.9,0.3-1.9,0.6-2.8,1c0.3,0.4,0.7,0.9,1,1.3
		C1063,149.3,1063.6,148.6,1064.2,147.8z"/>
	<path fill="#4D8B89" d="M933.1,187.4c-10.5,2.3-19.6-3-20.8-13.5c-0.7-5.8-0.1-12.4,2-17.8c3.3-8.4,12.7-11,21.5-7.5
		c6.8,2.7,10.4,11.5,7.9,20.3c-7.9,0-16,0-23.9,0c-1.5,11.6,5,17.5,16.3,15.3c0.1,0.7,0.1,1.4,0.2,2.1c0,0,0,0,0,0
		C935.1,186.6,934.1,187,933.1,187.4z M936.7,165.5c0.3-5.7,0.1-11-4.6-13.9c-2-1.2-6.2-0.8-8.3,0.6c-4.4,3.1-4.8,8.1-4.5,13.3
		C925.3,165.5,930.7,165.5,936.7,165.5z"/>
	<path fill="#4D8B89" d="M432,158c3.7,8.6,3,17-3,24.2c-4.8,5.7-11.4,7.2-18.6,5.1c-7.3-2.1-11.4-7.4-12.4-14.7
		c-0.8-5.7-1.3-11.6,2.6-16.7c0.6-0.1,1.2-0.2,2.1-0.4c-0.2-0.8-0.4-1.4-0.5-1.9c0,0,0.2-0.2,0.2-0.2c0.5-0.5,1-0.9,1.5-1.4
		c0,0,0,0,0,0c1.7,0.5,3.5,0.9,5.2,1.4c-0.2,0.3-0.4,0.5-0.6,0.8c-0.3,0.2-0.4,0.5-0.5,0.8c-3.5,8.1-4.4,16.4,0,24.3
		c1.4,2.6,5,4.9,8,5.5c3.8,0.7,6.7-2.2,8.2-5.8c3.3-7.9,2.6-15.8-0.2-23.6c0.2-0.9,0.4-1.9,0.6-2.9c1.2-0.2,2.1-0.3,3.1-0.5
		c0.2,0,0.4,0.1,0.4,0.3c0.5,0.5,0.9,1.1,1.4,1.6c0,0,0,0,0,0C430.3,155.1,431.1,156.6,432,158z"/>
	<path fill="#548D8B" d="M775.1,138c-4.1-3-8-5.3-12.3-2.3c-4.1,3-3.2,7.5-2.8,12.4c3.8,0,7.3,0,10.9,0c-2.6,4.9-7.2,1.7-11.2,3.7
		c0,11.4,0,23.1,0,35c-2.6,0-4.6,0-7.3,0c0-11.8,0-23.5,0-35.4c-2.3-0.3-3.8-0.5-5.4-0.8c-0.1-0.4-0.3-0.9-0.4-1.3
		c1.6-0.7,3.2-1.4,5.4-2.3c0.3-5,0.5-11.4,6.5-13.9c3.9-1.6,8.7-1.5,13.1-1.3C774.1,132,777.1,133.3,775.1,138z"/>
	<path fill="#5D9796" d="M107,116.8c-1.7-3-3.4-5.9-5.1-8.9c4.7-3.7,9.4-7.3,14.1-11c0,12.5,8,21.7,13.2,32.1
		c-5.3,5.2-8.6,11.6-10.4,18.8c-0.3-1.3-0.6-2.6-0.9-3.8c-0.1-0.7-0.1-1.4-0.2-2.1c-0.2-0.7-0.5-1.3-0.7-2c-1-3.6-2.1-7.3-3.1-10.9
		C111.7,124.9,109.4,120.9,107,116.8z"/>
	<path fill="#548D8B" d="M323.2,176.2c2.1,2.9,3.9,5.2,6,8c3.9,0,7.8,0.4,11.7-0.2c1.6-0.3,3.9-2.5,4.2-4c0.3-1.9-0.8-4.6-2.3-5.9
		c-2-1.8-4.9-2.7-7.4-4c-2.1-1-4.3-1.8-6.3-2.9c-4.3-2.6-7.1-6.2-5.9-11.5c1.2-4.8,4.4-7.8,9.5-8c4.2-0.1,8.6-0.2,12.7,0.8
		c5.3,1.3,6.2,3.8,5.4,8.6c-3-2-6.2-4.6-9.8-6.2c-2-0.9-4.9-0.3-7.2,0.4c-4.3,1.3-5.4,6.1-1.9,9c2.7,2.3,6.2,3.7,9.5,5.2
		c8.9,3.8,11.9,7.7,10.7,14c-1.1,5.6-6.6,8.7-15.5,8.6c-1.8,0-3.7,0-5.4-0.4C324.5,186.1,322.9,183.9,323.2,176.2z"/>
	<path fill="#A32A80" d="M492.6,221.8c0.3,0.1,0.5,0.4,0.5,0.7c0,0,0,0,0,0c0.3,0.8,0.6,1.6,0.9,2.5c0.5,4.3,1.1,8.6,1.6,13
		c0,6.1,0,12.2,0,19.7c-2.8-1.2-5.1-2.2-7.5-3.3c-2.9,1-6.2,2.7-9.7,3.3c-7,1.2-13.1-3.1-14.2-9.4c-1.1-5.8,2.3-10.6,9.5-12.4
		c4.5-1.1,9.1-1.3,14.3-2.1c0-2,0-4.2,0-6.5c0-2.1,0.1-4.2,0.1-6.3C489.5,221.3,491.1,221.6,492.6,221.8z M487.7,249.7
		c0-4.3,0-8,0-11.7c-8.4-0.7-14.1,1.5-15.4,6c-1.1,4,0.2,7.3,3.8,9.4C479.7,255.5,483.9,254,487.7,249.7z"/>
	<path fill="#789ABB" d="M191.9,121.4c-1.1-0.8-2.3-1.6-3.9-2.7c10.6-10.2,23.2-14.3,35.5-18.9c2.3,1.8,4.5,3.6,6.9,5.4
		c1.4,1,2.9,1.8,4.4,2.7c0,0.4,0,0.8,0,1.2c-1.8,0.4-3.6,0.6-5.3,1.3c-9.1,3.7-18.2,7.6-27.3,11.5c1,2,1.9,3.7,2.7,5.5
		C200.6,125.3,196.3,123.4,191.9,121.4z"/>
	<path fill="#4D8B89" d="M279.9,158c3.6-8.7,7.1-17.3,10.7-26c0.5-0.1,1-0.2,1.5-0.3c1,1.7,2.2,3.2,2.9,5
		c5.3,12.9,10.3,25.9,15.9,38.6c1.9,4.4,5.5,8,8.2,11.8c-5.6,2.2-12.9-2.2-15.4-10.6c0-1.9,0-3.7,0-4.5c-2.2-1.9-3.5-3-4.7-4.1
		c-2.9-8-5.9-16.1-8.8-24.1c-0.4,0.1-0.9,0.2-1.3,0.4c-2.3,4.9-4.6,9.7-7,14.6C281.3,158.6,280.6,158.3,279.9,158z"/>
	<path fill="#76A7A8" d="M72.6,90.9c2.8,1,5.6,2.1,8.4,3.1c0.3,2.3,0.7,4.6,1,6.9l0,0c-12.4,0.1-21.7,7-31,14.5c0,1.8,0,3.6,0,5.4
		c-5.3,0-10.6,0-16,0c1.1-2.1,1.6-4.9,3.3-6.3c7.7-6.3,15.7-12.2,24.3-18.8c0.9-1.3,2.5-3.6,3.6-5.2C69,90.7,70.8,90.8,72.6,90.9z"
		/>
	<path fill="#4D8B89" d="M1004.5,184.2c-0.2,0-0.4-0.1-0.5-0.3c-0.5-0.5-1-1.1-1.6-1.6c-6.9-8-6.3-23.9,1.2-31.1
		c5-4.7,13.7-5.6,19.9-2c5.5,3.2,8.3,11.1,6.6,19.5c-8.1,0-16.3,0-24.7,0c-0.3,5.8,1.4,10.3,4.8,14.1
		C1008.3,183.3,1006.4,183.7,1004.5,184.2z M1023.7,165.4c-1-4-1.4-7.7-2.9-11c-2.4-5.3-8.9-5.8-11.9-0.9c-2,3.3-2.9,7.4-4.7,11.9
		C1011.3,165.4,1016.9,165.4,1023.7,165.4z"/>
	<path fill="#4D8B89" d="M547.6,151.6c-2.5-0.5-4-0.8-5.6-1.1c-0.1-0.4-0.3-0.9-0.4-1.3c1.6-0.7,3.2-1.3,5.5-2.2
		c0.5-4.4,0-10.2,7.5-12.1c0,4.4,0,8.4,0,12.7c3.8,0.2,7,0.5,10.1,0.7c0.1,0.7,0.1,1.4,0.2,2.1c-3.1,0.3-6.1,0.7-10,1.1
		c0,6.6,0,13.4,0,20.1c0,1.3,0,2.7,0,4c0.1,8.8,1.8,10.1,10.5,8.4c0.6-0.1,1.2,0.1,2.5,0.2c-4.8,4.1-9.7,4.8-14.8,2.9
		c-4.7-1.7-5.5-5.9-5.5-10.2C547.6,168.6,547.6,160.3,547.6,151.6z"/>
	<path fill="#83B0B0" d="M51,120.9c0-1.8,0-3.6,0-5.4c9.3-7.6,18.6-14.4,31-14.5c0.4,0.2,0.7,0.5,0,0c0.9,0.2,0.4,0.1,0,0
		c-0.3-2.3-0.7-4.6-1-6.9c5.2,3.6,10.3,7.2,15.5,10.8c-1.5,0.1-3,0.1-4.6,0.2c-1.1,0.8-2.3,1.7-3.7,2.7c-2,0.1-4.1,0.2-6.3,0.3
		c0.1,0.2,0.2,0.5,0.3,0.7c-3.8,1.8-7.8,3.3-11.4,5.5c-1.4,0.9-2.1,3-2.4,5.2c-1.9,0.9-3.9,1.8-5.8,2.6c-1.9-0.4-3.8-0.8-5.7-1.2
		c-1.3,0-2.6-0.1-3.9-0.1C52.4,120.9,51.7,120.9,51,120.9z"/>
	<path fill="#699F9F" d="M72.6,90.9c-1.8-0.1-3.6-0.2-6.3-0.3c-1.2,1.7-2.7,3.9-3.6,5.2c-8.6,6.6-16.6,12.5-24.3,18.8
		c-1.7,1.4-2.2,4.2-3.3,6.3c-4,0-8,0-11.9,0c0-1,0-2,0.1-3c3.6-4.2,7.2-8.4,11-12.4c1.5-1.6,3.8-2.4,5.7-3.6
		c2.2-1.5,4.3-3.1,6.4-4.6c3.4-2.5,6.7-5.1,10.2-7.7c0.4,0.5,0,0-0.4-0.5c1.2-0.5,2.3-0.9,3.5-1.4c0.2-0.1,0.3,0,0.4,0.2
		c0.2,0.2,0.3,0.5,0.5,0.7c0.2-0.2,0.4-0.4,0.6-0.6C64.9,88.9,68.7,89.9,72.6,90.9z"/>
	<path fill="#4D8B89" d="M474.3,178.9c-1.8,6.3-6.4,8.7-12.2,9.1c-6.7,0.4-12.6-1.3-16.4-7.2c-4.4-6.9-5-14.5-2.3-22
		c3.7-10.4,18.1-15.4,27.5-9.7c4.4,2.6,3.2,7,3.1,9.8c-2.4-2.3-4.8-6-8.2-7.5c-6.2-2.8-12.5,0.5-14.6,7.1
		c-2.2,6.5-2.1,13.2,0.4,19.6c3,7.5,13.4,9.5,19.7,3.9C472.3,180.8,473.3,179.8,474.3,178.9z"/>
	<path fill="#A3247E" d="M857,253.9c-2.4,1.2-4.9,2.3-8.4,4c0-4.1,0-7.1,0-10c0-11.6,0-23.2-0.1-34.8c-0.1-8.1-0.6-8.7-7.2-11
		c4.1,0,8.1,0,12.1,0c4.2,5.4,2,11.3,2.7,16.7c0.7,0.7,1.4,1.5,2.2,2.2c-0.8,1.3-2.2,2.5-2.2,3.8c-0.1,8.5,0.1,17.1,0.1,25.6
		c0.4,0.5,0.7,0.9,1.1,1.4c0,0,0.1-0.1,0.1-0.1C857.2,252.5,857.1,253.2,857,253.9z"/>
	<path fill="#B44594" d="M200.2,213.3c-2.7,2.3-5.4,4.5-8.1,6.8c0.2-1.2,0.3-2.4,0.6-4.7c-1.4,1.7-2,2.5-3.1,3.9
		c-1.8-3.4-3.2-6.3-4.7-9.2c-1.4,0.7-2.3,1-3.4,1.5c0.2-1.8,0.4-3.2,0.5-4.7c0.1-0.1,0.2-0.3,0.2-0.4c-0.1,0.1-0.2,0.3-0.2,0.4
		c-0.5-0.9-1.5-1.8-1.5-2.8c-0.1-1.9,0.3-3.7,0.5-5.6c-2.8-0.6-4.9-1.1-6.3-1.4c0-3,0-5.3,0-7.6c0,0,0.2,0.2,0.2,0.2
		c3.1,0.4,4.8-0.9,5.1-4c0,0,0,0.1,0,0.1c0.4,0,0.9-0.1,1.4-0.1c-0.1-0.3-0.2-0.6-0.2-0.8c1.9-1,3.9-2.1,5.8-3.1
		c0.5,2.2,0.7,4.7,1.6,6.7c3.6,7.5,7.6,14.9,11.3,22.3C200.1,211.6,200,212.5,200.2,213.3z"/>
	<path fill="#4D8B89" d="M1213.1,148.6c1.7-0.3,3.3-0.7,5.4-1.1c0.9-4.5-0.6-10.8,7.3-12.2c0,4.3,0,8.2,0,12.2
		c3.9,0.5,7.2,0.9,10.5,1.3c-0.1,0.7-0.2,1.4-0.3,2.1c-3,0.2-6.1,0.3-10,0.5c0,4.5,0,8.9,0,13.3c0,4.2-0.1,8.3,0.1,12.5
		c0.3,7,2.8,8.8,9.7,7.3c0.9-0.2,1.8-0.2,3.8-0.5c-4.9,4.5-9.8,5.1-14.6,3.6c-4.5-1.4-6.2-5.4-6.1-10.3c0.2-8.4,0.1-16.9,0.1-25.3
		c-2.5-0.7-4.2-1.1-6-1.6C1213,149.7,1213.1,149.1,1213.1,148.6z"/>
	<path fill="#5880AB" d="M260.1,131.2c-0.3,0.3-0.6,0.6-0.9,0.8c-1.1-1.8-2.4-3.5-3.1-5.4c-0.9-2.2-0.7-5.2-2.1-6.9
		c-4.2-5-7.4-10.2-5.8-17.1c-1.4-1.1-2.5-2-3.6-3c4.2-2.4,8.4-4.7,12.6-7.1c0.2,1.5,0.1,3,0.6,4.3c1.4,3.9,3,7.7,4.6,11.5
		c-0.2,0-0.5,0.1-0.7,0.1c2.2,2.7,4.4,5.5,6.8,8.5c-6.1,1.9-3.4,5.8-3.1,9.1c0,0-0.1,0-0.1,0c-0.3,0.4-0.7,0.7-1,1.1
		c-1,0.8-1.9,1.7-2.9,2.5C260.8,130.3,260.5,130.7,260.1,131.2z"/>
	<path fill="#49749E" d="M244.5,99.6c1.1,0.9,2.3,1.8,3.6,3c-1.6,7,1.6,12.1,5.8,17.1c1.4,1.7,1.2,4.7,2.1,6.9
		c0.8,1.9,2.1,3.6,3.1,5.4c-2.4,4.9-4.9,9.9-7.3,14.8c-0.6-2-1.2-3.9-1.8-5.9c-1.3-4.1-2.6-8.1-3.8-12.2c-1.7-3.6-3.5-7.2-5.2-10.9
		c-2.1-3-4.2-5.9-6.3-8.9c0-0.4,0-0.8,0-1.2C238.1,105.1,241.3,102.4,244.5,99.6z"/>
	<path fill="#C168A7" d="M164.1,194c-1.7,0.8-3.4,1.6-6.2,2.9c-6.8,0.6-20.9,6.5-24.7,10.9c-0.1,1.4-0.2,3.1-0.3,4.7
		c-2.7-1-5.3-1.9-8-2.9c-0.8-1-1.6-1.9-2.9-3.6c5.7-8.6,16.6-11.1,24.5-17.4c3.4-0.4,6.6-0.7,9.9-1.1c0,0-0.1,0.3-0.1,0.3
		c0,0.6,0.1,1.2,0.2,2.4c0.9-0.6,1.3-1,1.8-1.3C160.2,190.5,162.2,192.2,164.1,194z"/>
	<path fill="#699F9F" d="M127,60c-0.5,4.4-1,8.7-1.5,13.1c-1.5,0.6-2.9,1.8-4.4,1.9c-8.4,0.5-16.8,1-25.2,0.8
		c-3.2-0.1-6.4-1.8-9.5-2.7c0.1-0.4,0.1-0.8,0.2-1.2c-3,0.8-6.1,1.5-9.1,2.3c-0.7-4.4-1.4-8.8-2.1-13.2c5.4,0.9,1.1,5.6,3.2,7.9
		c0.4-1.2,0.9-2.5,1.6-4.5c15,5.8,30,6.7,45.3,1.2C125.8,64,126.4,62,127,60z"/>
	<path fill="#D08BBC" d="M142.9,220.2c1.6-1.4,3-3.5,4.8-4.1c7.6-2.3,15.4-4.1,23.1-6.2c1.5-0.4,2.9-1.4,4.3-2.1
		c1.6,3,3.1,6.1,4.7,9.1c-1.8,1.4-3.5,2.7-6.2,4.8c-0.7-0.3-2.5-1-4.3-1.7c-5.8,1.9-11.7,3.8-17.6,5.7c-0.3-0.4-0.6-0.9-0.9-1.3
		c-0.7,1.5-1.4,3-2,4.5C146.9,226.1,144.9,223.2,142.9,220.2z"/>
	<path fill="#76A7A8" d="M127,60c-0.6,2-1.1,4-1.6,5.6c-15.2,5.4-30.2,4.5-45.3-1.2c-0.7,2-1.2,3.3-1.6,4.5
		c-2.1-2.2,2.2-6.9-3.2-7.9c0.8-2.4,1.6-4.8,2.4-7.2c5.1,5.3,11.6,7.7,18.7,8.1c5.6,0.3,11.3,0.2,16.9,0c3-0.1,6-0.9,9-1.4
		c-0.2-0.5-0.4-1-0.6-1.5c1.4-1,2.7-2,4.1-3.1C126.3,57.3,126.6,58.7,127,60z"/>
	<path fill="#83B0B0" d="M125.9,56c-1.4,1-2.7,2-4.1,3.1c0.2,0.5,0.4,1,0.6,1.5c-3,0.5-6,1.3-9,1.4c-5.6,0.2-11.3,0.3-16.9,0
		c-7.2-0.4-13.6-2.8-18.7-8.1c1.7-2.7,3.5-5.4,5.2-8c0.9,2.4,1.8,4.9,3,8.2c10.6,0,20.4,0.2,30.2-0.2c2.4-0.1,4.7-2.1,7-3.2
		C124.1,52.4,125,54.2,125.9,56z"/>
	<path fill="#972F76" d="M424.1,243.9c1-1,2.4-1.9,2.9-3.1c6-12.9,11.8-25.8,17.8-39.1c2.4,1,5.9-2.5,7.1,2.3
		c-0.4,0-0.7,0.1-1.1,0.1c-6.6-0.1-8.2,1.9-5.7,7.3c0.8-0.9,1.6-1.7,3.3-3.5c-1,5.1-2.4,8.8-2.4,12.5c-0.1,8.3,0.6,16.6,0.7,24.9
		c0,1.9-0.6,3.8-0.9,5.7c-0.4-4.4-0.9-8.9-1-13.3c-0.2-7.7,0-15.5,0-23.2c-0.5-0.1-1.1-0.2-1.6-0.4c-6.5,14.3-13,28.7-19.5,43
		c-0.5,0.1-1,0.1-1.4,0.2c-2.8-6.4-5.7-12.8-8.5-19.2c0,0,0.2-0.2,0.2-0.2c6.2,1.6,4,8.7,8.5,12.2c0.9-0.4,2.2-1,3.8-1.7
		c-1-1.8-1.7-3-2.4-4.3C423.9,244.1,424.1,243.9,424.1,243.9z"/>
	<path fill="#A9BED3" d="M114,129c1,3.6,2.1,7.3,3.1,10.9c-0.4,0.7-0.7,1.4-1.1,2.1l0,0c-3.7,0-7.5,0.1-11.2,0
		c-7.5-0.4-14.6,0-18.7,7.7c-0.2,0.3-1.2,0.2-1.9,0.3c-1.1-4.6-2.2-9.2-3.3-13.9c1.8,0.2,3.5,0.5,5.3,0.7c8-5.5,17.3-5,26.3-5.5
		C112.9,130.6,113.5,129.8,114,129z"/>
	<path fill="#9DC2C3" d="M114,129c-0.5,0.8-1.1,1.6-1.5,2.3c-9.1,0.5-18.3,0-26.3,5.5c-1.8-0.2-3.5-0.5-5.3-0.7
		c-1.6-2-3.3-3.9-4.9-5.9c6.4-2.6,12.7-5.4,19.2-7.7c3.5-1.2,7.3-1.3,11.7-2.1c0-0.5,0.1-2.1,0.2-3.7
		C109.4,120.9,111.7,124.9,114,129z"/>
	<path fill="#A3247E" d="M1015.8,248.5c-4.6-8.9-3.4-19.8,2.8-26.6c0.8-0.7,1.5-1.3,2.3-2c0,0,0,0,0,0c1.5-0.4,3-1.1,4.4-1.1
		c1.2,0,2.5,0.7,3.7,1.1c-6.1,3.4-8.7,8.7-7.3,14.9c5.6,0,11.1,0,17.3,0c-0.8-3.9-1.5-7.2-2.2-10.6c1.5,3.1,3.1,6.1,4.7,9.3
		c1.3,0.6,3,1.3,4.7,2.1c-0.1,0.9-0.3,1.8-0.5,3.2c-8.3,0-16.3,0-24.5,0c-0.5,6.3,1.5,11,5.9,14.8c-1.2,0.9-2.4,1.8-3.6,2.7
		c0,0-0.3,0-0.3,0s-0.2-0.2-0.2-0.2c0-0.7,0-1.3,0-2c-1.5-4.1-3-8.3-4.4-12.4c-0.5,0-1.1-0.1-1.6-0.1
		C1016.5,243.8,1016.1,246.2,1015.8,248.5z"/>
	<path fill="#6A8FB3" d="M265.2,126.2c-0.3-3.3-3-7.2,3.1-9.1c-2.4-3-4.6-5.8-6.8-8.5c0.2,0,0.5-0.1,0.7-0.1
		c-1.5-3.8-3.2-7.7-4.6-11.5c-0.5-1.3-0.4-2.9-0.6-4.3c4.3-1.2,8.6-2.4,12.9-3.6c-1.7,0.9-3.3,1.9-5,2.8c1,0.2,2,0.4,2.5,0.5
		c0,1.8-0.5,3.5,0.1,4.8c2.3,5.4,4.5,10.9,7.5,15.8c1.9,3.1,5.2,5.4,7.9,8.1C277,122.6,271.1,124.4,265.2,126.2z M276.4,119.5
		c-0.2,0-0.5,0-0.7-0.1C275.9,119.5,276.1,119.5,276.4,119.5z"/>
	<path fill="#8EB7B7" d="M123.1,50.6c-2.3,1.1-4.6,3.1-7,3.2C106.4,54.2,96.5,54,86,54c-1.2-3.3-2.1-5.8-3-8.2c1.7-1.3,3.4-2.6,5-4
		c-0.1,3.9,2.6,4.2,5.4,4.1c8.3-0.3,16.6-0.7,24.8-1.1C119.9,46.8,121.5,48.7,123.1,50.6z"/>
	<path fill="#699F9F" d="M129.2,129.1C124,118.7,116,109.5,116,97c2.7-1.4,5.3-2.7,8-4.1c1.5,5.5,2.9,11,4.4,16.5
		c1.8,2.7,3,5.8,4.7,8.5c1.2,2,2.9,3.6,4.4,5.3C134.7,125.2,132,127.1,129.2,129.1z"/>
	<path fill="#972F76" d="M760,212.1c-0.9-4.5-1.1-9.6-7.7-10.1c2.3,0,4.5,0,6.8,0c2.7,2.9,9.3,2.9,11.9,0c4.7,0.6,9.4,1.3,14.2,1.9
		c-3,0.3-6.1,0.6-9.1,0.8c-2.9,0.2-5.8,0.3-8.6,0.5c0,9,0,17.2,0,25.3c9.5,1.9,15.7-0.7,18.1-7.7c1.7-5.2,0.7-10.1-2.7-14.6
		c4.9,2.5,7.3,11.3,4.1,15.9c-1.7,2.5-3.5,4.9-5.3,7.3c2.2-0.1,3.9-0.9,5.6-1.7c1.3-0.6,2.6-1,3.9-1.5c-3.3,4.2-7.9,5.6-12.9,5.9
		c-3.7,0.2-7.5,0.4-11.2,0.7c-0.4-1.5-0.8-3-1.3-4.8c-1.8,0.2-3.1,0.3-4.9,0.5c-0.2,2.1-0.3,3.8-0.5,5.5c-0.1,6.6-0.1,13.3-0.2,19.9
		c0-14,0-28-0.1-42c0,4.5,0,9.1,0,14.1c2.1-0.2,3.4-0.3,4.8-0.5c0-7.3,0-14,0-21.1c-1.6,0-2.9,0-4.8,0
		C760,208.5,760,210.3,760,212.1z"/>
	<path fill="#4D8B89" d="M894.2,142c-0.5-2.4-1-4.8-1.5-7.2c-2-0.7-3.6-1.3-5.2-1.9c0-0.3,0.1-0.6,0.1-0.8c2.9,0,6-0.6,8.6,0.2
		c1.9,0.6,4.5,3.2,4.5,4.9c0.3,16.4,0.2,32.9,0.2,51c-2.7-1.8-4.3-3-6-4.1c0.3-2.8,1-5.6,1-8.4c0.1-10.2,0.1-20.5,0-30.7
		C895.9,144,894.8,143,894.2,142z"/>
	<path fill="#A3247E" d="M607.9,222.7c-0.1-0.3,0-0.5,0.2-0.7c4-0.5,4.9,1.9,5,5.1c0,0,0,0,0,0c-0.4,0.8-0.9,1.5-1.3,2.3
		c0,0-0.2,0.3-0.2,0.3c-0.5,0.8-1,1.6-1.5,2.4c0,0,0,0,0,0c-1.2,0.1-2.5,0.2-4.3,0.4c0.5,1.8,0.9,3.2,1.3,4.5
		c-0.2,0.4-0.5,0.7-0.7,1.1c-0.9,1.4-1.7,2.8-2.6,4.3c0,0-0.1,0.2-0.1,0.2c-0.4,0.6-0.9,1.1-1.3,1.7c0,0,0.1,0,0.1,0
		c-0.7,1.1-1.4,2.2-2.2,3.3c-0.8,1.8-1.7,3.5-2.9,6.1c7.6,0,14.7,0,21.9,0c0.2,0.5,0.3,1,0.5,1.5c-0.8,0.6-1.6,1.8-2.5,1.8
		c-9.9,0.1-19.9,0.1-31.4,0.1c4.6-7,8.5-13,12.4-19c3.6-2,5.8-4.9,5.9-9.2c0-0.3,0.1-0.6,0.3-0.8c0.5-0.7,1.1-1.5,1.6-2.2
		c0,0-0.1,0.1-0.1,0.1c0.4-0.6,0.8-1.3,1.2-1.9c0,0,0,0,0,0C607.3,223.5,607.6,223.1,607.9,222.7z"/>
	<path fill="#C168A7" d="M216,202.9c0,2,0,4.1,0,6.1c-2.4,0.3-4.7,0.6-7.1,0.8c-6.2-8.7-12.5-17.4-13.6-29.1c-1-0.3-2.4-0.7-3.8-1.1
		c6.8-1.5,13.6-3,20.4-4.5c-3.6,1.3-7.1,2.6-10.2,3.7c0,0,0.7,0.3,1.6,0.6c-0.9,0.3-1.7,0.6-1.9,0.7c1.2,2.4,2.4,4.8,3.6,7.2
		C207.9,193.1,208.8,200.3,216,202.9z"/>
	<path fill="#A3247E" d="M870.9,217.4c0.4,0.2,0.7,0.4,1.1,0.6c1.1,0.6,2.1,1.2,3.2,1.8c0,0-0.1,0-0.1,0c0.7,0.7,1.5,1.4,2.2,2.1
		c6.3,6.8,5.3,15,4.1,23.1c-0.1,0.4-0.2,0.7-0.4,1.1c-1.2,4.3-3,8.2-7.6,10c-3.4,0-6.7-0.1-10.1-0.1c0.1-0.3,0.1-0.6,0.2-0.9
		c0-0.1,0.3-0.1,0.5-0.1c5.5-0.3,8.8-3.7,9.5-8.5c0.8-5.8,0.8-11.8,0.1-17.6c-0.6-5-3.9-8.7-9.6-9
		C866.3,219,868.6,218.2,870.9,217.4z"/>
	<path fill="#A32A80" d="M180,217c-1.6-3-3.1-6.1-4.7-9.1c-1.3-2-2.7-4-4-6c-0.4-0.7-0.8-1.3-1.2-2c-0.8-1.4-1.5-2.7-2.3-4.1
		c2.3-2.1,4.6-4.1,6.9-6.2c0,2.3,0,4.7,0,7.6c1.4,0.3,3.5,0.8,6.3,1.4c-0.2,1.8-0.6,3.7-0.5,5.6c0.1,0.9,1,1.8,1.5,2.8l0,0
		c-0.2,1.4-0.3,2.9-0.5,4.7c1.1-0.5,1.9-0.9,3.4-1.5c1.5,2.9,2.9,5.7,4.7,9.2c1.1-1.4,1.8-2.2,3.1-3.9c-0.3,2.3-0.4,3.5-0.6,4.7
		c-2.4,4.9-4.8,9.9-7.2,14.8C183.2,228.9,181.6,223,180,217z"/>
	<path fill="#49749E" d="M193.6,87.9c-6.6,0.4-13.2,0.8-20.2,1.3c-3,3.8-6.2,7.8-9.8,12.2c-1.6,0.8-3.9,1.8-5.7,2.7
		c-1,4.6-1.9,8.7-2.7,12.8c-0.1-2.7-0.2-5.3-0.3-8c0-7.3,0.1-14.7,0.1-22C167.8,87.3,180.7,87.6,193.6,87.9z"/>
	<path fill="#A32A80" d="M656.1,219.8c1,0.1,1.9,0.2,2.9,0.4c-0.3,1.4-0.6,2.7-1,4.1c0,10.6,0,21.2,0,32.4c-2.7,0.2-4.9,0.3-8,0.5
		c0-8.6,0.2-16.9-0.1-25.1c-0.2-4-1.3-8-2.1-11.9C650.6,220,653.4,219.9,656.1,219.8z"/>
	<path fill="#789ABB" d="M282.9,120.9c-2.7-2.7-6-5-7.9-8.1c-3-5-5.2-10.4-7.5-15.8c-0.5-1.3-0.1-2.9-0.1-4.8
		c-0.5-0.1-1.6-0.3-2.5-0.5c1.7-1,3.4-1.9,5-2.8c2-0.3,4-0.6,6-0.9c-1.9,6.1,0.4,11.2,3.9,16.1c0.1,1.6,0.2,3.2,0.2,3.7
		c3.7,4.5,6.7,8.2,9.8,11.9c0.5,0.6,1.4,0.8,2.1,1.2C288.9,120.9,285.9,120.9,282.9,120.9z"/>
	<path fill="#789ABB" d="M257.2,52.5c-0.2,1-0.3,1.9-0.4,2.6c-2.7,1.1-5.1,2.1-7.2,3c-3,0.3-6,1.2-8.8,0.8
		c-8.2-1.2-16.4-2.8-24.6-4.4c-1.9-0.4-3.7-1.1-5.6-1.6c0-0.3,0.2-0.6,0.3-0.8c0.3-0.5,0.6-1,1-1.5c-0.1-0.2,0-0.4,0.2-0.5
		c0.6-0.8,1.2-1.5,1.8-2.3c0.7-0.7,1.3-1.4,2-2c4,2.1,7.8,5.1,12.1,6.1c4.7,1.1,9.8,0.4,14.7,0.2c2.5-0.1,5-0.9,7.5-1.4
		c0.1,0.1,0.2,0.3,0.4,0.4c1.5-0.8,3.1-1.6,4.6-2.4C255.8,49.9,256.5,51.2,257.2,52.5z"/>
	<path fill="#548D8B" d="M808.1,132.9c0.2,8.8,0.5,17.5,0.6,26.3c0.1,7.3,0.1,14.6,0.1,21.9c-0.8,1.3-1.6,2.6-2.4,4
		c-4.3-4.3-4.3-5.9-1.6-9.5c-0.7-2.5-1.7-4.3-1.7-6.1c-0.2-9.8-0.2-19.6,0-29.4c0.1-2.6,1.2-5.3,1.9-7.9c0.7,0,1.3,0,2,0
		c0.1,0.4,0.2,0.8,0.3,1.3C807.6,133.2,807.8,133,808.1,132.9z"/>
	<path fill="#4D8B89" d="M368.2,152.6c-2.2,4.8-0.1,7.9,4.1,10.1c2.5,1.3,5.1,2.4,7.7,3.6c1.4,0.8,2.9,1.6,4.3,2.4c0,0-0.1,0-0.1,0
		c0.5,0.4,0.9,0.8,1.4,1.1c0.6,0.3,1.1,0.7,1.7,1c0.3,3.8,0.6,7.5,0.8,11.3c0,0,0-0.1,0-0.1c-0.3,0.5-0.7,1-1,1.5
		c0,0.4-0.2,0.6-0.6,0.7c-1.5-0.6-3-1.3-4.5-1.9c2.2-4.6,0.2-7.7-3.9-9.7c-4.3-2.1-9-3.7-13-6.3c-6.6-4.3-6.6-11.5-0.4-16.4
		c0.8,0.1,1.6,0.2,2.6,0.4C367.7,151.1,367.9,151.8,368.2,152.6z"/>
	<path fill="#4D8B89" d="M484,150.2c-1.5-0.4-3.1-0.9-4.6-1.3c0-0.3,0-0.5,0-0.8c3,0,6.2-0.7,8.8,0.2c2,0.7,4.6,3.4,4.7,5.3
		c0.4,10.9,0.2,21.8,0.2,33.1c-2.3,0-4.4,0-7.6,0c0-12.2,0-24.1,0-36.1C485,150.5,484.5,150.4,484,150.2z"/>
	<path fill="#BB569E" d="M191.6,179.7c1.4,0.4,2.7,0.8,3.8,1.1c1.1,11.8,7.4,20.4,13.6,29.1c-2.9,1.1-5.9,2.3-8.8,3.4
		c-0.1-0.8,0-1.7-0.4-2.4c-3.8-7.4-7.7-14.8-11.3-22.3c-1-2-1.1-4.4-1.6-6.7C188.4,181.1,190,180.4,191.6,179.7z"/>
	<path fill="#76A7A8" d="M137.5,123.2c-1.5-1.8-3.3-3.4-4.4-5.3c-1.7-2.8-2.9-5.8-4.7-8.5c-1.5-5.5-2.9-11-4.4-16.5
		c3-1,5.9-2,8.9-3.1c-0.2,2.3-1,4.7-0.4,6.7c2.7,8.4,5.7,16.8,12.2,22.9c1.9,0.5,3.6,0.9,5.3,1.4
		C145.8,121.7,141.7,122.4,137.5,123.2z"/>
	<path fill="#5D9796" d="M77.4,74.2c3-0.8,6.1-1.5,9.1-2.3c-0.1,0.4-0.1,0.8-0.2,1.2c3.2,1,6.4,2.7,9.5,2.7
		c8.4,0.1,16.8-0.4,25.2-0.8c1.5-0.1,2.9-1.2,4.4-1.9c-0.9,1.6-1.7,3.2-2.6,4.9c-3.6-1.2-2.8,1.4-2.8,3.2c0,0,0.1,0,0.1,0
		c-5.1-1.2-9.8-0.8-13.4,2.6c-3.1,0-5.7,0-7.1,0c-4.2-2.3-7.3-4.1-10.1-5.7c-1.8,1-3.1,1.7-4.1,2.2c-2.1-0.9-3.9-1.6-5.7-2.3
		C79,76.8,78.2,75.5,77.4,74.2z"/>
	<path fill="#4D8B89" d="M883,187.9c-5.5,0.4-9.4-2-12.2-6.7c-4.1-6.9-5.1-22.5,1.8-29.3c1.3,0.2,2.6,0.3,3.4,0.4
		c0.2,1.9,0.4,3.4,0.5,4.9c-0.5,2.8-1.4,5.6-1.3,8.3c0.4,7.3-0.6,15.3,7.8,19.4C883,185.8,883,186.9,883,187.9z"/>
	<path fill="#4D8B89" d="M1179.9,156c0,10.1,0,20.1,0,30.7c-2.3,0-4.3,0-6.4,0c-0.5-11.8-1.1-23.5-1.6-35.2c0.1-1.1,0.1-2.2,0.2-3.3
		c2.4,0.8,4.8,1.6,7.2,2.5C1179.4,152.4,1179.6,154.2,1179.9,156z"/>
	<path fill="#A32A80" d="M571,253.9c-1.5,0.7-2.9,1.3-4.4,2c-4.8,2.3-9.7,3.2-14.7,0.3c-0.1-0.6-0.2-1.1-0.3-2.1
		c-0.7,0.3-1.2,0.5-1.6,0.8c-4.1-2.7-4.6-6.8-3.9-11c0.8-4.3,4.1-6.9,8.2-7.8c5.1-1.1,10.4-1.6,15.6-2.3c0,1.4,0,2.8,0,4.2
		c-4.1,0.6-8.4,0.6-12.3,1.9c-3.9,1.3-4.5,5.1-3.5,8.7c1,3.8,3.9,6.1,7.7,5.3c2.7-0.5,5.1-2.4,7.7-3.7
		C570.1,251.5,570.5,252.7,571,253.9z"/>
	<path fill="#84A3C1" d="M291.9,120.9c-0.7-0.4-1.6-0.6-2.1-1.2c-3.1-3.6-6.1-7.4-9.8-11.9c0-0.5-0.1-2.1-0.2-3.7
		c-3.5-4.9-5.8-10-3.9-16.1c1.3-0.3,2.6-0.6,4-0.8c0.1,1.5,0.1,3,0.2,4c5.4,9.3,10.7,18.1,15.4,26.2c4.9,1.4,8.6,2.5,12.3,3.5
		C302.6,120.9,297.3,120.9,291.9,120.9z"/>
	<path fill="#AA1D81" d="M893,209c-0.2-0.6-0.4-1.2-0.6-1.8c0.3-0.2,0.6-0.4,1.1-0.7c-0.6-0.2-1-0.4-1.4-0.5c0,0,0-0.1,0-0.1
		c2.1-0.8,4.2-1.5,6.2-2.3c0,0,0.1,0.1,0.1,0.1c0.4,0.8,0.8,1.5,1.3,2.3c0.1,16,0.2,32,0.3,48c-1.4,0.6-2.7,1.3-4.9,2.3
		c0-2.5,0-4.1,0-5.7c0-10.8,0.1-21.6-0.1-32.4C894.8,215.1,893.6,212.1,893,209z"/>
	<path fill="#A3247E" d="M629,218.1c1.8,0,3.5,0,6,0c0.7,2.6,1.9,4.9,1.9,7.1c0.2,9.6,0,19.2-0.1,28.8c-1.2,0.7-2.4,1.4-3.9,2.2
		c-1.1-0.8-2-1.5-3-2.3c-0.2-10-0.4-20-0.6-30c-0.1-0.6-0.3-1.3-0.4-1.9c-0.4-0.6-0.8-1.2-1.3-1.8
		C628.1,219.5,628.5,218.8,629,218.1z"/>
	<path fill="#5880AB" d="M259.3,70c-11.7,9.5-24.6,4.5-37.1,3.1c-2.5-0.3-4.9-0.7-8-1.2c-0.9,0.1-2.2,0.2-3.5,0.3
		c-0.3,0.1-0.5,0.4-0.6,0.7c0,0-0.1,0.1-0.1,0.1c-0.3-0.7-0.5-1.4-0.8-2.1c0.1-0.2,0.3-0.4,0.4-0.6c-0.2-0.1-0.4-0.3-0.6-0.4
		c-0.1-0.7-0.3-1.5-0.4-2.2c0.7-2.8,2.7-3.6,4.9-2.4c11,6.2,23,4.6,34.8,4.5c3.9,0,7.8-1.2,11.7-1.9C259.7,68.7,259.5,69.4,259.3,70
		z"/>
	<path fill="#548D8B" d="M527.9,184.2c-2.4,1-4.8,1.9-7.1,2.9c-6.7,3-14.9,0-17.1-6.1c-2.5-6.9,0.6-12.9,8.1-14.7
		c4.6-1.1,9.5-1,14.2-1.5c0,1,0.1,2,0.1,3c-3.1,0.4-6.3,0.5-9.3,1.3c-5.3,1.4-7.4,5.7-5.6,10.8c2,5.6,6.7,4.3,11.9,4.2
		c1-1.2,2.3-2.8,3.7-4.5C527.2,181.1,527.5,182.7,527.9,184.2z"/>
	<path fill="#8EB7B7" d="M154.8,109c0.1,2.7,0.2,5.3,0.3,8c-0.1,1-0.1,2-0.2,3c-1.9-0.9-4.2-1.4-5.5-2.8c-1.8-2-3.3-4.6-4.3-7.2
		c-2.5-6.7-4.7-13.6-7-20.4c2.2-0.6,4.5-1.2,6.7-1.8c1.3,3.9,2.3,7.9,4,11.6C150.4,102.8,152.8,105.8,154.8,109z"/>
	<path fill="#972F76" d="M964,203c0-0.4,0.1-0.8,0.1-1.2c3.9,0,7.8,0,12.9,0c0.6,6.4,1.2,12.1,1.7,16.7c5.1-0.4,10.1-0.8,15.2-1.2
		c-2.3,0.8-4.6,1.6-6.9,2.5c-0.9,0.1-1.9,0.3-2.8,0.4c-0.7,0.5-1.5,1.1-2.2,1.6c-1.1,1-2.3,1.9-3.8,3.2c0,10.4,0,21,0,31.8
		c-2.6,0-4.7,0-7.3,0c0-8.9,0-17.4,0-26c0-6.6,0.1-13.3,0-19.9C970.8,206.4,969.4,202.9,964,203z M971.8,204.5c0.4,4.7,1,9.3,1.1,14
		c0.2,10.6,0,21.3,0.1,32c0,1.7,0.6,3.5,0.9,5.2c0.6,0,1.2-0.1,1.8-0.1c3.1-11.3-0.5-23.1,2-34.4C973,216.4,980.8,208.2,971.8,204.5
		z"/>
	<path fill="#A9BED3" d="M312,104.8c-0.3,1-0.5,2-1.1,4.4c-3.3-3.2-6-5.5-8.2-8.1c-2.3-2.7-4.1-5.7-6.8-9.6c0.4-0.8,1.2-2.6,2-4.4
		c4.5,0,8.9,0,14.2,0C312,93.2,312,99,312,104.8z"/>
	<path fill="#548D8B" d="M79.8,78c1.8,0.7,3.5,1.5,5.7,2.3c1-0.6,2.3-1.3,4.1-2.2c2.8,1.6,5.9,3.3,10.1,5.7c1.3,0,4,0,7.1,0
		c3.7-3.5,8.4-3.8,13.4-2.6C110.5,94.2,88.3,92.5,79.8,78z"/>
	<path fill="#A32A80" d="M987,219.8c2.3-0.8,4.6-1.6,6.9-2.5c5.9,1.2,9,5.1,9.2,10.8c0.3,9.4,0.1,18.9,0.1,28.6c-2.2,0-4.3,0-7.2,0
		c0-8.2,0-16.4,0-24.6c0-7.3-1.9-9.7-8.8-11.8C987.2,220.1,987.1,219.9,987,219.8z M999.3,223.2c-0.6,0-1.3,0.1-1.9,0.1
		c0.3,2.3,0.9,4.7,0.9,7c0,7.1-0.2,14.3-0.2,21.4c0,0.7,0.8,1.5,1.2,2.2c0.5-0.1,1.1-0.2,1.6-0.3
		C999.6,243.5,1004.1,233.2,999.3,223.2z"/>
	<path fill="#84A3C1" d="M255.1,48.6c-1.5,0.8-3.1,1.6-4.6,2.4c-0.1-0.1-0.2-0.3-0.4-0.4c-2.5,0.5-5,1.3-7.5,1.4
		c-4.9,0.2-10,0.9-14.7-0.2c-4.3-1-8.1-4-12.1-6.1c1.7-1.3,3.4-2.7,5-4c1.2,1.1,2.4,3.1,3.7,3.2c5.6,0.4,11.3,0.6,17,0.2
		c2.2-0.1,4.3-2,6.4-3.1C250.4,44.2,252.7,46.4,255.1,48.6z"/>
	<path fill="#A3247E" d="M912,218c2.3,0,4.5,0,7.5,0c0.5,2.2,1,4.1,1.5,6c-0.3,8-0.7,15.9-0.9,23.9c0,1.7,0.7,3.4,1,5.1
		c0,0.3,0,0.7-0.1,1c-0.8,0.7-1.6,1.4-2.2,1.9c-1.8-0.7-3.2-1.3-4.7-1.9c-0.1-8.8,0-17.6-0.3-26.4c-0.1-2.5-1.3-5-1.9-7.5
		C912,219.4,912,218.7,912,218z"/>
	<path fill="#AA1D81" d="M446,251c0.3-1.9,1-3.8,0.9-5.7c-0.2-8.3-0.8-16.6-0.7-24.9c0-3.7,1.4-7.4,2.4-12.5
		c-1.8,1.9-2.5,2.7-3.3,3.5c-2.5-5.4-0.9-7.5,5.7-7.3c0,9.6,0,19.2,0.1,28.8c0,1.7,0.6,3.4,1,5.1c0,1.3,0,2.7,0,4
		c-0.3,1.3-0.7,2.7-1,4c-0.4,2.3-0.9,4.6-1.3,6.5c1.3,1.2,2.1,2,3.4,3.2c-1.6,0.2-2.3,0.3-3.1,0.4c-0.7,0-1.3,0-2-0.1
		C447.3,254.3,446.7,252.7,446,251z"/>
	<path fill="#4D8B89" d="M526,167.8c0-1-0.1-2-0.1-3c-0.4-3.7-0.8-7.5-1.1-11.2c1.1-1.3,2.3-2.6,3.4-4c0.7,0.6,1.4,1.2,2,1.9
		c1,2.1,2,4.3,3,6.4c0.2,5.4,0.4,10.7,0.6,16.1c-0.5,2.4-0.9,4.9-1.7,7.3c-0.6,1.7-1.7,3.2-2.5,4.8c-0.6-0.6-1.1-1.3-1.7-1.9
		c-0.4-1.5-0.8-3.1-1.2-4.6C526.5,175.7,526.3,171.7,526,167.8z"/>
	<path fill="#548D8B" d="M583,186.9c-2.9,0-4.7,0-7.4,0c0-3.7,0-7.2,0-10.8c0-6-0.1-11.9,0-17.9c0.1-5.1-1.2-8.9-7.7-8.8
		c9.2-4.4,15.1-0.9,15.2,8.4C583,167.3,583,176.9,583,186.9z M581.3,183.5c-1.4-9.2,1.7-18.2-1.9-26.5c-0.6,0-1.2,0.1-1.8,0.1
		c0,8.8,0,17.6,0,26.7C578.7,183.7,579.6,183.6,581.3,183.5z"/>
	<path fill="#972F76" d="M658.1,224.2c0.3-1.4,0.6-2.7,1-4.1c8-5.7,16.8-4.5,21.8,2.9c-0.3,0-0.5,0-0.8,0c-1.1-0.3-2.3-0.6-4.9-1.2
		c6,11.6-1.4,23.2,3.5,34.3c1.1-1,1.8-1.6,2.4-2.1c0-5.3,0-10.6,0-16c0-1.3,0-2.7,0-4c0.6,0,1.2,0,1.8,0c0,7.4,0,14.9,0,22.7
		c-2.4,0-4.6,0-7.3,0c0-6.6,0-13.1,0-19.5c0-2.2,0-4.3-0.2-6.5C674.2,220.2,667,217.6,658.1,224.2z"/>
	<path fill="#972F76" d="M1113.6,254.2c-5.5,4.5-17.7,5.3-22.7,0.8c-2.1-1.9-2.6-5.4-3.8-8.3c0.5-0.3,1.1-0.5,1.6-0.8
		c0.5,0.9,1.1,1.7,1.6,2.6c2.9,5.3,11.6,7.8,16.9,4.8c4-2.3,4.4-7,0.2-9.7c-3.7-2.4-8-3.9-12-5.9c-7.5-3.7-9.5-9.4-5.6-16
		c0.1,1.5,0.2,3,0.2,4.5c0.2,5.2,2.6,8.1,8,9.7c0.7,0.6,1.4,1.3,2,1.9c7.9,1.2,12.4,5.4,12.1,13.9
		C1112.1,252.7,1113.1,253.5,1113.6,254.2z"/>
	<path fill="#83B0B0" d="M138.1,89.6c2.3,6.8,4.5,13.7,7,20.4c1,2.6,2.4,5.1,4.3,7.2c1.3,1.4,3.6,1.9,5.5,2.8c0.1,0.3,0.1,0.7,0.2,1
		c-1.7,0-3.4-0.1-5-0.1c-1.7-0.4-3.4-0.9-5.3-1.4c-6.5-6.1-9.5-14.5-12.2-22.9c-0.6-2,0.2-4.5,0.4-6.7c0,0,0,0.1,0,0.1
		c1.2,0,2.4,0,3.6,0C137.1,89.8,137.6,89.7,138.1,89.6z"/>
	<path fill="#AA1D81" d="M397.2,206c0-0.6,0-1.3,0-1.9c0.6-0.7,1.3-1.4,1.9-2.1c0.6,0,1.3,0,1.9,0c1.8,1.1,3.7,2.3,5.5,3.4
		c0,0,0,0.3,0,0.3c0.2,0.4,0.4,0.8,0.7,1.3c0,0,0,0,0,0c0.7,1.7,1.5,3.3,2.2,5c0,0-0.1-0.1-0.1-0.1c0.4,0.7,0.7,1.4,1.1,2.1
		c0,0-0.1-0.1-0.1-0.1c-0.2,3.3-0.4,6.5-0.7,10.3c-1.7-1.4-2.7-2.2-3.6-3c-0.2-0.1-0.3-0.3-0.1-0.5c-0.6-3.1-1.2-6.2-1.8-9.3
		c-0.5,0.1-1,0.2-1.5,0.3c-0.2,0.4-0.3,0.9-0.5,1.3c-0.6,1.3-1.8,2.7-1.8,4c-0.2,12.4-0.2,24.8-0.3,37.2c-0.6-1.1-1.7-2.2-1.8-3.4
		c-0.3-3.1,0-6.3-0.1-9.4c-0.2-6.4-0.5-12.8-0.8-19.1c0-2,0-4,0-6C397.2,212.6,397.2,209.3,397.2,206z"/>
	<path fill="#A3247E" d="M1057.1,254c-0.1-9-0.2-18-0.2-27c0-4.2-1.1-7.6-6-8.6c4.5,0.2,9.5-2.7,13.1,2.5c0,0.4,0,0.7-0.1,1.1
		c-0.7,1.6-1.8,3.2-1.9,4.8c-0.5,9.7-0.7,19.4-1.1,29.1C1059.7,255.3,1058.4,254.6,1057.1,254z"/>
	<path fill="#5D9796" d="M279.9,158c0.7,0.3,1.4,0.6,2.1,1c-0.9,2.9-1.9,5.8-2.9,9c1.3,0.1,2.1,0.3,3,0.3c5.7,0,11.3-0.1,17-0.1
		c1.2,1.1,2.4,2.1,4.7,4.1c0,0.8,0,2.6,0,4.5c-0.8-1.6-1.7-3.2-2.7-5.1c-7.6,0-15.3,0-23.1,0c-2.6,5.1-5.2,10.2-7.9,15.3
		c-0.1,0.3-1.2,0-2.8,0C271.7,176.9,275.8,167.4,279.9,158z"/>
	<path fill="#A3247E" d="M570,238c0-1.4,0-2.8,0-4.2c-1-4-2-7.9-2.9-11.9c2.3-2.1,4.8-1.3,6.7,2.4c4.8,9.7,1.3,19.8,2.4,30.2
		c-2.2-0.2-3.4-0.3-4.7-0.4c-0.2,0-0.4-0.1-0.4-0.3c-0.5-1.2-0.9-2.4-1.4-3.6C569.7,246.2,569.9,242.1,570,238z"/>
	<path fill="#548D8B" d="M883,187.9c0-1,0-2,0.1-3c6.6,0.1,10.6-2,10.8-6.2c0.3-8.6,0.1-17.2,0.1-25.4c-8.3-4.9-12.3-3.9-17.4,4
		c-0.2-1.5-0.3-3-0.5-4.9c-0.8-0.1-2.1-0.3-3.4-0.4c6-6.7,13.3-5.3,21-2.4c0.2-2.9,0.4-5.2,0.5-7.4c0.6,1,1.7,2,1.8,3
		c0.1,10.2,0.2,20.5,0,30.7c0,2.8-0.6,5.6-1,8.4C891,185.4,887,186.6,883,187.9z"/>
	<path fill="#AA1D81" d="M810.5,221.9c0.1,0.7,0.2,1.4,0.3,2.1c-0.9,10-2.7,20,1.7,29.7c2,0.1,3.3,0.2,4.6,0.3c2,0,4,0.1,6,0.1
		c0.3,0.7,0.7,1.4,1,2.1c0,0,0-0.1,0-0.1c-5.4-0.7-10.9-1.4-16.3-2.1c0,0,0,0,0,0c-1.4-11.2-2.8-22.5-4.3-35.1
		C807,220.5,808.8,221.2,810.5,221.9z"/>
	<path fill="#9DC2C3" d="M118.2,44.9c-8.3,0.4-16.6,0.8-24.8,1.1c-2.8,0.1-5.5-0.3-5.4-4.1C97.6,35.7,109.4,36.9,118.2,44.9z"/>
	<path fill="#4D8B89" d="M1198.1,174c0-5-0.1-10-0.1-15c1.7-2.7,0.4-4.1-2.1-5c0,0,0,0,0,0c0-1.2,0-2.5,0-3.9
		c1.4-0.1,2.8-0.2,4.2-0.3c0,0,0,0,0,0c0.5,1.5,1,3,1.5,4.5c0.8,2.2,2.2,4.3,2.2,6.5c0.3,7,0.2,14,0,21c0,1.5-1.2,3-1.8,4.4
		c-0.8-0.2-1.6-0.4-2.4-0.5c0-2.1,0.2-4.2-0.1-6.3C1199.4,177.6,1198.7,175.8,1198.1,174z"/>
	<path fill="#AA1D81" d="M949.5,242.1c0,0-0.3,0-0.3,0S949,242,949,242c-1.3-0.7-2.7-1.3-4-2c-1.7-0.7-3.3-1.4-5-2.1
		c-0.2-1.1-0.5-2.2-0.7-3.3c-2.6-1.6-5-3.6-6-6.2c-0.7-1.8,0.3-4.4,0.5-6.6c0,0,0,0,0,0c0.7-0.7,1.3-1.4,2-2.1l0.2,0.1
		c0,0-0.3-0.1-0.3-0.1c1,0.3,2,0.6,3.3,1.1c-1.2,1.7-2.1,3.1-2.9,4.1c-0.4,7,10.8,11.9,18.9,13c0,0,0,0,0,0c0.5,1,0.7,2.4,1.5,3
		c3.3,2.2,4.1,4.9,2.6,8.6c-0.4,1-0.1,2.3-0.1,3.5c-0.4,0.3-0.7,0.7-1.1,1c-1-0.3-1.9-0.6-2.8-0.9c-0.1-3.7,3.4-8.2-3-9.1
		c0,0,0,0,0,0C951.2,243.3,950.3,242.7,949.5,242.1z"/>
	<path fill="#A3247E" d="M703.9,217.9c6.6-2.5,12.8-1.7,17.5,3.5c4.2,4.6,5.9,10.2,3.5,16.5c-2.4-0.9-6.6,2.4-7-3.1
		c-0.1-5.7-0.6-11.2-6-14.7C710.3,215.8,706.5,219,703.9,217.9z"/>
	<path fill="#AA1D81" d="M1113.6,254.2c-0.5-0.8-1.5-1.6-1.5-2.3c0.3-8.5-4.1-12.7-12.1-13.9c-0.7-0.6-1.4-1.3-2-1.9
		c-5.4-1.6-7.8-4.6-8-9.7c-0.1-1.5-0.1-3-0.2-4.5c0,0,0,0,0,0c1.7-0.5,3.4-1.1,5.4-1.7c0.3,0.7,0.5,1.3,0.8,2
		c-2.4,4.3-0.7,7.4,2.9,9.9c1.6,3.7,4.6,4.2,8.2,3.8c0,0,0-0.1,0-0.1c1.6,0.8,3.1,1.5,4.7,2.3c0,0,0.2,0.1,0.2,0.1
		c3,4.5,5.2,9,2,14.4c-0.2,0.4-0.1,1-0.1,1.5C1113.9,254.2,1113.8,254.3,1113.6,254.2z"/>
	<path fill="#92ACC7" d="M248,42c-2.1,1.1-4.2,2.9-6.4,3.1c-5.6,0.4-11.3,0.2-17-0.2c-1.3-0.1-2.5-2.1-3.7-3.2c3-1.3,6-2.6,9.1-3.9
		c3.3,0.2,6.7,0.3,10,0.5C242.7,39.5,245.3,40.8,248,42z"/>
	<path fill="#972F76" d="M571.4,254.2c1.3,0.1,2.5,0.2,4.7,0.4c-1.1-10.4,2.4-20.5-2.4-30.2c-1.9-3.8-4.4-4.5-6.7-2.4
		c-7.5-3.7-12-2.3-15.4,4.9c-1,0-2.1,0-3.3,0c-0.8-5,1.2-8.2,5.8-8.9c4.5-0.7,9.3-1.1,13.8-0.5c5.1,0.7,8.8,5.3,9,11.2
		c0.4,9.3,0.1,18.6,0.1,29.6C574.5,256.4,572.9,255.3,571.4,254.2z"/>
	<path fill="#AA1D81" d="M791.1,228.3c-1.3,0.5-2.6,0.9-3.9,1.5c-1.7,0.8-3.4,1.6-5.6,1.7c1.8-2.4,3.6-4.8,5.3-7.3
		c3.1-4.6,0.8-13.4-4.1-15.9c0,0,0,0,0,0c-1-0.7-2-1.4-3-2.1c-1.3-0.4-2.6-0.9-3.8-1.3c3-0.3,6.1-0.6,9.1-0.8c0,0,0,0,0,0
		c1.3,0.7,2.6,1.4,3.9,2.2c0.4,0.3,0.7,0.6,1.1,0.9c1.5,3.4,3,6.8,4.5,10.1C793.4,220.8,792.3,224.5,791.1,228.3z"/>
	<path fill="#972F76" d="M955.1,237.9c-8.1-1.1-19.3-6-18.9-13c0.7-1.1,1.7-2.4,2.9-4.1c-1.3-0.4-2.3-0.7-3.3-1.1
		c5.3-3.8,16.6-4.4,21-0.3c2.2,2,2.8,5.7,4.1,8.6c-0.6,0.3-1.2,0.6-1.8,0.9c-0.7-1.3-1.4-2.7-2.2-4c-2.9-4.9-11.3-6.7-15.9-3.3
		c-3.2,2.3-3.1,6.8,0.5,9.2c2.7,1.8,5.9,2.9,8.9,4.4C952,236.1,953.5,237,955.1,237.9z"/>
	<path fill="#A3247E" d="M513.2,245.9c1.6,0.7,3.2,1.4,4.8,2.1c-0.6,1.1-1.2,2.2-1.8,3.3c-1.1,0.9-2.2,1.8-3.3,2.6
		c-0.6,1-1.1,2-1.7,3.1c0.1,0.3,0,0.7-0.2,1c-3.6,2.1-2.2,4,0.1,6c0.4,0.9,0.8,1.8,1.1,2.8c-0.2,0.9-0.3,1.9-0.5,2.9
		c-1.3,0.1-2.4,0.2-3.6,0.3c-6.3-5.4-5.9-13.2,0.7-18.2c1-0.7,1.2-2.5,1.8-3.8C511.4,247.3,512.3,246.6,513.2,245.9z"/>
	<path fill="#A3247E" d="M760,255.9c0.1-6.6,0.1-13.3,0.2-19.9c2.2,0,4.4,0,6.6,0c0,6.8,0,13.6,0,21.3
		C764.3,256.8,762.2,256.4,760,255.9z"/>
	<path fill="#AA1D81" d="M831.7,256.1c-1.2-0.7-2.5-1.4-3.7-2.1c1.3-2.3,2.6-4.5,3.4-5.9c0-9.9,0-18.8,0-28.1
		c1.5,0.4,2.5,0.6,3.2,0.8c0,11.3,0,22.2,0,33.3C833.8,254.6,832.8,255.4,831.7,256.1z"/>
	<path fill="#972F76" d="M831.7,256.1c1.1-0.7,2.1-1.5,2.8-2c0-11.1,0-22,0-33.3c-0.7-0.2-1.7-0.4-3.2-0.8c0,9.3,0,18.2,0,28.1
		c-0.8,1.3-2.1,3.6-3.4,5.9c-1.3,0.7-2.6,1.5-3.9,2.2c-0.3-0.7-0.7-1.4-1-2.1c1.9-1.4,3.7-2.7,5.8-4.2c0-10.5,0-20.9,0-31.7
		c2.4,0,4.4,0,6.9,0c0,12.7,0,25.5,0,39C834.3,256.8,833,256.4,831.7,256.1z"/>
	<path fill="#A32A80" d="M406,221c1,0.8,2,1.6,3.6,3c0.2-3.8,0.5-7,0.7-10.3c4.6,10,9.2,20.1,13.9,30.1c0,0-0.2,0.2-0.2,0.2
		c-2-3.2-4-6.3-5.9-9.5c-0.9-1.5-1.4-3.1-2-4.7c-0.6,0.1-1.3,0.3-1.9,0.4c0,2.5,0,5.1,0,7.6c0,0-0.2,0.2-0.2,0.2
		C411.2,232.4,408.6,226.7,406,221z"/>
	<path fill="#9DC2C3" d="M154.8,109c-2-3.2-4.5-6.2-6-9.6c-1.7-3.7-2.7-7.7-4-11.6c3.4-0.3,6.8-0.6,10.1-0.9
		C154.9,94.3,154.9,101.6,154.8,109z"/>
	<path fill="#A3247E" d="M534.2,221.9c5.1,5.2,5.1,10.9-0.1,16.1c-1.3,0.8-2.6,1.5-3.9,2.3c0,0,0-0.1,0-0.1
		c-1.8-0.4-3.5-0.9-5.3-1.3c7-3.5,5.5-9.5,4.8-15.4C531.2,223,532.7,222.5,534.2,221.9z"/>
	<path fill="#972F76" d="M508,270c1.1-0.1,2.2-0.2,3.6-0.3c0.2-1.1,0.4-2,0.5-2.9c6,4.5,13.5,5.1,17.8,1.4c3.7-3.2,4-7.9,0.9-14
		c5.2,0.5,3.5,4.2,3.6,7.3c0.1,2.9-2.4,6,0.6,8.6c0.2,0.2,0.3,0.3,0.5,0.5C526.3,275,517.1,275.7,508,270z"/>
	<path fill="#972F76" d="M613.1,227.1c-0.1-3.2-1.1-5.7-5-5.1c-8.4-3.3-16.7-0.9-20.3,5.8c-2.3-6.7-0.1-9.9,6.8-9.9
		c4.1,0,8.3,0.1,12.4,0.2c3,2.7,6,3.6,9,0c0.8,0,1.6,0,3.2,0C617,221.4,615,224.3,613.1,227.1z"/>
	<path fill="#972F76" d="M952,244c6.4,1,2.9,5.5,3,9.1c0.9,0.3,1.8,0.6,2.8,0.9c-5.6,4.5-16.8,5.4-22.6,1.8
		c-3.6-2.2-4.3-4.6-3.2-8.5c2.8,2.2,5.9,4.6,8.9,7c4,0.4,7.9,0.9,11.9,1.3c0-0.5,0.1-1,0.1-1.5c-0.8-0.1-1.6-0.2-2.4-0.3
		C954.5,251,955.2,247.8,952,244z"/>
	<path fill="#A3247E" d="M509.8,238.1c-1.2-3.4-2.4-6.7-3.7-10.1c0.9-2.1,1.7-4.2,2.6-6.3l0.2,0.2c0,0-0.2-0.2-0.2-0.2
		c1.6-0.5,3.2-1,5.2-1.6c0.3,0.6,0.7,1.4,1.2,2.1c-0.3,0.6-0.7,1.2-1,1.8c-3.5,2.4-2.6,5.2-0.7,8.1l-0.1,0.3
		c-0.3,0.7-0.5,1.4-0.8,2.3c0.8,0.1,1.3,0.2,1.8,0.2l-0.1,0c0.3,0.4,0.6,0.8,0.8,1.2c1.7,1,3.3,2.1,5,3.1
		C516.6,238.8,513.2,238.4,509.8,238.1z"/>
	<path fill="#972F76" d="M488,221c0,2.1-0.1,4.2-0.1,6.3c-3.7-8-7.7-9.3-15.8-4.9c-0.7,1.4-1.5,2.8-2.3,4.4c-1.1,0-2.1,0-3,0
		c-1.5-2.6,0.4-7.2,3.7-8.4c5.7-2.1,11.6-2.8,17.4-0.4c0,0,0,0,0,0c-1.5,0.1-2.9,0.1-4.4,0.2c0,0.3,0,0.7,0,1
		C485,219.9,486.5,220.4,488,221L488,221z"/>
	<path fill="#548D8B" d="M382.1,182.2c1.5,0.6,3,1.3,4.5,1.9c-5.6,4.5-17.6,5.7-22.8,1.4c-2.2-1.8-3-5.5-4.9-9.5
		c4.6,3.5,7.5,6.4,11,8.1C374,186.1,378.3,184.9,382.1,182.2z"/>
	<path fill="#548D8B" d="M528.2,149.6c-1.1,1.3-2.3,2.6-3.4,4c-6.6-5.5-10.9-4.8-16,2.2c-0.6,0.9-1.9,1.3-2.9,1.9
		c-0.6-0.4-1.1-0.8-1.7-1.2c1.2-2.4,1.8-5.9,3.7-6.8C514.5,146.4,521.4,145.5,528.2,149.6z"/>
	<path fill="#972F76" d="M1096,222.2c-0.3-0.7-0.6-1.4-0.8-2c-2,0.6-3.7,1.2-5.4,1.7c5-5.9,18.5-7.3,23.7-1.9c1.9,2,2.2,5.4,2.6,8.8
		C1111.3,219.9,1104.8,217.6,1096,222.2z"/>
	<path fill="#AA1D81" d="M760,212.1c0-1.8,0-3.6,0-5.7c1.9,0,3.2,0,4.8,0c0,7.1,0,13.8,0,21.1c-1.4,0.1-2.7,0.3-4.8,0.5
		c0-5,0-9.6,0-14.1C760,213.3,760,212.7,760,212.1z"/>
	<path fill="#972F76" d="M515.1,222.2c-0.4-0.7-0.8-1.5-1.2-2.1c-2,0.6-3.6,1.1-5.2,1.6c1.7-1.3,3.2-3.4,5-3.6
		c7.7-0.9,15.5-1.3,23.3-1.8c0.1,0.6,0.2,1.2,0.3,1.8c-1.3,0.6-2.7,1.1-4.3,1.8c0.4,0.7,0.8,1.4,1.2,2c-1.5,0.6-3,1.1-4.5,1.7
		C524.4,218.3,521.4,218,515.1,222.2z"/>
	<path fill="#AA1D81" d="M696.1,224c0.6-0.7,1.2-1.4,1.8-2.1c0.9,0.2,1.8,0.4,3,0.6c-1,1.5-1.8,2.7-1.9,3c-0.3,3.1-0.7,5.2-0.6,7.2
		c0.1,1.1,1.1,2.2,1.7,3.3c0,0.6,0,1.3,0,1.9c-0.3,0-0.7,0-1,0c-2.8,1.3-2.8,2.6-0.1,4c0,1.3,0,2.7,0.1,4c-0.1,1.1-0.2,2.1-0.3,3.4
		c-0.5,0.2-1.1,0.4-1.7,0.6c-0.4,0-0.7,0-1.1,0.1c0,0,0,0,0,0c-0.6-3.5-1.9-6.9-1.8-10.4c0.1-5,1.1-10,1.6-15c0,0-0.1,0-0.1,0
		c0.2,0,0.5-0.1,0.8-0.1C696.3,224.4,696.2,224.2,696.1,224z"/>
	<path fill="#972F76" d="M893,209c0.7,3.1,1.9,6.1,1.9,9.2c0.2,10.8,0.1,21.6,0.1,32.4c0,1.6,0,3.2,0,5.7c2.2-1,3.5-1.7,4.9-2.3
		c0,0.8,0,1.6,0,2.8c-2.1,0-4.2,0-6.9,0C893,240.8,893,224.9,893,209z"/>
	<path fill="#972F76" d="M810.5,221.9c-1.7-0.7-3.5-1.4-6.9-2.8c1.6,12.6,3,23.8,4.3,35.1c-1.3-2.7-3.6-5.2-3.8-8
		c-0.6-6.1-0.3-12.2-0.4-18.3c-0.1-4.5-0.8-8.6-6.4-9.7c2.9,0,5.8,0,8.7,0c0.8,0.3,1.6,0.5,2.4,0.8
		C809.1,219.9,809.8,220.9,810.5,221.9z"/>
	<path fill="#548D8B" d="M368.2,152.6c-0.3-0.8-0.5-1.5-0.8-2.3c-1-0.1-1.8-0.3-2.6-0.4c6.1-4.1,12.5-3.7,19-1.3
		c4.4,1.7,5.4,5.4,4.7,9.4c-2.9-2.4-5.6-6.2-9-7.1C376.1,150,372,151.9,368.2,152.6z"/>
	<path fill="#4D8B89" d="M805,132.2c-0.7,2.6-1.8,5.2-1.9,7.9c-0.2,9.8-0.2,19.6,0,29.4c0,1.8,1,3.6,1.7,6.1
		c-2.8,3.7-2.7,5.2,1.6,9.5c0.9-1.4,1.6-2.7,2.4-4c1.9,2,3.8,4,5.7,5.9c-1.7,0-4.4,0.1-7,0c-3.8-0.1-5.9-2.3-5.9-6
		c0-16,0.1-32,0.2-47.9c0.7-0.3,1.4-0.5,2.1-0.8C804.3,132.2,804.7,132.2,805,132.2z"/>
	<path fill="#548D8B" d="M1004.5,184.2c1.9-0.4,3.9-0.9,5.8-1.3c7,3.2,7.8,3,18.7-3.6C1026.9,188.8,1010.7,190.9,1004.5,184.2z"/>
	<path fill="#548D8B" d="M409.1,153.3c-1.7-0.5-3.5-0.9-5.2-1.4c6.4-6.5,16.5-6.6,23.6-0.1c-1,0.1-1.9,0.3-3.1,0.5
		c-0.2,1-0.4,2-0.6,2.9C418.6,149.6,415,149.1,409.1,153.3z"/>
	<path fill="#AA1D81" d="M1046.2,235.5c-1.7-0.8-3.4-1.5-4.7-2.1c-1.6-3.2-3.1-6.2-4.7-9.3c0,0,0,0,0,0c0-1,0.1-2.1,0.1-3.1
		c0.3,0,0.7,0,1,0c1,0.9,2,1.8,3,2.7c0.5-0.6,0.9-1.2,1.4-1.8C1046.3,225.7,1046.5,230.5,1046.2,235.5z"/>
	<path fill="#548D8B" d="M1198.1,174c0.5,1.8,1.3,3.6,1.5,5.5c0.3,2.1,0.1,4.2,0.1,6.3c0.8,0.2,1.6,0.4,2.4,0.5
		c0.6-1.5,1.8-2.9,1.8-4.4c0.2-7,0.3-14,0-21c-0.1-2.2-1.5-4.3-2.2-6.5c-0.5-1.5-1-3-1.5-4.5c1.6,2.6,4.5,5.1,4.6,7.7
		c0.6,9.6,0.2,19.2,0.2,29.1c-2.3,0-4.2,0-6.8,0C1198.1,182.5,1198.1,178.2,1198.1,174z"/>
	<path fill="#A32A80" d="M717.9,255.8c-6.4,3.3-12.4,3-18.2-1.4c0.1-0.2,0.2-0.3,0.3-0.4c0.6,0,1.3,0,1.9,0c0-0.7,0-1.3,0-2
		c0-0.7,0-1.3,0-2c0.3,0,0.7,0,1,0c3.6,5.1,8.7,4.7,13.9,4C717.3,254.6,717.6,255.2,717.9,255.8z"/>
	<path fill="#AA1D81" d="M1061,256c0.3-9.7,0.6-19.4,1.1-29.1c0.1-1.6,1.2-3.2,1.9-4.8c0,1.4,0.1,2.8,0.1,4.3c0,0.5,0,1,0,1.5
		c0,9.4-0.1,18.8-0.1,28.3c0,0,0,0,0,0C1063,256,1062,256,1061,256z"/>
	<path fill="#972F76" d="M700,236c-0.6-1.1-1.6-2.2-1.7-3.3c-0.1-2,0.3-4.1,0.6-7.2c0.2-0.2,0.9-1.4,1.9-3c-1.2-0.2-2.1-0.4-3-0.6
		c1.7-1.2,3.4-2.5,5.1-3.7c1.4,0.6,2.8,1.2,4.1,1.9c-5.5,3.4-6.6,8.8-7,15.2c5,0,9.4,0,13.8,0C709.3,235.5,704.6,235.8,700,236z"/>
	<path fill="#972F76" d="M509.8,238.1c3.4,0.3,6.8,0.7,10.2,1c1.6,0,3.3-0.1,4.9-0.1c1.8,0.4,3.5,0.9,5.3,1.3
		c-3.8,0.6-7.6,1.2-11.4,1.7c-2.6,0.4-5.4,0.2-5.7,3.9c-0.9,0.7-1.8,1.4-2.7,2.1c0-2.5,0-5,0-7.5c0.3,0,0.6-0.1,1-0.1
		C510.9,239.6,510.4,238.8,509.8,238.1z"/>
	<path fill="#972F76" d="M919.3,211.9c-5.7,0.4-6.7-0.7-6.3-7.9c2.1,0.2,4.8-0.3,6.2,0.8C921.7,206.7,921.8,209.6,919.3,211.9z"/>
	<path fill="#548D8B" d="M1200.1,149.9c-1.4,0.1-2.8,0.2-4.2,0.3c0,1.4,0,2.6,0,3.9c-1.3-1-2.7-2-4-3c-0.3-1-0.5-2-1.1-4.2
		c-1.4,1.9-2.2,2.9-2.9,4c-2.7,1.7-5.4,3.5-8.1,5.2c-0.2-1.8-0.5-3.6-0.7-5.4c2.7-1,5.3-2.1,8.1-2.9
		C1191.8,146.4,1196.3,146.7,1200.1,149.9z"/>
	<path fill="#548D8B" d="M581.7,141.9c-1.9,0.2-3.7,0.4-6.6,0.6c-0.3-3-0.5-5.4-0.8-7.8C580.9,133.6,582.2,134.9,581.7,141.9z"/>
	<path fill="#972F76" d="M1064.1,226.3c0-1.4-0.1-2.8-0.1-4.3c0-0.4,0-0.7,0.1-1.1c3.1-1.4,6.1-3.2,9.3-4c3.6-0.9,6.8,0.4,8.8,4.4
		c-0.8,0.8-1.6,1.7-2.6,2.8c-1-0.8-1.9-1.4-2.8-2.1c1-0.3,1.9-0.6,3.6-1.1c-2.7-1.4-4.5-2.3-7.1-3.6c-1.4,1.5-2.8,3-4.3,4.6
		C1067.4,223.4,1065.8,224.8,1064.1,226.3z"/>
	<path fill="#4D8B89" d="M485.1,134.4c6.8-0.4,8.6,2.1,6.6,7.6c-1.6,0-3.4,0-6,0C485.4,139.5,485.3,137.1,485.1,134.4z"/>
	<path fill="#AA1D81" d="M1015.8,248.5c0.4-2.3,0.8-4.7,1.2-7c0.5,0,1.1,0.1,1.6,0.1c1.5,4.1,3,8.3,4.4,12.4c-1,0-2,0-3,0
		C1018.6,252.2,1017.2,250.3,1015.8,248.5z"/>
	<path fill="#972F76" d="M632,212c-3.5-0.7-4.8-3-3.6-6.1c0.5-1.2,3-2.4,4.2-2.1c3.5,0.9,4.3,3.7,3.1,7.7
		C634.6,211.6,633.3,211.8,632,212c0.8-1.6,1.6-3.2,2.9-5.8c-2.4,0.2-3.5,0.3-5.1,0.4C630.7,208.8,631.3,210.4,632,212z"/>
	<path fill="#972F76" d="M695.8,224.8c-0.6,5-1.6,10-1.6,15c0,3.4,1.2,6.9,1.8,10.4C690.8,241.7,691,233.2,695.8,224.8z"/>
	<path fill="#A32A80" d="M450,256c0.8-0.1,1.5-0.2,3.1-0.4c-1.3-1.2-2.1-2-3.4-3.2c0.4-1.9,0.8-4.2,1.3-6.5c0.4,0,0.8,0,1.2,0
		c1.3,4,2.7,8,4,11.9c-2.1,0-4.1,0.1-6.2,0.1c-0.4-0.3-0.7-0.6-1.1-0.9C449.3,256.7,449.6,256.4,450,256z"/>
	<path fill="#972F76" d="M699,246c0-1.3,0-2.7-0.1-4c0-1.3,0-2.7,0.1-4c0.3,0,0.7,0,1,0c4.1,0,8.3,0.2,12.4-0.1
		c1.3-0.1,2.4-1.7,3.6-2.5c0.7-0.1,1.3-0.3,2-0.4c0.4,5.5,4.6,2.2,7,3.1c-8.2,0-16.3,0-25,0c0.5,3.5,0.8,5.8,1.1,8
		C700.4,246,699.7,246,699,246z"/>
	<path fill="#972F76" d="M933.8,221.8c-0.2,2.2-1.3,4.8-0.5,6.6c1,2.5,3.4,4.6,6,6.2c0.2,1.1,0.5,2.2,0.7,3.3
		C932.7,236.1,928.7,227.9,933.8,221.8z"/>
	<path fill="#972F76" d="M516.1,251.3c0.6-1.1,1.2-2.2,1.8-3.3c0.7,0,1.3,0.1,2,0.1c1.3,0.6,2.5,1.7,3.8,1.8c2,0.1,4.1-0.6,6.1-0.9
		c2,1,4.1,2,6.1,3c0,0-0.1,0.2-0.1,0.2c-2.1,0.3-4.2,0.7-6.3,1C525.1,252.5,520.6,251.9,516.1,251.3z"/>
	<path fill="#972F76" d="M817.1,254c-1.3-0.1-2.6-0.1-4.6-0.3c-4.3-9.7-2.6-19.7-1.7-29.7c0.1,5.9,0.4,11.9,0.2,17.8
		C810.9,247.1,812.6,251.2,817.1,254z"/>
	<path fill="#972F76" d="M397.2,222c0.3,6.4,0.6,12.8,0.8,19.1c0.1,3.1-0.2,6.3,0.1,9.4c0.1,1.2,1.2,2.3,1.8,3.4
		c-0.4,1.1-0.8,2.1-1.2,3.2c-0.5-0.1-1.1-0.3-1.6-0.4C397.2,245.2,397.2,233.6,397.2,222z"/>
	<path fill="#972F76" d="M1038,221c-0.3,0-0.7,0-1,0c-2-0.4-4-0.7-6-1.1c-0.7,0-1.3,0-2,0c-1.2-0.4-2.5-1.1-3.7-1.1
		c-1.5,0-3,0.7-4.4,1.1c6.1-4.3,12.9-4.3,19.4,0C1039.5,220.2,1038.8,220.6,1038,221z"/>
	<path fill="#972F76" d="M864,255c-0.2,0-0.4,0-0.5,0.1c-0.1,0.3-0.1,0.6-0.2,0.9c3.4,0,6.7,0.1,10.1,0.1c-6,3.1-11.5,2.3-16.5-2.2
		c0.1-0.7,0.2-1.4,0.3-2.1C859.5,252.9,861.8,253.9,864,255z"/>
	<path fill="#AA1D81" d="M766.8,236c-2.2,0-4.4,0-6.6,0c0.2-1.7,0.3-3.4,0.5-5.5c1.8-0.2,3.2-0.3,4.9-0.5c0.5,1.8,0.9,3.3,1.3,4.8
		C766.9,235.2,766.9,235.6,766.8,236z"/>
	<path fill="#972F76" d="M1114,254c0-0.5-0.2-1.1,0.1-1.5c3.2-5.4,1-9.9-2-14.4C1118.7,242.7,1119.4,248.6,1114,254z"/>
	<path fill="#972F76" d="M536,252c5.6,5.2,5.8,11.8,0.4,17.8c-0.1-0.3-0.3-0.5-0.5-0.7c2.7-5.6,2.9-11.3-0.1-16.9L536,252z"/>
	<path fill="#AA1D81" d="M1069,222c1.5-1.6,2.9-3.1,4.3-4.6c2.7,1.3,4.5,2.3,7.1,3.6c-1.7,0.5-2.7,0.8-3.6,1.1
		C1074.2,222.1,1071.6,222,1069,222z"/>
	<path fill="#A3247E" d="M452,238c-0.3-1.7-0.9-3.4-1-5.1c-0.1-9.6-0.1-19.2-0.1-28.8c0.4,0,0.7-0.1,1.1-0.1
		C452,215.4,452,226.7,452,238z"/>
	<path fill="#972F76" d="M898.3,203.5c-2.1,0.8-4.2,1.5-6.2,2.3c-2-1.2-4.1-2.4-6.1-3.6c0-0.4,0-0.7-0.1-1.1
		C890,201.9,894.1,202.7,898.3,203.5z"/>
	<path fill="#972F76" d="M870.9,217.4c-2.3,0.8-4.6,1.6-6.9,2.4c-1.9,0.4-3.8,0.9-5.7,1.3c-0.7-0.7-1.4-1.5-2.2-2.2
		C861,218.4,866,217.9,870.9,217.4z"/>
	<path fill="#972F76" d="M807.9,254.1c5.4,0.7,10.9,1.4,16.3,2.1C817.8,259,812.3,258.4,807.9,254.1z"/>
	<path fill="#972F76" d="M921.1,253c-0.4-1.7-1-3.4-1-5.1c0.2-8,0.6-15.9,0.9-23.9C921,233.7,921,243.3,921.1,253z"/>
	<path fill="#972F76" d="M1064,256c0-9.4,0.1-18.8,0.1-28.3C1064,237.2,1064,246.6,1064,256z"/>
	<path fill="#972F76" d="M1023.6,256.2c1.2-0.9,2.4-1.8,3.6-2.7c0.6,0.2,1.2,0.5,1.8,0.7c0,0.3,0.1,0.5,0.1,0.8
		c2.6,0.3,5.3,0.7,7.9,1c0.2,0.2,0.3,0.3,0.4,0.5C1032.7,258.5,1028.1,258.6,1023.6,256.2z"/>
	<path fill="#972F76" d="M1036.1,254.2c2.8-1.9,5.7-3.7,9.3-6.1c-1.4,4.6-4.1,7-8,8.4c-0.1-0.2-0.3-0.4-0.4-0.5
		c-0.3-0.3-0.6-0.7-1-1C1036,254.7,1036.1,254.5,1036.1,254.2z"/>
	<path fill="#972F76" d="M495.6,238c-0.5-4.3-1.1-8.6-1.6-13C494.5,229.3,495.1,233.6,495.6,238z"/>
	<path fill="#972F76" d="M959,252.9c0-1.2-0.3-2.5,0.1-3.5c1.5-3.6,0.7-6.4-2.6-8.6c-0.8-0.5-1-2-1.5-3
		C961.7,241.4,963,246.4,959,252.9z"/>
	<path fill="#548D8B" d="M936.2,186.2c-0.1-0.7-0.1-1.4-0.2-2.1c2.3-1.7,4.5-3.5,6.8-5.2c0.4,0.4,0.7,0.8,1.1,1.3
		C941.3,182.2,938.7,184.2,936.2,186.2z"/>
	<path fill="#972F76" d="M717.9,255.8c-0.3-0.6-0.7-1.2-1-1.8c2.3-1.9,4.6-3.8,6.9-5.8c0.4,0.5,0.9,1,1.3,1.5
		C722.7,251.7,720.3,253.8,717.9,255.8z"/>
	<path fill="#548D8B" d="M961.2,149.9c-2.5,0.1-5,0.1-7.5,0.2c-1.6-0.3-3.3-0.7-4.9-1c0.1-0.6,0.2-1.2,0.4-1.8
		C953.2,148.2,957.2,149,961.2,149.9z"/>
	<path fill="#548D8B" d="M529.6,186.1c0.9-1.6,2-3.1,2.5-4.8c0.8-2.4,1.1-4.8,1.7-7.3c0,4.1,0,8.2,0,13.1
		C532.2,186.7,530.9,186.4,529.6,186.1z"/>
	<path fill="#972F76" d="M656.1,219.8c-2.7,0.1-5.5,0.2-8.2,0.3c-1.6-0.4-3.1-0.9-4.7-1.3c0.1-0.5,0.2-1,0.3-1.5
		C647.8,218.1,651.9,218.9,656.1,219.8z"/>
	<path fill="#AA1D81" d="M771,202c-2.7,2.9-9.3,2.9-11.9,0c0.7,0,1.4,0,2.1,0c3,0,6,0,9,0C770.4,201.8,770.7,201.8,771,202z"/>
	<path fill="#548D8B" d="M388.1,182.2c-0.3-3.8-0.6-7.5-0.8-11.3C390.5,174.4,390.8,178.2,388.1,182.2z"/>
	<path fill="#972F76" d="M450,258c2.1,0,4.1-0.1,6.2-0.1c1.3,0.6,2.5,1.2,3.8,1.8c-0.2,0.5-0.3,1.1-0.5,1.6
		C456.3,260.2,453.2,259.1,450,258z"/>
	<path fill="#972F76" d="M794.5,217c-1.5-3.4-3-6.8-4.5-10.1C791.5,210.3,793,213.7,794.5,217z"/>
	<path fill="#972F76" d="M402,212.8c0.2-0.4,0.3-0.9,0.5-1.3c0.5-0.1,1-0.2,1.5-0.3c0.6,3.1,1.2,6.2,1.8,9.3
		C404.6,217.9,403.3,215.4,402,212.8z"/>
	<path fill="#A3247E" d="M699,246c0.7,0,1.4,0,2,0c0.7,1.3,1.3,2.7,2,4c-0.3,0-0.7,0-1,0c-1,0.3-2,0.7-3,1c-0.7-0.3-1.3-0.7-2-1
		c0.6-0.2,1.2-0.4,1.7-0.6C698.8,248.1,698.9,247.1,699,246z"/>
	<path fill="#AA1D81" d="M707.1,220.1c-1.4-0.6-2.8-1.2-4.1-1.9c0.3-0.2,0.6-0.3,0.9-0.2c2.6,1.1,6.4-2.2,8.1,2.3
		C710.3,220.2,708.7,220.1,707.1,220.1z"/>
	<path fill="#AA1D81" d="M616,218c-3,3.6-6,2.7-9,0C610,218,613,218,616,218z"/>
	<path fill="#AA1D81" d="M529.9,249c-2,0.3-4.1,1-6.1,0.9c-1.3,0-2.5-1.1-3.8-1.8C523.3,248.4,526.6,248.7,529.9,249z"/>
	<path fill="#972F76" d="M603.9,228.8c-0.1,4.3-2.4,7.2-5.9,9.2C600,234.9,602,231.9,603.9,228.8z"/>
	<path fill="#972F76" d="M629.9,253.9c1,0.7,2,1.5,3,2.3c1.4-0.8,2.7-1.5,3.9-2.2c0,0.8,0,1.6,0,2.7c-2.2,0-4.2,0-6.7,0
		C630,256,630,254.9,629.9,253.9z"/>
	<path fill="#972F76" d="M1107.2,235.8c-3.5,0.5-6.6,0-8.2-3.8C1101.7,233.3,1104.4,234.6,1107.2,235.8z"/>
	<path fill="#A32A80" d="M950.7,253.9c0.8,0.1,1.6,0.2,2.4,0.3c0,0.5-0.1,1-0.1,1.5c-4-0.4-7.9-0.9-11.9-1.3
		C944.2,254.1,947.4,254,950.7,253.9z"/>
	<path fill="#972F76" d="M914.2,254c1.4,0.6,2.9,1.1,4.7,1.9c0.6-0.5,1.4-1.2,2.2-1.9c0,0.8,0,1.6,0,2.7c-2.2,0-4.3,0-6.9,0
		C914.2,255.8,914.2,254.9,914.2,254z"/>
	<path fill="#A32A80" d="M607,237c-0.4-1.4-0.8-2.7-1.3-4.5c1.9-0.2,3.1-0.3,4.3-0.4C609.1,233.7,608,235.4,607,237z"/>
	<path fill="#972F76" d="M406.5,205.3c-1.8-1.1-3.7-2.3-5.5-3.4c1.2,0,2.5,0,4,0C405.5,203.1,406,204.2,406.5,205.3z"/>
	<path fill="#548D8B" d="M1172,148.1c-0.1,1.1-0.1,2.2-0.2,3.3c-1.8-0.9-3.6-1.8-6.6-3.3C1168.2,148.1,1170.1,148.1,1172,148.1z"/>
	<path fill="#5D9796" d="M533.2,157.9c-1-2.1-2-4.3-3-6.4C531.2,153.6,532.2,155.8,533.2,157.9z"/>
	<path fill="#972F76" d="M508.7,221.7c-0.9,2.1-1.7,4.2-2.6,6.3C507,225.9,507.9,223.8,508.7,221.7z"/>
	<path fill="#972F76" d="M492.6,221.8c-1.5-0.3-3-0.5-4.5-0.8c0,0-0.1-0.1-0.1-0.1c0-0.9-0.1-1.9-0.1-2.8c0,0,0,0,0,0
		C489.4,219.4,491,220.6,492.6,221.8z"/>
	<path fill="#972F76" d="M1061,256c1,0,2,0,3,0c-2.1,0.5-4.2,0.9-6.9,1.5c0-1.7,0-2.6,0-3.5C1058.4,254.6,1059.7,255.3,1061,256z"/>
	<path fill="#972F76" d="M629,218.1c-0.4,0.7-0.9,1.4-1.3,2.1c-1.8-0.5-3.5-1-5.3-1.6c0-0.3,0.1-0.6,0.1-0.9
		C624.6,217.9,626.8,218,629,218.1z"/>
	<path fill="#5D9796" d="M1188,150.8c0.7-1,1.5-2,2.9-4c0.6,2.3,0.9,3.2,1.1,4.2C1190.7,150.9,1189.3,150.9,1188,150.8z"/>
	<path fill="#A3247E" d="M1038,221c0.8-0.4,1.5-0.7,2.3-1.1c0.7,0.7,1.4,1.3,2.1,2c-0.4,0.6-0.9,1.1-1.4,1.8
		C1040,222.8,1039,221.9,1038,221z"/>
	<path fill="#972F76" d="M397.2,206c0,3.3,0,6.7,0,10C397.2,212.6,397.2,209.3,397.2,206z"/>
	<path fill="#A3247E" d="M680,223c0.3,0,0.5,0,0.8,0c0.4,1.3,0.8,2.6,1.2,3.9c0,0.4-0.1,0.7-0.1,1.1
		C681.3,226.3,680.6,224.7,680,223z"/>
	<path fill="#548D8B" d="M432,158c-0.9-1.4-1.8-2.9-2.7-4.3C430.3,155.1,431.1,156.6,432,158z"/>
	<path fill="#548D8B" d="M1196,154c2.5,0.9,3.8,2.3,2.1,5C1197.3,157.3,1196.7,155.7,1196,154z"/>
	<path fill="#972F76" d="M770.1,202c-3,0-6,0-9,0C764.1,202,767.1,202,770.1,202z"/>
	<path fill="#972F76" d="M1111.8,238.1c-1.6-0.8-3.1-1.5-4.7-2.3C1108.7,236.5,1110.3,237.3,1111.8,238.1z"/>
	<path fill="#548D8B" d="M384.3,168.6c-1.4-0.8-2.9-1.6-4.3-2.4C381.4,167,382.9,167.8,384.3,168.6z"/>
	<path fill="#972F76" d="M603.7,242.3c0.9-1.4,1.7-2.8,2.6-4.3C605.4,239.5,604.5,240.9,603.7,242.3z"/>
	<path fill="#972F76" d="M789,206c-1.3-0.7-2.6-1.4-3.9-2.2C786.4,204.6,787.7,205.3,789,206z"/>
	<path fill="#B44594" d="M1036.1,254.2c0,0.3,0,0.5-0.1,0.8c-2.3,0-4.6,0-7-0.1c0-0.3-0.1-0.5-0.1-0.8
		C1031.3,254.2,1033.7,254.2,1036.1,254.2z"/>
	<path fill="#548D8B" d="M120.2,81.2c0-1.9-0.8-4.4,2.8-3.2C122,79,121.1,80.1,120.2,81.2z"/>
	<path fill="#972F76" d="M697,250c0.7,0.3,1.3,0.7,2,1c0.4,1,0.7,2,1.1,3c-0.1,0.1-0.2,0.3-0.3,0.4c-1.3-1.4-2.6-2.9-3.8-4.3
		C696.3,250,696.6,250,697,250z"/>
	<path fill="#A3247E" d="M682.8,234c-0.6,0-1.2,0-1.8,0c0.3-1.3,0.6-2.7,1-4c0.3,0.7,0.5,1.3,0.8,2
		C682.8,232.6,682.8,233.3,682.8,234z"/>
	<path fill="#972F76" d="M530.2,240.3c1.3-0.8,2.6-1.5,3.9-2.3C532.8,238.8,531.5,239.6,530.2,240.3z"/>
	<path fill="#972F76" d="M945,240c1.3,0.7,2.7,1.3,4,2C947.7,241.3,946.3,240.7,945,240z"/>
	<path fill="#972F76" d="M409.3,211.9c-0.7-1.7-1.5-3.3-2.2-5C407.9,208.5,408.6,210.2,409.3,211.9z"/>
	<path fill="#972F76" d="M912,218c0,0.7,0,1.4-0.1,2.1c-0.3-0.1-0.7-0.3-1-0.4c-0.3-0.2-0.7-0.4-1-0.6c-0.9,0-1.7,0-2.6,0
		c0-0.4,0-0.7,0-1.1C908.9,218,910.4,218,912,218z"/>
	<path fill="#92ACC7" d="M214.2,93.9c-1.1-0.6-2.1-1.2-3.2-1.7C212,92.7,213.1,93.3,214.2,93.9z"/>
	<path fill="#972F76" d="M875.2,219.8c-1.1-0.6-2.1-1.2-3.2-1.8c0.4,0.1,0.7,0.2,1.1,0.3c0.1,0.4,0.4,0.5,0.7,0.4
		C874.3,219.1,874.7,219.5,875.2,219.8z"/>
	<path fill="#972F76" d="M600.1,247.6c0.7-1.1,1.4-2.2,2.2-3.3C601.6,245.4,600.9,246.5,600.1,247.6z"/>
	<path fill="#972F76" d="M1020,254c1,0,2,0,3,0c0,0.7,0,1.3,0,2C1022,255.3,1021,254.7,1020,254z"/>
	<path fill="#972F76" d="M682.8,232c-0.3-0.7-0.5-1.3-0.8-2c0-0.7-0.1-1.3-0.1-2c0-0.4,0.1-0.7,0.1-1.1
		C682.3,228.6,682.5,230.3,682.8,232z"/>
	<path fill="#972F76" d="M935.8,219.7c-0.7,0.7-1.3,1.4-2,2.1C934.4,221.1,935.1,220.4,935.8,219.7z"/>
	<path fill="#972F76" d="M877.4,221.9c-0.7-0.7-1.5-1.4-2.2-2.1C875.9,220.5,876.6,221.2,877.4,221.9z"/>
	<path fill="#972F76" d="M399.1,201.9c-0.6,0.7-1.3,1.4-1.9,2.1c0-0.6,0-1.2,0-2C397.9,202,398.5,202,399.1,201.9z"/>
	<path fill="#972F76" d="M899.6,206c-0.4-0.8-0.8-1.5-1.3-2.3C898.8,204.5,899.2,205.2,899.6,206z"/>
	<path fill="#76A7A8" d="M53,120.9c1.3,0,2.6,0.1,3.9,0.1C55.7,121,54.4,120.9,53,120.9z"/>
	<path fill="#A3247E" d="M452.2,245.9c-0.4,0-0.8,0-1.2,0c0.3-1.3,0.7-2.7,1-4C452.1,243.3,452.1,244.6,452.2,245.9z"/>
	<path fill="#548D8B" d="M402.3,153.6c0.1,0.6,0.3,1.1,0.5,1.9c-0.9,0.2-1.5,0.3-2.1,0.4C401.2,155.1,401.7,154.4,402.3,153.6z"/>
	<path fill="#972F76" d="M611.8,229.4c0.4-0.8,0.9-1.5,1.3-2.3C612.7,227.9,612.2,228.6,611.8,229.4z"/>
	<path fill="#6A8FB3" d="M213.9,47.7c-0.6,0.8-1.2,1.5-1.8,2.3C212.7,49.2,213.3,48.5,213.9,47.7z"/>
	<path fill="#AA1D81" d="M982,221.8c0.7-0.5,1.5-1.1,2.2-1.6c-0.1,0.2-0.2,0.5-0.2,0.7C983.3,221.2,982.6,221.5,982,221.8z"/>
	<path fill="#76A7A8" d="M136.6,89.9c-1.2,0-2.4,0-3.6,0C134.1,89.9,135.3,89.9,136.6,89.9z"/>
	<path fill="#972F76" d="M949.5,242.1c0.9,0.6,1.7,1.2,2.6,1.8C951.2,243.3,950.3,242.7,949.5,242.1z"/>
	<path fill="#972F76" d="M450,256c-0.4,0.3-0.7,0.7-1.1,1c-0.3-0.4-0.6-0.7-0.9-1.1C448.7,256,449.3,256,450,256z"/>
	<path fill="#972F76" d="M550,254.9c0.5-0.2,0.9-0.4,1.6-0.8c0.1,0.9,0.2,1.5,0.3,2.1C551.3,255.7,550.6,255.3,550,254.9z"/>
	<path fill="#972F76" d="M605.8,225.8c-0.5,0.7-1.1,1.5-1.6,2.2C604.8,227.3,605.3,226.5,605.8,225.8z"/>
	<path fill="#C168A7" d="M984,220.9c0-0.3,0.1-0.5,0.2-0.7c0.9-0.1,1.9-0.3,2.8-0.4c0.1,0.1,0.2,0.3,0.2,0.5
		C986.1,220.5,985,220.7,984,220.9z"/>
	<path fill="#548D8B" d="M933.1,187.4c1-0.4,2-0.8,3.1-1.2C935.1,186.6,934.1,187,933.1,187.4z"/>
	<path fill="#D08BBC" d="M148.9,229c0.3,1.1,0.7,2.2,1,3.3C149.6,231.2,149.3,230.1,148.9,229z"/>
	<path fill="#972F76" d="M1020.9,219.9c-0.8,0.7-1.5,1.3-2.3,2C1019.4,221.2,1020.1,220.5,1020.9,219.9z"/>
	<path fill="#972F76" d="M610.1,232.1c0.5-0.8,1-1.6,1.5-2.4C611.1,230.5,610.6,231.3,610.1,232.1z"/>
	<path fill="#972F76" d="M602.2,244.2c0.4-0.6,0.8-1.1,1.3-1.7C603.1,243.1,602.7,243.7,602.2,244.2z"/>
	<path fill="#972F76" d="M628.9,222c0.1,0.6,0.3,1.3,0.4,1.9C629.2,223.3,629.1,222.7,628.9,222z"/>
	<path fill="#699F9F" d="M1002.5,182.3c0.5,0.5,1,1.1,1.6,1.6C1003.5,183.4,1003,182.8,1002.5,182.3z"/>
	<path fill="#972F76" d="M607,224c-0.4,0.6-0.8,1.3-1.2,1.9C606.2,225.3,606.6,224.6,607,224z"/>
	<path fill="#548D8B" d="M429.4,153.7c-0.5-0.5-0.9-1.1-1.4-1.6C428.4,152.6,428.9,153.2,429.4,153.7z"/>
	<path fill="#548D8B" d="M404,151.9c-0.5,0.5-1,1-1.5,1.4C403,152.9,403.5,152.4,404,151.9z"/>
	<path fill="#4D8B89" d="M808.1,132.9c-0.2,0.2-0.4,0.3-0.7,0.6c-0.1-0.5-0.2-0.9-0.3-1.3C807.4,132.4,807.7,132.6,808.1,132.9z"/>
	<path fill="#548D8B" d="M804,132.2c-0.7,0.3-1.4,0.5-2.1,0.8C802.5,132.7,803.3,132.5,804,132.2z"/>
	<path fill="#A32A80" d="M808.4,218.9c-0.8-0.3-1.6-0.5-2.4-0.8C806.8,218.3,807.6,218.6,808.4,218.9z"/>
	<path fill="#972F76" d="M892.1,206c0.4,0.1,0.7,0.3,1.4,0.5c-0.5,0.3-0.8,0.5-1.1,0.7C892.3,206.8,892.2,206.4,892.1,206z"/>
	<path fill="#972F76" d="M410.3,213.8c-0.4-0.7-0.7-1.4-1.1-2.1C409.6,212.5,410,213.2,410.3,213.8z"/>
	<path fill="#A3247E" d="M909.9,219.1c0.3,0.2,0.7,0.4,1,0.6C910.6,219.5,910.3,219.3,909.9,219.1z"/>
	<path fill="#972F76" d="M407.2,206.9c-0.2-0.4-0.4-0.8-0.7-1.3C406.7,206.1,407,206.5,407.2,206.9z"/>
	<path fill="#A3247E" d="M873.8,218.7c-0.4,0.1-0.6,0-0.7-0.4C873.4,218.2,873.7,218.3,873.8,218.7z"/>
	<path fill="#548D8B" d="M387.1,183.5c0.3-0.5,0.7-1,1-1.5C387.8,182.6,387.5,183,387.1,183.5z"/>
	<path fill="#6A8FB3" d="M211.9,50.5c-0.3,0.5-0.6,1-1,1.5C211.3,51.5,211.6,51,211.9,50.5z"/>
	<path fill="#972F76" d="M493.1,222.5C493.1,222.5,493.1,222.6,493.1,222.5C493.1,222.6,493.1,222.5,493.1,222.5z"/>
	<path fill="#49749E" d="M208.9,70c0.2,0.1,0.4,0.3,0.6,0.4c-0.1,0.2-0.3,0.4-0.4,0.6C209,70.6,209,70.3,208.9,70z"/>
	<path fill="#972F76" d="M536.5,269.7c-0.3,0.2-0.6,0.5-1,0.7c-0.2-0.2-0.4-0.3-0.5-0.5c0.3-0.3,0.7-0.7,1-1
		C536.2,269.2,536.4,269.5,536.5,269.7z"/>
	<path fill="#6A8FB3" d="M264.1,127.2c0.3-0.4,0.7-0.7,1-1.1C264.8,126.5,264.5,126.9,264.1,127.2z"/>
	<path fill="#49749E" d="M260.1,131.2c0.4-0.5,0.8-0.9,1.2-1.4C260.8,130.3,260.5,130.7,260.1,131.2z"/>
	<path fill="#BB569E" d="M881.1,246.1c0.1-0.4,0.2-0.7,0.4-1.1C881.3,245.4,881.2,245.7,881.1,246.1z"/>
	<path fill="#972F76" d="M696.1,224c0.1,0.2,0.2,0.4,0.4,0.6c-0.3,0.1-0.5,0.1-0.8,0.1C695.7,224.5,695.8,224.2,696.1,224z"/>
	<path fill="#972F76" d="M607.9,222.7c-0.3,0.4-0.6,0.9-0.9,1.3C607.3,223.5,607.6,223.1,607.9,222.7z"/>
	<path fill="#49749E" d="M205,90.2c-0.3-0.1-0.6-0.2-1-0.2C204.3,90,204.6,90.1,205,90.2z"/>
	<path fill="#548D8B" d="M385.6,169.8c-0.5-0.4-1-0.8-1.4-1.1C384.7,169.1,385.2,169.4,385.6,169.8z"/>
	<path fill="#5D9796" d="M61,87.9c-0.2,0.2-0.4,0.4-0.6,0.6c-0.2-0.2-0.3-0.5-0.5-0.7C60.3,87.8,60.7,87.9,61,87.9z"/>
	<path fill="#5D9796" d="M56,89c0.4,0.5,0.7,1,0.4,0.5c-3.5,2.6-6.8,5.2-10.2,7.7c-2.1,1.6-4.2,3.2-6.4,4.6
		c-1.9,1.3-4.1,2.1-5.7,3.6c-3.8,4-7.4,8.3-11,12.4c-0.1-2.6-0.1-5.2-0.2-7.9c0.1-2.7,0.1-5.4,0.2-8.1c2.1-1.3,4.2-2.4,6.1-3.9
		c1.5-1.2,2.5-3.3,4.1-3.9c3.1-1.2,3.8-3.3,3.7-6.2C43.4,88.3,49.7,88.6,56,89z"/>
	<path fill="#548D8B" d="M37,88c0.1,2.9-0.6,5-3.7,6.2c-1.6,0.7-2.6,2.8-4.1,3.9c-1.9,1.5-4.1,2.6-6.1,3.9c0-3.3-0.1-6.6-0.1-10
		c0.6-1.3,1.2-2.5,1.9-4C29,88,33,88,37,88z"/>
	<path fill="#A9BED3" d="M217,167c0-4.8,0.3-9.6-0.2-14.4c-0.6-5.1-1.9-10.1-3-15.2c10.2-5.2,20.7-9,32.4-8.6
		c1.3,4.1,2.6,8.1,3.8,12.2c-11.1-3-21.1,0-31.5,6.5c-0.2,4-0.3,8.9-0.7,13.8C217.8,163.2,217.4,165.1,217,167z"/>
	<path fill="#C979B3" d="M212,175.2c1,0,2.1,0,3.1,0c0.3,0.3,0.6,0.5,0.9,0.8c0,9,0.1,18,0.1,27c-7.2-2.7-8.1-9.8-11-15.5
		c-1.2-2.4-2.4-4.8-3.6-7.2c0.2-0.1,1-0.3,1.9-0.7c-0.9-0.4-1.6-0.6-1.6-0.6C204.9,177.8,208.4,176.5,212,175.2z"/>
	<path fill="#C168A7" d="M215.9,176c-0.3-0.3-0.6-0.5-0.9-0.8c0.3-0.1,0.6-0.2,0.9-0.2C216,175.3,216,175.7,215.9,176z"/>
	<path fill="#A9BED3" d="M217,174c0-0.3,0-0.7,0-1c0.1,0.2,0.3,0.5,0.3,0.7C217.4,173.8,217.1,173.9,217,174z"/>
	<path fill="#9DC2C3" d="M117.8,141.9c0.1,0.7,0.1,1.4,0.2,2.1c-0.6-0.7-1.3-1.3-1.9-2c0,0,0,0,0,0C116.6,142,117.2,142,117.8,141.9
		z"/>
	<path fill="#B44594" d="M133.4,179.6c-4.2,0-8.3,0-12.9,0c0-1.1,0-2.1,0-3.8c4.5,1,8.7,1.9,12.9,2.8
		C133.4,179,133.4,179.3,133.4,179.6z"/>
	<path fill="#C168A7" d="M170.1,199.9c0.4,0.7,0.8,1.3,1.2,2C170.8,201.2,170.5,200.6,170.1,199.9z"/>
	<path fill="#789ABB" d="M210,73c0.1-0.3,0.3-0.5,0.6-0.7C210.5,72.6,210.3,72.8,210,73z"/>
	<path fill="#4D8B89" d="M1072.3,153.8c0,9.9,0,19.8,0,29.8c-0.9,0-1.8,0-3.3,0c0-10.1,0-20,0-30.1
		C1069.7,153.6,1071,153.7,1072.3,153.8C1072.2,153.7,1072.3,153.8,1072.3,153.8z"/>
	<path fill="#4D8B89" d="M1064.2,147.8c-0.6,0.8-1.2,1.5-1.8,2.3c-0.3-0.4-0.7-0.9-1-1.3C1062.3,148.4,1063.2,148.1,1064.2,147.8
		c0,0-0.2,0.2-0.2,0.2L1064.2,147.8z"/>
	<path fill="#548D8B" d="M408.5,154.1c-0.1,0.3-0.3,0.6-0.5,0.8C408.1,154.6,408.2,154.3,408.5,154.1z"/>
	<path fill="#B6CFD1" d="M117.8,141.9c-0.6,0-1.2,0-1.8,0.1c0.4-0.7,0.7-1.4,1.1-2.1C117.3,140.6,117.5,141.3,117.8,141.9z"/>
	<path fill="#84A3C1" d="M209.8,132.1c-1.6-1.6-3.2-3.2-4.9-4.8c-0.9-1.8-1.7-3.5-2.7-5.5c9.2-3.9,18.2-7.7,27.3-11.5
		c1.7-0.7,3.5-0.9,5.3-1.3c2.1,3,4.2,5.9,6.3,8.9c-1.9-0.2-3.9-0.4-4.4-0.4c-9.8,3.3-18.4,6.3-27.4,9.3
		C209.5,128.5,209.7,130.3,209.8,132.1z"/>
	<path fill="#76A7A8" d="M82,101C82.4,101.1,82.9,101.2,82,101C82.7,101.5,82.4,101.3,82,101C82,101,82,101,82,101z"/>
	<path fill="#972F76" d="M856.1,250.5c0.4,0.5,0.7,0.9,1.1,1.4C856.9,251.4,856.5,251,856.1,250.5z"/>
	<path fill="#A32A80" d="M174.8,189.8c1.7-1.3,3.4-2.6,5.1-4C179.6,188.9,177.9,190.3,174.8,189.8z"/>
	<path fill="#A32A80" d="M179.9,185.9c0.4-0.3,0.7-0.6,1.1-0.9c0.1,0.3,0.2,0.5,0.2,0.8C180.8,185.9,180.3,185.9,179.9,185.9z"/>
	<path fill="#A32A80" d="M182,207c0.1-0.1,0.2-0.3,0.2-0.4C182.2,206.7,182.1,206.9,182,207C182,207,182,207,182,207z"/>
	<path fill="#92ACC7" d="M209.8,132.1c-0.2-1.8-0.4-3.6-0.5-5.3c8.9-3,17.5-6,27.4-9.3c0.5,0,2.5,0.2,4.4,0.4
		c1.7,3.6,3.4,7.2,5.2,10.9c-11.7-0.4-22.2,3.4-32.4,8.6C212.5,135.6,211.2,133.9,209.8,132.1z"/>
	<path fill="#BB569E" d="M156.2,187.7c0.6,0.3,1.3,0.7,1.9,1c-0.5,0.3-0.9,0.7-1.8,1.3C156.3,188.9,156.3,188.3,156.2,187.7z"/>
	<path fill="#AA1D81" d="M414.1,237.9c0-2.5,0-5.1,0-7.6c0.6-0.1,1.3-0.3,1.9-0.4c0.7,1.6,1.2,3.2,2,4.7c1.9,3.2,3.9,6.4,5.9,9.5
		c0.7,1.2,1.4,2.4,2.4,4.3c-1.6,0.7-2.9,1.3-3.8,1.7C418.1,246.7,420.3,239.5,414.1,237.9z"/>
	<path fill="#789ABB" d="M276.4,119.5c-0.2,0-0.5,0-0.7-0.1C275.9,119.5,276.1,119.5,276.4,119.5z"/>
	<path fill="#AA1D81" d="M971.8,204.5c9,3.7,1.2,11.9,6,16.7c-2.5,11.2,1.1,23.1-2,34.4c-0.6,0-1.2,0.1-1.8,0.1
		c-0.3-1.7-0.9-3.5-0.9-5.2c-0.1-10.7,0.1-21.3-0.1-32C972.9,213.8,972.2,209.2,971.8,204.5z"/>
	<path fill="#AA1D81" d="M999.3,223.2c4.8,10,0.3,20.3,1.6,30.5c-0.5,0.1-1.1,0.2-1.6,0.3c-0.4-0.7-1.2-1.5-1.2-2.2
		c0-7.1,0.3-14.3,0.2-21.4c0-2.3-0.6-4.7-0.9-7C998,223.3,998.7,223.2,999.3,223.2z"/>
	<path fill="#4D8B89" d="M581.3,183.5c-1.7,0.1-2.6,0.2-3.7,0.3c0-9.1,0-17.9,0-26.7c0.6,0,1.2-0.1,1.8-0.1
		C583,165.3,579.9,174.2,581.3,183.5z"/>
	<path fill="#AA1D81" d="M681.9,228c0,0.7,0.1,1.3,0.1,2c-0.3,1.3-0.6,2.7-1,4c0,1.3,0,2.7,0,4c0,5.3,0,10.6,0,16
		c-0.6,0.5-1.2,1.1-2.4,2.1c-4.9-11.1,2.5-22.7-3.5-34.3c2.6,0.7,3.7,0.9,4.9,1.2C680.6,224.7,681.3,226.3,681.9,228z"/>
	<path fill="#A3247E" d="M681,254c0-5.3,0-10.6,0-16C681,243.3,681,248.7,681,254z"/>
	<path fill="#A3247E" d="M1098,236c0.7,0.6,1.4,1.3,2,1.9C1099.3,237.3,1098.7,236.7,1098,236z"/>
	<path fill="#972F76" d="M782.9,208.2c-1-0.7-2-1.4-3-2.1C780.9,206.8,781.9,207.5,782.9,208.2z"/>
	<path fill="#972F76" d="M510.9,258c0,2,0.1,4,0.1,6C508.7,262,507.3,260.1,510.9,258z"/>
	<path fill="#972F76" d="M512.8,254c-0.6,1-1.1,2-1.7,3.1C511.7,256,512.3,255,512.8,254z"/>
	<path fill="#AA1D81" d="M530.8,254.1c-0.4-0.3-0.8-0.6-1.2-0.9c2.1-0.3,4.2-0.7,6.3-1c3,5.6,2.8,11.2,0.1,16.9
		c-0.3,0.3-0.7,0.7-1,1c-3-2.7-0.5-5.8-0.6-8.6C534.3,258.3,536,254.5,530.8,254.1z"/>
	<path fill="#A32A80" d="M514.1,224c-0.2,2.7-0.5,5.4-0.7,8.1C511.5,229.2,510.6,226.4,514.1,224z"/>
	<path fill="#A32A80" d="M513.3,232.4c0.3,0.8,0.6,1.7,0.9,2.5c-0.5-0.1-0.9-0.1-1.8-0.2C512.8,233.8,513,233.1,513.3,232.4z"/>
	<path fill="#A32A80" d="M514.1,234.8c0.3,0.4,0.6,0.8,0.8,1.2C514.7,235.6,514.4,235.2,514.1,234.8z"/>
	<path fill="#A32A80" d="M487.9,218.1c0,0.9,0.1,1.9,0.1,2.8c-1.5-0.5-3-1.1-4.5-1.6c0-0.3,0-0.7,0-1
		C484.9,218.3,486.4,218.2,487.9,218.1z"/>
	<path fill="#A3247E" d="M713.9,235.3c0.7,0,1.4,0,2,0c-1.2,0.9-2.4,2.4-3.6,2.5c-4.1,0.3-8.2,0.1-12.4,0.1c0-0.6,0-1.3,0-1.9
		C704.6,235.8,709.3,235.5,713.9,235.3z"/>
	<path fill="#A3247E" d="M699,238c0,1.3,0,2.7-0.1,4C696.2,240.6,696.2,239.3,699,238z"/>
	<path fill="#A3247E" d="M1036.9,224.1c-2-1.4-3.9-2.8-5.9-4.3c2,0.4,4,0.7,6,1.1C1037,222,1036.9,223.1,1036.9,224.1z"/>
	<path fill="#AA1D81" d="M700.1,254c-0.4-1-0.7-2-1.1-3c1-0.3,2-0.7,3-1c0,0.7,0,1.3,0,2c0,0.7,0,1.3,0,2
		C701.3,254,700.7,254,700.1,254z"/>
	<path fill="#A3247E" d="M702,254c0-0.7,0-1.3,0-2C702,252.7,702,253.3,702,254z"/>
	<path fill="#AA1D81" d="M632,212c-0.7-1.6-1.3-3.2-2.2-5.4c1.6-0.1,2.7-0.2,5.1-0.4C633.6,208.8,632.8,210.4,632,212
		C632,212,632,212,632,212z"/>
	<path fill="#A3247E" d="M1029,254.9c2.3,0,4.6,0,7,0.1c0.3,0.3,0.6,0.7,1,1C1034.3,255.6,1031.7,255.3,1029,254.9z"/>
	<path fill="#B44594" d="M192.2,159.2c-2.4,8.4-7.3,14.3-15.9,16.8c-0.2,0-0.4,0-0.5-0.1c1-0.8,2.1-1.5,3-2.4
		c2.5-2.8,4.8-5.7,7.2-8.6c0.5-0.3,1.1-0.7,1.6-1c-0.2-0.2-0.4-0.4-0.6-0.6c-0.3,0.5-0.7,1.1-1,1.6c-11.1,0.8-22.2,2.8-33.4-1.3
		c-0.2,1.9-0.4,3.1-0.6,4.4c-0.3,0-0.7-0.1-1-0.1c-1-0.6-2-1.3-3-1.9c-1.6-1.4-3.3-2.7-4.9-4.1c0,0,0-0.1,0-0.1
		c-0.2-0.1-0.3-0.3-0.3-0.5c-2.8-6-2.6-12.1-0.5-18.3c0.3,0.6,0.5,1.2,0.8,1.9c0,2.9,0,5.8,0,8.7c0.4-0.4,0.7-0.8,1.1-1.3
		c14.2,7.4,29.5,5.2,44.4,5.9c-0.6-0.7-1.3-1.3-1.9-2c1.8-0.8,3.6-1.6,5.5-2.4C192.1,155.7,192.1,157.5,192.2,159.2z"/>
	<path fill="#C168A7" d="M143,145c-0.3-0.6-0.5-1.3-0.8-1.9c1.6-2.7,3.2-5.4,4.8-8.2c5.4,7.8,25.6,9.1,34.4,5.3
		c2.5,0.3,4.5,0.5,6.6,0.7c0.1,0.1,0.3,0.2,0.4,0.2c-0.1-0.1-0.3-0.2-0.4-0.2c0-1.5,0.1-3,0.1-4.5c5.6,6.8,7,14.4,4.1,22.7
		c0-1.8-0.1-3.5-0.1-5.3c0-1.8,0-3.5,0-5.5c-4.1,0.6-7.5,1.2-11,1.6c-3.9,0.4-7.9,0.8-11.8,0.9C160.1,150.8,151.6,147.7,143,145z"/>
	<path fill="#C979B3" d="M188,141c-2-0.2-4-0.4-6.6-0.7c-8.8,3.8-29,2.4-34.4-5.3c2-1.7,4-3.5,6-5.2c2.1,1.1,4.2,2.4,6.4,3.4
		c7,3,14.3,4.1,21.8,1.9c1.2-0.3,2-1.7,3-2.6c1.3,1.3,2.6,2.7,3.9,4C188.1,138,188,139.5,188,141L188,141z"/>
	<path fill="#D08BBC" d="M184.2,132.5c-1,0.9-1.9,2.2-3,2.6c-7.5,2.1-14.7,1.1-21.8-1.9c-2.2-0.9-4.3-2.2-6.4-3.4
		c9.9-5.8,19.6-5.5,29.1,0.9c0.1,0.3,0.1,0.5,0.2,0.8c0.2-0.1,0.4-0.2,0.7-0.3C183.4,131.6,183.8,132,184.2,132.5z"/>
	<path fill="#972F76" d="M151,168c0.3,0,0.7,0.1,1,0.1c1.7,1.8,3.2,4.8,5.2,5.3c6.1,1.4,12.4,1.8,18.6,2.6c0.2,0.1,0.3,0.1,0.5,0.1
		c-8.2,3.5-15.9,2.5-23.3-2.3c-0.3-0.3-0.7-0.5-1-0.8c-3-3.7-5.9-7.3-8.9-11c1.6,1.4,3.3,2.7,4.9,4.1C149,166.7,150,167.4,151,168z"
		/>
	<path fill="#C979B3" d="M183,131.1c-0.2,0.1-0.4,0.2-0.7,0.3c-0.1-0.3-0.1-0.5-0.2-0.8C182.4,130.8,182.7,130.9,183,131.1z"/>
	<path fill="#972F76" d="M142.7,161.4c0,0.2,0.1,0.4,0.3,0.5C142.8,161.8,142.7,161.6,142.7,161.4z"/>
	<path fill="#A32A80" d="M152,173c0.3,0.3,0.7,0.5,1,0.8C152.6,173.5,152.3,173.3,152,173z"/>
	<path fill="#BB569E" d="M143,145c8.6,2.7,17.1,5.8,26.2,5.8c3.9,0,7.9-0.4,11.8-0.9c3.5-0.4,6.9-1,11-1.6c0,2,0,3.8,0,5.5
		c-1.8,0.8-3.6,1.6-5.5,2.4c0.6,0.7,1.3,1.3,1.9,2c-14.9-0.7-30.1,1.5-44.4-5.9c-0.4,0.4-0.7,0.8-1.1,1.3
		C143,150.8,143,147.9,143,145z"/>
	<path fill="#A32A80" d="M175.8,176c-6.2-0.8-12.5-1.2-18.6-2.6c-2-0.5-3.5-3.5-5.2-5.3c0.2-1.3,0.3-2.5,0.6-4.4
		c11.3,4,22.4,2,33.4,1.3l0,0c-2.4,2.9-4.8,5.8-7.2,8.6C177.9,174.5,176.8,175.2,175.8,176z"/>
	<path fill="#A32A80" d="M151,168c-1-0.6-2-1.3-3-1.9C149,166.7,150,167.4,151,168z"/>
	<path fill="#A32A80" d="M186,165c0.3-0.5,0.7-1.1,1-1.6c0.2,0.2,0.4,0.4,0.6,0.6C187.1,164.3,186.5,164.7,186,165
		C186,165,186,165,186,165z"/>
	<path fill="#C979B3" d="M188,141c0.1,0.1,0.3,0.2,0.4,0.2C188.3,141.2,188.1,141.1,188,141C188,141,188,141,188,141z"/>
</g>
</svg>
