<?xml version="1.0" encoding="utf-8"?>
<!-- Generator: Adobe Illustrator 18.0.0, SVG Export Plug-In . SVG Version: 6.00 Build 0)  -->
<!DOCTYPE svg PUBLIC "-//W3C//DTD SVG 1.1//EN" "http://www.w3.org/Graphics/SVG/1.1/DTD/svg11.dtd">
<svg version="1.1" id="Layer_2_xA0_Image_1_" xmlns="http://www.w3.org/2000/svg" xmlns:xlink="http://www.w3.org/1999/xlink"
	 x="0px" y="0px" viewBox="0 0 400 49.8" enable-background="new 0 0 400 49.8" xml:space="preserve">
<rect x="0" y="42.8" fill="#FFF987" width="400" height="7.1"/>
<g>
	<path fill="#D0B98F" d="M336.3,43.1c6.3,0,12.6,0,18.8,0c0.1-0.1,0.3-0.2,0.4-0.2c2.6,0,5.3,0,7.9,0c0.2,0,0.3,0,0.4,0.2
		c0,0,0,0.1,0,0.1c-9.1,0-18.2,0-27.3,0C336.6,43.2,336.4,43.3,336.3,43.1z"/>
	<g>
		<path fill="#FFF987" d="M386.6,20.5c0,7.4,0,14.8,0,22.3c0,0.3-0.1,0.4-0.4,0.4c-7.4,0-14.8,0-22.3,0c0,0,0-0.1,0-0.1
			c0.1-0.2,0.3-0.2,0.5-0.2c0.5,0,0.9,0,1.4,0c0.4,0,0.5-0.1,0.5-0.5c-0.1-1.5-0.4-3-0.8-4.4c-0.5-1.5-1.1-3-2.2-4.2
			c-0.6-0.6-1.4-1.1-2.3-1.2c-0.9-0.1-1.7,0.4-2.3,0.9c-0.9,0.8-1.5,1.9-2,3c-0.7,1.8-1.1,3.8-1.3,5.7c0,0.2-0.1,0.4-0.1,0.6
			c0,0.2-0.1,0.3-0.3,0.3c-6.1,0-12.2,0-18.3,0c-0.2,0-0.3,0-0.5,0c0-7.5,0-15,0-22.5c0.1-0.2,0.3-0.2,0.5-0.2c2,0,3.9,0,5.9,0
			c0.5,0,0.6,0.1,0.6,0.6c0,1.1,0,2.2,0,3.3c0,0.2,0,0.3,0,0.5c0,0.2,0.2,0.4,0.4,0.4c0.3,0,0.4-0.1,0.4-0.4c0-0.2,0-0.4,0-0.5
			c0-3.9,0-7.8,0-11.8c0-1.2,0-1.2,1.2-1.2c1.9,0,3.7,0,5.6,0c0.2,0,0.3,0,0.5,0c0.5,0,0.6,0.1,0.6,0.6c0,0.8,0,1.6,0,2.4
			c0,0.4,0.2,0.6,0.6,0.6c0.4,0,0.6-0.2,0.6-0.6c0-1.3,0-2.6,0-3.9c0-2.7,0-5.4,0-8.1c0-0.3-0.1-0.6,0.2-0.8c2,0,4,0,5.9,0
			c0.2,0.2,0.2,0.4,0.2,0.6c0,0.7,0,1.4,0,2.2c0,0.6,0.1,0.7,0.7,0.7c1.1,0,2.2,0,3.3,0c0.6,0,0.7-0.1,0.7-0.7c0-0.7,0-1.4,0-2.2
			c0-0.2,0-0.5,0.2-0.6c1.8,0,3.7,0,5.5,0c0.2,0.2,0.2,0.4,0.2,0.7c0,1,0,2,0,3c0,2.9,0,5.9,0,8.8c0,0.2,0,0.3,0,0.5
			c0,0.4,0.2,0.5,0.6,0.5c0.4,0,0.6-0.1,0.6-0.5c0-0.8,0-1.5,0-2.3c0-0.7,0.1-0.8,0.8-0.8c1.8,0,3.7,0,5.5,0c0.8,0,0.9,0.1,0.9,0.9
			c0,4,0,8,0,12c0,0.2,0,0.4,0,0.6c0,0.3,0.2,0.4,0.5,0.4c0.2,0,0.4-0.1,0.4-0.4c0-0.2,0-0.3,0-0.5c0-1.1,0-2.2,0-3.3
			c0-0.6,0.1-0.7,0.7-0.7c1.9,0,3.8,0,5.7,0C386.2,20.4,386.4,20.4,386.6,20.5z"/>
		<path fill="#A78F5E" d="M364,43.1c-2.9,0-5.9,0-8.8,0c0.2-2.8,0.7-5.6,2-8.1c0.5-0.9,1.1-1.6,1.9-2.1c1.2-0.8,2.7-0.7,3.8,0.2
			c1,0.8,1.7,1.9,2.2,3.1c0.8,1.9,1.2,3.8,1.4,5.8c0.1,1,0.1,1-0.9,1C365,43,366.6,43,364,43.1z"/>
	</g>
</g>
</svg>
