<?xml version="1.0" encoding="utf-8"?>
<!-- Generator: Adobe Illustrator 18.0.0, SVG Export Plug-In . SVG Version: 6.00 Build 0)  -->
<!DOCTYPE svg PUBLIC "-//W3C//DTD SVG 1.1//EN" "http://www.w3.org/Graphics/SVG/1.1/DTD/svg11.dtd">
<svg version="1.1" id="Layer_2_xA0_Image_1_" xmlns="http://www.w3.org/2000/svg" xmlns:xlink="http://www.w3.org/1999/xlink"
	 x="0px" y="0px" viewBox="0 0 400 65.1" enable-background="new 0 0 400 65.1" xml:space="preserve">
<rect x="0" y="57.8" fill="#395B6B" width="400" height="7.1"/>
<g>
	<polyline fill="#4D0000" points="334.5,57.9 350.1,2.4 349.8,1.6 349,2.8 333.7,57.9 333.9,58.2 334.5,57.9 	"/>
	<polygon fill="#FC6200" points="333.9,58.2 332.5,58 348.6,1.3 349.8,1.6 	"/>
	<polygon fill="#4D0000" points="355.7,2 356.2,0.8 356.9,1.3 359.8,64.7 359.4,65.1 359,64.7 	"/>
	<polygon fill="#B04400" points="335.9,52.3 335.7,52 336.2,51.8 357.5,56.8 357.6,57.7 	"/>
	<polygon fill="#FC6200" points="335.4,53.3 357.7,58.6 357.6,57.2 335.7,52 	"/>
	<polygon fill="#FC6200" points="354.9,1.6 356.2,0.8 359.4,65.1 357.7,64.9 	"/>
	<path fill="#4D0000" d="M346.4,54.3l0.1,0.3l0.5-0.2l6.5-54.1L353,0c0,0-0.4,0.4-0.5,0.4c0,0-1.8,12.2-1.8,12.2L346.4,54.3z"/>
	<polygon fill="#FC6200" points="345.2,54.2 346.5,54.5 353,0 351.7,0.1 345.2,54.1 	"/>
	<polygon fill="#4D0000" points="366.1,59.4 366.6,59.8 367,59.5 360.1,36.2 359.5,36.2 359.3,36.6 	"/>
	<polygon fill="#B04400" points="365.8,59.8 366.6,59.8 359.5,36.2 358.8,36.2 	"/>
	<polygon fill="#4D0000" points="362.1,35.9 362,36.7 361.4,36.9 360.9,36.4 361.4,35.9 	"/>
	<polygon fill="#CC4F00" points="333.7,32.8 333.7,33.6 361.4,36.9 361.4,35.8 	"/>
	<path fill="#808065" d="M363.1,35.7l0.4,0.5l1.2-0.7l3.6-32l-1.2-0.8c0,0-0.4,0.4-0.4,0.4s-2.4,3.7-2.4,3.7l-2,13.7l-2.4,8.5
		L363.1,35.7z"/>
	<polygon fill="#FAFAC7" points="332,32.6 363.5,36.2 367.1,2.7 337.1,3 	"/>
	<polygon fill="#4D0000" points="349.6,35.5 350.2,36.1 350.6,35.7 350.8,33.7 350.4,33.5 349.5,34.1 	"/>
	<polygon fill="#E16200" points="346,33 345.6,35.5 350.2,36.1 350.4,33.5 	"/>
</g>
</svg>
