<?xml version="1.0" encoding="utf-8"?>
<!-- Generator: Adobe Illustrator 18.0.0, SVG Export Plug-In . SVG Version: 6.00 Build 0)  -->
<!DOCTYPE svg PUBLIC "-//W3C//DTD SVG 1.1//EN" "http://www.w3.org/Graphics/SVG/1.1/DTD/svg11.dtd">
<svg version="1.1" id="Layer_1" xmlns="http://www.w3.org/2000/svg" xmlns:xlink="http://www.w3.org/1999/xlink" x="0px" y="0px"
	 viewBox="492.1 319 774 140.1" enable-background="new 492.1 319 774 140.1" xml:space="preserve">
<g>
	<defs>
		<rect id="SVGID_1_" x="492.1" y="334.6" width="780" height="117"/>
	</defs>
	<clipPath id="SVGID_2_">
		<use xlink:href="#SVGID_1_"  overflow="visible"/>
	</clipPath>
	<g clip-path="url(#SVGID_2_)">
		<path fill="#FEFEFE" d="M507,514.2c0-63.8,0-127.6,0-191.4c0-3.4,0.5-3.8,3.8-3.8"/>
		<path fill="#8599A9" d="M526.7,416.4c0-4.3,0-8.6,0-12.9c0-1.9-1-4.8,2.4-4.8c3.4-0.5,3.4,1.9,3.8,4.3c1.9,7.7,4.8,14.4,10.6,20.1
			c9.1,8.6,25.9,9.6,34.5,2.4c9.6-8.2,6.7-22.5-5.3-26.9c-9.6-3.4-20.1-4.8-29.7-9.1c-12.5-5.3-16.8-11.5-15.3-25.4
			c1-9.6,5.8-16.3,14.9-19.7c11.5-3.8,22.5-2.9,32.6,4.3c2.9,1.9,3.8,1.4,5.3-1c0.5-1,1.4-2.4,2.4-3.4c0.5-1.9,1.9-1.4,3.4-1.4
			s1.4,1.4,1.4,2.9c0.5,8.6,1,17.7,1,26.4c0,1.4,0.5,3.4-1.9,3.4c-1.9,0.5-3.4-0.5-3.8-2.9c-1-2.9-1.9-5.8-3.4-8.2
			c-5.8-12-15.3-17.3-28.8-16.8c-5.8,0.5-11.5,4.3-12.9,9.6c-1.9,7.2-0.5,11,6.2,15.8c5.8,3.8,12.5,5.3,19.2,7.2
			c3.8,1,8.2,1.9,12,3.4c13.4,4.3,19.2,15.3,17.3,29.7c-1.4,12-11,20.6-24.5,21.6c-10.6,1-20.1,0-28.8-7.2c-2.4-1.9-3.4-1-4.3,1
			c-0.5,1-1.4,2.4-1.9,3.4c-1,1.9-2.4,2.9-4.3,2.4c-2.4-0.5-1.9-2.4-1.9-4.3C527.2,426,527.2,421.2,526.7,416.4L526.7,416.4z"/>
		<path fill="#859AA9" d="M987.6,433.6c-11,0-21.6,0-32.6,0c-1.9,0-4.3,1-4.3-2.4c0-3.4,1.9-3.4,4.3-3.4c8.6,0,9.1-0.5,9.1-9.1
			c0-20.1,0-40.3,0-60.4c0-7.7-1-9.1-8.6-9.1c-1.9,0-4.8,1-4.3-3.4c0-3.8,2.4-2.9,4.3-2.9c10.6,0,20.6,0,31.2,0
			c2.4,0,4.8-0.5,4.8,3.4c0,3.8-2.4,2.9-4.3,2.9c-7.7,0-8.6,1-8.6,8.6c0,21.1,0,42.2,0,62.8c0,6.2,1,7.2,7.2,7.2
			c5.8,0,12,0.5,17.7-1s10.6-4.3,12.9-10.1c1.9-4.8,3.8-10.1,4.8-15.3c0.5-1.9,1-2.9,3.4-2.9c2.4,0,1.9,1.9,1.9,3.4
			c-0.5,9.6-1,18.7-1.4,28.3c0,2.9-1.9,2.9-4.3,2.9C1009.7,433.6,998.6,433.6,987.6,433.6z"/>
		<path fill="#8599A8" d="M698.4,388.5c0-10.1,0-20.1,0-30.7c0-8.6-0.5-9.1-9.1-9.1c-1.4,0-3.4,0.5-3.8-1c-0.5-1.9-1.4-4.8,2.4-4.8
			c11.5,0,23.5,0,35,0c2.4,0,2.9,1.4,2.9,3.4c0,2.4-1.4,2.9-3.4,2.4c-1,0-1.9,0-2.9,0c-5.8,0.5-7.2,1.4-7.2,7.7
			c0,21.1,0,42.2,0,63.3c0,6.2,1.4,7.7,8.2,7.7c1.9,0,5.3-1.9,5.3,2.4c0,1.9,0,3.4-2.9,3.4c-11.5,0-23.5,0-35,0
			c-1.9,0-3.4-0.5-3.4-2.9c0-2.4,1-3.4,3.4-3.4c1,0,2.4,0,3.4,0c4.3,0,6.7-1.9,6.7-6.7C697.9,410.6,698.4,399.6,698.4,388.5z"/>
		<path fill="#8599A8" d="M862.9,423.6c0-3.4,0-6.2,0-9.6c0-1.4,0-2.9,1.9-2.9s2.9,0.5,3.4,1.9c1,2.4,1.9,4.8,3.4,7.2
			c4.3,8.2,13.4,12,22.1,9.1c4.3-1.4,7.2-3.8,7.7-8.6c0.5-5.3-2.9-7.7-7.2-8.6c-6.2-1.9-12.5-2.9-18.7-4.8
			c-9.1-3.4-12.9-9.6-11-20.1c1-7.2,7.7-12,16.3-12.5c5.3,0,10.1,0.5,14.4,2.9c1.9,1,2.9,1,4.3-1c1-1.9,2.9-2.4,4.8-1.9
			c1.9,0.5,1,2.4,1,3.8c0,4.3,0,8.2,0,12.5c0,1.4,0.5,3.4-1.9,4.3c-2.4,0.5-2.9-1.4-3.4-2.9c-1.4-2.9-2.9-5.8-4.8-8.2
			c-4.8-5.3-11-6.2-17.3-4.8c-3.4,0.5-5.8,2.9-6.2,6.2c-1,3.8,1.4,6.2,4.3,7.7c3.4,1.9,6.7,2.9,10.6,3.8c3.8,1,8.2,1.9,12,3.4
			c8.6,3.4,12.5,9.1,11.5,17.7c-1,9.6-7.2,16.3-15.8,17.3c-6.7,1-12.9,0.5-18.7-3.8c-2.4-1.9-3.8-1.4-5.3,1c-1,1.9-2.4,3.4-4.8,2.4
			c-2.4-1-1-2.9-1.4-4.3C862.9,428.8,862.9,426,862.9,423.6z"/>
		<path fill="#859AA9" d="M621.2,402.5c0,5.3,0,11,0,16.3c0,4.3,1.4,7.7,5.8,8.6s8.2-1.9,10.1-6.2c1-2.9,1.4-5.3,1.9-8.2
			c0.5-1.9,1-2.4,2.9-1.9c1.4,0,1.4,1.4,1.9,2.4c1.9,14.4-10.1,25.4-24.5,22.1c-6.2-1.4-8.6-4.8-9.1-12c-1-12.5-1-24.5-0.5-36.9
			c0-3.8-0.5-5.8-4.8-4.8c-1.4,0.5-3.8,1-4.8-1.4c-0.5-1.9-0.5-3.4,1.9-3.8c11-2.9,13.4-12,14.9-21.6c0-1.4-1-3.8,2.4-4.3
			c2.4,0,3.8,0.5,3.8,3.4c0,5.8,0,12,0,18.2c0,2.9,1,4.3,3.8,3.8c3.8,0,7.2,0,11,0c1.9,0,3.4,0.5,3.4,2.9c0,1.9-1,2.9-2.9,2.9
			c-3.8,0-7.2,0.5-11,0c-4.3-0.5-5.3,1.4-4.8,5.3C621.2,391.9,620.7,397.2,621.2,402.5C620.7,402.5,621.2,402.5,621.2,402.5z"/>
		<path fill="#859AAA" d="M1115.2,403.9c0,4.8,0.5,9.1,1.9,13.4c2.4,6.7,6.7,10.1,13.4,10.6c7.2,0.5,12-2.4,15.8-8.6
			c1-1.4,1-3.8,2.9-3.4c2.4,0.5,3.8,1.4,2.4,4.8c-7.2,16.3-27.8,20.6-40.8,8.6c-14.4-13.4-11.5-40.8,5.3-50.8
			c8.6-5.3,22.5-4.8,29.7,0.5c4.3,3.4,5.8,7.7,4.8,12.9c-0.5,3.4-2.9,5.8-6.2,6.2s-6.2,0-8.2-2.9c-1.9-2.9-1.9-6.2,0.5-8.6
			c2.9-3.4,1.4-4.8-1.9-5.8c-7.7-2.4-16.3,5.3-19.2,12.9C1114.2,398.1,1115.2,399.1,1115.2,403.9z"/>
		<path fill="#8499A9" d="M1245.6,385.2c0,12.5,0,24.5,0,36.9c0,3.8,1,5.8,5.3,5.8c1.9,0,3.8,0,3.8,2.9c0,3.4-1.9,2.9-4.3,2.9
			c-7.7,0-15.8,0-23.5,0c-1.9,0-3.8,0.5-3.8-2.4c0-2.9,1.4-3.4,3.8-2.9c5.3,0.5,6.7-1.9,6.7-6.7c0-21.6,0-43.2,0-64.7
			c0-6.7-0.5-6.7-6.7-7.2c-1.9,0-3.8,0.5-3.8-2.4c0-2.4,1.9-2.4,3.4-2.4c4.8-0.5,9.6-0.5,14.4-1c3.8-0.5,4.3,1,4.3,4.3
			C1245.2,360.2,1245.6,372.7,1245.6,385.2z"/>
		<path fill="#8599A8" d="M766.5,418.8c4.3-11.5,8.2-21.6,12-31.7c1.4-3.8-1.4-5.3-4.8-5.8c-1.9,0-3.4-0.5-3.4-2.9s1.9-2.4,3.8-2.4
			c6.2,0,12,0,18.2,0c1,0,2.4,0,2.4,1.4s0.5,2.9-1.4,3.4c-6.7,1.4-8.2,7.2-10.6,12c-5.3,12.9-10.6,25.9-15.8,38.8
			c-0.5,1.4-0.5,3.8-3.4,3.8c-2.9,0.5-3.4-1.9-3.8-3.8c-6.2-14.4-12.5-28.3-18.7-42.7c-1.9-3.8-2.9-8.6-9.1-8.6
			c-1.4,0-1.9-1-1.9-2.4c0-1.9,1-2.4,2.4-2.4c7.7,0,15.3,0,23,0c1.4,0,2.9,0,2.9,1.9s-0.5,2.9-2.4,2.9c-5.3,0-5.3,2.9-3.8,7.2
			C757.4,397.7,761.7,407.7,766.5,418.8z"/>
		<path fill="#869AAB" d="M670.6,428.4c0,4.3-3.8,7.7-8.2,7.7c-4.3,0-7.7-3.8-7.7-7.7c0-4.3,3.4-7.7,7.7-7.7
			C667.2,420.7,670.6,424,670.6,428.4z"/>
		<path fill="#8599A9" d="M1219.7,426c-1-1.4-1.9-1-3.4-0.5c-5.3,1.9-7.2,0.5-7.2-4.8c0-4.8,0-9.6,0-14.4s0.5-9.6-1-14.9
			c0-9.1-4.3-14.4-12.9-16.3c-7.2-1-14.4-1.4-21.6,1c-5.3,1.9-10.6,4.8-12,11c-1.4,3.8-1,7.2,2.9,9.1c2.9,1.9,6.2,1.4,8.6-0.5
			c2.9-2.4,2.4-6.2,0.5-9.1c-1.9-2.9-0.5-4.3,1.9-5.3c5.3-1.9,11-1.9,16.3,0c4.3,1.4,7.2,11.5,4.8,15.3c-1,1-2.4,0.5-3.4,1
			c-4.8,1-9.6,1.9-14.4,3.4c-6.2,1.9-12.5,4.3-17.3,9.6c-7.2,8.2-3.4,21.6,7.2,24.5c9.1,2.4,17.3,0.5,24.5-5.3
			c2.9-1.9,4.3-3.4,6.7,1c3.8,6.2,15.3,5.3,19.2-1C1220.2,428.4,1220.7,427.4,1219.7,426z M1184.2,428.8c-5.8,1-10.6-1-12.5-4.8
			c-1.9-5.3-0.5-11.5,4.3-14.4c5.8-3.8,12-4.8,18.7-6.2c1.9-0.5,2.9,1,2.4,2.4c0.5,1.4,0.5,2.9,0.5,4.3
			C1197.7,420.7,1192.9,427.4,1184.2,428.8z"/>
		<path fill="#8599A9" d="M851.9,417.8c-2.9-1.9-3.4,0.5-4.3,1.9c-5.3,7.7-14.4,11-22.5,8.6c-7.7-1.9-11-8.2-12-18.2
			c-0.5-2.9,0.5-3.8,3.4-3.8c5.3,0,11,0,16.8,0c3.8,0,7.7,0,12,0c9.6,0,9.6,0,8.2-9.6c-1.9-9.6-6.7-17.7-16.3-20.6
			c-9.6-2.9-19.7-2.4-27.8,5.3c-8.6,7.7-9.6,17.7-9.1,28.3c1,12.5,9.1,22.5,20.1,25.4c12.5,3.4,25.4-1.9,31.7-12.5
			C852.8,421.2,854.7,419.7,851.9,417.8z M813,394.8c1.4-11,6.7-15.8,15.8-14.9c7.7,1,13.9,12.9,10.6,19.2c-1,1.4-2.4,1.9-3.8,1.9
			c-2.9,0-6.2,0-9.6,0c-2.4,0-4.8,0-7.7,0C812.5,401,812.1,400.5,813,394.8z"/>
	</g>
</g>
</svg>
