<?xml version="1.0" encoding="utf-8"?>
<!-- Generator: Adobe Illustrator 18.0.0, SVG Export Plug-In . SVG Version: 6.00 Build 0)  -->
<!DOCTYPE svg PUBLIC "-//W3C//DTD SVG 1.1//EN" "http://www.w3.org/Graphics/SVG/1.1/DTD/svg11.dtd">
<svg version="1.1" id="Layer_1" xmlns="http://www.w3.org/2000/svg" xmlns:xlink="http://www.w3.org/1999/xlink" x="0px" y="0px"
	 viewBox="543.2 134.2 251.5 49.6" enable-background="new 543.2 134.2 251.5 49.6" xml:space="preserve">
<g>
	<path fill="#939DA5" d="M754.1,172c1.4-0.5,2.9-1,3.8-1.4c1.4-0.5,2.4-1.9,1.9-3.8c0-1.4-1-1.9-2.4-2.4c-1.4-0.5-2.4,0.5-2.9,1.9
		c-0.5,1-1.4,2.4-2.4,1c-1-1-1-2.9,0.5-3.4c2.9-1.4,6.2-1.4,9.1,0.5c2.4,1.9,1.9,3.8,0.5,6.2c-1,1-1,1.9,0,2.9
		c2.9,4.3,1,7.7-4.3,8.2c-1.4,0-2.9,0-3.8,0c-1.4,0-2.4-0.5-2.9-2.4c0-0.5,0-1.4,0.5-1.4c1.4-0.5,1.4,1,2.4,1.9
		c1.9,1.9,3.8,1.4,5.3-0.5c1.4-1.9,1-3.8-1-5.3C757.4,172.9,756,172.5,754.1,172z"/>
	<path fill="#98A0A9" d="M626.5,168.1c-1-1.9-1.4-3.8,0-4.8c2.9-1.4,5.8-1.9,8.6,0c1.9,1.4,2.4,3.4,1.9,5.8c-1,3.8-4.3,6.2-6.2,9.6
		c1.9,1.4,4.3,0,6.7,1.9c-3.8,1.4-7.2,1-10.6,0.5c-1.9,0-1-1.4-0.5-2.4c1-1,2.4-2.4,3.4-3.4c1.4-1.4,2.9-2.9,3.4-4.8
		c0.5-1.9,1-4.3-1.4-5.8C628.9,162.9,628.9,166.7,626.5,168.1z"/>
	<path fill="#959DA3" d="M644.3,172c1.9-1,3.4-1.4,4.3-1.9c1.9-1.4,1.9-3.4,0.5-4.8s-3.4-1.9-4.3,1c-0.5,1-1,1.9-1.9,1.4
		c-1,0-1-1-1-1.4c0-1,0-2.4,1.4-2.9c2.9,0,6.2-1.4,8.6,1c1.9,1.9,1.4,4.3,0,6.2c-1,1.4,0.5,1.9,1,2.9c1.9,2.9,1,5.3-1.4,6.7
		c-1.9,1.4-8.6,1.9-10.1,0c-0.5-1-1-1.9,0-2.9c0.5-0.5,1.9-0.5,1.9,0.5c1,2.9,2.9,2.4,4.8,1.4c1.4-0.5,2.4-1.9,2.4-3.4
		c0-2.4-1.9-2.9-3.8-3.4C646.2,172.5,645.2,172.5,644.3,172z"/>
	<path fill="#979FA5" d="M747.4,164.3c-1.4,1-3.4,0.5-4.8,1c-1.4,0-3.4,0-3.4,1.9c-0.5,2.4,1.4,1.9,2.9,2.4c3.4,1,6.2,1.9,5.8,6.2
		c-0.5,4.8-7.7,8.2-11.5,5.3c-1-0.5-1.4-1.9-1-2.9c1-1.4,1.9-0.5,2.4,0.5c1,1.9,2.4,1.9,4.3,1c1.4-1,2.4-2.4,2.4-3.8
		c0-1.9-1.4-3.8-3.4-3.8c-3.8,0-5.3-1-4.8-5.3c1-4.8,4.3-2.4,6.7-2.9C744.5,163.3,745.9,162.9,747.4,164.3z"/>
	<path fill="#979FA5" d="M731.5,164.3c-1.9,1.4-3.8,1-5.3,1s-2.9,0.5-2.9,1.9c-0.5,1.9,1,1.9,2.4,2.4c3.8,1,7.2,2.4,5.8,7.2
		c-1,3.8-5.8,5.8-10.1,4.8c-1.4-0.5-1.9-1.4-1.9-2.4c0-0.5,0-1,0.5-1.4c1-0.5,1.9-0.5,1.9,0.5c1,2.4,2.4,2.4,4.3,1.4
		c1.4-1,2.4-2.4,2.4-3.8c-0.5-2.4-1.9-3.8-4.3-3.8s-4.3,0-3.8-3.8C721.5,162.9,724.3,161.9,731.5,164.3z"/>
	<path fill="#969FA3" d="M675.9,163.8c-1.4,2.4-3.4,1.4-4.8,1.4s-2.4,0.5-2.9,2.4c0,1.9,1,1.9,2.4,1.9c3.8,1,7.2,2.4,6.2,7.2
		c-1,3.8-4.8,5.8-9.6,4.8c-1.4,0-2.4-0.5-2.4-1.9c0-0.5,0-1.4,0.5-1.9c1.4-1,1.9,0.5,2.4,1.4c1,1.4,2.4,1.4,3.8,0.5
		c1.4-1,2.9-2.4,2.4-4.8c-0.5-1.9-1.9-3.8-4.3-3.4c-4.8,0.5-4.3-1.9-3.4-5.3C667.8,159.5,672.5,165.3,675.9,163.8z"/>
	<path fill="#8E9CA4" d="M565.9,154c-2.4,0-4.3,0-6.2,0c1.4-2.4,1-4.8,1-6.7c0-1.4,0-2.9-1.9-2.9s-2.9,1-2.9,2.9
		c0,2.4-0.5,4.8,1.4,7.2c-1.9,0-3.8,0-5.8,0c1.4-2.9,1.9-6.2,0.5-8.6c-1.9-3.8,0.5-3.4,2.4-2.9c1.4,0.5,2.9,0,4.3,0
		c3.4,0,4.8,1.4,5.3,4.8C564,149.2,563.5,151.6,565.9,154z"/>
	<path fill="#9BA5AD" d="M708,181.1c-3.4,0-6.7,0-10.6,0c6.2-2.9,2.9-8.6,3.4-12.9c0.5-3.4-2.9-0.5-3.8-1.9c0.5-1.9,2.4-1.9,3.8-2.4
		c2.9-1.4,3.8-1,3.8,2.4s0,6.2,0,9.6C704.7,178.2,705.2,180.6,708,181.1z"/>
	<path fill="#9DA8B1" d="M687.8,153.5c-4.8,1-6.2,0.5-5.8-4.3c0.5-4.3,1.4-9.1-0.5-12.9c-1-1.9,0.5-1.4,1.4-1.4
		c1.9-1,3.4-0.5,3.4,1.9c0,3.8,0,8.2,0,12C686.3,150.1,685.9,152,687.8,153.5z"/>
	<path fill="#979EA5" d="M600.6,163.3c1,0,2.4,0,3.4,0c2.4,0,3.4,0.5,1.9,2.9c-2.4,4.3-4.8,8.6-5.8,13.4c-0.5,1.4-1,1.9-2.4,1.4
		c-1.4-0.5-1-1.4-0.5-2.4c1.4-2.9,2.4-5.8,3.8-8.6c0.5-1.4,2.4-2.9,1-4.3c-1.4-1-3.4-0.5-5.3,0c-1,0.5-1.4,2.9-2.9,1.4
		c-0.5-0.5-0.5-1,0-1.9c0.5-1.9,1.9-1.9,3.4-1.9C598.2,163.3,599.2,163.3,600.6,163.3z"/>
	<path fill="#8E9DAA" d="M577,142.9c-4.3,1.9-5.3,7.2-1.4,10.6c-1.9,0-4.3,0-6.2,0c0.5-3.4,1.4-6.7,0-10.6c-1.9-3.8,4.3-8.6,9.1-7.7
		c-1.4,1.9-5.8,1.4-4.8,4.8C573.6,142.9,575.5,141.5,577,142.9z"/>
	<path fill="#9AA3AB" d="M614.4,154c-0.5,0-1.4,0-2.4-0.5s-1-1.9-0.5-2.9c0.5-1,1.4-0.5,1.9,0.5c1,1.4,2.4,2.9,3.8,1
		c1.4-2.4-1-2.4-2.4-2.9s-3.4-1.4-2.9-3.4c0-1.4,1-2.9,2.4-3.4c1.9-0.5,3.8-1,5.8,0.5c0.5,0.5,1,1.4,0.5,2.4c-1,1.4-1.9,0.5-2.4-0.5
		c-1-1-1.9-1.9-2.9-0.5c-1,1.9,0.5,2.4,1.9,2.9c1.9,1,4.3,1.4,3.8,4.3C620.1,154.4,617.7,154,614.4,154z"/>
	<path fill="#9BA4A9" d="M671.9,154c0.5,0-0.5,0-1.4,0s-1.4-1-1.4-1.9c0-0.5,0.5-1.4,0.5-1.4c1-0.5,1.4,0,1.9,1
		c1,1.4,2.4,1.9,3.4,0.5c1.4-1.9-0.5-2.4-1.9-2.9c-2.4-1-4.8-1.9-3.4-4.8s4.3-2.4,7.2-1.9c1,0.5,1.9,1.4,1,2.9c-1,1-1.4,0.5-2.4-0.5
		c-1-1.4-1.9-1.4-2.9-0.5c-1,1.4,0,1.9,1.4,2.4c2.4,0.5,4.8,1.4,4.3,4.3C678.2,154,675.8,154,671.9,154z"/>
	<path fill="#94A1AA" d="M635,154c-1,0-1.4,0-2.4,0c-7.2,0.5-7.2,0.5-7.7-6.7c0-1-1-2.4-0.5-3.4c0-1.9,0-3.8,1.9-4.8
		c2.9-1.4,1.4,1.9,2.4,2.4s1.9,0.5,3.8,1c-5.3,1.4-4.8,4.8-3.8,8.2c1,2.9,4.3,1.9,6.7,2.4C635.5,153,635.5,153.5,635,154
		C635.5,154,635,154,635,154z"/>
	<path fill="#98A2AA" d="M715.6,153c-4.3,1-7.7,2.4-10.1-1c-1.9-2.4-1.9-5.3,0-7.7c1.9-2.9,4.8-3.8,9.6-1.9c-4.3,1-8.2,1.4-7.2,6.7
		C708.9,154,712.7,151.1,715.6,153z"/>
	<path fill="#9BA4AB" d="M756.4,142.9c-3.4,1-6.7,1.4-6.2,6.7c1,4.3,3.8,2.9,6.7,3.4c-2.9,1.4-5.8,2.4-8.2,0c-2.4-1.9-2.4-4.8-1-7.2
		C749.2,142,752,141.5,756.4,142.9z"/>
	<path fill="#909CA4" d="M635,154c0-0.5,0-0.5,0-1c1.4-3.4,1.4-6.7-0.5-10.1c3.4-1.4,4.8-0.5,4.8,3.4c0,2.4-0.5,5.3,1,7.7
		C638.4,154.4,636.9,154,635,154z"/>
	<path fill="#8C9BA2" d="M549.6,154c-2.4,0-3.8,0-5.8,0c1.9-2.9,1.4-5.8,1.4-9.1c0-1-2.4-1-1-2.4c0.5-0.5,1.9-0.5,2.9-0.5
		c1.9,0,1.4,1.4,1.4,2.9C548.7,147.7,547.2,150.6,549.6,154z"/>
	<path fill="#929EA8" d="M649.4,142c1.4,2.4,1,4.8-1,7.7c-2.3-2.3-2.4-4.5-1.6-7.2c-0.1-0.2-0.2-0.3-0.3-0.4c-1.9,0.5-3.8-0.5-5.8,1
		c2.9,2.4,2.9,5.8,4.3,8.6c0.5,1,1,2.4,2.4,2.4c1.9,0,2.4-1,2.9-2.4c1.4-2.9,2.9-6.2,4.3-9.6C652.8,142,650.8,142,649.4,142z"/>
	<path fill="#ABB0B1" d="M637.4,136.2c1,0,1.4,0.5,1.9,1.4c0,1.4-0.5,1.9-1.9,1.9c-1,0-1.9,0-1.9-1
		C635.5,136.7,636.5,136.2,637.4,136.2z"/>
	<path fill="#ABAEB2" d="M547.7,137.2c0,1.4-0.5,1.9-1.4,1.9s-1.9,0-1.9-1c-0.5-1.4,0.5-1.9,1.4-1.9
		C547.2,135.7,547.7,136.7,547.7,137.2z"/>
	<path fill="#AAADAE" d="M741,151.1c1,0,1.9,0.5,1.9,1.4c0,1.4-1,1.4-1.9,1.4s-1.4-0.5-1.4-1.4S740.5,151.6,741,151.1z"/>
	<path fill="#95A1AB" d="M736.2,148.2c0-3.8,0-7.2,0-11c0-1.9,0-3.4-2.9-2.9c-2.9,0.5-1.4,1-1.4,2.9c0.5,4.3,0,9.1,0,13.4
		c0,1.4-1,2.4-2.4,2.4c-1.4,0-2.9-1-2.9-2.4c0-1,0-2.4,0-3.4c0.5-1.9,0-3.8-2.4-4.8c-2.9-1-4.8-0.5-6.7,1.9c1.4,1,1.9,0.5,3.4,0.5
		c1.4-0.5,2.4-0.5,2.9,1c0.5,1.9-0.5,2.4-1.9,2.4c-2.4,0-4.8,1-4.3,3.8s3.4,1.9,5.3,1.9c4.8,0,9.6,0,15.3,0
		C735.7,152,736.2,150.1,736.2,148.2z M720.9,152.5c-0.5,0-1-0.5-1-1.4c0-1.4,1-1.9,2.4-1.9c0.5,0,1,0.5,1,1.9
		S721.8,152.5,720.9,152.5z"/>
	<path fill="#909EA8" d="M794.7,154c-1.4-2.4-1.4-4.8-2.4-6.7c0.5-2.4-0.5-4.3-2.9-4.3c-4.8-0.5-10.1,0-14.9,0c-1.4,0-1.9,0-1,1.9
		c1.9,2.9,1.4,6.2,0,9.6c1.9,0,3.8,0.5,5.8-0.5c-2.4-2.4-1.4-4.8-1.4-7.2c0-1.4,0.5-2.4,2.4-2.4c1.9,0,1.9,1.4,1.9,2.4
		c0,2.4,0,4.8-1,7.2C786.1,154,789.9,154,794.7,154z M788.5,144.4c3.4-0.5,1,2.9,1.9,3.8c-0.5,1.9,1,4.3-1.9,4.8
		c-2.9,0-2.9-2.4-2.9-4.3C785.6,146.8,785.6,144.4,788.5,144.4z"/>
	<path fill="#98A3AA" d="M606.2,140.5c-3.8-1.4-7.7-1-10.6,2.4c-2.4,2.9-3.4,6.2-1,9.6c2.4,3.8,6.2,2.9,10.1,1.4
		c-3.4,0-7.7,1-8.2-4.3c-0.5-3.4,0-6.7,3.8-8.2c2.4-1,4.3-1,5.8,1.9c-1,0.5-1.4,0.5-1.9,0.5c-3.8,0-7.2,1-6.7,5.3
		c0.5,4.3,4.3,1.4,6.7,1.9s4.8-1,5.3-3.8S609.1,141.5,606.2,140.5z M600,149.2c0-1.9,0.5-3.4,1.9-3.8c0.5,0,1,0.5,1,0.5
		C602.9,147.7,601.9,148.7,600,149.2z"/>
	<path fill="#929FA7" d="M584.8,163.3c-3.8-0.5-6.2,1-7.2,4.8c-1,3.4-1,6.7,0.5,10.1c1.4,3.8,7.2,4.8,10.1,1.4
		c1.9-1.9,1.9-4.8,1.9-8.2c0-0.5,0-1.4,0-1.9C589.6,166.2,588.1,163.8,584.8,163.3z M586.7,172c-0.5,2.9,0.5,7.7-3.4,7.7
		s-2.9-4.8-2.9-7.7s-1-7.2,3.4-7.2C587.7,164.8,586.7,169.1,586.7,172z"/>
	<path fill="#939FA7" d="M620.3,164.8c-1.9-2.9-4.8-2.9-7.7-1.4c-2.4,1.4-4.3,3.8-3.4,6.7c0.5,3.4,2.9,4.3,5.8,4.3
		c1,0,2.4-0.5,3.4-0.5c-1.4,6.2-1.4,6.2-6.2,4.3c-0.5,0-1.4,0-1.4,0s-0.5,1-0.5,1.4c0,1.4,1.4,1.9,2.9,1.9c3.4,0.5,6.2-0.5,7.7-3.8
		C622.7,173.4,623.1,168.6,620.3,164.8z M615.5,172.5c-2.4,0-3.4-1.9-2.9-3.8c-0.5-1.9,0.5-3.8,2.9-4.3c2.4,0.5,2.9,2.9,3.4,4.8
		C618.8,171.5,617.4,172.5,615.5,172.5z"/>
	<path fill="#8E9AA4" d="M693.2,175.3c-4.8-2.4-1.4-6.2-2.4-9.6c0-1,0.5-1.9-1-2.4c-1-0.5-1.9,0-2.4,1c-1.9,2.4-3.4,4.8-5.3,7.2
		c-0.5,1-1.9,2.4-1.4,3.8c0.5,1.9,2.4,0.5,3.8,1c1,0.5,2.9-0.5,3.4,1.4c1,1.9-1,1.9-2.4,3.4c2.4,0,4.3,0,7.2,0
		C689.8,178.7,690.8,176.8,693.2,175.3z M686.5,175.3c-1,0.5-2.9,0.5-2.9-0.5c0-2.9,1.9-4.3,3.8-6.2
		C687.4,171,689.3,173.4,686.5,175.3z"/>
	<path fill="#93A1AA" d="M765,141.5c-3.8,0-6.7,2.4-6.7,6.2c0,3.8,1.9,6.2,6.2,6.2c4.3,0,6.7-2.4,6.7-6.7
		C770.7,144.4,769.3,142,765,141.5z M765,152.5c-2.4,0-2.9-2.4-2.9-4.3s0-4.8,2.9-4.8c2.4,0,2.9,2.4,3.4,4.3
		C767.9,149.6,767.9,152.5,765,152.5z"/>
	<path fill="#95A0A9" d="M696.4,142c-4.3-0.5-7.2,1.9-7.2,5.8c0.5,3.8,1.9,6.2,6.2,6.2c3.8,0,6.7-2.4,6.7-6.2
		C702.2,144.4,700.2,142,696.4,142z M695.9,152.5c-2.9,0-2.9-2.9-2.9-4.8s0.5-4.3,3.4-4.3c2.4,0.5,2.4,2.9,2.9,4.8
		C698.8,150.1,698.3,152.5,695.9,152.5z"/>
	<path fill="#969FA7" d="M584.2,142c-3.4,0-6.2,2.4-5.8,6.2c0.5,3.8,2.4,5.8,6.7,5.8c4.3,0,6.2-2.4,6.2-6.2
		C591.4,144.4,589.4,142,584.2,142z M584.7,153c-2.4,0-2.9-2.4-2.9-4.3c0-2.4,0-4.8,2.9-4.8c2.9-0.5,2.9,1.9,3.4,3.8
		C587.5,150.1,587.5,153,584.7,153z"/>
	<path fill="#97A0A6" d="M665.7,151.6c-2.4,0.5-4.8,1-5.3-1.9c-0.5-3.4,2.9-1.4,4.3-1.9c1-0.5,2.4-0.5,2.4-1.9c0-1.9-1-3.4-2.4-3.8
		c-3.4-1-6.2-0.5-7.7,2.9c-1,2.4-1.4,4.8,0.5,7.2c2.9,2.9,5.8,2.4,9.1,0.5C666.2,152.5,665.7,152,665.7,151.6z M661.9,143.9
		c1.4,0,2.4,0.5,2.4,1.9c0,1-0.5,1.4-1.4,1.4s-1.9,0-1.9-1.4C660.4,144.4,661.4,143.9,661.9,143.9z"/>
</g>
</svg>
