<?xml version="1.0" encoding="utf-8"?>
<!-- Generator: Adobe Illustrator 18.0.0, SVG Export Plug-In . SVG Version: 6.00 Build 0)  -->
<!DOCTYPE svg PUBLIC "-//W3C//DTD SVG 1.1//EN" "http://www.w3.org/Graphics/SVG/1.1/DTD/svg11.dtd">
<svg version="1.1" id="Layer_1" xmlns="http://www.w3.org/2000/svg" xmlns:xlink="http://www.w3.org/1999/xlink" x="0px" y="0px"
	 viewBox="0 0 485 103.1" enable-background="new 0 0 485 103.1" xml:space="preserve">
<g>
	<path fill="#C2B7C0" d="M0,80.1c2.3-2.4,3.1-5.7,4.8-8.5c1.5-2.5,1.8-5.7,3.9-7.9C9,63.4,9,62.8,8.5,62.5c-0.5-0.3-1-0.3-1.3,0.1
		c-0.4,0.5-0.8,1-1.1,1.6c-0.7,1.2-1.3,2.5-2.9,1.4c-1.4-1-1.6-3.2-0.4-4.4c1.2-1.2,2.7-1.9,4.4-1.9c3,0,6,0,9,0
		c1.3,0,2.3,0.6,3.2,1.2c3.2,1.8,3.4,3.4,0.9,6.2c-0.4,0.5-0.9,1-1.4,1.4c-0.6,0.6-0.5,1.1,0.1,1.6c0.3,0.2,0.5,0.4,0.8,0.6
		c5.1,3.5,5.3,7.3,0.5,11.3c-3.4,2.8-7.4,4.9-11.5,6.4c-3.2,1.2-4.8,0.4-5.6-3c-0.5-2.1-1.9-1.4-3-1.6C0,82.1,0,81.1,0,80.1z
		 M5.1,78.2c1.3,0.5,2.5-1.8,3.5-0.4c0.9,1.2-0.9,1.8-1.4,2.8c-0.4,0.9-1,1.7-1.2,2.7c-0.3,1.2,0.4,2.2,1.6,1.8
		c4.4-1.6,8.5-3.6,11.7-7c1.4-1.5,0.9-3.6-0.9-4.7C15.8,71.7,13,72,10,73c-2.8,0.9-4.8,2-5.1,5.1c-0.7,0.2-1,0.7-0.8,1.4
		c0,0.1,0.3,0.3,0.3,0.3C5.1,79.5,5.1,78.8,5.1,78.2z M17.9,64.2c-0.2-1.2-1.2-1.8-2.3-2.2c-0.9-0.3-1.7-1.4-2.5,0
		c-1,1.7-2.1,3.3-3,5.1c-0.3,0.7-0.3,1.7,0.8,2C12.6,69.5,17.7,66,17.9,64.2z"/>
	<path fill="#8DA1B0" d="M485,7.1c-1.8,0.6-1.4,2.5-1.9,3.8c-2.3,6.2-4.9,12.2-6.5,18.6c-0.6,2.2-0.7,4.2-0.6,6.4
		c0,1,0.2,2.1-1.2,2.3c-1.2,0.2-2-0.2-2.9-1.3c-1-1.2,0.2-3.3-1.9-3.8c0-0.3,0-0.5,0-0.8c2.5-0.7,2.3-3.2,2.7-4.9
		c1.7-7.2,5.3-13.7,6.5-21.1c0.4-2.9,2.9-2.9,5.8-0.3C485,6.5,485,6.8,485,7.1z"/>
	<path fill="#E7E2E6" d="M34,103.1c0-0.3,0-0.6,0-1c2,0,4,0,6,0c0,0.3,0,0.6,0,1C38,103.1,36,103.1,34,103.1z"/>
	<path fill="#8B9FAF" d="M14,13.4c1.4-1.4,2.9-2.8,4.3-4.1c0.7-0.7,1.5-1.4,2.6-0.6c0.9,0.7,1.1,1.6,1.1,2.6c0,1.1-0.7,1.9-1.1,2.8
		c-2.2,4.7-2.7,9.8-3.9,14.8c-0.2,0.9,0,2-0.1,3c0,1.2,0.2,2.4,1.4,3c1.5,0.7,2.1-0.7,2.8-1.5c2.6-3.2,5-6.6,6.8-10.3
		C30.2,18.4,32,13.7,34,9c0.8-1.9,1.1-3.8,1.1-5.8c0-1.7,0.6-3,2.5-3c1.7,0,2.7,1.5,2.2,3.7c-1,4.5-2.4,8.9-4.4,13.1
		c-2.9,6-5.3,12.2-9.5,17.4c-1.2,1.4-2.5,2.7-3.6,4.1c-1.5,1.8-3.5,2.3-5.4,1.6c-2.2-0.9-3.9-2.6-3.9-5.3c0-3,0-6,0.1-9
		c0-0.5,0.1-1.1-0.4-1.2c-0.4,0-0.9,0.4-1.2,0.8c-1.5,2.2-3,4.4-4.4,6.6c-0.6,1-1.3,1.9-2.2,2.7C4,35.3,2.9,35.3,2,34.9
		c-1.2-0.4-1-1.5-1-2.5c-0.1-3,1.6-5.4,2.6-7.9c2.2-5.7,5.1-11.1,6.9-16.9c0.2-0.8,0.6-1.6,1.1-2.2c0.8-1,1.5-2.4,3.2-1.6
		c1.5,0.7,1.4,2.1,1.3,3.5c-0.1,1.9-1.5,3.3-2.1,5c-0.7,0.3-1.1,0.8-0.8,1.5C13.5,14.3,13.8,13.8,14,13.4z M12,16.1
		c-0.7,0.2-1,0.6-0.8,1.3c0,0.1,0.3,0.3,0.3,0.3C12.1,17.4,12,16.7,12,16.1c0.2-0.1,0.5-0.2,0.7-0.4c-0.1-0.1-0.3-0.3-0.4-0.4
		C12.2,15.6,12.1,15.9,12,16.1z M13.5,22.3c-0.1,0.1-0.3,0.2-0.3,0.3c0.1,0.4,0.3,0.4,0.5,0C13.8,22.6,13.6,22.5,13.5,22.3z"/>
	<path fill="#8DA1B0" d="M234.2,27.5c-0.1-2.8-2-5.7-3.9-8.6c-1.8-2.7-3-5.5-3.9-8.5c-1-3.3,0.8-5.9,3.2-7.7
		c2.5-1.9,5.3-3.5,8.7-1.5c3.1,1.8,4.4,5.9,2.8,9c-0.5,0.9-1,1.9-2.1,1.8c-1.1-0.1-1.6-1.1-1.7-2.1c-0.1-0.5-0.1-1-0.1-1.5
		c0-1.6-0.5-3.3-2.4-2.9c-1.7,0.3-3.6,1.1-3.7,3.5c0,1,0.3,1.9,0.9,2.8c2,3.6,3.9,7.3,5.8,10.9c2.1,3.9,1.7,7.6-0.5,11.3
		c-3.3,5.6-10.8,8.5-16.7,6.3c-2.8-1-4.5-3.3-6-5.7c-0.4-0.6-0.4-1.7-0.2-2.4c0.8-2.7,1.7-5.3,3.3-7.7c0.4-0.7,1.1-1.4,2-1
		c0.9,0.5,1.6,1.2,1,2.4c-0.4,0.9-1,1.8-1.3,2.7c-1.5,4.8,0.7,7.8,5.8,7.8C230,36.3,234.2,32.7,234.2,27.5z"/>
	<path fill="#8DA1B0" d="M304.8,2.2c1.5,0.2,4.2-0.5,6.7,0.8c1,0.5,1.7,1,1.4,2.2c-0.3,1-1.2,1-2,1c-1,0-2,0-3-0.1
		c-1.3-0.1-2.3,0.5-2.7,1.7c-3.1,7.8-6.7,15.4-8.4,23.7c-0.3,1.5,0,1.6,1.3,1.7c2.2,0.2,4.2-1,6.3-0.9c1.3,0,3.4-1.1,3.6,1.3
		c0.2,1.8-1.3,2.3-3,2.6c-3.4,0.5-6.8,1-10.2,1.7c-1.7,0.3-3.5,0.5-5,1.8c-1.3,1.1-3.3,1.4-4.4-0.3c-1-1.6,0.5-3.2,1.8-3.5
		c4.6-1.2,5.4-4.7,6.6-8.5c1.9-6.3,4.4-12.4,6.6-18.5c0.3-0.7,1.1-1.5,0.1-2.2c-0.8-0.6-1.5,0.2-2.2,0.5c-1.5,0.6-2.9,1.6-4.2,2.6
		c-1,0.8-1.8,0.5-2-0.9c-0.6-3.5,1.4-5.9,5.7-6.4C299.6,2,301.6,2.2,304.8,2.2z"/>
	<path fill="#8BA0AF" d="M403,5.1c0,3.7-1.4,4.9-5.1,4.2c-1-0.2-1.5-0.1-1.9,0.8c-0.4,0.9-1,1.8-1.3,2.7c-2.3,6.8-4.5,13.7-6.9,20.5
		c-0.7,1.9,0,2.1,1.4,1.8c3.7-0.7,7.4-1.5,11-2.5c1.8-0.5,3.6-0.5,5.4-0.5c0.5,0,1,0.3,1.1,0.8c0.1,0.6-0.3,0.8-0.7,1.1
		c-2.7,1.8-5.8,2.1-8.8,3c-3.8,1.1-7.8,1.5-11.2,3.6c-1.2,0.7-2.7,1-3.6-0.3c-0.7-1-1.3-2-0.6-3.6c3.1-6.9,4.9-14.3,7.4-21.4
		c1.6-4.5,3.6-8.8,6-13c1.4-2.4,3.3-2.8,5.4-2.2C402.8,0.9,403.1,3,403,5.1z"/>
	<path fill="#8BA0AF" d="M126.9,24c0.2,1.1-0.6,1.9-0.8,2.8c-0.3,1.1-1,2-1.2,3.3c-0.4,3.7,0,4.1,3.8,3.2c0.8-0.2,1.7-0.5,2.1,0.5
		c0.3,0.7-0.3,1.2-0.8,1.7c-3.3,3.5-6.2,3.3-8.8-0.7c-0.7-1.1-0.9-1.6-2-0.5c-0.6,0.6-1.1,1.2-1.8,1.7c-1.7,1.4-3.1,0.9-3.6-1.2
		c-0.2-0.8,0-1.7-0.1-2.5c0-0.3-0.2-0.5-0.4-0.8c-0.3,0.2-0.7,0.2-0.8,0.5c-1,1.7-2.3,3.3-3.7,4.6c-0.8,0.7-1.5,1.9-2.9,1
		c-1.1-0.8-1.2-1.9-1-3.1c0.2-1,0.6-1.9,0.9-2.8c0.9-2.7,1.7-5.3,2.4-8c0.7-3,2.6-3.4,4.4-0.9c0.9,1.3,1.2,1.1,2,0.3
		c1.2-1.2,3.3-1.7,4-0.5c2,3.8,3.2,1,4.7-0.2c0.6-0.5,1.2-1.3,2.1-0.8C126.5,22,127.1,22.8,126.9,24z"/>
	<path fill="#C2B7C0" d="M40,102.2c-2,0-4,0-6,0c-5.7-2.6-7.7-9.3-4.2-14.2c0.8-1.1,1.7-2.1,3.3-1.9l0,0c0.4,2-0.9,3.4-1.5,5.1
		c-1.3,3.7,0.2,7.4,3.7,8.5c3.1,1,5.6-1,7.4-2.9c2.8-3,4.4-6.9,5.5-10.9c0.1-0.4-0.2-0.9-0.3-1.4c-0.4,0.2-0.8,0.4-1.2,0.6
		c-0.6,0.3-1.1,0.8-1.7,1c-1.9,0.5-2.8-0.3-2.8-2.3c0-2.9,2-5.1,2.8-7.8c0.2-0.8,1.2-1.1,2.1-0.8c1.7,0.5,0.9,1.9,1.1,2.9
		c-0.6,0.1-0.9,0.5-1,1c0,0.3-0.1,0.6,0,1c-0.4,0.2-1.1,0.1-0.4,0.8c0.2-0.2,0.3-0.5,0.5-0.7c0.6-0.1,0.9-0.4,1-1
		c0.1-0.3,0.1-0.7,0-1c2.2,0.2,2.7-1.5,3.4-3c0.8-1.5,1.5-3,2.4-4.3c0.8-1.1,2-1.1,3.1-0.2c0.8,0.7,1.2,1.5,0.5,2.6
		c-0.5,0.7-0.7,1.6-1.3,2.1c-3.5,2.8-4.1,6.9-5.2,10.9c-1.5,5.6-3.7,10.9-8.3,14.8C41.9,101.6,41.1,102.2,40,102.2z"/>
	<path fill="#8A9FAE" d="M470,32.3c0,0.3,0,0.5,0,0.8c-1.2,3.8-4.5,5-7.8,5.9c-2.2,0.5-3.9-1.4-4.7-3c-1.2-2.5-2.3-2.2-4.1-0.7
		c-2.9,2.3-5.2,2.6-6.6,1.1c-1.3-1.3-1.4-4.7,0.3-7c3.2-4.4,6.4-8.9,12.6-9.4c2.8-0.3,4.2,0.7,3.2,3.3c-0.9,2.1-1.6,4.3-2.3,6.4
		c-0.5,1.5-0.1,2.5,0.4,3.7c0.7,1.5,1.6,1.6,3.1,0.9C466,33.5,467.5,31.5,470,32.3z M451,32.1c0.6-0.1,0.9-0.4,1-1
		c0.7-0.2,1.1-0.6,1-1.3c0-0.2-0.5-0.5-0.6-0.4c-0.7,0.4-0.6,1-0.5,1.7C451.3,31.1,451,31.5,451,32.1c-0.3,0.2-1,0-0.4,0.7
		C450.7,32.6,450.8,32.4,451,32.1z M456,26.1c-0.7,0.2-1.2,0.5-1.1,1.3c0,0.2,0.5,0.5,0.6,0.4C456.2,27.5,456.1,26.8,456,26.1
		c0.5,0,1-0.1,0.5-0.7C456.3,25.6,456.2,25.9,456,26.1z"/>
	<path fill="#8EA2B1" d="M180,9.4c-0.4,2.2-1.5,4.7-2.8,7.2c-0.5,1-0.9,2.1-1.5,3.1c-0.5,1-0.3,1.5,0.9,1.5c1.7,0,3.3-0.1,5,0
		c0.4,0,1,0.3,1.2,0.6c0.3,0.7-0.2,1.2-0.7,1.6c-1,0.8-2.2,0.5-3.3,0.8c-5.5,1.5-6.4,2.6-6.7,8.6c-0.1,1.7-0.5,3.3-1.3,4.7
		c-1,2-2.6,2-3.6-0.1c-0.4-0.9-1.2-1.8-0.7-3.2c0.8-2.7,2.4-5.5,0.7-8.5c-0.3-0.5,0.1-1.4,0.6-1.8c4.1-3.2,4.6-8.2,6.4-12.5
		c0.6-1.5,1.2-3.1,2-4.5c0.4-0.9,1.2-1.8,2.3-1.5c1,0.3,1.6,1.2,1.6,2.3C180,8.1,180,8.4,180,9.4z"/>
	<path fill="#8EA2B1" d="M257,8.5c-0.3,2.8-1.5,5.3-2.8,7.8c-0.7,1.5-2.2,3.6-1.7,4.4c0.8,1.3,3.1,0.3,4.7,0.4c0.3,0,0.7,0,1,0
		c0.7,0,1.4,0,1.6,0.8c0.2,1-0.6,1.5-1.4,1.8c-1.4,0.6-2.8,0.6-4.3,1.1c-4.1,1.6-4.9,2.3-5.1,6.6c-0.1,2.2-0.2,4.3-1.4,6.2
		c-1,1.7-2.4,1.7-3.4,0c-0.7-1.2-1.1-2.4-0.7-4.1c0.7-2.4,2.3-4.9,0.5-7.6c-0.5-0.7,0-1.7,0.7-2.2c3.9-2.9,4.3-7.6,6-11.6
		c0.7-1.5,1.2-3,1.9-4.5c0.5-1.3,1.1-2.6,2.8-2.1C256.8,5.9,257.1,7.2,257,8.5z"/>
	<path fill="#8DA1B0" d="M332,32.7c0-5.3,5.7-12.5,10.8-13.3c1.7-0.3,3.1,0.5,4.2,1.9c1.2,1.5,0.6,2.9-0.2,4.1
		c-2.3,3.4-5.3,5.8-9.1,7.4c-0.5,0.2-1.5,0.3-1.4,1c0.2,0.8,1,1.3,1.9,1.4c2.1,0.2,3.8-0.9,5.7-1.5c1-0.3,2.1-1,2.7,0
		c0.8,1.4-0.7,2.1-1.5,2.6c-1.5,1-3.1,1.9-4.8,2.5C335.8,40.3,332,37.4,332,32.7z M340.2,26.3c1.1,0,1.9-0.5,2.4-1.5
		c0-0.1-0.3-0.6-0.5-0.6c-1.1,0.1-1.7,0.9-2.2,1.8c-0.3,0.2-0.9,0.4-0.5,0.8C339.8,27.2,340,26.7,340.2,26.3z"/>
	<path fill="#8DA1B0" d="M133,32.5c0-5.2,5.3-11.7,10.5-13.1c1.9-0.5,3.2,0.4,4.3,1.6c1.1,1.2,1.1,2.6,0.2,4.1
		c-2.3,3.6-5.5,6-9.4,7.8c-0.5,0.2-1.5,0.1-1.1,1.1c0.2,0.5,0.9,1,1.5,1.1c1.1,0.3,2.2,0,3.4-0.5c1.3-0.6,2.8-1,4.2-1.4
		c0.4-0.1,0.9,0.3,1.2,0.6c0.1,0.1,0.1,0.6-0.1,0.9c-1.4,2.6-8.3,5.2-11,4.2C134.5,38,133,35.4,133,32.5z M141.2,26.3
		c1.1,0,1.9-0.5,2.4-1.5c0-0.1-0.3-0.6-0.5-0.6c-1.1,0.1-1.7,0.9-2.2,1.8c-0.3,0.2-0.9,0.4-0.5,0.8C140.8,27.2,141,26.7,141.2,26.3z
		"/>
	<path fill="#8DA1B0" d="M44,39.1c-5.4,0.1-8.5-4.2-6.8-9.1c1.7-4.9,4.9-8.5,9.9-10.4c2.1-0.8,3.5,0.1,4.8,1.5
		c1.3,1.5,0.8,3.1-0.1,4.5c-2.3,3.1-5.1,5.6-8.7,7.1c-0.5,0.2-1.9,0.1-1.5,1.3c0.3,0.8,1.1,1.2,2,1.2c1,0,1.9-0.2,2.9-0.6
		c1.2-0.6,2.4-0.9,3.7-1.3c0.7-0.2,1.4-0.1,1.7,0.6c0.1,0.3-0.1,1-0.3,1.3C49.2,37.5,46.3,38.7,44,39.1z M43.9,27.1
		c-0.2,0.1-0.5,0.3-0.7,0.4c0.1,0.1,0.3,0.3,0.4,0.4c0.1-0.2,0.3-0.4,0.4-0.7c0.6-0.1,0.9-0.4,1.1-0.9c1.1,0,1.9-0.5,2.4-1.5
		c0-0.1-0.3-0.6-0.5-0.6c-1.1,0.1-1.7,0.9-2.2,1.8C44.4,26.2,44,26.5,43.9,27.1z"/>
	<path fill="#8BA0AF" d="M423.1,25.3c0.1,5.5-1.9,9.9-6.7,12.9c-3.3,2.1-6.1,0.9-7.2-2.8c-1.6-5.4,3.7-14.5,8.4-15.9
		c3.5-1.1,5.3,0.1,5.5,3.9C423.1,24,423.1,24.6,423.1,25.3z M419,25.1c-2.9,0.4-5.1,2.7-5.9,6.1c-0.2,1.1-0.5,2.4,1,2.9
		c1.1,0.4,1.9-0.3,2.4-1.2C417.9,30.5,419.6,28.2,419,25.1c0.4-0.1,1.1,0,0.5-0.7C419.3,24.6,419.1,24.9,419,25.1z"/>
	<path fill="#8BA0AF" d="M197.1,25.3c0.1,5.5-1.9,9.9-6.7,12.9c-3.3,2-6.2,0.9-7.2-2.9c-1.5-5.4,3.7-14.5,8.4-15.9
		c3.5-1.1,5.3,0.1,5.5,3.9C197.1,24,197.1,24.6,197.1,25.3z M193,25.1c-2.9,0.4-5.1,2.7-5.9,6.1c-0.2,1.1-0.5,2.4,1,2.9
		c1.1,0.4,1.9-0.3,2.4-1.2C191.9,30.5,193.6,28.2,193,25.1c0.4-0.1,1.1,0,0.5-0.7C193.3,24.6,193.1,24.9,193,25.1z"/>
	<path fill="#8BA0AF" d="M102.1,25.4c0.1,5.5-1.9,10-6.7,12.9c-3.2,1.9-5.8,1-7-2.5c-0.3-1.1-0.5-2.3-0.4-3.4c0.5-5,2.8-9.1,6.9-12
		c1.6-1.2,3.6-1.8,5.6-0.8c2.1,1,1.5,3.1,1.6,4.9C102.1,24.7,102.1,25,102.1,25.4z M98,25.1c-2.9,0.4-5.1,2.7-5.9,6.1
		c-0.2,1.1-0.5,2.4,1,2.9c1.1,0.4,1.9-0.3,2.4-1.2C96.9,30.5,98.6,28.2,98,25.1c0.4-0.1,1.1,0,0.5-0.7C98.3,24.6,98.1,24.9,98,25.1z
		"/>
	<path fill="#8EA2B1" d="M69.1,31.4c0.6-3.6,2.6-7.7,6.3-10.8c0.9-0.7,1.9-1.3,2.8-2c1.2-1.1,2.3-1.9,3.9-0.8
		c1.5,1.1,3.1,4.2,2.7,5.5c-0.5,1.7-2.1,2.3-3.9,1c-1.2-0.9-2-1.1-2.9-0.1c-1.9,2-4,4-4.8,6.7c-1,2.9,1.1,5,4.1,4.2
		c1.2-0.4,2.3-1.2,3.6-1.7c0.6-0.2,1.3-0.4,1.8,0.2c0.5,0.6,0.4,1.2,0.1,1.8c-1.4,2.7-6.3,4.6-9.6,3.6C70.7,38.4,69,35.7,69.1,31.4z
		"/>
	<path fill="#8EA2B1" d="M433.3,39.2c-5,0-7.6-4.2-5.9-9.4c1.7-5.3,5.2-9.1,9.8-12c1.2-0.7,2.1-0.5,3.2,0.3c1.3,0.9,1.7,2.4,2.3,3.7
		c0.5,1.2,0,2.3-1,3c-0.9,0.6-2,0.6-2.7-0.2c-1.7-2-3-0.7-3.9,0.5c-1.4,1.8-3.2,3.4-3.9,5.7c-0.4,1.3-0.5,2.6,0.6,3.7
		c1.1,1.1,2.4,1,3.7,0.5c1.1-0.4,2.1-1,3.1-1.5c0.8-0.3,1.7-0.5,2.2,0.4c0.4,0.8,0.1,1.6-0.5,2.3C438.4,38.2,436.1,39.3,433.3,39.2z
		"/>
	<path fill="#C2B7C0" d="M73,83.2c3.7,0.2,7.1-0.8,10.6-1.8c0.8-0.2,1.8-0.4,2.2,0.5c0.4,0.9-0.4,1.7-1.2,1.9
		c-1.9,0.5-3.7,1.2-5.7,1.5c-2.5,0.4-5.2,0.5-7.3,2.5c-0.8,0.7-1.9,0.5-2.7-0.2c-0.8-0.7-1.2-1.7-0.7-2.7c3.3-6.8,4.2-14.5,7.7-21.2
		c0.8-1.6,1.4-3.3,2.8-4.6c1.3-1.2,2.8-1.2,4.1-0.4c1.7,1.1,1.4,3,1.1,4.5c-0.3,1.4-1.5,2.3-3,1.9c-1-0.3-2-1-2.4,0.4
		C76.8,71,73.7,76.2,73,82.1C72.9,82.5,73,82.8,73,83.2c-0.4,0.1-1.1,0-0.5,0.7C72.7,83.7,72.9,83.4,73,83.2z"/>
	<path fill="#C2B7C0" d="M169,83.2c3.7,0.2,7.1-0.8,10.6-1.8c0.8-0.2,1.8-0.4,2.2,0.5c0.4,0.9-0.4,1.7-1.2,1.9
		c-1.9,0.5-3.7,1.2-5.7,1.5c-2.5,0.4-5.2,0.5-7.3,2.5c-0.8,0.7-1.9,0.5-2.7-0.2c-0.8-0.7-1.2-1.7-0.7-2.7c3.3-6.8,4.2-14.5,7.7-21.2
		c0.8-1.6,1.4-3.3,2.8-4.6c1.3-1.2,2.8-1.2,4.1-0.4c1.7,1.1,1.4,3,1.1,4.5c-0.3,1.4-1.5,2.3-3,1.9c-1-0.3-2-1-2.4,0.4
		c-1.6,5.7-4.7,10.8-5.5,16.8C168.9,82.5,169,82.8,169,83.2c-0.4,0.1-1.1,0-0.5,0.7C168.7,83.7,168.9,83.4,169,83.2z"/>
	<path fill="#C2B7C0" d="M238,83.2c3.7,0.2,7.1-0.8,10.6-1.8c0.8-0.2,1.8-0.4,2.2,0.5c0.4,0.9-0.4,1.7-1.2,1.9
		c-1.9,0.5-3.7,1.2-5.7,1.5c-2.5,0.4-5.2,0.5-7.3,2.5c-0.8,0.7-1.9,0.5-2.7-0.2c-0.8-0.7-1.2-1.7-0.7-2.7c3.3-6.8,4.2-14.5,7.7-21.2
		c0.8-1.6,1.4-3.3,2.8-4.6c1.3-1.2,2.8-1.2,4.1-0.4c1.7,1.1,1.4,3,1.1,4.5c-0.3,1.4-1.5,2.3-3,1.9c-1-0.3-2-1-2.4,0.4
		c-1.6,5.7-4.7,10.8-5.5,16.8C237.9,82.5,238,82.8,238,83.2c-0.4,0.1-1.1,0-0.5,0.7C237.7,83.7,237.9,83.4,238,83.2z"/>
	<path fill="#C2B7C0" d="M334,83.2c3.7,0.2,7.1-0.8,10.6-1.8c0.8-0.2,1.8-0.4,2.2,0.5c0.4,0.9-0.4,1.7-1.2,1.9
		c-1.9,0.5-3.7,1.2-5.7,1.5c-2.5,0.4-5.2,0.5-7.3,2.5c-0.8,0.7-1.9,0.5-2.7-0.2c-0.8-0.7-1.2-1.7-0.7-2.7c3.3-6.8,4.2-14.5,7.7-21.2
		c0.8-1.6,1.4-3.3,2.8-4.6c1.3-1.2,2.8-1.2,4.1-0.4c1.7,1.1,1.4,3,1.1,4.5c-0.3,1.4-1.5,2.3-3,1.9c-1-0.3-2-1-2.4,0.4
		c-1.6,5.7-4.7,10.8-5.5,16.8C333.9,82.5,334,82.8,334,83.2c-0.4,0.1-1.1,0-0.5,0.7C333.7,83.7,333.9,83.4,334,83.2z"/>
	<path fill="#C2B7C0" d="M405,83.2c3.7,0.2,7.1-0.8,10.6-1.8c0.8-0.2,1.8-0.4,2.2,0.5c0.4,0.9-0.4,1.7-1.2,1.9
		c-1.9,0.5-3.7,1.2-5.7,1.5c-2.5,0.4-5.2,0.5-7.3,2.5c-0.8,0.7-1.9,0.5-2.7-0.2c-0.8-0.7-1.2-1.7-0.7-2.7c3.3-6.8,4.2-14.5,7.7-21.2
		c0.8-1.6,1.4-3.3,2.8-4.6c1.3-1.2,2.8-1.2,4.1-0.4c1.7,1.1,1.4,3,1.1,4.5c-0.3,1.4-1.5,2.3-3,1.9c-1-0.3-2-1-2.4,0.4
		c-1.6,5.7-4.7,10.8-5.5,16.8C404.9,82.5,405,82.8,405,83.2c-0.4,0.1-1.1,0-0.5,0.7C404.7,83.7,404.9,83.4,405,83.2z"/>
	<path fill="#8CA0AF" d="M355.2,35.3c2.2-0.5,2.9-2.3,2.3-4.1c-0.6-1.9-0.6-3.9-1.1-5.8c-0.8-2.8-0.9-5.9,1.9-8.2
		c1.7-1.3,3.2-1.5,5-0.3c1.5,1.1,2.4,3.8,1.6,5.4c-0.6,1.1-1.6,1-2.5,0.3c-0.6-0.5-0.8-1.7-1.8-1.1c-0.8,0.5-0.8,1.6-0.5,2.3
		c1.3,3.4,0.8,6.9,1,10.3c0.3,4.1-4.3,7.4-9.4,5.7c-0.8-0.3-1.3-1-1.6-1.8c-0.7-2.4,0.8-5.6,3.2-6.6c0.6-0.3,1.3-0.4,1.9,0
		c1.1,0.7,0.2,1.4-0.1,2.1c-0.2,0.5-0.2,1-0.3,1.5c-0.2,0.2-0.6,0.6-0.6,0.6C354.7,36.3,355,35.8,355.2,35.3z"/>
	<path fill="#8EA3B1" d="M316.1,20.4c1.6,0,3,1.8,2.5,3.4c-0.3,0.8-0.7,1.5-1.1,2.2c-0.5,0.9-1,2.3-0.2,2.7c1,0.5,1.3-1,1.8-1.8
		c1.5-2.2,2.8-4.5,4.8-6.3c1.2-1.1,2.4-1.7,4-1.5c0.9,0.1,2.2-0.3,2.6,0.9c0.3,1.1-0.8,1.6-1.6,2.1c-4.5,2.6-6.4,7-7.9,11.6
		c-0.3,1.1-0.7,2.2-1.1,3.3c-0.4,1-0.9,2-2,1.9c-1.1-0.1-2.6-0.7-2.8-1.8c-0.7-4-2.6-7.9-2.1-12.1c0.2-1.4,0.8-2.5,1.4-3.7
		C314.8,20.8,315.4,20.3,316.1,20.4z"/>
	<path fill="#8DA1B0" d="M56,33.5c1.2-4.1,2.2-8.3,3.7-12.2C61.4,16.6,63,12,64,7.2c0.1-0.6,0.3-1.3,0.6-1.8
		c0.7-1.1,1.8-1.4,3.1-1.1C69,4.5,69,5.6,69,6.6c0.1,1.5-0.5,2.9-1,4.3c-2.1,6.2-4.8,12.2-6.5,18.6c-0.6,2.2-0.7,4.2-0.6,6.3
		c0,1,0.3,2.1-1.2,2.3c-1.2,0.2-2.3,0.2-2.9-1.3C56.6,35.8,55.7,34.8,56,33.5z"/>
	<path fill="#C2B7C0" d="M299,82.2c-1.1,0.9-2.1,1.9-3.3,2.8c-2.9,2.1-5.1,1.9-7.1-1c-1.2-1.7-1.7-1.3-2.7-0.1
		c-1.4,1.5-3.1,2-4.8,0.7c-1.5-1.1-1.1-2.6,0.3-5.3c2.1-4,5.4-5.9,9.7-6.7c1.9-0.4,2,0.4,2,1.7c0,1.7-1.3,3-1.8,4.6
		c-0.4,1.3-0.5,2.6,0.6,3.7c1.2,1.1,2.4,0.8,3.5-0.2c0.2-0.2,0.5-0.4,0.8-0.6c0.9-0.7,1.9-0.4,2.9-0.5C299,81.5,299,81.8,299,82.2z
		 M286,79.2c0.4-0.2,1.2-0.1,0.4-0.9C286.3,78.6,286.1,78.9,286,79.2c-0.5,0.1-1.2,0-0.5,0.8C285.7,79.7,285.9,79.4,286,79.2z"/>
	<path fill="#C2B7C0" d="M134,82.2c-1.1,0.9-2.1,1.9-3.3,2.8c-2.9,2.1-5.1,1.9-7.1-1c-1.2-1.7-1.7-1.3-2.7-0.1
		c-1.4,1.5-3.1,2-4.8,0.7c-1.5-1.1-1.1-2.6,0.3-5.3c2.1-4,5.4-5.9,9.7-6.7c1.9-0.4,2,0.4,2,1.7c0,1.7-1.3,3-1.8,4.6
		c-0.4,1.3-0.5,2.6,0.6,3.7c1.2,1.1,2.4,0.8,3.5-0.2c0.2-0.2,0.5-0.4,0.8-0.6c0.9-0.7,1.9-0.4,2.9-0.5C134,81.5,134,81.8,134,82.2z
		 M121,79.2c0.4-0.2,1.2-0.1,0.4-0.9C121.3,78.6,121.1,78.9,121,79.2c-0.5,0.1-1.2,0-0.5,0.8C120.7,79.7,120.9,79.4,121,79.2z"/>
	<path fill="#C2B7C0" d="M466,82.2c-1.1,0.9-2.1,1.9-3.3,2.8c-2.9,2.1-5.1,1.9-7.1-1c-1.2-1.7-1.7-1.3-2.7-0.1
		c-1.4,1.5-3.1,2-4.8,0.7c-1.5-1.1-1.1-2.6,0.3-5.3c2.1-4,5.4-5.9,9.7-6.7c1.9-0.4,2,0.4,2,1.7c0,1.7-1.3,3-1.8,4.6
		c-0.4,1.3-0.5,2.6,0.6,3.7c1.2,1.1,2.4,0.8,3.5-0.2c0.2-0.2,0.5-0.4,0.8-0.6c0.9-0.7,1.9-0.4,2.9-0.5C466,81.5,466,81.8,466,82.2z
		 M453,79.2c0.4-0.2,1.2-0.1,0.4-0.9C453.3,78.6,453.1,78.9,453,79.2c-0.5,0.1-1.2,0-0.5,0.8C452.7,79.7,452.9,79.4,453,79.2z"/>
	<path fill="#C2B7C0" d="M31.1,77.2c1.5,0.2,1.8-1.1,2.5-2c0.6-0.9,1.5-1.4,2.6-0.9c1.1,0.5,0.9,1.6,0.5,2.6
		c-0.3,0.9-0.5,1.9-0.9,2.8c-0.5,1.1-1.3,2.2-0.2,3.1c1,0.8,2.2,0.5,3.3,0c0.8-0.4,1.5-0.9,2,0.2c0.3,0.7-0.4,1.2-0.8,1.7
		c-1.9,2.4-4.6,1.2-7,1.5l0,0c-0.2-2.2-0.5-3.9-3.1-1.6c-1.2,1-2.8,1-4.1-0.2c-1.1-1.1-1-2.5-0.5-3.7c0.7-2,1.7-3.9,2.5-5.9
		c0.4-0.9,0.8-1.9,2.1-1.6c1.4,0.3,1.1,1.4,1.1,2.4c0,0.5,0,1-0.1,1.5c-0.6,0.1-0.9,0.5-1,1c-0.9,0.5-1.3,1.2-0.4,1.8
		c0.6,0.4,1.2-0.1,1.4-0.8C31,78.5,31.1,77.9,31.1,77.2z M28.5,81.9l0.2-0.3l-0.3,0L28.5,81.9z"/>
	<path fill="#C2B8C1" d="M382.5,83.2c0.5,0,0.8-0.1,1.2-0.1c1.1,0.2,2.4-1.8,3-0.3c0.8,1.9-1.5,2.3-2.7,2.8c-3.5,1.6-6,0.7-7.4-2.3
		c-0.4-1-0.7-1.8-0.2-2.8c1.2-2.8,2.8-5.2,5.1-7.2c1.3-1.2,2.7-1.2,4.2-1c1.9,0.2,2.7,1.8,2,3.6c-1,2.7-3,4.3-5.6,5.3
		c-0.8,0.3-1.8,0.8-1.6,1.6C380.7,83.6,381.9,83.1,382.5,83.2z M382,77.2c0.6-0.1,0.9-0.4,1-1c0.3-0.1,1.1,0,0.5-0.8
		c-0.2,0.3-0.3,0.5-0.5,0.8C382.4,76.2,382.1,76.6,382,77.2c-0.4,0.1-1.2,0.1-0.5,0.8C381.7,77.7,381.9,77.4,382,77.2z"/>
	<path fill="#C2B8C1" d="M215.7,83.2c0.3,0,0.7-0.1,1,0c1.1,0.2,2.4-1.8,3-0.3c0.7,1.9-1.5,2.3-2.7,2.8c-3.7,1.6-6.5,0.5-7.6-2.8
		c-0.3-0.8-0.3-1.6,0-2.4c1.2-2.8,2.8-5.2,5.1-7.2c1.3-1.2,2.7-1.2,4.2-1c1.9,0.3,2.7,1.8,2,3.6c-1,2.7-3,4.3-5.6,5.3
		c-0.8,0.3-1.8,0.8-1.6,1.6C213.7,83.5,214.9,83.2,215.7,83.2z M215,77.2c0.6-0.1,0.9-0.4,1-1c0.3-0.1,1.1,0,0.5-0.8
		c-0.2,0.3-0.3,0.5-0.5,0.8C215.4,76.2,215.1,76.6,215,77.2c-0.4,0.1-1.2,0.1-0.5,0.8C214.7,77.7,214.9,77.4,215,77.2z"/>
	<path fill="#C3B8C1" d="M436.9,81.7c0,2.4,0.7,2.8,3.1,2c0.2-0.1,0.3-0.3,0.4-0.3c1.2,0.1,2.4-2.3,3.3-0.3c0.6,1.3-1.2,2.3-2.3,2.9
		c-1.9,1-3.9,2.1-5.9,0.2c-2.3-2.2-3-3-1.8-6.4c1.2-3.7,3.7-6.2,6.7-8.1c2.4-1.5,4.7,0.1,4.6,2.9c0,1.3-0.7,1.8-1.9,1.6
		c-1.2-0.2-2.2-1.6-3.5-0.1C438.1,77.5,436.9,79.7,436.9,81.7z"/>
	<path fill="#C3B8C1" d="M269.9,81.6c0,2.4,0.7,2.9,3,2.1c0.3-0.1,0.6-0.4,0.9-0.4c1,0,2.1-2,2.9-0.2c0.5,1.1-1,2-1.8,2.6
		c-2.4,1.8-4.5,1.9-6.3,0.5c-2.5-1.9-2.7-3.1-1.8-6.4c1-3.8,3.6-6.2,6.6-8.2c2.4-1.6,4.7,0,4.7,2.8c0,1.3-0.7,2-1.8,1.7
		c-1.4-0.4-2.6-1.4-3.9,0.3C271,77.9,269.9,79.5,269.9,81.6z"/>
	<path fill="#C3B8C1" d="M104.9,81.9c0.1,2.3,0.7,2.5,3.3,1.7c1.1-0.4,2.6-2.1,3.4-0.7c0.8,1.5-1.2,2.5-2.4,3.2
		c-1.9,1.1-3.8,1.9-5.9,0c-2.3-2.1-2.5-2.9-1.7-6c1-3.8,3.6-6.2,6.5-8.2c2.4-1.7,4.7-0.3,4.9,2.5c0.1,1.5-0.7,2.3-2.1,1.8
		c-1.3-0.5-2.2-1.2-3.5,0.1C105.9,77.8,104.9,79.8,104.9,81.9z"/>
	<path fill="#C2B7C0" d="M99,76.6c-0.2,3.6-1.3,6.7-4.5,8.7c-1.5,1-3.3,1.5-4.5,0.2c-1.2-1.3-2.7-3-1.6-5.3c1.2-2.4,2.4-4.7,4.4-6.5
		c1.3-1.2,2.7-2,4.5-1.4C99.3,73.1,99.1,74.9,99,76.6z M96.1,77.6c-0.2-0.5-0.2-0.8-0.4-1c-0.4-0.4-0.8-0.4-1.3-0.1
		c-2.1,1.1-2.2,3.5-3.1,5.4c-0.1,0.2,0.3,1,0.6,1.2c0.4,0.2,1.2,0.2,1.4,0C94.6,81.4,95.5,79.5,96.1,77.6z"/>
	<path fill="#C2B7C0" d="M264,76.4c-0.4,3.6-1,7.1-4.7,9.1c-1.6,0.9-3.3,1.3-4.5-0.2c-1.1-1.3-2.3-2.9-1.4-4.9
		c1.2-2.6,2.5-5,4.7-6.9c1.4-1.2,2.8-1.8,4.5-1.1C264.2,73.2,264.1,74.8,264,76.4z M261,77.7c-0.2-1.2-0.7-1.7-1.7-1.2
		c-1.6,0.8-3.4,4.1-3.2,5.8c0.2,1.1,1.4,1.2,1.9,0.8C259.7,81.5,260.5,79.5,261,77.7z"/>
	<path fill="#C2B7C0" d="M360,77.9c-0.7,2.5-1.1,6-4.8,7.7c-1.5,0.7-3.1,1.1-4.1-0.1c-1.2-1.4-2.7-3-1.6-5.3c1.1-2.2,2.1-4.4,4-6.2
		c1.4-1.3,2.8-2.5,4.8-1.8C360.5,73.1,360,75.2,360,77.9z M353.5,83.1c1.2-0.2,1.2-0.2,2.6-3.2c0.5-1.1,1.8-2.6,0.3-3.4
		c-1.4-0.8-2.3,0.9-2.9,1.9c-0.7,1.1-1,2.4-1.3,3.6C352,82.9,352.9,83,353.5,83.1z"/>
	<path fill="#C2B7C0" d="M431.1,76.4c-0.4,3.6-1.1,7.1-4.7,9.1c-1.6,0.9-3.3,1.3-4.5-0.2c-1.1-1.3-2.3-2.9-1.4-4.9
		c1.2-2.6,2.5-5,4.7-6.9c1.4-1.2,2.8-1.8,4.5-1.1C431.2,73.2,431,74.8,431.1,76.4z M424.4,83.1c0.2,0,0.6,0.1,0.8-0.1
		c1.1-0.7,3.1-5.1,2.7-6c-0.1-0.3-0.5-0.6-0.7-0.6c-2.7,0.3-3.1,2.5-3.6,4.5c-0.1,0.5-0.4,0.9-0.4,1.4
		C423.3,82.7,423.7,83.1,424.4,83.1z"/>
	<path fill="#C1B6C0" d="M466,82.2c0-0.3,0-0.7,0-1c0.2-3.8,2.2-7.1,3.1-10.8c0.6-2.4,1.8-4.5,2-7c0.1-1.5,1.2-2.5,2.7-2.1
		c1.9,0.5,1.3,2.2,0.9,3.3c-1.6,4.8-3.3,9.6-5.1,14.3c-0.7,1.8-1,3.5-0.3,5.2c0.3,0.8,0.8,1.6-0.3,2c-0.8,0.3-1.6,0-2.3-0.6
		C465.8,84.5,466,83.3,466,82.2z"/>
	<path fill="#C1B6C0" d="M134,82.2c0-0.3,0-0.7,0-1c0.2-3.8,2.2-7.1,3.1-10.8c0.6-2.4,1.8-4.5,2-7c0.1-1.5,1.2-2.5,2.7-2.1
		c1.9,0.5,1.3,2.2,0.9,3.3c-1.6,4.8-3.3,9.6-5.1,14.3c-0.7,1.8-1,3.5-0.3,5.2c0.3,0.8,0.8,1.6-0.3,2c-0.8,0.3-1.6,0-2.3-0.6
		C133.8,84.5,134,83.3,134,82.2z"/>
	<path fill="#C1B6C0" d="M299,82.2c0-0.3,0-0.7,0-1c0.2-3.8,2.2-7.1,3.1-10.8c0.6-2.4,1.8-4.5,2-7c0.1-1.5,1.2-2.5,2.7-2.1
		c1.9,0.5,1.3,2.2,0.9,3.3c-1.6,4.8-3.3,9.6-5.1,14.3c-0.7,1.8-1,3.5-0.3,5.2c0.3,0.8,0.8,1.6-0.3,2c-0.8,0.3-1.6,0-2.3-0.6
		C298.8,84.5,299,83.3,299,82.2z"/>
	<path fill="#C1B6BF" d="M196.1,77.9c0-1.2-0.1-2.3,0-3.5c0.1-1,0.8-1.3,1.8-1.2c0.8,0,1.1,0.6,1.2,1.3c0,0.8-0.1,1.7,0,2.5
		c0,0.3,0.3,0.7,0.4,0.7c0.3,0,0.7-0.2,0.8-0.4c0.9-1.4,1.8-2.8,3-3.9c1.1-1,2.2-1.4,3.6-1.2c0.5,0.1,1,0.3,1,0.9
		c0,0.3-0.2,0.7-0.4,0.8c-3.9,2.2-5.3,6.1-6.4,10c-0.3,1.2-0.9,2.1-2.3,2.2c-1.8,0.1-1.3-1.5-1.9-2.4
		C195.7,81.9,196.1,79.9,196.1,77.9z"/>
	<path fill="#C1B6BF" d="M363,78.1c0-0.9,0-1.6,0-2.2c0.1-1.1-0.3-2.5,1.4-2.6c1.8-0.1,1.6,1.2,1.6,2.4c0,0.3,0,0.7-0.1,1
		c0,0.5-0.1,1.1,0.5,1.1c0.4,0,1-0.4,1.1-0.8c0.7-1.6,1.9-2.7,3-3.9c0.9-1,2.1-1,3.2-0.8c0.3,0,0.7,0.2,0.8,0.5
		c0.3,0.5,0.1,1-0.3,1.3c-3.8,2.1-5.1,5.8-6.3,9.6c-0.3,0.8-0.4,1.7-1.1,2.1c-1.1,0.7-2.2,1-2.8-0.5C363.2,82.8,362.7,80.4,363,78.1
		z"/>
	<path fill="#C4B9C2" d="M194.9,79.9c-0.1,0.3-0.1,0.6-0.2,0.9c-0.9,2.8-3.4,4.1-5.7,5.1c-2.4,1.1-5.3-1.9-4.6-4.6
		c0.7-2.3,1.8-4.6,2.8-6.8c0.4-0.8,1.2-1.8,2.4-1.1c1.1,0.7,1.7,1.6,0.6,2.8c-1.1,1.1-1.6,2.5-2.1,3.9c-0.1,0.4,0,1,0.2,1.4
		c0.4,0.8,1.1,0.4,1.7,0.1c1.1-0.7,2.2-1.4,3.3-2.2C193.9,79.1,194.4,79.3,194.9,79.9z"/>
	<path fill="#97AAB7" d="M265.1,37.2c-2.9-0.1-3-0.1-3-3c0-3,0.2-3.1,4.1-3c2.7,0.1,2.8,0.3,2.8,3.3
		C268.9,37.1,268.7,37.3,265.1,37.2z"/>
	<path fill="#C4B9C2" d="M315,85.1c0,1.1,0.1,2.6-1.1,3.7c-0.9,0.8-1.9,1.9-3,1.2c-1.7-1-0.1-1.9,0.5-2.7c0.6-0.8,0.8-1.6-0.2-2
		c-1.7-0.8-1.5-2.4-0.9-3.4c0.7-1.4,2.4-0.9,3.6-0.6c1.6,0.3,0.9,1.9,1.1,2.9C315,84.3,315,84.5,315,85.1z"/>
	<path fill="#C4B9C2" d="M150,84.8c0.4,2.1-0.5,4-2.6,5.2c-0.6,0.3-1.3,0.3-1.9-0.1c-0.7-0.6-0.4-1.2,0-1.7c1-1.2,2.2-2.1,0-3.4
		c-1-0.6-0.9-2.2-0.1-3.1c0.8-1,2.2-0.5,3.3-0.4c1.4,0.2,1.2,1.3,1.2,2.3C150,83.8,150,84.2,150,84.8z"/>
	<path fill="#C4B9C2" d="M191.6,70.3c-0.5-0.3-1.1-0.4-1.3-0.8c-0.4-0.5-0.5-1.4,0.1-1.8c0.9-0.6,1.9-1.2,3-1.5
		c0.8-0.2,2.1-0.5,2.5,0.7c0.3,0.9-0.5,1.5-1.2,1.9C193.6,69.4,192.6,69.8,191.6,70.3z"/>
	<path fill="#E0E5E9" d="M14,13.4c-0.2,0.5-0.6,0.9-0.9,0.2c-0.3-0.7,0.1-1.2,0.8-1.5C14,12.5,14,13,14,13.4z"/>
	<path fill="#B9C6CF" d="M12,16.1c0,0.6,0.1,1.2-0.5,1.6c0,0-0.3-0.2-0.3-0.3C11,16.8,11.3,16.3,12,16.1L12,16.1z"/>
	<path fill="#C3CED6" d="M13.5,22.3c0.1,0.1,0.3,0.3,0.3,0.3c-0.2,0.4-0.4,0.4-0.5,0C13.2,22.6,13.4,22.4,13.5,22.3z"/>
	<path fill="#E0E5E9" d="M12,16.1c0.1-0.3,0.2-0.5,0.3-0.8c0.1,0.1,0.3,0.3,0.4,0.4C12.5,15.9,12.2,16,12,16.1L12,16.1z"/>
	<path fill="#E7E2E6" d="M47,79.2c0.3,0,0.7,0,1,0c-0.1,0.6-0.4,0.9-1,1L47,80.1C46.9,79.8,46.9,79.5,47,79.2z"/>
	<path fill="#E7E2E6" d="M47,80.2c-0.2,0.2-0.3,0.5-0.5,0.7C45.9,80.2,46.6,80.3,47,80.2L47,80.2z"/>
	<path fill="#E0E5E9" d="M339.9,26c0.5-0.9,1.1-1.7,2.2-1.8c0.2,0,0.5,0.5,0.5,0.6c-0.5,1-1.3,1.5-2.4,1.5L339.9,26z"/>
	<path fill="#E0E5E9" d="M340.2,26.3c-0.2,0.4-0.4,0.9-0.8,0.5c-0.4-0.4,0.2-0.6,0.5-0.8L340.2,26.3z"/>
	<path fill="#E0E5E9" d="M140.9,26c0.5-0.9,1.1-1.7,2.2-1.8c0.2,0,0.5,0.5,0.5,0.6c-0.5,1-1.3,1.5-2.4,1.5L140.9,26z"/>
	<path fill="#E0E5E9" d="M141.2,26.3c-0.2,0.4-0.4,0.9-0.8,0.5c-0.4-0.4,0.2-0.6,0.5-0.8L141.2,26.3z"/>
	<path fill="#E0E5E9" d="M44.9,26c0.5-0.9,1.1-1.7,2.2-1.8c0.2,0,0.5,0.5,0.5,0.6c-0.5,1-1.3,1.5-2.4,1.5L44.9,26z"/>
	<path fill="#E0E5E9" d="M44.1,27.2c-0.1,0.2-0.3,0.4-0.4,0.7c-0.1-0.1-0.3-0.3-0.4-0.4c0.2-0.1,0.5-0.3,0.7-0.4
		C43.9,27.1,44.1,27.2,44.1,27.2z"/>
	<path fill="#E0E5E9" d="M45.2,26.3c-0.2,0.5-0.5,0.8-1.1,0.9l-0.2-0.2c0.1-0.5,0.4-0.9,1-1L45.2,26.3z"/>
	<path fill="#E7E2E6" d="M31,79.1c-0.2,0.8-0.8,1.3-1.4,0.8c-0.9-0.7-0.5-1.4,0.4-1.8C30.1,78.7,30.4,79,31,79.1z"/>
	<polygon fill="#E7E2E6" points="28.5,81.9 28.3,81.5 28.7,81.6 	"/>
	<path fill="#E7E2E6" d="M383,76.1c0.2-0.3,0.3-0.5,0.5-0.8C384.1,76.1,383.4,76,383,76.1L383,76.1z"/>
	<path fill="#E7E2E6" d="M383,76.2c-0.1,0.6-0.4,0.9-1,1l0,0C382.1,76.6,382.4,76.2,383,76.2L383,76.2z"/>
	<path fill="#E7E2E6" d="M382,77.2c-0.2,0.3-0.3,0.5-0.5,0.8C380.8,77.2,381.7,77.3,382,77.2C382,77.1,382,77.2,382,77.2z"/>
	<path fill="#E7E2E6" d="M216,76.2c-0.1,0.6-0.4,0.9-1,1l0,0C215.1,76.6,215.4,76.2,216,76.2L216,76.2z"/>
	<path fill="#E7E2E6" d="M216,76.1c0.2-0.3,0.3-0.5,0.5-0.8C217.1,76.1,216.4,76,216,76.1L216,76.1z"/>
	<path fill="#E7E2E6" d="M215,77.2c-0.2,0.3-0.3,0.5-0.5,0.8C213.8,77.2,214.7,77.3,215,77.2L215,77.2z"/>
</g>
</svg>
