<?xml version="1.0" encoding="utf-8"?>
<!-- Generator: Adobe Illustrator 18.0.0, SVG Export Plug-In . SVG Version: 6.00 Build 0)  -->
<!DOCTYPE svg PUBLIC "-//W3C//DTD SVG 1.1//EN" "http://www.w3.org/Graphics/SVG/1.1/DTD/svg11.dtd">
<svg version="1.1" id="Layer_1" xmlns="http://www.w3.org/2000/svg" xmlns:xlink="http://www.w3.org/1999/xlink" x="0px" y="0px"
	 viewBox="0 0 74.8 30" enable-background="new 0 0 74.8 30" xml:space="preserve">
<g>
	<path fill="#BEB2BC" d="M3.6,26c5.3-0.6,9.4-2.5,14.1-2.3c-0.7,1.9-2.1,2.1-3.3,2.4c-2.6,0.7-5.1,1.6-7.7,1.9
		c-2.1,0.2-3.9,3.3-5.8,1.3c-2.1-2.2,0.5-4.6,1.1-6.8c1.4-4.9,3.2-9.8,4.9-14.7c0.8-2.4,1.8-4.7,3.5-6.6c1.1-1.3,2.6-1.7,4-0.7
		c1.1,0.8,1.7,2.2,1.3,3.5c-0.4,1.4-1.4,3.3-3,2.4c-2.6-1.4-2.4,0.9-2.7,1.8C7.7,13.9,5.8,19.6,3.6,26z"/>
	<path fill="#BEB3BC" d="M64.8,23.6c-3.8,5.4-5.6,5.9-9.2,2c-1.6-1.7-2.2-0.5-3.2,0.2c-1.6,1.2-3.3,1.9-4.8,0.2
		c-1.4-1.6-0.4-3.3,0.5-4.5c2.3-3,4.4-6,8.8-6.7c3.3-0.5,3.1,0.5,2.3,2.7C59.1,17.7,59,17.8,59,18c-0.5,2.2-2.4,4.5-0.5,6.6
		C60.5,26.6,62.2,23.1,64.8,23.6z"/>
	<path fill="#BEB3BC" d="M65.7,23c0.8-2.5,2-5.9,3-9.4c0.8-2.5,2-4.9,2.2-7.6c0.1-1.6,0.8-3.3,2.7-2.6c1.9,0.7,1.1,2.4,0.6,3.8
		c-1.5,4.2-3,8.4-4.4,12.6c-0.5,1.6-1.1,3.1-1,4.8c0,1.1,0.8,3.2-1.2,3.1C65.7,27.5,65.8,25.5,65.7,23z"/>
	<path fill="#BFB3BD" d="M42.8,25.9c-1.8,3.2-4.6,2.7-7,2c-2.7-0.7-2.2-3.4-2-5.5c0.4-4.2,3.5-6.6,6.6-8.9c1-0.7,2.3-0.7,3.2,0.3
		c0.8,0.9,1.5,2,1,3.2c-0.6,1.6-1.7,0.8-2.9,0.6c-2.3-0.3-6.2,4.7-5.5,6.9c0.4,1.2,1.5,1.8,2.8,1.5C40.1,25.7,41,24.6,42.8,25.9z"/>
	<path fill="#BEB3BC" d="M30.4,15.5c-0.8-1.4-2-1.6-3.4-1.3c-2.9,0.7-6.3,5.6-6.4,9.3c0.1,1.6-0.2,3.5,1.7,4.3
		c2.2,0.9,3.7-0.3,5.2-1.8C30.2,23.3,31.7,17.8,30.4,15.5z M28,19.9c-0.9,1.4-1,3.9-3.4,4.5c-0.9,0.2-1.2-0.9-0.9-1.8
		c0.6-1.9,1-4,3.2-4.7C27.8,17.6,28.2,18.5,28,19.9z"/>
</g>
</svg>
