<?xml version="1.0" encoding="utf-8"?>
<!-- Generator: Adobe Illustrator 18.0.0, SVG Export Plug-In . SVG Version: 6.00 Build 0)  -->
<!DOCTYPE svg PUBLIC "-//W3C//DTD SVG 1.1//EN" "http://www.w3.org/Graphics/SVG/1.1/DTD/svg11.dtd">
<svg version="1.1" id="Layer_2_xA0_Image_1_" xmlns="http://www.w3.org/2000/svg" xmlns:xlink="http://www.w3.org/1999/xlink"
	 x="0px" y="0px" viewBox="0 0 400 65.1" enable-background="new 0 0 400 65.1" xml:space="preserve">
<rect x="0" y="57.8" fill="#022B3A" width="400" height="7.1"/>
<g>
	<g>
		<defs>
			<rect id="SVGID_1_" x="358.5" y="0" width="23.5" height="61.4"/>
		</defs>
		<clipPath id="SVGID_2_">
			<use xlink:href="#SVGID_1_"  overflow="visible"/>
		</clipPath>
		<g clip-path="url(#SVGID_2_)">
			<defs>
				<rect id="SVGID_3_" x="358.5" y="0" width="23.5" height="61.4"/>
			</defs>
			<clipPath id="SVGID_4_">
				<use xlink:href="#SVGID_3_"  overflow="visible"/>
			</clipPath>
			<path clip-path="url(#SVGID_4_)" d="M358.5,61.4c0-0.9,0-1.8,0-2.7c0.1-2.8,0.2-5.6,0.3-8.4c0.2-7.7,0.4-15.4,0.5-23
				c0-0.7-0.1-1.6,0.2-2c0.9-0.8,2.1-1.2,3-1.9c1.5-1.2,2.8-2.7,4.4-3.8c0.8-0.6,2.3-1.1,3.1-0.7c1.6,0.8,3,2.2,4.4,3.3
				c0,0,0.4-0.2,0.4-0.3c0.2-1.3,0.3-2.6,0.4-3.9c0.4-5.2,0.7-10.4,1-15.6c0.1-2.5,0-2.5,2.6-2.4c0.3,0,0.7,0.1,1,0.3
				c0.1,0,0.2,0.3,0.2,0.4c0,0.6-0.2,1.2-0.2,1.8c0.2,5.9,0.5,11.9,0.8,17.8c0.2,3.9,0.2,7.8,0.4,11.7c0.3,9.4,0.6,18.8,0.9,28.3
				c0,0.3-0.5,0.7-0.7,0.7C373.7,61.2,366.1,61.3,358.5,61.4 M368.4,58.1C368.4,58.1,368.4,58.1,368.4,58.1c0.6,0.1,1.1,0.1,1.7,0.1
				c0.2,0,0.4-0.2,0.4-0.4c0.1-2.5,0.1-5,0.2-7.4c0.1-1.9-1-2.1-2.4-2.2c-1.6-0.1-2.8,0.7-3,2.2c-0.3,2.4-0.2,4.8-0.2,7.2
				c0,0.2,0.3,0.6,0.5,0.6C366.6,58.1,367.5,58.1,368.4,58.1 M370.9,42.4c-0.1-3-0.1-3-3.1-3c-0.1,0-0.2,0-0.3,0
				c-0.2,0.1-0.4,0.3-0.4,0.4c0,1.6,0,3.3,0,4.9c0,0.3,0.4,0.7,0.7,0.7C370.9,45.6,370.9,45.6,370.9,42.4 M367.3,29.6
				c0,0.8,0.1,1.3,0,1.8c-0.1,0.9,0.2,1,1.1,1.1c2,0.3,2.7-0.4,2.3-2.3c-0.1-0.5-0.1-1.1,0-1.7c0.1-0.8-0.2-0.9-1-1
				C367.8,27.3,366.6,27.7,367.3,29.6 M372.4,34.7c-0.6-0.4-1-0.8-1.1-0.7c-0.3,0.2-0.5,0.5-0.6,0.8c0,0.2,0.3,0.7,0.5,0.7
				C371.6,35.4,371.8,35.1,372.4,34.7 M367.5,34.7c-0.5-0.4-0.8-0.7-1-0.7c-0.2,0-0.5,0.4-0.5,0.7c0,0.3,0.3,0.5,0.5,0.7
				C366.8,35.2,367,35.1,367.5,34.7"/>
		</g>
	</g>
</g>
</svg>
