<?xml version="1.0" encoding="utf-8"?>
<!-- Generator: Adobe Illustrator 18.0.0, SVG Export Plug-In . SVG Version: 6.00 Build 0)  -->
<!DOCTYPE svg PUBLIC "-//W3C//DTD SVG 1.1//EN" "http://www.w3.org/Graphics/SVG/1.1/DTD/svg11.dtd">
<svg version="1.1" id="Layer_2_xA0_Image_1_" xmlns="http://www.w3.org/2000/svg" xmlns:xlink="http://www.w3.org/1999/xlink"
	 x="0px" y="0px" viewBox="0 0 400 49.8" enable-background="new 0 0 400 49.8" xml:space="preserve">
<g>
	<path fill="#0C2B3A" d="M382.9,42.8c-0.7,0-1.4,0-2,0c-0.1-0.7-0.1-0.7,0.6-0.7c0.2,0,0.4,0,0.6,0c0.6,0,1.2,0,1.8,0
		c0.3,0,0.4-0.1,0.3-0.4c-2,0-3.9,0-5.9,0c-0.3,0-0.5,0-0.8-0.2c-0.1-0.5-0.2-1.1,0-1.6c0.3-0.3,0.1-0.6,0.1-0.9
		c0-1.3-0.1-2.7-0.1-4c0.1-0.3,0-0.6,0.1-0.9c0.8,0,1.7,0,2.5,0c2.3,0,4.6,0,6.9,0c0.1,0,0.2,0,0.2-0.1c0.2,0,0.3,0,0.5,0
		c0.1,0.2,0.3,0.3,0.3,0.5c0.1,0.8,0.1,1.6,0.1,2.5c0,0.3,0.1,0.5,0.3,0.6c-0.4,0.1-0.4,0.2-0.2,0.8c-0.1,0.1-0.1,0.3-0.1,0.4
		c0,1.3,0,2.7,0,4c-1.4,0-2.9,0-4.3,0c-0.1-0.3-0.2-0.5-0.5-0.4C382.8,42.4,382.9,42.6,382.9,42.8z"/>
	<path fill="#395B6B" d="M387.5,12.9C387.6,12.9,387.6,12.9,387.5,12.9c0.3,0,0.4,0.2,0.3,0.4c0,0.2-0.1,0.3-0.3,0.3
		c-0.2,0-0.4,0.2-0.4,0.4c0,0.1,0,0.3,0.2,0.3c0.2,0,0.5,0.2,0.7-0.1c0.1-0.1,0.2,0.2,0.2,0c0-0.1,0-0.3-0.1-0.3
		c-0.4,0-0.3-0.2-0.1-0.4c0.1-0.1,0.1-0.2,0.1-0.3c-0.2-0.3,0.1-0.3,0.3-0.4c0.1,0.1,0.2,0.2,0.2,0.4c0,0.7,0.5,1.3,0.6,2
		c0,0,0.1,0.1,0.1,0.1c0,0.1,0,0.2,0,0.3c0,0-0.1,0-0.1,0.1c-0.1-0.3-0.3-0.5-0.4-0.8c0,0.4,0.3,0.7,0.3,1.1c0,0.2-0.2,0.2-0.3,0.2
		c0-0.3,0.3-0.5-0.2-0.7c-0.1-0.1,0.1-0.5-0.2-0.7c0,0-0.1,0-0.1,0c-0.2,0.3-0.1,0.7-0.6,0.8c-0.1,0-0.1,0.1-0.1,0.3
		c0,0.2,0,0.4-0.1,0.7c0,0-0.1,0.1-0.1,0.1c0-0.3,0.1-0.6,0.1-0.9c0-0.1,0.1-0.2-0.1-0.2c-0.1,0-0.3-0.2-0.4,0c0,0,0,0.1-0.1,0.1
		c-0.2-0.1-0.3-0.3-0.4-0.5c-0.1-0.2,0-0.3,0.1-0.4c0.2-0.2,0.1-0.2-0.1-0.3c0,0,0-0.1,0-0.1c0.2-0.1,0.2,0.1,0.4,0.1
		c-0.1-0.3,0.1-0.7-0.3-1c0,0,0-0.2,0.1-0.2c0.1,0.3,0.5,0.3,0.8,0.1C387.6,13.1,387.6,13,387.5,12.9
		C387.5,12.9,387.5,12.9,387.5,12.9z M388.4,14.6c0.3-0.2,0-0.4,0-0.6C388.2,14.2,388.3,14.4,388.4,14.6z"/>
	<path fill="#0C2B3A" d="M377.3,42.8c-0.2-0.3,0-0.6-0.2-0.9c0.3-0.2,0.7,0.1,1,0c0,0,0.1,0,0.1,0c-0.1,0.1-0.1,0.1-0.2,0.3
		c0.7,0,1.3,0,2,0c0.7,0,0.7,0,0.5,0.7C379.4,42.8,378.3,42.8,377.3,42.8z"/>
	<path fill="#395B6B" d="M380.5,42.8c0.2-0.7,0.2-0.7-0.5-0.7c-0.6,0-1.3,0-2,0c0.1-0.1,0.2-0.2,0.2-0.3c0.3,0,0.5,0,0.8,0
		c0.9,0,1.8,0,2.8,0.1c0.4,0,0.9-0.1,1.3,0.2c0.3-0.2,0.7-0.1,0.9-0.3c0.1,0.3,0.1,0.4-0.3,0.4c-0.6,0-1.2,0-1.8,0
		c-0.2,0-0.4,0-0.6,0c-0.7,0-0.7,0-0.6,0.7C380.7,42.8,380.6,42.8,380.5,42.8z"/>
	<path fill="#DEE7E7" d="M381.5,1.3c-0.2-0.4,0.1-0.7,0.3-0.9c0.1-0.1,0.3-0.2,0.3-0.4c0.1,0,0.2,0,0.3,0c0.2,0.3,0.6,0.4,0.7,0.7
		c0,0.1,0.2,0.2,0.1,0.4c-0.5,0-1,0-1.5,0C381.7,1.1,381.5,1.1,381.5,1.3z"/>
	<path fill="#395B6B" d="M382.9,42.8c0-0.2,0-0.4,0.3-0.4c0.3,0,0.4,0.2,0.5,0.4C383.4,42.8,383.1,42.8,382.9,42.8z"/>
	<path fill="#DEE7E7" d="M376,15.6C376,15.6,376,15.7,376,15.6C376.1,15.7,376,15.7,376,15.6L376,15.6C376,15.7,376,15.6,376,15.6z"
		/>
	<path fill="#849EAC" d="M378.2,29.1c0.1-1.1,0.2-2.1,0.2-3.2c0.1-0.2,0.1-0.5,0-0.7c0.1-0.3,0.2-0.6,0.2-0.9c0-0.9,0.1-1.8,0.1-2.7
		c0-0.1,0-0.1,0-0.2c0.2-0.4,0.1-0.7,0.1-1.1c0.1-0.3,0-0.5-0.3-0.4c0.6-0.1,0.4-0.6,0.4-0.9c0.1-0.3,0.1-0.6,0.1-0.9
		c0-0.1-0.1-0.2-0.1-0.3c0.2-0.4,0-0.8,0.1-1.2c0.3,0.2,0.4,0.6,0.6,0.9c0,0.8,0.1,1.7,0.1,2.5c0,0.1-0.1,0.3,0.1,0.3
		c0.2,0,0.2-0.2,0.2-0.3c0-0.2,0-0.3,0.1-0.5c0.2-0.8,0.1-1.5,0.3-2.3c0.2-0.5,0.4-1,0.4-1.6c0.1,0,0.3,0,0.4,0c0.2,0,0.5,0,0.7,0
		c-0.1,0.3-0.1,0.5,0,0.7c0.2,0.4,0.3,0.8-0.1,1.2c-0.3,0.2-0.4,0.5-0.4,0.8c0,0.2,0,0.5-0.1,0.7c-0.3,0.5,0.2,0.9,0.2,1.4
		c0,0,0.1,0.1,0.1,0.1c0.6,0.2,0.6,0.6,0.6,1.1c0,0.2,0,0.6,0.2,0.6c0.4-0.1,0.2,0.1,0.2,0.3c0,0.2,0,0.5,0,0.8
		c0.1-0.2,0.1-0.5,0.1-0.7c0.2-0.9,0.3-1.8,0.1-2.7c-0.2-1.1,0.2-2.1,0-3.2c0-0.1,0-0.2,0.1-0.2c0.1-0.2,0.1-0.5-0.1-0.7
		c0.2,0,0.3,0,0.5,0c0.5-0.1,0.8,0.1,0.9,0.6c0,0.2,0.1,0.3,0.1,0.4c0,0.1,0,0.2,0.1,0.1c0.4-0.2,0.3,0.1,0.3,0.3
		c0,0.2,0,0.4-0.1,0.7c0,0.2-0.1,0.5,0.3,0.6c0-0.2,0.1-0.4,0.1-0.6c0.3-0.5,0.4-1.1,0.9-1.5c0.2,0.2,0,0.5,0.2,0.7
		c0.1,0.3-0.1,0.6,0.1,0.9c0,0.9,0,1.8,0.1,2.7c0,0.1,0,0.2,0.1,0.3c-0.1,0.1-0.1,0.2-0.1,0.3c0,0,0,0,0,0c-0.1-0.1,0-0.3-0.1-0.5
		c-0.1,0.6,0,1,0,1.5c0,0.2,0,0.5-0.2,0.6c-0.2,0.1-0.2-0.2-0.4-0.2c0,0,0,0-0.1,0c-0.1,0.5-0.1,1-0.1,1.5c0,0.5-0.2,1,0,1.4
		c0.1,0.1,0,0.3-0.3,0.3c-0.3,0-0.3-0.2-0.3-0.3c0-0.6-0.3-1.1-0.2-1.7c0,0,0-0.1,0-0.1c-0.1-0.2-0.2-0.3-0.3-0.3
		c-0.2,0-0.1,0.2-0.2,0.3c0,0.1,0,0.2-0.2,0.2c-0.1,0-0.2-0.2-0.2-0.3c0-0.4,0-0.9,0-1.3c0-0.2,0-0.3,0.3-0.2c0.1,0,0.2,0.1,0.3-0.1
		c0-0.1-0.1-0.3-0.2-0.3c-0.4,0.1-0.4-0.1-0.4-0.4c0-0.1,0-0.2-0.2-0.2c-0.1,0-0.1,0.1-0.1,0.2c0,0.1,0,0.2,0,0.3c0.1,0.5,0,1,0,1.5
		c0,0.3-0.3,0.4-0.2,0.6c0.1,0.5,0,1,0.1,1.6c0,0.3,0.1,0.7,0,1c-0.1,0.4-0.2,0.9-0.1,1.4c0,0.3,0.2,0.7-0.1,0.9
		c-0.1,0-0.1-0.1-0.2-0.1c-0.4-0.3-0.8-0.2-1.2,0.1c-0.4,0.3-0.6,0.7-0.5,1.2c0.1,0.5,0.5,0.9,1,0.9c0.5,0,0.9-0.2,1.1-0.6
		c0.2-0.3,0.1-0.6,0.1-0.8c0.1,0,0.2,0.1,0.2,0.2c0,0.4,0,0.7-0.2,1.1c-0.2,0.6-0.1,1.1,0.1,1.6c0,0.2,0.1,0.3,0,0.5
		c-0.1,0.1-0.1,0.3,0.1,0.4c0.1,0.1,0.3,0.1,0.4,0c0.1-0.1,0.2-0.1,0.3,0c0.1,0.1,0.2,0.2,0.1,0.3c-0.1,0.1-0.2,0.2-0.3,0
		c-0.1-0.1-0.2,0-0.3,0c-0.3,0.1-0.6,0.2-0.8,0.1c-0.4-0.1-0.7,0.2-1.1,0.1c-0.1,0-0.1,0.1-0.1,0.2c-0.2,0-0.4,0-0.6,0
		c-0.1-0.2-0.3-0.2-0.4,0c-0.3,0-0.5,0-0.8,0c-0.2-0.2-0.4-0.2-0.7,0c0.2,0,0.3,0,0.5,0c0,0,0,0,0,0.1c-0.8,0-1.7,0-2.5,0
		c0,0,0,0-0.1,0c0-0.1,0-0.2,0.1-0.2c0.5,0,0.5-0.4,0.6-0.7c0-0.2,0.1-0.5,0.1-0.7c0-0.7,0.1-1.4,0.1-2.1
		C378.3,30,378.3,29.5,378.2,29.1z M380.7,31.9C380.6,31.9,380.6,31.9,380.7,31.9c-0.1,0-0.1,0.1-0.1,0.2c-0.2,0.4,0.1,0.9-0.2,1.3
		c-0.1,0.1-0.1,0.2,0,0.2c0.1,0.1,0.2,0.1,0.3,0c0.1-0.1,0.2-0.2,0.1-0.3c-0.1-0.1-0.1-0.3-0.1-0.5
		C380.7,32.6,380.7,32.3,380.7,31.9z M378.8,33.4c0.2,0.3,0.8,0.4,1,0.2c0,0,0-0.1,0-0.1c0-0.1-0.1-0.1-0.1-0.1
		C379.5,33.5,379.2,33.4,378.8,33.4z M384.2,23.2c0.2-0.2,0.3-0.4,0.2-0.5c0-0.1-0.1-0.1-0.2,0C384,22.8,384.2,22.9,384.2,23.2z
		 M380.8,28c0.2-0.2,0.2-0.4,0.1-0.6C380.8,27.6,380.8,27.7,380.8,28z M381.5,33.5c-0.1,0-0.3-0.1-0.4,0.1
		C381.2,33.6,381.3,33.7,381.5,33.5z M377.9,34c0.2,0,0.3,0.1,0.5-0.1C378.1,33.7,378,34,377.9,34z"/>
	<path fill="#849EAC" d="M384,41.8c-0.3,0.2-0.7,0.1-0.9,0.3c-0.4-0.3-0.9-0.1-1.3-0.2c-0.9-0.1-1.8-0.1-2.8-0.1c-0.3,0-0.5,0-0.8,0
		c0,0-0.1,0-0.1,0c0,0,0,0,0-0.1C380.1,41.8,382.1,41.8,384,41.8z"/>
	<path fill="#395B6B" d="M380,34.1C380,34.1,380,34.1,380,34.1c0.1-0.1,0.1-0.1,0.2-0.1c0.3,0,0.5,0,0.8,0c0.1,0,0.3,0,0.4,0
		c0.2,0,0.4,0,0.6,0c0.3,0,0.6,0,0.9,0c0.2,0,0.3,0,0.5,0c1.2,0,2.5,0,3.7,0c-0.1,0.1-0.2,0.1-0.2,0.1
		C384.6,34.1,382.3,34.1,380,34.1z"/>
	<path fill="#849EAC" d="M387.1,34.1c-1.2,0-2.5,0-3.7,0c-0.2,0-0.3,0-0.5,0c0.1-0.1,0.2-0.1,0.4-0.1C384.5,34,385.8,34,387.1,34.1
		c0.1-0.1,0.2,0,0.3-0.2c0.1,0,0.1,0.1,0.2,0.2C387.4,34.1,387.3,34.1,387.1,34.1z"/>
	<path fill="#849EAC" d="M388.3,37.6c0.2,0.4,0.2,0.6-0.2,0.8C387.9,37.9,387.9,37.7,388.3,37.6z"/>
	<path fill="#395B6B" d="M377.4,40c0-0.3,0-0.6,0.1-0.9C377.5,39.4,377.7,39.7,377.4,40z"/>
	<path fill="#395B6B" d="M378.1,41.8C378.1,41.8,378.1,41.8,378.1,41.8c-0.4,0.2-0.7-0.1-1,0.1c-0.1-0.2-0.1-0.2,0-0.2
		c0.1,0,0.2,0.1,0.3-0.1C377.6,41.8,377.9,41.8,378.1,41.8z"/>
	<path fill="#395B6B" d="M377.4,34.1C377.4,34.1,377.4,34.1,377.4,34.1c0,0.3,0.1,0.6,0,0.9C377.4,34.8,377.4,34.4,377.4,34.1z"/>
	<path fill="#DEE7E7" d="M387.5,33.9c-0.1,0.1-0.3,0.1-0.4,0.1c-1.3,0-2.5,0-3.8,0c-0.1,0-0.3,0-0.4,0.1c-0.3,0-0.6,0-0.9,0
		c0-0.1,0-0.2,0.1-0.2c0.4,0.1,0.7-0.2,1.1-0.1c0.2,0.1,0.5-0.1,0.8-0.1c0.1,0,0.2-0.1,0.3,0c0.1,0.1,0.2,0.1,0.3,0
		c0.1-0.1,0-0.2-0.1-0.3c-0.1-0.1-0.2-0.1-0.3,0c-0.1,0.1-0.3,0.1-0.4,0c-0.1-0.1-0.1-0.3-0.1-0.4c0.1-0.2,0-0.3,0-0.5
		c-0.1-0.5-0.3-1.1-0.1-1.6c0.1-0.3,0.2-0.7,0.2-1.1c0-0.1,0-0.2-0.2-0.2c0-0.3-0.2-0.5-0.4-0.7c0.3-0.3,0.2-0.6,0.1-0.9
		c-0.1-0.4,0-0.9,0.1-1.4c0.1-0.3,0-0.7,0-1c-0.1-0.5,0-1-0.1-1.6c0-0.3,0.2-0.4,0.2-0.6c0-0.5,0.1-1,0-1.5c0-0.1,0-0.2,0-0.3
		c0-0.1,0-0.2,0.1-0.2c0.1,0,0.1,0.1,0.2,0.2c0.1,0.2,0.1,0.5,0.4,0.4c0.1,0,0.2,0.1,0.2,0.3c0,0.2-0.2,0.1-0.3,0.1
		c-0.3-0.1-0.3,0-0.3,0.2c0,0.4,0,0.9,0,1.3c0,0.1,0,0.2,0.2,0.3c0.1,0,0.1-0.1,0.2-0.2c0-0.1-0.1-0.3,0.2-0.3
		c0.2,0,0.3,0.2,0.3,0.3c0,0,0,0.1,0,0.1c-0.1,0.6,0.1,1.1,0.2,1.7c0,0.1,0,0.4,0.3,0.3c0.2,0,0.3-0.2,0.3-0.3c-0.3-0.5-0.1-1,0-1.4
		c0-0.5,0-1,0.1-1.5c0,0,0.1,0,0.1,0c0.1,0.1,0.2,0.4,0.4,0.2c0.2-0.1,0.2-0.4,0.2-0.6c0-0.5-0.1-1,0-1.5c0.1,0.2,0,0.4,0.1,0.5
		c0,0.8,0.1,1.7,0.2,2.5c0.1,1.4,0.2,2.7,0.3,4.1c0,0.3,0,0.6,0.2,0.9c0,0,0,0,0,0c-0.2,0.5,0.1,0.9,0.1,1.4c0-0.1,0-0.1,0-0.2
		c0.1,0.1,0.1,0.3,0.1,0.4c-0.1,0.4-0.1,0.8,0,1.2c0.1,0.5,0.1,1,0.2,1.5C387,33.4,387.2,33.6,387.5,33.9L387.5,33.9z M383.8,26.7
		c0-0.1,0-0.1-0.1-0.2c-0.1,0-0.1,0-0.1,0.1c0,0.1,0,0.2,0.1,0.2C383.8,26.8,383.8,26.7,383.8,26.7z"/>
	<path fill="#0C2B3A" d="M386.2,18c-0.2-0.3-0.1-0.6-0.1-0.9c0-0.2,0-0.4,0-0.6c0-0.1-0.1-0.2-0.2-0.1c-0.5,0.4-0.6,1-0.9,1.5
		c-0.1,0-0.1,0.2-0.2,0.1c-0.1-0.1,0-0.1,0-0.2c0-0.4,0-0.7,0-1.1c0-0.1,0-0.2-0.1-0.2c-0.4,0-0.5-0.4-0.6-0.6
		c-0.1-0.1-0.2-0.1-0.3-0.1c-0.3,0-0.6,0-1,0c-0.2,0-0.3,0-0.3,0.3c0,0.5,0,1,0.1,1.6c0,0.2,0,0.4-0.2,0.4c-0.2,0-0.2-0.2-0.2-0.3
		c0-0.5-0.1-1-0.1-1.5c0-0.2,0-0.3-0.2-0.3c-0.2,0-0.5-0.1-0.7,0.1c-0.1,0-0.3,0-0.4,0c-0.2,0.1-0.1,0.3-0.2,0.4
		c-0.1,0.1-0.1,0.3-0.2,0.4c-0.3,0-0.3,0.2-0.3,0.4c0,0.3,0,0.5,0,0.8c0,0.1,0.1,0.2-0.1,0.2c-0.1,0-0.2,0.1-0.3-0.1
		c-0.1-0.1,0-0.2-0.2-0.3c-0.2-0.3-0.3-0.7-0.6-0.9c-0.1,0.4,0.1,0.8-0.1,1.2c-0.5-0.7-1.1-1.3-2-1.5c-0.4-0.1-0.6-0.3-0.7-0.6
		c0.1,0,0.1-0.1,0.2-0.1c0.4,0,0.9,0,1.3-0.2l0,0c0.4,0.1,0.5-0.1,0.5-0.5c0-0.4,0-0.7,0-1.1c0-0.2-0.1-0.3-0.3-0.3
		c-0.1,0-0.2,0-0.4-0.1c0.2,0,0.4,0,0.5,0c0.3,0,0.3-0.1,0.1-0.3c-0.1,0-0.2-0.1-0.2-0.1c0.3-0.3,0.7-0.1,1.1-0.2
		c0.7,0,1.4-0.1,2-0.1c0.4,0,0.9,0.1,1.3-0.1c0.1,0,0.2,0,0.3,0c0.1,0,0.1,0.1,0.2,0.1c0.8,0,1.5,0,2.3,0c0.3,0,0.6,0,0.8,0
		c-0.2,0.2-0.5,0-0.7,0.1c-0.8,0-1.5,0-2.3,0c-0.2,0-0.3,0-0.4,0.2c-0.1,0-0.2-0.1-0.2-0.1c-0.4-0.2-0.7,0-1.1-0.1
		c-0.4,0-0.7-0.1-1.1,0.1c-0.4,0-0.8,0.1-1.3,0.1c-0.2,0-0.3,0-0.4,0.2c0,0.1-0.1,0.2,0,0.3c0.1,0.1,0.3,0.1,0.4,0c0,0,0.1,0,0.1,0
		c0,0.6,0,1.2,0,1.8c0,0,0,0,0,0c0,0,0,0,0,0c0.5,0,1,0.1,1.5-0.1c0.2,0,0.3,0,0.5,0c0.4,0,0.7,0.1,1.1-0.1l0,0c0.3,0,0.5,0,0.8,0
		l0,0c0.1,0.2,0.3,0.1,0.4,0.1c0.9,0,1.9,0,2.8,0c0.4,0,0.5-0.1,0.3-0.5c-0.1-0.1-0.1-0.2-0.2-0.3c-0.1-0.1,0-0.2,0.1-0.2
		c0.1,0,0.3,0.1,0.4,0.1c0.2,0,0.3,0.1,0.1,0.3c-0.1,0.1-0.2,0.2-0.1,0.4c0.1,0.2,0.2,0.4,0.4,0.5c0.1,0,0.1,0,0.1-0.1
		c0.1-0.2,0.3,0,0.4,0c0.2,0,0.1,0.2,0.1,0.2c0,0.3,0,0.6-0.1,0.9C386.9,17,386.4,17.4,386.2,18z M378.5,13.8L378.5,13.8
		c-0.1-0.1-0.2-0.1-0.3,0c-0.1,0.1,0,1.4,0.1,1.5c0.1,0.1,0.1,0.1,0.2,0.1c0,0,0-0.1,0-0.1c0-0.1,0-0.1,0-0.2
		C378.6,14.6,378.6,14.2,378.5,13.8z M386,15.9c-0.7,0-0.8,0.1-0.6,0.6C385.6,16.4,385.8,16.2,386,15.9z M379.1,16
		c0.1,0.2,0.3,0.4,0.5,0.6C379.7,15.9,379.7,15.9,379.1,16z M378.5,17c0-0.5,0-0.5-0.5-0.5C378.2,16.7,378.3,16.8,378.5,17z
		 M387,16.4c-0.2,0.1-0.4,0-0.5,0.2c0,0.1,0,0.2,0.1,0.2c0.2,0,0.2-0.2,0.4-0.2C387,16.5,387,16.5,387,16.4z"/>
	<path fill="#0C2B3A" d="M387.5,16.4c0-0.2,0.1-0.4,0.1-0.7c0-0.1,0-0.2,0.1-0.3c0.5-0.1,0.4-0.5,0.6-0.8c0,0,0.1,0,0.1,0
		c0.3,0.2,0.1,0.7,0.2,0.7c0.4,0.2,0.2,0.5,0.2,0.7C388.2,16.2,387.9,16.3,387.5,16.4z"/>
	<path fill="#849EAC" d="M386.9,28.8c-0.2-0.3-0.1-0.6-0.2-0.9c-0.1-1.4-0.2-2.7-0.3-4.1c-0.1-0.8-0.2-1.7-0.2-2.5c0,0,0,0,0,0
		c0.1,0.2-0.1,0.5,0.2,0.6c0.1,0.2-0.1,0.3-0.1,0.5c0,0.3-0.1,0.6,0.1,0.9c0,1.2,0.1,2.4,0.3,3.7C386.8,27.6,386.8,28.2,386.9,28.8z
		"/>
	<path fill="#849EAC" d="M389,16c0-0.4-0.3-0.7-0.3-1.1c0.1,0.3,0.3,0.5,0.4,0.8C389.1,15.7,389.1,15.9,389,16z"/>
	<path fill="#849EAC" d="M386.9,30c0,0.1,0,0.1,0,0.2c0-0.5-0.2-0.9-0.1-1.4C387,29.2,386.9,29.6,386.9,30z"/>
	<path fill="#395B6B" d="M386.5,21.9c-0.3-0.1-0.1-0.4-0.2-0.6c0-0.1,0-0.2,0.1-0.3C386.7,21.3,386.5,21.6,386.5,21.9z"/>
	<path fill="#849EAC" d="M387,31.6c-0.1-0.4-0.1-0.8,0-1.2C387,30.8,387,31.2,387,31.6z"/>
	<path fill="#849EAC" d="M387.5,33.9c-0.3-0.2-0.5-0.5-0.3-0.8C387.1,33.4,387.4,33.6,387.5,33.9z"/>
	<path fill="#DEE7E7" d="M386.5,23.4c-0.2-0.3,0-0.6-0.1-0.9C386.6,22.7,386.5,23,386.5,23.4z"/>
	<path fill="#849EAC" d="M380.8,12.8c-0.7,0-1.4,0.1-2,0.1c0-0.1,0-0.2,0-0.2c0.1-0.1,0.1-0.3,0.1-0.4c0-0.6,0-0.6,0.6-0.6
		c0,0,0.1,0,0.2,0c-0.4,0-0.7,0-0.8-0.4c0.1-0.4-0.1-0.9,0.1-1.3c0.2-0.3,0.1-0.6,0-0.9c-0.3-0.2-0.6-0.3-0.7-0.7
		c0-0.1-0.1-0.4,0-0.4c0.5-0.1,0.3-0.5,0.4-0.7c0.4-0.2,0.4,0.1,0.4,0.3c0,0.9,0.1,1.8,0.1,2.7c0,0.3,0,0.6,0,0.9
		c0,0.2,0.1,0.3,0.3,0.3c0.1,0,0.2,0,0.3,0c0.8,0,0.9-0.1,0.9-0.8c0-0.3-0.1-0.4-0.4-0.4c-0.4,0-0.9-0.3-0.9-0.6c0-0.6,0-1.2,0-1.9
		c0-0.1,0-0.3,0.2-0.3c0.3-0.1,1.1,0.1,1.3,0.5c0-0.4-0.1-0.7,0.1-1c0.2,1.4,0.1,2.7,0.4,4.1c0-0.2,0-0.4,0-0.6c0-0.8,0-1.6,0-2.4
		c0-0.3,0.2-0.5,0.5-0.4c0.4,0,0.7,0,1.1,0c0.4,0,0.7,0,0.7-0.6c0.5,0.9,0.2,1.8,0.4,2.7c0-0.4,0-0.7,0-1.1c0-1,0-1,1-1.2
		c0.3-0.1,0.5,0,0.5,0.4c0,0.1,0,0.2,0,0.2c0-0.4,0.1-0.7,0.1-1.1c0,0,0.1,0,0.1,0c0.2,0,0.3,0.1,0.3,0.3c-0.3,0.1-0.1,0.3-0.2,0.5
		c-0.2-0.2-0.2,0-0.2,0.1c0,1.1,0,2.2,0,3.3c0,0.4,0,0.8,0,1.2c0,0.1,0,0.3,0.1,0.3c0.1,0,0.1-0.1,0.1-0.2c0-0.1,0-0.2,0-0.3
		c0.1-0.5-0.1-0.9,0.1-1.4c0,0.3,0,0.5,0,0.8c0,0.4,0.1,0.6,0.5,0.6c0.5,0.1,0.7,0.4,1,0.7c0,0,0,0,0,0c-0.1,0-0.2,0-0.3,0
		c-0.2-0.3-0.4-0.1-0.6-0.1c-0.3,0-0.6,0-0.9,0c0,0-0.1,0-0.1,0c-0.3,0-0.6,0-0.8,0c0,0,0,0,0-0.1c0.2-0.1,0.5,0.1,0.7-0.2
		c0.1-0.2,0.1-0.5,0-0.8c-0.1-0.1-0.1-0.2-0.2-0.2c-0.4,0-0.9-0.1-1.3-0.1c0,0.1,0.2,0.1,0.1,0.2c-0.2,0.2-0.1,0.5-0.1,0.7
		c0,0.2-0.1,0.2-0.3,0.2c-0.4,0-0.7,0-1.1,0c0.3-0.2-0.1-0.5,0.2-0.6c0.4-0.2,0.2-0.3-0.2-0.4c0.4,0,0.6-0.1,0.9-0.1
		c-0.5-0.1-1,0-1.6-0.1c-0.4,0-0.9,0.2-0.9-0.5c-0.1,0.4-0.1,0.4,0.9,0.7c-0.3,0.2-0.4,0.4-0.2,0.7c0.1,0.2,0.1,0.3-0.2,0.3
		C381.4,12.7,381.1,12.6,380.8,12.8C380.9,12.8,380.9,12.8,380.8,12.8z M384,10.2C384,10.2,384,10.2,384,10.2c0,0.3,0,0.7,0,1
		c0,0,0,0,0,0C384,10.9,384,10.5,384,10.2z M380.5,8.4c0,0.2,0.2,0.2,0.3,0.2c0,0,0,0,0-0.1C380.8,8.4,380.6,8.5,380.5,8.4z
		 M380.1,10.2c0.2,0,0.3,0.1,0.5,0C380.4,10.1,380.3,9.9,380.1,10.2z"/>
	<path fill="#DEE7E7" d="M378.7,6.7c0.1-1.3,0.7-2.3,1.7-3.1c0.3-0.2,0.6-0.3,0.9-0.5c0.3,0.2,0.5,0,0.8,0c0.1,0,0.2,0,0.2-0.1
		c0-0.1-0.1-0.1-0.2-0.1c-0.2,0-0.4,0-0.7,0c0.1-0.2,0.2-0.4-0.1-0.5c0-0.2,0.1-0.2,0.2-0.3c0.1,0,0.3-0.1,0.3-0.3
		c0.4,0.1,0.8,0,1.3-0.1c0,0.1,0,0.2,0.1,0.2c0.4,0.2,0.4,0.6,0.3,0.9c-0.3,0-0.7-0.1-1,0.1c0.3,0,0.7,0.2,1,0
		c1.3,0.7,2.2,1.7,2.5,3.2c0,0.1,0.1,0.2,0.2,0.3c0,0-0.1,0-0.1,0c-0.4-0.1-0.8,0-1.2-0.1c-0.2-0.2-0.5,0-0.8-0.1
		c-0.3-0.1-0.6-0.3-0.9,0c-0.7,0-1.5,0-2.2,0c0-0.1,0.1-0.2,0-0.2c-0.2,0-0.4-0.1-0.5,0c-0.2,0.1-0.1,0.2-0.1,0.3
		c-0.1,0-0.3,0-0.3,0.1C379.7,6.5,379.2,6.6,378.7,6.7z"/>
	<path fill="#849EAC" d="M383,1.9c-0.4,0.1-0.8,0.1-1.3,0.1c-0.1-0.2-0.2-0.4-0.3-0.7c0-0.2,0.2-0.2,0.3-0.2c0.5,0,1,0,1.5,0
		C383.2,1.4,383,1.6,383,1.9z M382.1,1.7c0.3,0,0.4,0.1,0.6-0.1C382.4,1.6,382.3,1.6,382.1,1.7z"/>
	<path fill="#DEE7E7" d="M386.1,10.7c-0.2,0.5,0,0.9-0.1,1.4c0,0.1,0,0.2,0,0.3c0,0.1,0,0.2-0.1,0.2c-0.2,0-0.1-0.2-0.1-0.3
		c0-0.4,0-0.8,0-1.2c0-1.1,0-2.2,0-3.3c0-0.1,0-0.3,0.2-0.1c0,0,0,0,0,0c-0.1,0.6-0.1,1.1,0,1.7C386,9.9,386,10.3,386.1,10.7z"/>
	<path fill="#849EAC" d="M388.3,12.8c-0.2,0.1-0.5,0.1-0.3,0.4c0,0.1,0,0.2-0.1,0.3c-0.2,0.2-0.2,0.3,0.1,0.4c0.1,0,0.1,0.2,0.1,0.3
		c0,0.2-0.1-0.1-0.2,0c-0.2,0.2-0.5,0.1-0.7,0.1c-0.1,0-0.2-0.2-0.2-0.3c0-0.2,0.2-0.4,0.4-0.4c0.2,0,0.3-0.1,0.3-0.3
		c0-0.2,0-0.4-0.3-0.4C387.8,12.7,388.1,12.8,388.3,12.8z"/>
	<path fill="#849EAC" d="M385.9,9.5c-0.1-0.6-0.1-1.1,0-1.7c0.5,0.2,0.5,0.5,0.5,1c0,0.1,0,0.2-0.1,0.2
		C385.9,8.9,385.9,9.2,385.9,9.5z"/>
	<path fill="#395B6B" d="M386.1,6.6C386.1,6.6,386.2,6.6,386.1,6.6c0.2,0,0.4-0.1,0.4,0.1c0,0.2,0,0.3-0.2,0.3
		c-0.1,0-0.1,0.1-0.2,0.2c0-0.2-0.2-0.2-0.3-0.3C385.9,6.9,386.4,7.1,386.1,6.6z"/>
	<path fill="#849EAC" d="M383.5,3.1c-0.3,0.2-0.7,0-1,0C382.8,2.9,383.1,3,383.5,3.1C383.5,3,383.5,3,383.5,3.1z"/>
	<path fill="#0C2B3A" d="M378.6,21.5c0,0.1,0,0.1,0,0.2c-0.2,0-0.3,0-0.5,0c-0.1-0.2-0.5,0.1-0.5-0.2c0-0.2,0.3-0.1,0.5-0.1
		c0,0,0,0,0-0.1c-0.2-0.1-0.4,0.1-0.5-0.2c-0.1-0.3,0.3-0.1,0.4-0.4c-0.3,0-0.4-0.3-0.7-0.2c-0.1-0.4,0.3-0.4,0.5-0.5
		c0.2,0,0.4,0,0.6,0c0.3,0,0.4,0.2,0.3,0.4c-0.2,0.3,0,0.7-0.2,1C378.5,21.4,378.6,21.4,378.6,21.5z"/>
	<path fill="#395B6B" d="M377.3,20.5c0.3,0,0.5,0.2,0.7,0.2c-0.1,0.2-0.5,0-0.4,0.4c0.1,0.3,0.4,0.1,0.5,0.2c0,0,0,0.1,0,0.1
		c-0.2,0-0.5-0.1-0.5,0.1c0,0.3,0.4,0,0.5,0.2c-0.1,0-0.1,0-0.2,0c-0.2,0-0.5,0.1-0.7-0.1c-0.1-0.2,0.1-0.4,0.1-0.6
		C377.4,20.8,377.3,20.6,377.3,20.5z"/>
	<path fill="#395B6B" d="M378.4,25.2c0.1,0.2,0.1,0.5,0,0.7c-0.2-0.1-0.5,0.1-0.8-0.1C377.9,25.7,378.1,25.4,378.4,25.2z"/>
	<path fill="#DEE7E7" d="M378.2,29.1c0.1,0.4,0.1,0.9,0,1.3C378.2,30,378.2,29.5,378.2,29.1z"/>
	<path fill="#DEE7E7" d="M378.9,18.2c0,0.3,0.1,0.6-0.1,0.9C378.8,18.7,378.7,18.4,378.9,18.2z"/>
	<path fill="#395B6B" d="M385.7,7c0,0.4-0.1,0.7-0.1,1.1c0-0.1,0-0.2,0-0.2c0-0.3-0.1-0.4-0.5-0.4c-1,0.2-1,0.2-1,1.2
		c0,0.4,0,0.7,0,1.1c-0.2-0.9,0.1-1.8-0.4-2.7c0.1,0.6-0.3,0.6-0.7,0.6c-0.4,0-0.7,0-1.1,0c-0.3,0-0.5,0.1-0.5,0.4
		c0,0.8,0,1.6,0,2.4c0,0.2,0,0.4,0,0.6c-0.2-1.3-0.1-2.7-0.4-4.1c-0.2,0.3-0.1,0.6-0.1,1c-0.2-0.4-0.9-0.6-1.3-0.5
		c-0.2,0.1-0.2,0.2-0.2,0.3c0,0.6,0,1.2,0,1.9c0,0.3,0.5,0.6,0.9,0.6c0.3,0,0.4,0.1,0.4,0.4c0,0.7-0.1,0.8-0.9,0.8
		c-0.1,0-0.2,0-0.3,0c-0.2,0-0.3-0.1-0.3-0.3c0-0.3,0-0.6,0-0.9c0-0.9-0.1-1.8-0.1-2.7c0-0.2,0-0.5-0.4-0.3c0-0.1-0.1-0.1-0.1-0.2
		c0.7-0.2,1.4,0,2.1-0.2c0.5-0.2,1.1,0.1,1.7,0c0.3,0,0.4-0.2,0.7-0.2c0.4,0.1,0.8,0.1,1.3,0.1C384.8,6.9,385.3,6.9,385.7,7z"/>
	<path fill="#0C2B3A" d="M385.7,7c-0.4-0.1-0.8-0.2-1.2-0.1c-0.4,0-0.9,0-1.3-0.1c-0.3-0.1-0.5,0.2-0.7,0.2c-0.6,0-1.2-0.2-1.7,0
		c-0.7,0.2-1.4,0-2.1,0.2c-0.3-0.3-0.3-0.4,0.1-0.5c0.5-0.1,1-0.2,1.4-0.2c1.6,0,3.2,0,4.8,0c0.4,0.1,0.8,0,1.2,0.1
		C386.4,7.1,385.9,6.9,385.7,7C385.7,7,385.7,7,385.7,7z"/>
	<path fill="#395B6B" d="M377.9,13.2c0.2,0.2,0.1,0.3-0.1,0.3c-0.2,0-0.3,0-0.5,0c0.2,0.1,0.3,0.1,0.4,0.1c0.2,0,0.3,0.1,0.3,0.3
		c0,0.4,0,0.7,0,1.1c0,0.4-0.1,0.5-0.5,0.5c0.3-0.2,0.4-0.5,0.4-0.9c0-0.9,0-0.9-0.9-1c-0.2,0-0.2,0.1-0.2,0.2c0,0.3,0,0.6,0,0.9
		c0,0.7,0,0.7,0.7,0.7c-0.4,0.1-0.8,0.1-1.3,0.2c0.2-0.2,0.2-0.4,0.2-0.7c0.2-0.4,0.1-0.9,0.1-1.3c0-0.1-0.1-0.2-0.1-0.3
		c0.2,0.1,0.1,0.3,0.2,0.4c0,0.5,0,1,0,1.6c0.1,0,0.1-0.1,0.1-0.1c0.1-0.6,0-1.3,0.1-1.9c0-0.1-0.1-0.1-0.2-0.2
		c0.3-0.2,0.6-0.1,0.9-0.2c-0.1,0.3-0.4,0.1-0.5,0.2c0.2,0.1,0.4,0.1,0.6,0.1C377.8,13.4,378,13.4,377.9,13.2z"/>
	<path fill="#0C2B3A" d="M376.6,13.2c0.1,0,0.2,0,0.2,0.2c-0.1,0.6,0,1.3-0.1,1.9c0,0,0,0.1-0.1,0.1c0-0.5,0-1,0-1.6
		c0-0.1,0.1-0.4-0.2-0.4C376.4,13.3,376.5,13.3,376.6,13.2z"/>
	<path fill="#849EAC" d="M381.3,2.5c0.3,0.1,0.2,0.3,0.1,0.5c0.3,0,0.5,0,0.7,0c0.1,0,0.2,0,0.2,0.1c0,0.1-0.1,0.1-0.2,0.1
		c-0.3-0.1-0.5,0.2-0.8,0C381.3,2.9,381.3,2.7,381.3,2.5z"/>
	<path fill="#849EAC" d="M377.9,13.2c0,0.2-0.1,0.2-0.3,0.2c-0.2,0-0.4,0-0.6-0.1c0.1-0.1,0.4,0.1,0.5-0.2c0.1,0,0.1,0,0.2,0
		C377.8,13.1,377.8,13.1,377.9,13.2z"/>
	<path fill="#DEE7E7" d="M378.9,11.3c0.1,0.4,0.4,0.3,0.8,0.4c-0.2,0-0.2,0-0.2,0c-0.6,0-0.6,0-0.6,0.6c0,0.1,0,0.3-0.1,0.4
		C378.8,12.2,378.7,11.7,378.9,11.3z"/>
	<path fill="#DEE7E7" d="M376.5,13.7c0,0.4,0.1,0.9-0.1,1.3C376.5,14.5,376.3,14.1,376.5,13.7z"/>
	<path fill="#DEE7E7" d="M379,9.2c0.1,0.3,0.1,0.6,0,0.9C379,9.7,379,9.4,379,9.2z"/>
	<path fill="#0C2B3A" d="M385.8,12.8c0.3,0,0.6,0,0.9,0c0.2,0.1,0.4,0.1,0.6,0.1c0.1,0,0.2,0,0.3,0c0.1,0.1,0.1,0.2-0.1,0.2
		c-0.2-0.1-0.5-0.1-0.8-0.1c-0.1,0-0.1,0.2-0.1,0.2c0.4,0.3,0.1,0.7,0.3,1c-0.2,0.1-0.2-0.2-0.4-0.1c0-0.3-0.3-0.6-0.1-0.9
		c0.1-0.2,0-0.4-0.3-0.2c-0.1,0-0.2,0-0.3-0.1C385.8,12.9,385.8,12.9,385.8,12.8z"/>
	<path fill="#395B6B" d="M386.1,13.1c0.3-0.2,0.4,0,0.3,0.2c-0.2,0.4,0.1,0.6,0.1,0.9c0,0,0,0.1,0,0.1c-0.2,0-0.3-0.1-0.4-0.1
		C386.2,13.8,386,13.5,386.1,13.1z"/>
	<path fill="#849EAC" d="M386.7,13.1c0.3,0,0.5,0,0.8,0.1C387.2,13.4,386.8,13.4,386.7,13.1z"/>
	<path fill="#0C2B3A" d="M388.4,14.6c-0.1-0.2-0.2-0.4,0-0.6C388.5,14.2,388.7,14.4,388.4,14.6z"/>
	<path fill="#395B6B" d="M381.2,15.8c0.2-0.1,0.5-0.1,0.7-0.1c0.2,0,0.2,0.2,0.2,0.3c0,0.5,0.1,1,0.1,1.5c0,0.1,0,0.3,0.2,0.3
		c0.2,0,0.2-0.2,0.2-0.4c-0.1-0.5,0-1-0.1-1.6c0-0.2,0.1-0.3,0.3-0.3c0.3,0,0.6,0,1,0c0.1,0,0.2,0,0.3,0.1c0.1,0.3,0.2,0.6,0.6,0.6
		c0.1,0,0.1,0.1,0.1,0.2c0,0.4,0,0.7,0,1.1c0,0.1-0.1,0.2,0,0.2c0.1,0.1,0.2-0.1,0.2-0.1c0.1,0.2-0.1,0.4-0.1,0.6
		c-0.4-0.1-0.3-0.3-0.3-0.6c0-0.2,0.1-0.4,0.1-0.7c0-0.2,0.1-0.5-0.3-0.3c-0.1,0-0.1-0.1-0.1-0.1c-0.1-0.1-0.1-0.3-0.1-0.4
		c-0.1-0.5-0.4-0.7-0.9-0.6c-0.1,0-0.3,0-0.5,0c0.2,0.3,0.1,0.5,0.1,0.7c0,0.1-0.1,0.2-0.1,0.2c0.2,1.1-0.2,2.1,0,3.2
		c0.2,0.9,0.2,1.8-0.1,2.7c-0.1,0.2,0,0.5-0.1,0.7c0-0.3,0-0.5,0-0.8c0-0.1,0.1-0.3-0.2-0.3c-0.1,0-0.1-0.4-0.2-0.6
		c0-0.5,0-0.9-0.6-1.1c0,0-0.1,0-0.1-0.1c0-0.5-0.4-0.9-0.2-1.4c0.1-0.2,0.1-0.4,0.1-0.7c0-0.3,0.1-0.6,0.4-0.8
		c0.4-0.4,0.3-0.8,0.1-1.2c-0.1-0.2-0.2-0.4,0-0.7C381.6,15.8,381.4,15.8,381.2,15.8z"/>
	<path fill="#0C2B3A" d="M383.1,28.7c0.2,0.2,0.4,0.4,0.4,0.7c-0.1,0.3,0.1,0.6-0.1,0.8c-0.3,0.4-0.7,0.7-1.1,0.6
		c-0.5,0-0.9-0.4-1-0.9c-0.1-0.5,0.1-0.9,0.5-1.2c0.4-0.1,0.8,0,1.2-0.1C383,28.6,383,28.7,383.1,28.7z M382.5,28.9
		c-0.4,0-0.8,0.4-0.8,0.8c0,0.3,0.4,0.7,0.8,0.7c0.4,0,0.8-0.3,0.8-0.7C383.2,29.2,382.9,28.9,382.5,28.9z"/>
	<path fill="#395B6B" d="M379.6,17.6c0.1,0,0.1,0.2,0.2,0.3c0.1,0.1,0.2,0.1,0.3,0.1c0.1,0,0.1-0.1,0.1-0.2c-0.1-0.3,0-0.5,0-0.8
		c0-0.2,0-0.4,0.3-0.4c0.2,0,0.2-0.2,0.2-0.4c0.1-0.1,0.1-0.3,0.2-0.4c0,0.6-0.3,1.1-0.4,1.6c-0.2,0.7-0.1,1.5-0.3,2.3
		c0,0.1-0.1,0.3-0.1,0.5c0,0.1,0,0.3-0.2,0.3c-0.2,0-0.1-0.2-0.1-0.3C379.6,19.3,379.6,18.4,379.6,17.6z"/>
	<path fill="#395B6B" d="M380.7,31.9c0,0.3,0,0.7,0,1c0,0.2,0,0.3,0.1,0.5c0.1,0.1,0,0.2-0.1,0.3c-0.1,0.1-0.2,0-0.3,0
		c-0.1-0.1,0-0.2,0-0.2c0.3-0.4,0-0.9,0.2-1.3C380.6,32,380.6,32,380.7,31.9C380.6,31.9,380.6,31.9,380.7,31.9z"/>
	<path fill="#395B6B" d="M378.8,33.4c0.3-0.1,0.6,0.1,0.9,0c0.1,0,0.1,0,0.1,0.1c0,0,0,0.1,0,0.1C379.7,33.8,379,33.7,378.8,33.4z"
		/>
	<path fill="#395B6B" d="M383,28.6c-0.4,0.1-0.8,0-1.2,0.1C382.2,28.4,382.5,28.3,383,28.6z"/>
	<path fill="#DEE7E7" d="M384.2,23.2c0-0.3-0.2-0.4,0-0.6c0.1,0,0.1,0,0.2,0C384.4,22.8,384.3,23,384.2,23.2z"/>
	<path fill="#395B6B" d="M378.6,21.5c0,0-0.1-0.1-0.1-0.1c0.2-0.3,0-0.7,0.2-1C378.7,20.7,378.8,21.1,378.6,21.5z"/>
	<path fill="#DEE7E7" d="M380.2,34c-0.1,0-0.1,0-0.2,0c-0.2,0-0.3,0-0.5,0C379.7,33.8,379.9,33.8,380.2,34z"/>
	<path fill="#DEE7E7" d="M380.8,28c0-0.2,0-0.4,0.1-0.6C381,27.6,381,27.8,380.8,28z"/>
	<path fill="#395B6B" d="M381.5,33.5c-0.1,0.2-0.3,0.1-0.4,0.1C381.2,33.4,381.3,33.5,381.5,33.5z"/>
	<path fill="#DEE7E7" d="M377.9,34c0.2,0,0.3-0.3,0.5-0.1C378.2,34.1,378,34,377.9,34z"/>
	<path fill="#DEE7E7" d="M381.3,34c-0.1,0-0.3,0-0.4,0C381.1,33.8,381.2,33.8,381.3,34z"/>
	<path fill="#395B6B" d="M385.9,16.5c0.1-0.1,0.2,0,0.2,0.1c0,0.2,0,0.4,0,0.6C385.9,16.9,386.1,16.7,385.9,16.5z"/>
	<path fill="#849EAC" d="M383.8,26.7c0,0.1,0,0.1-0.1,0.1c-0.1,0-0.1-0.1-0.1-0.2c0-0.1,0.1-0.1,0.1-0.1
		C383.8,26.5,383.8,26.6,383.8,26.7z"/>
	<path fill="#849EAC" d="M386.1,13.1c-0.1,0.4,0.1,0.8,0,1.2c-0.1,0-0.2,0.1-0.1,0.2c0.1,0.1,0.1,0.2,0.2,0.3
		c-0.2,0.1,0.2,0.5-0.2,0.4c-0.3-0.1-0.5,0-0.7,0c-0.9,0-1.8,0-2.7,0c0,0,0,0,0,0c-0.3-0.1-0.3-0.4-0.3-0.7c0-0.4,0.1-0.8-0.1-1.2
		c0,0,0-0.1,0-0.1c0-0.1,0-0.1,0-0.2c0.1-0.2,0.2-0.2,0.4-0.2c0.8,0,1.5,0,2.3,0c0,0,0,0,0,0.1c-0.3,0.1-0.7,0-1,0.1
		c0.1,0.1,0.2,0.1,0.3,0.1c0.2,0,0.4-0.1,0.7,0.1c0.2,0.2,0.4,0.1,0.5-0.2c0.1,0,0.3,0,0.4,0C385.9,13.1,386,13.1,386.1,13.1z"/>
	<path fill="#849EAC" d="M382.3,13.1c0,0.1,0,0.1,0,0.2c-0.1,0.1-0.1,0.2-0.1,0.3c-0.1,0.3,0,0.7-0.1,1.1c0,0.2,0,0.5-0.3,0.6
		c0,0,0,0,0,0c-0.4,0.1-0.7,0-1.1,0.1c-0.2,0-0.3,0-0.5,0c-0.5,0-1,0-1.5,0c0-0.6,0-1.2,0-1.8c-0.1-0.2-0.3,0.1-0.4-0.1
		c-0.1-0.2,0.2-0.2,0.2-0.3c0.4,0,0.8-0.1,1.3-0.1c0.4,0,0.7,0,1.1,0c0,0,0,0,0,0c0.3,0.3,0.7,0,1,0c0,0,0,0,0,0
		C382.1,13,382.2,13,382.3,13.1z"/>
	<path fill="#DEE7E7" d="M380.9,12.7c0.2-0.2,0.4-0.1,0.7-0.1c0.3,0,0.3-0.1,0.2-0.3c-0.2-0.3-0.1-0.5,0.2-0.7c-1-0.2-1-0.2-0.9-0.7
		c0,0.7,0.5,0.5,0.9,0.5c0.5,0,1,0,1.6,0.1c-0.2,0-0.5,0-0.9,0.1c0.4,0.1,0.6,0.2,0.2,0.4c-0.2,0.1,0.2,0.5-0.2,0.6
		c0.4,0,0.7,0,1.1,0c0.2,0,0.3,0,0.3-0.2c0-0.3,0-0.5,0.1-0.7c0.1-0.1-0.1-0.1-0.1-0.2c0.4-0.1,0.9,0.1,1.3,0.1
		c0.2,0,0.2,0.1,0.2,0.2c0.1,0.3,0.1,0.5,0,0.8c-0.1,0.3-0.5,0.1-0.7,0.2c-0.8,0-1.6,0-2.5,0c-0.1,0-0.2,0-0.3,0
		C381.7,12.7,381.3,12.7,380.9,12.7z M385,11.7c-0.4-0.1-0.4-0.1-0.5,0.3c0,0.2-0.1,0.2-0.2,0.4c-0.1,0.1-0.2,0.2-0.1,0.3
		c0.1,0.1,0.2-0.1,0.3-0.1C384.8,12.3,384.7,11.8,385,11.7z"/>
	<path fill="#395B6B" d="M381.8,15.2c0.3-0.1,0.2-0.4,0.3-0.6c0-0.4-0.1-0.7,0.1-1.1c0,0.4,0,0.8,0,1.3c0,0,0.1,0,0.1,0
		c0-0.5,0-1,0-1.4c0.1,0.4,0.1,0.8,0.1,1.2c0,0.3,0,0.5,0.3,0.7C382.4,15.2,382.1,15.2,381.8,15.2z"/>
	<path fill="#395B6B" d="M382.6,15.2c0.9,0,1.8,0,2.7,0c0.2,0,0.5-0.1,0.7,0c0.3,0.1,0-0.3,0.2-0.4c0.2,0.4,0.1,0.5-0.3,0.5
		c-0.9,0-1.9,0-2.8,0C382.9,15.3,382.7,15.3,382.6,15.2z"/>
	<path fill="#395B6B" d="M386,15.9c-0.2,0.3-0.4,0.5-0.6,0.6C385.3,16,385.3,15.9,386,15.9z"/>
	<path fill="#395B6B" d="M379.1,16c0.6,0,0.6,0,0.5,0.6C379.4,16.4,379.2,16.1,379.1,16z"/>
	<path fill="#849EAC" d="M378.5,15c0,0.1,0,0.1,0,0.2c-0.2-0.2-0.2-1.2-0.1-1.4c0,0,0.1,0,0.1,0c0,0,0,0,0,0
		C378.5,14.2,378.5,14.6,378.5,15z"/>
	<path fill="#395B6B" d="M378.4,13.8C378.4,13.8,378.4,13.8,378.4,13.8c-0.2,0.3-0.2,1.2,0,1.4c0,0,0,0.1,0,0.1
		c-0.1,0-0.2,0-0.2-0.1c-0.1-0.1-0.1-1.4-0.1-1.5C378.3,13.7,378.4,13.6,378.4,13.8z"/>
	<path fill="#395B6B" d="M382.4,12.7c0.8,0,1.6,0,2.5,0c0,0,0,0,0,0.1c-0.8,0-1.5,0-2.3,0C382.5,12.8,382.4,12.8,382.4,12.7z"/>
	<path fill="#395B6B" d="M378.5,17c-0.2-0.2-0.4-0.3-0.5-0.5C378.5,16.4,378.5,16.4,378.5,17z"/>
	<path fill="#395B6B" d="M378.7,15.3c0.5,0,1,0,1.5,0C379.7,15.4,379.2,15.4,378.7,15.3C378.7,15.3,378.7,15.3,378.7,15.3
		C378.7,15.3,378.7,15.3,378.7,15.3z"/>
	<path fill="#395B6B" d="M378.5,13.1c-0.1,0.1-0.3,0.1-0.2,0.3c0.1,0.2,0.3-0.1,0.4,0.1c0,0-0.1,0-0.1,0c-0.1,0.1-0.3,0.1-0.4,0
		c-0.1-0.1-0.1-0.2,0-0.3C378.2,13.1,378.4,13,378.5,13.1z"/>
	<path fill="#395B6B" d="M387,16.4c-0.1,0.1-0.1,0.2-0.1,0.2c-0.1,0.1-0.2,0.3-0.4,0.2c-0.1,0-0.1-0.1-0.1-0.2
		C386.6,16.4,386.8,16.4,387,16.4z"/>
	<path fill="#395B6B" d="M380.9,12.7c0.4,0,0.8,0,1.2,0C381.7,12.9,381.3,12.8,380.9,12.7C380.9,12.8,380.9,12.8,380.9,12.7z"/>
	<path fill="#395B6B" d="M378.5,15c0-0.4,0-0.8,0-1.3C378.6,14.2,378.6,14.6,378.5,15z"/>
	<path fill="#395B6B" d="M380.7,15.3c0.4-0.1,0.7,0,1.1-0.1C381.5,15.4,381.1,15.3,380.7,15.3z"/>
	<path fill="#849EAC" d="M380.9,12.9c0.4,0,0.8-0.1,1.1,0.1c0,0,0,0,0,0C381.6,13,381.3,13,380.9,12.9C380.9,13,380.9,13,380.9,12.9
		C380.9,12.9,380.9,12.9,380.9,12.9z"/>
	<path fill="#395B6B" d="M380.9,12.9C380.9,12.9,380.9,12.9,380.9,12.9c-0.4,0.1-0.7,0.1-1.1,0.1C380.2,12.8,380.5,12.9,380.9,12.9z
		"/>
	<path fill="#395B6B" d="M385,13C385,13,385,12.9,385,13c0.2-0.1,0.5,0,0.7-0.2c0,0,0.1,0,0.1,0c0,0.1,0,0.1,0.1,0.2
		c-0.1,0-0.3,0-0.4,0C385.3,13,385.1,13,385,13z"/>
	<path fill="#395B6B" d="M384,10.2c0,0.3,0,0.7,0,1c0,0,0,0,0,0C384,10.9,384,10.5,384,10.2C384,10.2,384,10.2,384,10.2z"/>
	<path fill="#395B6B" d="M387.3,12.9c-0.2,0-0.4,0.1-0.6-0.1C386.9,12.8,387.1,12.6,387.3,12.9z"/>
	<path fill="#395B6B" d="M380.5,8.4c0.1,0.1,0.3-0.1,0.3,0.2c0,0,0,0.1,0,0.1C380.7,8.6,380.6,8.6,380.5,8.4z"/>
	<path fill="#395B6B" d="M380.1,10.2c0.2-0.2,0.3-0.1,0.5,0C380.4,10.2,380.3,10.2,380.1,10.2z"/>
	<path fill="#395B6B" d="M384.9,6.5c-1.6,0-3.2,0-4.8,0c0.1-0.1,0.2-0.1,0.3-0.1c0.2,0,0.4,0,0.6,0c0.7,0,1.5,0,2.2,0
		c0.3,0,0.6,0,0.9,0C384.4,6.5,384.7,6.3,384.9,6.5z"/>
	<path fill="#849EAC" d="M381.1,6.4c-0.2,0-0.4,0-0.6,0c0-0.1-0.1-0.2,0.1-0.3c0.2-0.1,0.4,0,0.5,0C381.2,6.2,381.1,6.4,381.1,6.4z"
		/>
	<path fill="#849EAC" d="M384.1,6.4c-0.3,0-0.6,0-0.9,0C383.6,6.2,383.9,6.3,384.1,6.4z"/>
	<path fill="#395B6B" d="M382.1,1.7c0.2-0.2,0.4-0.1,0.6-0.1C382.5,1.8,382.3,1.8,382.1,1.7z"/>
	<path fill="#849EAC" d="M377.5,15.4c-0.7,0-0.7,0-0.7-0.7c0-0.3,0-0.6,0-0.9c0-0.1,0-0.2,0.2-0.2c0.9,0.1,0.9,0.1,0.9,1
		C378,15,377.8,15.2,377.5,15.4C377.5,15.4,377.5,15.4,377.5,15.4z"/>
	<path fill="#395B6B" d="M382.5,28.9c0.4,0,0.8,0.3,0.8,0.8c0,0.4-0.4,0.7-0.8,0.7c-0.4,0-0.8-0.3-0.8-0.7
		C381.7,29.3,382.1,28.9,382.5,28.9z"/>
	<path fill="#DEE7E7" d="M385,13c0.1,0,0.3,0,0.4,0c-0.1,0.3-0.2,0.4-0.5,0.2c-0.2-0.2-0.4-0.1-0.7-0.1c-0.1,0-0.2,0-0.3-0.1
		C384.3,12.9,384.7,13.1,385,13z"/>
	<path fill="#0C2B3A" d="M382.3,13.3c0,0.5,0,1,0,1.4c0,0-0.1,0-0.1,0c0-0.4,0-0.8,0-1.3C382.2,13.4,382.2,13.3,382.3,13.3
		C382.3,13.3,382.3,13.3,382.3,13.3z"/>
	<path fill="#DEE7E7" d="M380.9,13c0.3,0,0.7,0,1,0C381.6,13,381.3,13.4,380.9,13z"/>
	<path fill="#849EAC" d="M385,11.7c-0.4,0.1-0.2,0.6-0.5,0.8c-0.1,0-0.1,0.2-0.3,0.1c-0.1-0.1,0-0.2,0.1-0.3
		c0.1-0.1,0.2-0.2,0.2-0.4C384.6,11.6,384.6,11.6,385,11.7z"/>
</g>
<rect x="0" y="42.8" fill="#666666" width="400" height="7.1"/>
</svg>
