<?xml version="1.0" encoding="utf-8"?>
<!-- Generator: Adobe Illustrator 18.0.0, SVG Export Plug-In . SVG Version: 6.00 Build 0)  -->
<!DOCTYPE svg PUBLIC "-//W3C//DTD SVG 1.1//EN" "http://www.w3.org/Graphics/SVG/1.1/DTD/svg11.dtd">
<svg version="1.1" xmlns="http://www.w3.org/2000/svg" xmlns:xlink="http://www.w3.org/1999/xlink" x="0px" y="0px"
	 viewBox="418 115.7 320 447.6" enable-background="new 418 115.7 320 447.6" xml:space="preserve">
<g id="Tower">
	<g>
		<defs>
			<rect id="SVGID_1_" x="418" y="133.4" width="320" height="429.9"/>
		</defs>
		<clipPath id="SVGID_2_">
			<use xlink:href="#SVGID_1_"  overflow="visible"/>
		</clipPath>
		<g transform="matrix(1 0 0 1 0 7.629395e-06)" clip-path="url(#SVGID_2_)">
			
				<image overflow="visible" width="460" height="640" xlink:href="smeatons-photo.jpg"  transform="matrix(0.6957 0 0 0.6957 418.01 118.0926)">
			</image>
		</g>
	</g>
</g>
<g id="Tower_copy">
</g>
<g id="Waves">
	<g>
		<defs>
			<path id="SVGID_3_" d="M418,117.3v17.1h320.7l0-8.9c0,0,0.1-0.3-0.8-0.1c-1,0.2-4.6-2.5-4.5-7.2c0,0-1,7-4.7,7.1
				c-3.2,0.1-7.3-1-7.3-7.9c0,0-2.5,7.5-6.3,7.7c-2.4,0.1-7.6-4.6-7.8-9.2c0,0-1.1,11.2-8,9.2c-2.4-0.7-8-4.7-8.2-9.3
				c0,0-1,9.1-8.3,9.1c0,0,0,0,0,0c-2.3,0-7.6-4.5-7.8-9.1c0,0-1.1,11.2-8,9.3c-2.4-0.7-8-4.6-8.2-9.2c0,0-1.9,9.1-8.3,9.2
				c-2.4,0.1-7.6-4.6-7.8-9.2c0,0-1.1,11.2-8,9.2c-2.4-0.7-8-4.7-8.2-9.3c0,0-1,9.1-8.3,9.1c0,0,0,0,0,0c-2.3,0-7.6-4.5-7.8-9.1
				c0,0-1.1,11.2-8,9.3c-2.4-0.7-8-4.6-8.2-9.2c0,0-1.1,9.4-8.4,9.2c-4.3-0.1-13.1-2.2-13.1-6.8c0,0-1,7-4.7,7.1
				c-3.2,0.1-7.3-0.9-7.3-7.9c0,0-2.5,7.5-6.3,7.7c-2.4,0.1-7.6-4.6-7.8-9.2c0,0-1.1,11.2-8,9.2c-2.4-0.7-8-4.7-8.2-9.3
				c0,0-1,9.1-8.3,9.1c0,0,0,0,0,0c-2.3,0-7.6-4.5-7.8-9.1c0,0-1.1,11.2-8,9.3c-2.4-0.7-8-4.6-8.2-9.2c0,0-1.9,9.1-8.3,9.2
				c-2.4,0.1-7.6-4.6-7.8-9.2c0,0-1.1,11.2-8,9.2c-2.4-0.7-8-4.7-8.2-9.3c0,0-1,9.1-8.3,9.1c0,0,0,0,0,0c-2.3,0-7.6-4.5-7.8-9.1
				c0,0-1.1,11.2-8,9.3c-2.4-0.7-8-4.6-8.2-9.2c0,0-1.3,9.4-8.6,9.2C421.4,124.9,418,117.3,418,117.3"/>
		</defs>
		<clipPath id="SVGID_4_">
			<use xlink:href="#SVGID_3_"  overflow="visible"/>
		</clipPath>
		<g clip-path="url(#SVGID_4_)">
			
				<image overflow="visible" width="460" height="640" xlink:href="smeatons-photo.jpg"  transform="matrix(0.6986 0 0 0.7379 416.6805 113.7049)">
			</image>
		</g>
	</g>
</g>
</svg>
