<?xml version="1.0" encoding="utf-8"?>
<!-- Generator: Adobe Illustrator 18.0.0, SVG Export Plug-In . SVG Version: 6.00 Build 0)  -->
<!DOCTYPE svg PUBLIC "-//W3C//DTD SVG 1.1//EN" "http://www.w3.org/Graphics/SVG/1.1/DTD/svg11.dtd">
<svg version="1.1" id="Below" xmlns="http://www.w3.org/2000/svg" xmlns:xlink="http://www.w3.org/1999/xlink" x="0px" y="0px"
	 viewBox="0 0 2000 200" enable-background="new 0 0 2000 200" xml:space="preserve">
<path fill="#BDCCD4" stroke="#000000" stroke-linecap="round" stroke-linejoin="round" d="M1306.3,135.3"/>
<path fill="#FCFAFA" d="M-755,75v126h4011.5l-0.1-66c0,0,1.6-2.5-10.4-1c-12,1.6-57-18.5-56.5-53c0,0-13,51.3-58.5,52.3
	c-40.5,0.9-91-7.1-91-58.6c0,0-31,55.4-78.3,56.7c-29.7,0.8-95.4-34.1-97.5-68.1c0,0-13.3,82.3-99.5,68.1
	c-30.3-5-100-34.7-102.1-68.8c0,0-12.8,67.4-104.2,67.4c0,0,0.5,0,0.4,0c-29.2,0-95.4-33.3-97.5-67.4c0,0-13.4,82.7-99.5,68.4
	c-30.3-5-100-33.9-102.1-67.9c0,0-23.4,66.9-104.2,68.2c-29.6,0.5-95-34-97.1-68c0,0-13.4,82.4-99.5,68.1
	c-30.3-5-100-34.7-102.1-68.8c0,0-12.8,67.4-104.2,67.4c0,0,0.5,0,0.4,0c-29.2,0-95.4-33.3-97.5-67.4c0,0-13.4,82.7-99.5,68.4
	c-30.3-5-100-33.9-102.1-67.9c0,0-14.1,69.5-105.6,68.2c-54.3-0.8-164.3-16-163.8-50.5c0,0-13,51.4-58.5,52.4
	c-40.5,0.9-91-7-91-58.5c0,0-31,55.4-78.3,56.7c-29.7,0.8-95.4-34.1-97.5-68.1c0,0-13.3,82.3-99.5,68.1c-30.3-5-100-34.7-102.1-68.8
	c0,0-12.8,67.4-104.2,67.4c0,0,0.5,0,0.4,0c-29.2,0-95.4-33.3-97.5-67.4c0,0-13.4,82.7-99.5,68.4c-30.3-5-100-33.9-102.1-67.9
	c0,0-23.4,66.9-104.2,68.2c-29.6,0.5-95-34-97.1-68c0,0-13.4,82.4-99.5,68.1c-30.3-5-100-34.7-102.1-68.8c0,0-12.8,67.4-104.2,67.4
	c0,0,0.5,0,0.4,0c-29.2,0-95.4-33.3-97.5-67.4c0,0-13.4,82.7-99.5,68.4c-30.3-5-100-33.9-102.1-67.9c0,0-16,69.5-107.5,68.2
	c-54.3-0.8-96.3-56.4-96.3-56.4"/>
</svg>
