<?xml version="1.0" encoding="utf-8"?>
<!-- Generator: Adobe Illustrator 18.0.0, SVG Export Plug-In . SVG Version: 6.00 Build 0)  -->
<!DOCTYPE svg PUBLIC "-//W3C//DTD SVG 1.1//EN" "http://www.w3.org/Graphics/SVG/1.1/DTD/svg11.dtd">
<svg version="1.1" id="Layer_2" xmlns="http://www.w3.org/2000/svg" xmlns:xlink="http://www.w3.org/1999/xlink" x="0px" y="0px"
	 viewBox="0 73.8 2000 50" enable-background="new 0 73.8 2000 50" xml:space="preserve">
<path fill="#FFFFFF" d="M0,79v44.8h2000V99.4c0,0-18.6-0.7-24.2-0.2c-6.2,0.5-27.9-6.2-27.9-17.9c0,0-6.2,17.4-29.1,17.7
	c-19.8,0.2-44.6-2.5-44.6-19.9c0,0-15.5,18.9-38.4,19.2c-14.9,0.2-47.1-11.4-48.4-23.1c0,0-6.8,27.9-49,23.1
	c-14.9-1.7-49.6-11.7-50.2-23.4c0,0-6.2,22.9-51.5,22.9l0,0c-14.3,0-47.1-11.2-48.4-22.9c0,0-6.8,28.1-49,23.1
	c-14.9-1.7-49.6-11.4-50.2-23.1c0,0-11.8,22.6-51.5,23.1c-14.9,0.2-47.1-11.4-47.7-23.1c0,0-6.8,27.9-49,23.1
	c-14.9-1.7-49.6-11.7-50.2-23.4c0,0-6.2,22.9-51.5,22.9l0,0c-14.3,0-47.1-11.2-48.4-22.9c0,0-6.8,28.1-49,23.1
	c-14.9-1.7-49.6-11.4-50.2-23.1c0,0-6.8,23.6-52.1,23.1c-26.7-0.2-81.2-5.5-80.6-17.2c0,0-6.2,17.4-29.1,17.7
	c-19.8,0.2-44.6-2.5-44.6-19.9c0,0-15.5,18.9-38.4,19.2c-14.9,0.2-47.1-11.4-48.4-23.1c0,0-6.8,27.9-49,23.1
	c-14.9-1.7-49.6-11.7-50.2-23.4c0,0-6.2,22.9-51.5,22.9l0,0c-14.3,0-47.1-11.2-48.4-22.9c0,0-6.8,28.1-49,23.1
	c-14.9-1.7-49.6-11.4-50.2-23.1c0,0-11.8,22.6-51.5,23.1C434,97.4,401.7,85.7,401.1,74c0,0-6.8,27.9-49,23.1
	c-14.9-1.7-49.6-11.7-50.2-23.4c0,0-6.2,22.9-51.5,22.9l0,0c-14.3,0-47.1-11.2-48.4-22.9c0,0-6.8,28.1-49,23.1
	c-14.9-1.7-49.6-11.4-50.2-23.1c0,0-8.1,23.6-53.3,23.1C21.1,97.9,0,79,0,79"/>
</svg>
